<svg width="150" height="62" viewBox="0 0 150 62" fill="none" xmlns="http://www.w3.org/2000/svg">
<path d="M147.903 30.0615C147.903 30.3611 147.254 30.0615 147.054 29.8617L142.659 24.5684V30.0615C142.21 30.1114 141.91 30.0615 141.461 30.0615V22.2713C141.91 22.1215 142.11 22.3712 142.36 22.6708L146.704 27.6645V22.3712C147.154 22.2713 147.503 22.2713 147.903 22.3712V30.0615Z" fill="white"/>
<path d="M84.483 39.0008C84.483 41.198 82.6853 42.9957 80.4881 42.9957C78.2909 42.9957 76.4932 41.198 76.4932 39.0008C76.4932 36.8036 78.2909 35.0059 80.4881 35.0059C82.6853 35.0059 84.483 36.8036 84.483 39.0008ZM83.3345 39.0008C83.3345 37.4028 82.0361 36.1045 80.4382 36.1045C78.8402 36.1045 77.5418 37.4028 77.5418 39.0008C77.5418 40.5988 78.8402 41.8971 80.4382 41.8971C82.0361 41.8971 83.3345 40.5988 83.3345 39.0008Z" fill="white"/>
<path d="M103.758 26.2166C103.758 28.4138 101.961 30.2116 99.7635 30.2116C97.5663 30.2116 95.7686 28.4138 95.7686 26.2166C95.7686 24.0194 97.5663 22.2217 99.7635 22.2217C101.961 22.2217 103.758 24.0194 103.758 26.2166ZM102.66 26.2166C102.66 24.6186 101.361 23.3203 99.7635 23.3203C98.1655 23.3203 96.8672 24.6186 96.8672 26.2166C96.8672 27.8146 98.1655 29.113 99.7635 29.113C101.361 29.113 102.66 27.8146 102.66 26.2166Z" fill="white"/>
<path d="M139.963 26.2166C139.963 28.4138 138.165 30.2116 135.968 30.2116C133.77 30.2116 131.973 28.4138 131.973 26.2166C131.973 24.0194 133.77 22.2217 135.968 22.2217C138.165 22.2217 139.963 24.0194 139.963 26.2166ZM138.864 26.2166C138.864 24.6186 137.566 23.3203 135.968 23.3203C134.37 23.3203 133.071 24.6186 133.071 26.2166C133.071 27.8146 134.37 29.113 135.968 29.113C137.566 29.113 138.864 27.8146 138.864 26.2166Z" fill="white"/>
<path d="M106.505 51.8348C106.505 54.032 104.707 55.8297 102.51 55.8297C100.312 55.8297 98.5146 54.032 98.5146 51.8348C98.5146 49.6376 100.312 47.8398 102.51 47.8398C104.707 47.8398 106.505 49.6376 106.505 51.8348ZM105.406 51.8348C105.406 50.2368 104.108 48.9385 102.51 48.9385C100.912 48.9385 99.6133 50.2368 99.6133 51.8348C99.6133 53.4328 100.912 54.7311 102.51 54.7311C104.108 54.7311 105.406 53.4328 105.406 51.8348Z" fill="white"/>
<path d="M108.253 17.2282L106.705 14.2819H105.107V17.2282C104.757 17.3281 104.358 17.3281 103.958 17.2282V9.58789H107.553C108.652 9.58789 109.451 10.6366 109.551 11.5354C109.651 12.4343 109.101 13.6328 108.003 14.232L109.501 17.2782C109.101 17.3281 108.552 17.378 108.253 17.2782V17.2282ZM107.154 13.2333C108.003 13.2333 108.452 12.4343 108.402 11.7851C108.352 11.1359 107.753 10.5367 106.904 10.5367H105.107C105.107 10.5866 105.107 13.2333 105.107 13.2333H107.104H107.154Z" fill="white"/>
<path d="M115.194 42.8455L113.696 39.9492C113.147 39.7994 112.597 39.7994 111.998 39.8993V42.8455C111.549 42.8955 111.199 42.8955 110.85 42.8455V35.1553H114.145C115.344 35.1553 116.243 36.0042 116.443 37.0029C116.642 38.0017 116.143 39.2501 114.894 39.7495L116.443 42.8455C116.093 42.9454 115.544 42.9953 115.194 42.8455ZM114.095 38.8506C114.894 38.8506 115.344 38.1515 115.344 37.4524C115.344 36.7532 114.894 36.2539 114.245 36.2039H111.998C111.998 36.154 111.998 38.8007 111.998 38.8007H114.046L114.095 38.8506Z" fill="white"/>
<path d="M115.544 51.8348C115.544 54.032 113.746 55.8297 111.549 55.8297C109.351 55.8297 107.554 54.032 107.554 51.8348C107.554 49.6376 109.351 47.8398 111.549 47.8398C113.746 47.8398 115.544 49.6376 115.544 51.8348ZM114.395 51.8348C114.395 50.2368 113.097 48.9385 111.499 48.9385C109.901 48.9385 108.602 50.2368 108.602 51.8348C108.602 53.4328 109.901 54.7311 111.499 54.7311C113.097 54.7311 114.395 53.4328 114.395 51.8348Z" fill="white"/>
<path d="M141.061 17.328C140.911 17.5777 140.412 17.2281 140.262 17.0284L135.818 11.7351V17.2281C135.368 17.3779 134.969 17.3779 134.669 17.1283V9.5878C134.669 9.38805 135.168 9.43799 135.318 9.5878L139.912 14.8811L140.012 9.5878C140.362 9.53786 140.661 9.53786 141.111 9.5878V17.328H141.061Z" fill="white"/>
<path d="M97.0168 55.6295C96.6672 55.7793 96.2677 55.7293 95.8682 55.7293V52.3336H91.8733V55.7293C91.4239 55.7293 91.0244 55.7793 90.6748 55.7293V48.089H91.7734V51.3349C91.8233 51.3349 95.8183 51.3349 95.8183 51.3349V48.0391H96.9668V55.7293L97.0168 55.6295Z" fill="white"/>
<path d="M149.999 35.1559L149.85 43.2457L144.756 37.4031L144.656 42.8462H143.558V35.106C143.757 34.8563 144.257 35.2558 144.407 35.4555L148.751 40.4991L148.851 35.2059H149.95L149.999 35.1559Z" fill="white"/>
<path d="M108.902 42.7963C108.452 42.9461 108.103 42.8962 107.753 42.7963V39.4505H103.758V42.7963C103.359 42.8462 103.009 42.8462 102.56 42.7963V35.106H103.658V38.4019C103.708 38.4019 107.703 38.4019 107.703 38.4019V35.156C108.103 35.0561 108.452 35.0561 108.902 35.156V42.7963Z" fill="white"/>
<path d="M89.1271 9.5876C89.5266 9.48773 89.9261 9.48773 90.2756 9.5876V14.4315C90.2756 16.1793 89.0272 17.4277 87.2794 17.4277C85.5316 17.4277 84.2832 16.3291 84.2832 14.6312V9.63754C84.6328 9.48773 84.9823 9.48773 85.4318 9.63754V14.6312C85.4318 15.6299 86.3306 16.2791 87.1795 16.3291C88.0285 16.379 89.0771 15.8297 89.0771 14.831V9.68747L89.1271 9.5876Z" fill="white"/>
<path d="M81.4863 15.6303H77.9408L77.1918 17.0785C77.042 17.3781 76.3429 17.3282 75.9434 17.1784L79.6886 9.18848L83.4339 17.1784C83.0843 17.3282 82.535 17.3781 82.2853 17.1784C81.8858 16.8288 81.8359 16.2296 81.5363 15.6803L81.4863 15.6303ZM80.987 14.5317L79.5887 11.6354L78.2904 14.5816H80.987V14.5317Z" fill="white"/>
<path d="M115.743 15.6305H112.048L111.349 17.0786C111.199 17.3283 110.6 17.3283 110.15 17.0786L113.846 9.13867L117.591 17.0287C117.341 17.3283 116.642 17.3283 116.392 17.0786C116.143 16.8289 115.943 16.2297 115.743 15.5805V15.6305ZM115.194 14.5318L113.896 11.6355L112.547 14.5818C113.496 14.5818 114.195 14.7316 115.244 14.5318H115.194Z" fill="white"/>
<path d="M140.711 41.2974L137.116 41.1976L136.317 42.7456C136.167 43.0452 135.468 42.9953 135.118 42.7456L138.863 34.8057L142.559 42.7456C142.259 42.9454 141.61 42.9953 141.41 42.7456C141.061 42.3961 141.011 41.8967 140.711 41.2475V41.2974ZM140.212 40.1988L138.863 37.1527L137.465 40.1988H140.212Z" fill="white"/>
<path d="M131.723 15.5805H128.177L127.378 17.1286C127.228 17.4282 126.529 17.2784 126.18 17.1286L129.925 9.13867L133.62 17.1286C133.271 17.2784 132.572 17.3782 132.422 17.1286L131.673 15.5805H131.723ZM131.273 14.5318L129.925 11.5856L128.577 14.5818H131.273V14.5318Z" fill="white"/>
<path d="M81.4363 28.4145H77.8908L77.1417 29.9126C76.9919 30.2622 76.093 30.1623 75.9932 29.8127L79.6885 21.9727L83.4337 29.9126C83.1341 30.0624 82.5349 30.1623 82.2852 29.9126C81.8857 29.563 81.7858 28.9139 81.4862 28.3146L81.4363 28.4145ZM80.9868 27.3658L79.6386 24.4196L78.2903 27.3658H80.9868Z" fill="white"/>
<path d="M120.687 28.4145H117.091L116.292 29.9625C116.092 30.1623 115.493 30.1124 115.094 29.9625L118.839 21.9727L122.534 29.9625C122.185 30.1623 121.586 30.2122 121.386 29.9625C121.036 29.563 120.936 29.0637 120.637 28.4145H120.687ZM120.237 27.4158L118.839 24.3696L117.491 27.4158H120.237Z" fill="white"/>
<path d="M106.056 26.0173C106.006 27.2658 106.655 28.2146 107.554 28.7139C108.452 29.2133 109.751 29.0635 110.75 28.3144C111.748 27.5654 111.698 28.8637 111.499 29.0635C109.951 30.6615 107.354 30.5116 105.906 28.9636C104.458 27.4156 104.408 24.9687 105.906 23.3707C107.404 21.7727 109.901 21.6728 111.449 23.2708C112.997 24.8688 110.949 24.2196 110.7 24.0199C109.801 23.3707 108.802 23.0711 107.703 23.5205C106.605 23.9699 106.105 24.7689 106.006 25.9674L106.056 26.0173Z" fill="white"/>
<path d="M83.8332 50.8859C83.3838 52.1843 83.9331 53.5326 84.9318 54.1818C85.9306 54.8309 87.3288 54.781 88.4274 53.9321C89.526 53.0831 89.3762 54.4314 89.1765 54.6811C87.6784 56.329 85.0816 56.1293 83.5835 54.6811C82.0854 53.233 82.0854 50.6362 83.5835 49.0882C85.0816 47.5402 87.6784 47.4403 89.1765 49.0383C88.6272 50.836 87.8282 48.5888 85.7808 49.1381C83.7333 49.6874 84.1828 49.9871 83.8332 50.9858V50.8859Z" fill="white"/>
<path d="M95.6188 38.5516C95.469 39.7501 95.9683 40.6989 96.7673 41.2981C98.5651 42.6964 100.063 40.9985 100.563 41.1483C101.062 41.2981 101.212 41.6976 101.012 41.8974C99.4639 43.4454 96.9671 43.2956 95.469 41.8475C93.9709 40.3993 93.9209 37.8525 95.3691 36.2545C96.8173 34.6566 99.364 34.5067 100.962 36.1047C102.56 37.7027 100.513 37.0535 100.213 36.8538C99.3141 36.2046 98.3653 35.905 97.2667 36.3544C96.1681 36.8038 95.7187 37.453 95.5189 38.6016L95.6188 38.5516Z" fill="white"/>
<path d="M93.371 30.0122C92.1725 30.4117 90.7743 30.162 89.8754 29.3131C88.9766 28.4642 90.1751 28.2145 90.5246 28.4642C91.2237 28.9636 91.8729 29.413 92.7218 29.1633C93.5708 28.9136 93.4709 28.6639 93.5208 28.3643C93.5708 28.0647 93.4209 27.5154 93.0214 27.3156L91.2737 26.4168C90.5246 26.0173 89.9753 25.468 89.8754 24.7189C89.7756 23.9699 90.0752 23.071 90.8242 22.6715C91.9728 22.0723 93.3211 22.2221 94.3697 22.9711C95.4184 23.7202 94.3697 23.4206 94.3198 23.5704C93.8704 24.4193 93.1213 22.9711 91.773 23.3706C90.4247 23.7701 91.1239 23.8201 91.024 24.1197C90.9241 24.4193 91.1239 25.0185 91.5233 25.2183L93.5208 26.217C94.3198 26.6165 94.8192 27.3156 94.7692 28.1646C94.7193 29.0135 94.3198 29.7126 93.371 30.0622V30.0122Z" fill="white"/>
<path d="M124.183 42.8955C122.934 43.1952 121.586 42.8955 120.787 41.9967C120.787 41.6471 121.137 41.2476 121.436 41.1477C122.085 41.7969 122.884 42.1964 123.733 41.9467C124.582 41.697 124.432 41.5472 124.482 41.2476C124.582 40.7982 124.482 40.3488 124.033 40.0991L122.185 39.1503C121.286 38.7008 120.787 37.9518 120.837 37.003C120.887 36.0542 121.586 35.3051 122.635 35.1054C123.683 34.9056 124.632 35.1054 125.381 35.7546C126.13 36.4037 125.082 36.7533 124.832 36.6534C124.133 36.3039 123.584 35.9044 122.835 36.1041C122.085 36.3039 122.036 36.5536 122.036 36.9531C122.036 37.3525 122.235 37.802 122.635 38.0017L124.732 39.0504C125.531 39.4499 125.881 40.2988 125.781 41.1477C125.681 41.9967 125.132 42.6458 124.183 42.8955Z" fill="white"/>
<path d="M80.7371 55.2298C79.4886 56.1786 77.641 55.929 76.5424 54.8303C75.4437 53.7317 76.8919 53.8316 77.1416 53.9814C77.8407 54.4308 78.44 54.8803 79.2889 54.7305C80.1378 54.5807 80.1378 54.281 80.1877 53.8815C80.2377 53.482 80.0879 52.9827 79.6384 52.7829L77.7908 51.8341C76.8919 51.3847 76.3926 50.5358 76.5923 49.537C76.792 48.5383 77.5411 47.8392 78.6397 47.7893C79.7383 47.7393 80.4874 47.8392 81.0866 48.5383C81.6859 49.2374 80.8369 49.4871 80.4874 49.3373C79.8881 48.9877 79.3388 48.6881 78.6397 48.8379C77.9406 48.9877 77.7908 49.2374 77.7408 49.6869C77.6909 50.1363 77.8907 50.5857 78.3401 50.7855L80.3376 51.7842C80.9867 52.0838 81.3363 52.733 81.4362 53.2823C81.536 53.8316 81.4362 54.7305 80.7371 55.2298Z" fill="white"/>
<path d="M125.83 55.53C124.632 56.0294 123.084 55.7797 122.235 54.8309C121.386 53.8821 122.534 53.8322 122.834 54.0319C123.583 54.5812 124.332 55.0307 125.231 54.6312C126.13 54.2317 125.78 54.1817 125.83 53.8821C125.88 53.5825 125.73 53.0831 125.381 52.8834L123.533 51.9346C122.584 51.4352 122.035 50.7361 122.135 49.6874C122.235 48.6387 122.834 48.0395 123.883 47.8897C124.931 47.7399 125.98 47.8897 126.629 48.5888C127.278 49.2879 126.33 49.5875 126.03 49.4377C125.431 49.0882 124.881 48.7886 124.182 48.8884C123.483 48.9883 123.333 49.2879 123.234 49.7374C123.134 50.1868 123.383 50.6362 123.833 50.836L125.73 51.7348C126.529 52.1343 126.979 52.7835 126.979 53.5825C126.979 54.3815 126.629 55.1305 125.73 55.53H125.83Z" fill="white"/>
<path d="M87.6289 29.9119C86.0809 30.611 83.6839 29.862 83.9835 28.7634C84.2831 27.6647 85.3318 29.6622 86.8299 29.063C88.328 28.4637 87.529 28.6135 87.529 28.264C87.529 27.9144 87.4291 27.465 87.0796 27.2653L85.1321 26.2665C84.2831 25.8171 83.8337 25.118 83.8836 24.2191C83.9336 23.3202 84.4829 22.5712 85.4317 22.3215C86.9298 21.922 88.9772 22.6211 88.328 23.4701C87.6788 24.319 87.1795 22.9208 85.8811 23.2204C84.5828 23.52 85.1321 23.6698 85.0821 23.9694C85.0322 24.269 85.2319 24.9182 85.6814 25.118L87.8286 26.1666C88.5278 26.5162 88.8773 27.3152 88.8773 28.0143C88.8773 28.7134 88.5278 29.4625 87.6788 29.812L87.6289 29.9119Z" fill="white"/>
<path d="M95.3186 17.1787C94.1201 17.5782 92.6719 17.2786 91.823 16.4297C90.9741 15.5807 92.1726 15.4809 92.3723 15.5807C93.0714 16.0302 93.6707 16.4796 94.5196 16.3298C95.3685 16.18 95.3685 15.9303 95.4684 15.5308C95.5683 15.1313 95.3186 14.5321 94.8192 14.2824L93.0215 13.4335C92.1226 12.984 91.7231 12.0852 91.823 11.1863C91.9229 10.2874 92.7718 9.48845 93.8205 9.38857C94.8691 9.2887 95.768 9.48845 96.3673 10.1376C96.4671 10.3374 96.0177 10.9865 95.8179 10.9366C95.2187 10.6869 94.7193 10.2874 94.0202 10.3873C93.3211 10.4872 93.0714 10.7868 92.9716 11.2862C92.8717 11.7855 93.1713 12.185 93.6707 12.4347L95.4684 13.2836C96.2674 13.6831 96.7667 14.3323 96.7667 15.1812C96.7667 16.0302 96.3173 16.8292 95.3186 17.1288V17.1787Z" fill="white"/>
<path d="M90.1252 38.7507C90.325 38.8007 90.325 39.4498 90.2251 39.6995H87.129C87.129 39.7495 87.0791 42.8455 87.0791 42.8455C86.6796 42.8955 86.4299 42.8955 85.9805 42.8455V35.1553H90.7245C90.8243 35.5048 90.8243 35.8045 90.7245 36.154H87.0791V38.7008L90.0753 38.8007L90.1252 38.7507Z" fill="white"/>
<path d="M100.612 17.1784C100.312 17.3282 99.9127 17.3282 99.4633 17.1784V10.6367C98.7642 10.4869 98.115 10.5868 97.4658 10.5868V9.53809H102.559C102.709 9.93758 102.709 10.2372 102.559 10.5868H100.612V17.1784Z" fill="white"/>
<path d="M129.726 42.7956C129.376 42.8955 128.977 42.8955 128.577 42.7956V36.154H126.63C126.53 35.8045 126.53 35.5048 126.63 35.1553H131.673C131.773 35.5048 131.773 35.8045 131.673 36.2039H129.726V42.8455V42.7956Z" fill="white"/>
<path d="M125.98 29.9127C125.78 30.1623 125.181 30.1124 124.831 30.0125V23.3709H122.884C122.834 23.0214 122.784 22.7218 122.884 22.3223H127.977C128.077 22.7218 128.027 23.0214 127.977 23.3709H126.03V29.9127H125.98Z" fill="white"/>
<path d="M121.335 54.6311C121.435 54.9307 121.435 55.3302 121.335 55.7297H117.091V48.0395C117.44 47.8897 117.79 47.8897 118.239 47.9895V54.6311H121.385H121.335Z" fill="white"/>
<path d="M122.785 16.2793C123.034 16.2793 123.034 17.0782 122.785 17.2281H118.54V9.5378C118.94 9.43792 119.289 9.43792 119.689 9.5378V16.1294C119.739 16.1294 122.735 16.2293 122.735 16.2293L122.785 16.2793Z" fill="white"/>
<path d="M119.271 35.0299L118.072 35.0361L118.113 42.7762L119.311 42.77L119.271 35.0299Z" fill="white"/>
<path d="M134.142 35.2361L132.943 35.2402L132.97 42.9804L134.169 42.9762L134.142 35.2361Z" fill="white"/>
<path d="M125.281 17.1288C125.082 17.3785 124.482 17.2786 124.133 17.1288V9.58836C124.482 9.43855 124.832 9.38861 125.281 9.48848V17.0789V17.1288Z" fill="white"/>
<path d="M130.475 22.3223H129.326V30.0625H130.475V22.3223Z" fill="white"/>
<path d="M114.095 22.5713H112.946V30.3115H114.095V22.5713Z" fill="white"/>
<path d="M0.339648 26.617C0.239648 26.617 0.239648 26.517 0.339648 26.417V26.617Z" fill="#9F9F9F"/>
<path d="M68.4535 28.414C68.3536 28.7636 68.054 28.6138 67.8043 28.7136L44.7835 39.4501L44.384 39.6498C44.4839 39.4001 44.384 39.1504 44.2342 38.8009L36.6937 23.72C36.2942 22.9709 36.0446 22.2718 35.4453 21.5727L39.4403 16.2794C39.7399 15.8799 40.1394 15.6302 40.2892 15.1808L45.8821 7.84007L51.9244 0L68.4535 28.414Z" fill="#757575"/>
<path d="M0.689401 24.9684C1.38852 25.1182 1.83795 25.5677 2.48712 25.9172L18.367 35.1056C18.8664 35.4052 19.1161 35.3553 19.5655 35.7548C20.4644 36.5038 21.6628 37.0531 22.6616 37.5525L23.2109 37.7023L24.8089 38.751C25.3082 39.0506 25.508 39.1005 25.9574 39.4002L28.4542 40.8483L31.8999 42.8458C32.4492 43.1454 32.8986 43.6947 33.5478 43.8445C34.197 43.9943 33.7975 44.0443 33.7975 44.1442C33.7975 44.244 33.7475 44.3439 33.6976 44.4438V44.6435L5.78295 57.6271L0.339844 26.6163V26.4166V26.067V24.7188C0.489654 24.7188 0.589528 24.9185 0.689401 24.9185V24.9684Z" fill="#595959"/>
<path d="M23.2605 4.59473C23.61 4.74454 23.4103 5.04416 23.4103 5.34378L23.2605 13.084L23.1107 25.4683L23.0108 36.9038C23.0108 37.2534 23.0108 37.5031 22.6113 37.6029C21.6125 37.0536 20.4141 36.5543 19.5152 35.8052C18.6163 35.0562 18.8161 35.4557 18.3167 35.156L2.43683 25.9177C1.78765 25.5182 1.33822 25.0688 0.639102 24.9689C0.539229 24.5694 0.539229 23.9203 1.0386 23.8204C1.53796 23.7205 1.5879 23.8204 1.63784 23.6206C2.08727 22.7717 2.5367 23.0214 2.43683 22.3223L12.7737 13.4835L23.1606 4.59473H23.2605Z" fill="#898989"/>
<path d="M51.7744 54.6307C51.8742 54.6307 51.9741 54.5808 52.024 54.5309C52.074 54.4809 51.8243 54.3811 51.8243 54.2812C51.7244 53.3823 51.0752 52.7831 50.7756 52.034C50.476 51.285 50.4261 51.1352 50.1764 50.6358L45.1827 40.7982C44.933 40.3488 44.8831 39.9493 44.7832 39.4999L67.8041 28.7635C68.0537 28.6636 68.4033 28.7635 68.4532 28.4639L65.0575 49.0878C64.9577 49.7869 64.658 50.3362 64.8078 51.1851L52.3736 54.9304C52.024 55.0302 51.9242 54.7306 51.7744 54.6807V54.6307Z" fill="#9F9F9F"/>
<path d="M40.2889 15.2305C40.1391 15.63 39.7396 15.9296 39.44 16.3291L35.4451 21.6224L23.1606 37.8019L22.6113 37.6521C22.9609 37.5023 22.9609 37.3025 23.0108 36.953L23.1107 25.5174L23.2605 13.1331L23.4103 5.39292C23.4103 5.14324 23.6101 4.79368 23.2605 4.64387C23.6101 4.34425 23.9097 4.74374 24.2093 4.94349L27.6549 7.29052C28.1044 7.59014 28.7536 7.98963 29.203 8.18938C29.6524 8.38913 30.002 8.8885 30.5513 9.23805L35.5949 12.5339L39.3401 14.9808C39.6897 15.2305 39.9394 15.4802 40.2889 15.3303V15.2305Z" fill="#9F9F9F"/>
<path d="M35.4446 21.623C36.0438 22.3222 36.2935 22.9713 36.693 23.7703L44.2335 38.8512C44.3833 39.2008 44.4832 39.4505 44.3833 39.7002L35.2449 43.9947C34.9452 44.1445 34.5957 44.2444 34.3959 44.544H33.9964H33.6469C33.6968 44.4442 33.7468 44.3443 33.7468 44.2444C33.7468 44.1445 33.6469 43.9947 33.4971 43.9448C32.8479 43.795 32.3985 43.2457 31.8492 42.9461L28.4035 40.9486L25.9067 39.5004C25.4572 39.2507 25.2076 39.2008 24.7581 38.8512L23.1602 37.8026L35.4446 21.623Z" fill="#4F4F4F"/>
<path d="M51.7745 54.631L47.7795 52.2839L42.8358 49.3377C42.8358 48.4388 41.2878 48.4388 40.4888 47.7397C39.6898 47.0406 38.6411 46.8408 37.8921 46.2416C37.143 45.6424 35.9945 45.2928 35.3453 44.7435C35.3453 44.4938 35.1955 44.4439 35.0956 44.3939C34.9458 44.2941 35.0956 43.9944 35.1955 43.9445L44.3339 39.6499L44.7334 39.4502C44.8333 39.8996 44.8832 40.2991 45.1329 40.7486L50.1266 50.5861C50.3763 51.0855 50.5261 51.485 50.7258 51.9843C51.0754 52.7334 51.6746 53.3326 51.7745 54.2315C51.8744 55.1303 52.0242 54.3813 51.9742 54.4812C51.9243 54.581 51.8244 54.631 51.7246 54.581L51.7745 54.631Z" fill="#898989"/>
<path d="M63.0606 61.2225L54.9209 56.5285L63.9595 55.7295L63.0606 61.2225Z" fill="#757575"/>
<path d="M42.8358 49.3375L41.7871 48.938L37.8921 46.6409C36.6936 45.9418 35.4452 45.3925 34.3965 44.4936C34.5962 44.194 34.9458 44.0941 35.2454 43.9443C35.1455 43.9943 34.9957 44.2939 35.1455 44.3938C35.2953 44.4936 35.3453 44.4936 35.3952 44.7433C35.9945 45.2926 36.9433 45.4924 37.942 46.2414C38.9407 46.9905 39.8396 47.0404 40.5387 47.7395C41.2378 48.4386 42.8857 48.4386 42.8857 49.3375H42.8358Z" fill="#9F9F9F"/>
<path d="M2.53674 22.3223C2.63661 23.0214 2.13724 22.7717 1.73775 23.6206C1.33826 24.4695 1.28832 23.7704 1.13851 23.8204C0.589204 23.9202 0.639141 24.5694 0.739014 24.9689C0.639141 24.9689 0.539267 24.8191 0.439393 24.7692V26.1175C0.0398992 25.718 -0.209785 24.6194 0.239646 24.2199L2.53674 22.3223Z" fill="#9F9F9F"/>
<path d="M33.9975 44.4941C33.9475 44.6441 33.7475 44.6441 33.6475 44.6941V44.4941H33.9975Z" fill="#9F9F9F"/>
</svg>
