<svg width="150" height="52" viewBox="0 0 150 52" fill="none" xmlns="http://www.w3.org/2000/svg">
<path d="M94.1939 49.8365C93.7496 49.8365 93.3477 49.7648 92.9604 49.6357C92.5876 49.5066 92.2572 49.3058 91.999 49.0475L92.4294 48.5598C92.6446 48.7606 92.9028 48.9184 93.2332 49.0332C93.5629 49.1479 93.8927 49.2053 94.237 49.2053C94.5097 49.2053 94.7395 49.1766 94.9401 49.1192C95.1408 49.0618 95.2989 48.9758 95.4135 48.861C95.5281 48.7463 95.5857 48.5884 95.5857 48.4163C95.5857 48.2585 95.5281 48.1294 95.4281 48.029C95.3274 47.9286 95.1698 47.8568 94.9546 47.7994C94.7395 47.742 94.4522 47.6847 94.0648 47.6129C93.6344 47.5412 93.3047 47.4695 93.0465 47.3834C92.7882 47.2973 92.5876 47.1826 92.4439 47.0104C92.3003 46.8526 92.2288 46.6231 92.2288 46.3362C92.2288 46.0206 92.3148 45.7623 92.5015 45.5615C92.6876 45.3606 92.9173 45.2028 93.2186 45.1025C93.5199 45.002 93.8357 44.959 94.18 44.959C94.5958 44.959 94.9686 45.0163 95.3129 45.1311C95.6572 45.2459 95.9585 45.418 96.2167 45.6332L95.8154 46.1497C95.6002 45.9631 95.3559 45.8197 95.0692 45.7193C94.7825 45.6189 94.4667 45.5615 94.1224 45.5615C93.7636 45.5615 93.4768 45.6189 93.2616 45.7193C93.0465 45.8197 92.9319 45.9919 92.9319 46.2071C92.9319 46.3649 92.9749 46.4796 93.075 46.5657C93.161 46.6517 93.3047 46.7235 93.4914 46.7809C93.6775 46.8383 93.9502 46.8813 94.2945 46.9387C94.7395 46.996 95.0977 47.0821 95.385 47.1826C95.6717 47.283 95.9015 47.4121 96.0591 47.5986C96.2167 47.7851 96.3028 48.0146 96.3028 48.3159C96.3028 48.6458 96.2027 48.9184 96.016 49.1479C95.8154 49.3775 95.5572 49.5352 95.2414 49.6501C94.9256 49.7648 94.5673 49.8078 94.18 49.8078" fill="white"/>
<path d="M99.0146 49.7516L97.2646 45.0605H98.0393L99.3304 48.6757H99.5026L100.837 45.0605H101.611L102.946 48.6757H103.118L104.423 45.0605H105.169L103.404 49.7516H102.644L101.296 46.2369H101.123L99.7754 49.7516H99.0146Z" fill="white"/>
<path d="M0 33.5415L1.21939 32.8815C1.3772 32.7955 1.40589 32.7524 1.40589 32.6089V24.934C1.40589 24.7761 1.3772 24.7475 1.21939 24.6614L0 24.0015V23.8867H4.20331V24.0015L2.98393 24.6614C2.82612 24.7475 2.81178 24.7905 2.81178 24.934V32.6089C2.81178 32.7668 2.81178 32.8098 2.98393 32.8815L4.20331 33.5415V33.6562H0V33.5415Z" fill="white"/>
<path d="M9.35361 33.5548L10.3148 32.9809C10.4726 32.8806 10.5013 32.8375 10.5013 32.7084V29.4088C10.5156 28.1321 10.0135 27.5582 9.21019 27.5582C8.52159 27.5582 7.97641 28.003 7.63211 28.6916V32.694C7.63211 32.8518 7.63217 32.8949 7.80432 32.9666L8.77981 33.5548V33.6552H5.19336V33.5548L6.19757 32.9809C6.34099 32.8949 6.35536 32.8375 6.35536 32.694V28.0747C6.35536 27.9025 6.34105 27.8739 6.21194 27.7734L5.19336 26.9844V26.884H7.5604V28.3903C7.93337 27.3718 8.66507 26.7549 9.72664 26.7549C11.0752 26.7549 11.8211 27.6156 11.8211 29.4376V32.7084C11.8068 32.8662 11.8211 32.9236 11.9646 32.9953L12.9688 33.5692V33.6695H9.38234V33.5692L9.35361 33.5548Z" fill="white"/>
<path d="M16.0673 33.7846C14.6184 33.7846 13.4277 32.4504 13.4277 30.3416C13.4277 28.0319 14.8049 26.7265 16.3399 26.7265C17.1433 26.7265 17.6884 27.1281 18.0614 27.6589V24.8615C18.0614 24.7037 18.0614 24.6463 17.9179 24.5602L17.0141 23.9721V23.8716L19.3525 23.5273V32.4791C19.3525 32.6513 19.3669 32.6799 19.5103 32.7804L20.4571 33.5407V33.6411H18.1331V32.3213C17.7458 33.2968 16.9568 33.7846 16.0673 33.7846ZM16.5695 33.053C17.1289 33.053 17.6884 32.723 18.0614 31.9913V28.1037C17.7315 27.6159 17.2007 27.329 16.6555 27.329C15.7087 27.329 14.8192 28.1897 14.8192 30.1838C14.8192 32.1779 15.6513 33.0386 16.5551 33.0386" fill="white"/>
<path d="M21.1172 30.3273C21.1172 27.8169 22.5374 26.7266 24.0437 26.7266C25.55 26.7266 26.7407 27.7164 26.7407 29.5384V29.8539H22.4226V30.0548C22.4226 32.0632 23.4412 32.9239 24.6032 32.9239C25.464 32.9239 26.2099 32.5366 26.7264 31.4607L26.8412 31.4893C26.4825 33.0244 25.464 33.7847 24.0868 33.7847C22.48 33.7847 21.1172 32.6801 21.1172 30.3273ZM24.015 27.1426C23.1112 27.1426 22.5374 28.0033 22.437 29.4953H25.464C25.4209 28.0894 25.0049 27.1426 24.015 27.1426Z" fill="white"/>
<path d="M27.4004 36.6535L28.4046 36.0796C28.548 35.9936 28.5624 35.9362 28.5624 35.7927V28.0747C28.5624 27.9025 28.5624 27.8595 28.4189 27.7734L27.4004 26.9844V26.884H29.7674V28.3042C30.2552 27.1853 30.9868 26.7549 31.9193 26.7549C33.4399 26.7549 34.4728 28.089 34.4728 30.1548C34.4585 32.4789 33.1817 33.813 31.6181 33.813C30.7573 33.813 30.1978 33.4543 29.8535 32.9523V35.7353C29.8535 35.9075 29.8822 35.9505 30.04 36.0223L31.4889 36.6822V36.7826H27.4147V36.6822L27.4004 36.6535ZM31.2164 33.2105C32.321 33.2105 33.067 32.1776 33.067 30.2265C33.067 28.6055 32.407 27.4865 31.3741 27.4865C30.7573 27.4865 30.2265 27.8595 29.8392 28.6055V32.4789C30.1835 32.9666 30.6425 33.1961 31.2164 33.1961" fill="white"/>
<path d="M35.6201 30.3273C35.6201 27.8169 37.0404 26.7266 38.5467 26.7266C40.053 26.7266 41.2436 27.7164 41.2436 29.5384V29.8539H36.9256V30.0548C36.9256 32.0632 37.9441 32.9239 39.1061 32.9239C39.9669 32.9239 40.7129 32.5366 41.2293 31.4607L41.3441 31.4893C40.9854 33.0244 39.9669 33.7847 38.5897 33.7847C36.9829 33.7847 35.6201 32.6801 35.6201 30.3273ZM38.518 27.1426C37.6142 27.1426 37.0404 28.0033 36.9399 29.4953H39.9669C39.9239 28.0894 39.5078 27.1426 38.518 27.1426Z" fill="white"/>
<path d="M46.2218 33.5548L47.183 32.9809C47.3408 32.8806 47.3695 32.8375 47.3695 32.7084V29.4088C47.3838 28.1321 46.8817 27.5582 46.0783 27.5582C45.3897 27.5582 44.8446 28.003 44.5003 28.6916V32.694C44.5003 32.8518 44.5003 32.8949 44.6724 32.9666L45.648 33.5548V33.6552H42.0615V33.5548L43.0657 32.9809C43.2092 32.8949 43.2235 32.8375 43.2235 32.694V28.0747C43.2235 27.9025 43.2092 27.8739 43.0801 27.7734L42.0615 26.9844V26.884H44.4286V28.3903C44.8015 27.3718 45.5332 26.7549 46.5948 26.7549C47.9433 26.7549 48.6893 27.6156 48.6893 29.4376V32.7084C48.6749 32.8662 48.6893 32.9236 48.8328 32.9953L49.8369 33.5692V33.6695H46.2505V33.5692L46.2218 33.5548Z" fill="white"/>
<path d="M52.9648 33.7846C51.5159 33.7846 50.3252 32.4504 50.3252 30.3416C50.3252 28.0319 51.7024 26.7265 53.2374 26.7265C54.0408 26.7265 54.5859 27.1281 54.9589 27.6589V24.8615C54.9589 24.7037 54.9589 24.6463 54.8154 24.5602L53.9117 23.9721V23.8716L56.25 23.5273V32.4791C56.25 32.6513 56.2644 32.6799 56.4078 32.7804L57.3547 33.5407V33.6411H55.0306V32.3213C54.6433 33.2968 53.8543 33.7846 52.9648 33.7846ZM53.4669 33.053C54.0264 33.053 54.5859 32.723 54.9589 31.9913V28.1037C54.6289 27.6159 54.0981 27.329 53.553 27.329C52.6062 27.329 51.7168 28.1897 51.7168 30.1838C51.7168 32.1779 52.5488 33.0386 53.4526 33.0386" fill="white"/>
<path d="M57.957 30.3273C57.957 27.8169 59.377 26.7266 60.8833 26.7266C62.3896 26.7266 63.5807 27.7164 63.5807 29.5384V29.8539H59.2625V30.0548C59.2625 32.0632 60.2808 32.9239 61.4428 32.9239C62.3036 32.9239 63.0497 32.5366 63.5662 31.4607L63.6808 31.4893C63.3225 33.0244 62.3036 33.7847 60.9264 33.7847C59.32 33.7847 57.957 32.6801 57.957 30.3273ZM60.8694 27.1426C59.9656 27.1426 59.3916 28.0033 59.291 29.4953H62.3181C62.2751 28.0894 61.8592 27.1426 60.8694 27.1426Z" fill="white"/>
<path d="M68.6298 33.5548L69.5912 32.9809C69.7488 32.8806 69.7779 32.8375 69.7779 32.7084V29.4088C69.7918 28.1321 69.2899 27.5582 68.4867 27.5582C67.7981 27.5582 67.2526 28.003 66.9083 28.6916V32.694C66.9083 32.8518 66.9083 32.8949 67.0805 32.9666L68.0564 33.5548V33.6552H64.4697V33.5548L65.4741 32.9809C65.6172 32.8949 65.6317 32.8375 65.6317 32.694V28.0747C65.6317 27.9025 65.6317 27.8739 65.4881 27.7734L64.4697 26.9844V26.884H66.8368V28.3903C67.2096 27.3718 67.9412 26.7549 69.0032 26.7549C70.3513 26.7549 71.0975 27.6156 71.0975 29.4376V32.7084C71.0829 32.8662 71.0975 32.9236 71.2411 32.9953L72.245 33.5692V33.6695H68.6589V33.5692L68.6298 33.5548Z" fill="white"/>
<path d="M73.3931 32.0774V27.3433H72.3457V26.8699H73.1349C73.3501 26.8699 73.3786 26.8699 73.4792 26.6404L74.5837 24.5459H74.6843V26.8699H76.7931V27.3433H74.6843V31.9626C74.6843 32.6226 75.0286 33.0099 75.602 33.0099C76.1045 33.0099 76.5203 32.68 76.721 32.2783L76.8071 32.3069C76.6064 33.182 75.9754 33.7989 74.9855 33.7989C73.9957 33.7989 73.3931 33.2251 73.3931 32.0918" fill="white"/>
<path d="M31.2448 49.4933V46.6529H31.3596L32.5646 49.149C32.6507 49.3212 32.6937 49.3642 32.8946 49.4216C33.1528 49.479 33.5114 49.5364 33.8701 49.5364C35.2186 49.5364 36.1654 48.8334 36.1654 47.6427C36.1654 46.6815 35.5629 46.1795 34.4152 45.6774L33.2389 45.1609C32.0195 44.6301 31.2305 43.712 31.2305 42.4782C31.2305 40.8859 32.536 39.7812 34.4726 39.7812C35.1899 39.7812 35.9502 39.896 36.7823 40.0968V42.8082H36.6675L35.4768 40.4555C35.4051 40.2977 35.319 40.2403 35.2043 40.2259C34.9891 40.1829 34.7595 40.1686 34.5157 40.1686C33.2819 40.1686 32.4355 40.9002 32.4355 42.0335C32.4355 42.8943 32.995 43.3964 33.8988 43.8124L35.2186 44.4149C36.6532 45.0748 37.4422 45.7634 37.4422 47.0258C37.4422 48.7043 36.1367 49.9093 33.9418 49.9093C33.0811 49.9093 32.1056 49.7372 31.2879 49.4647" fill="white"/>
<path d="M38.5762 46.4807C38.5762 44.042 40.1399 42.8369 41.9905 42.8369C42.55 42.8369 43.2242 42.9517 43.9415 43.2243L43.3246 45.1896H43.2242L42.4783 43.4251C42.4352 43.3103 42.3778 43.2816 42.2774 43.2529C42.1483 43.2243 42.0622 43.2099 41.9331 43.2099C40.7137 43.2099 39.896 44.2715 39.896 46.0934C39.896 48.1161 40.8859 48.9913 42.0622 48.9913C42.8369 48.9913 43.4824 48.6182 43.9415 47.7432L44.0419 47.7719C43.7264 48.9769 42.8799 49.8663 41.4597 49.8663C39.9677 49.8663 38.5762 48.7474 38.5762 46.4521" fill="white"/>
<path d="M44.5 49.6508L45.4899 49.0769C45.6333 48.9908 45.6476 48.9334 45.6476 48.79V40.9859C45.6476 40.8137 45.6333 40.7707 45.5042 40.6846L44.6004 40.0821V39.9817L46.9388 39.623V44.3284C47.3261 43.3529 48.0577 42.8221 49.0189 42.8221C50.3674 42.8221 51.1134 43.6829 51.1134 45.4904V48.7756C51.1134 48.9334 51.1278 48.9908 51.2712 49.0626L52.261 49.6364V49.7368H48.6746V49.6364L49.6358 49.0626C49.7936 48.9622 49.8223 48.9191 49.8223 48.79V45.4761C49.8366 44.1994 49.3201 43.6398 48.5312 43.6398C47.8426 43.6398 47.2974 44.0989 46.9531 44.7875V48.7756C46.9531 48.9334 46.9674 48.9765 47.1253 49.0482L48.1151 49.6364V49.7368H44.5287V49.6364L44.5 49.6508Z" fill="white"/>
<path d="M52.5635 46.3947C52.5635 44.1423 53.9407 42.8369 55.777 42.8369C57.6132 42.8369 58.9471 44.0993 58.9471 46.3372C58.9471 48.5752 57.5702 49.895 55.7339 49.895C53.8976 49.895 52.5635 48.6326 52.5635 46.3947ZM55.777 49.5077C56.8529 49.5077 57.4554 48.403 57.4554 46.366C57.4554 44.3289 56.8385 43.2386 55.7339 43.2386C54.6293 43.2386 54.0555 44.3145 54.0555 46.366C54.0555 48.4174 54.6723 49.5077 55.777 49.5077Z" fill="white"/>
<path d="M59.9658 46.3947C59.9658 44.1423 61.343 42.8369 63.1791 42.8369C65.0152 42.8369 66.3493 44.0993 66.3493 46.3372C66.3493 48.5752 64.9721 49.895 63.136 49.895C61.3 49.895 59.9658 48.6326 59.9658 46.3947ZM63.1791 49.5077C64.2405 49.5077 64.8575 48.403 64.8575 46.366C64.8575 44.3289 64.2405 43.2386 63.136 43.2386C62.0316 43.2386 61.4576 44.3145 61.4576 46.366C61.4576 48.4174 62.0747 49.5077 63.1791 49.5077Z" fill="white"/>
<path d="M66.9521 49.6508L67.942 49.0769C68.0857 48.9908 68.1002 48.9334 68.1002 48.79V40.9859C68.1002 40.8137 68.0857 40.7707 67.9565 40.6846L67.0528 40.0821V39.9817L69.3913 39.623V48.79C69.3913 48.9478 69.4053 48.9908 69.5635 49.0626L70.5533 49.6508V49.7511H66.9667V49.6508H66.9521Z" fill="white"/>
<path d="M71.4999 49.4647L72.0879 47.528H72.1885L72.848 49.2064C72.9201 49.3786 72.9632 49.4216 73.1062 49.4503C73.3214 49.4933 73.5511 49.522 73.8094 49.522C74.7277 49.522 75.3442 49.0056 75.3442 48.2309C75.3442 47.5997 74.8708 47.3271 74.1682 47.0546L73.1638 46.6672C72.3176 46.3373 71.686 45.7491 71.686 44.8166C71.686 43.6259 72.7765 42.8369 74.1391 42.8369C74.7707 42.8369 75.5163 42.9517 76.234 43.1955L75.7175 44.9888H75.6169L74.8568 43.4251C74.7847 43.2816 74.7562 43.2673 74.6125 43.2386C74.4549 43.2099 74.3113 43.1955 74.1537 43.1955C73.336 43.1955 72.7334 43.6689 72.7334 44.3863C72.7334 45.0031 73.2214 45.3044 73.8809 45.5483L74.9568 45.9499C75.8467 46.2799 76.4922 46.7964 76.4922 47.7575C76.4922 49.1204 75.2726 49.8807 73.7809 49.8807C73.0347 49.8807 72.1739 49.7085 71.4854 49.4503" fill="white"/>
<path d="M150 11.592C150 15.3937 146.916 18.478 143.114 18.478C139.313 18.478 136.229 15.3937 136.229 11.592C136.229 7.79038 139.313 4.70605 143.114 4.70605C146.916 4.70605 150 7.79038 150 11.592Z" fill="white"/>
<path d="M137.677 38.0452C136.63 40.154 134.32 41.3447 131.996 40.9573L121.194 39.1928C118.913 38.8198 117.12 37.0266 116.761 34.7457L116.202 31.2739C115.843 28.993 114.05 27.1998 111.769 26.8268L88.0551 22.9391C85.7026 22.5517 83.8805 20.6581 83.5938 18.291L84.5691 26.296L84.9419 29.3373C85.2292 31.7043 87.0507 33.598 89.4038 33.9853L113.562 37.9447C115.843 38.3178 117.636 40.111 117.995 42.3919L118.554 45.8493C118.927 48.1303 120.706 49.9235 122.987 50.2965L127.062 50.9564C129.386 51.3437 131.695 50.153 132.742 48.0442L137.692 38.0308L137.677 38.0452Z" fill="white"/>
<path d="M146.629 21.4756C145.581 23.5845 143.272 24.7752 140.948 24.3878L119.056 20.8014C116.775 20.4284 114.981 18.6352 114.623 16.3542L114.064 12.8825C113.69 10.6016 111.912 8.8083 109.631 8.43532L86.5053 4.64804C84.1528 4.2607 82.3307 2.36706 82.0439 0L83.0193 8.00495L83.3921 11.0462C83.6794 13.4133 85.5009 15.3069 87.854 15.6943L111.424 19.5533C113.705 19.9263 115.484 21.7195 115.857 24.0005L116.416 27.4722C116.789 29.7532 118.568 31.5464 120.849 31.9194L136.013 34.4012C138.337 34.7886 140.646 33.5978 141.694 31.489L143.128 28.5912L146.643 21.4756H146.629Z" fill="white"/>
<path d="M85.8164 49.7516V45.0605H86.6487L89.5892 48.6757H89.7473V45.0605H90.4499V49.7516H89.6037L86.6626 46.1508H86.505V49.7516H85.8164Z" fill="white"/>
</svg>
