<svg width="147" height="49" viewBox="0 0 147 49" fill="none" xmlns="http://www.w3.org/2000/svg">
<g clip-path="url(#clip0_15042_2235)">
<path d="M36.9293 35.3185C37.5149 32.829 38.1026 30.3394 38.6925 27.8322H41.6003C41.5298 28.1998 41.4858 28.5102 41.4066 28.8118C40.4645 32.3887 39.4937 35.9591 38.5912 39.5448C38.4019 40.2998 38.0982 40.5375 37.33 40.5221C35.4149 40.4847 35.4149 40.5221 34.9439 38.6357C34.4794 36.7757 34.015 34.9157 33.3216 33.0579C32.8175 35.138 32.2694 37.2071 31.8336 39.3005C31.6443 40.2118 31.3075 40.575 30.3236 40.5265C28.1202 40.4165 28.6264 40.7599 28.1092 38.8162C27.1516 35.2084 26.2183 31.5963 25.2256 27.7926C26.1523 27.7926 26.9777 27.7398 27.7878 27.8256C28.0189 27.8499 28.3293 28.2439 28.3975 28.5212C28.95 30.7488 29.4519 32.9896 30.1761 35.2525C30.5305 33.8503 30.8871 32.4481 31.2414 31.046C31.4021 30.4076 31.6311 29.7759 31.7081 29.1265C31.8336 28.0414 32.3641 27.7596 33.4404 27.742C34.5873 27.7222 35.0121 28.0744 35.2256 29.1838C35.6262 31.2573 36.2051 33.2956 36.7092 35.3493C36.7797 35.3405 36.8523 35.3317 36.9227 35.3229L36.9293 35.3185Z" fill="white"/>
<path d="M14.0705 40.4975C13.19 40.4975 12.4152 40.5702 11.6624 40.4667C11.286 40.4161 10.8766 40.1145 10.6146 39.813C8.80966 37.7372 7.0399 35.6329 5.25473 33.5395C5.0258 33.2732 4.77927 33.0201 4.36985 32.5754V40.4139H1.5127V27.8561C3.03812 27.7724 4.44909 27.4643 5.63553 29.1151C7.25341 31.367 9.20147 33.3833 11.2244 35.7539V27.8407H14.0705V40.4975Z" fill="white"/>
<path d="M28.6799 7.10742C28.8251 7.4332 28.988 7.67533 29.0409 7.93727C29.7607 11.6089 29.8421 15.2893 28.977 18.9432C28.4311 21.2391 27.018 22.8592 24.7485 23.6076C22.6376 24.3032 21.2839 23.3765 21.1232 21.1665C20.9845 19.2448 21.2024 17.3804 21.9618 15.5754C23.2055 12.617 26.4302 8.43914 28.6821 7.10742H28.6799Z" fill="white"/>
<path d="M21.0523 23.6472C20.2467 23.6934 19.6259 23.8519 19.0558 23.7419C16.7908 23.3016 15.1619 21.9589 14.4487 19.7863C13.1434 15.8175 13.3833 11.7674 14.1296 7.72156C14.1494 7.6181 14.211 7.51684 14.277 7.431C14.3409 7.34735 14.4333 7.28572 14.6314 7.10742C15.0849 7.49483 15.622 7.82281 15.9918 8.28726C17.5788 10.2859 19.1285 12.3154 20.6671 14.3516C21.1404 14.9767 21.1073 15.6437 20.8586 16.4119C20.1146 18.7143 19.7822 21.052 21.0545 23.6472H21.0523Z" fill="white"/>
<path d="M13.8569 6.12825C12.7299 9.19232 12.6133 12.1441 12.7365 15.1047C12.862 18.105 13.2802 21.0413 15.849 23.2117C14.1629 23.2712 12.5912 22.4633 11.2705 20.9071C9.68346 19.0383 8.71054 16.8217 8.42878 14.451C8.05898 11.3407 7.98854 8.18637 7.93352 5.04747C7.9093 3.58147 8.37155 3.34594 9.71868 3.96448C11.1407 4.61823 12.4988 5.41066 13.8591 6.12605L13.8569 6.12825Z" fill="white"/>
<path d="M27.1455 23.3784C30.2316 20.6115 30.4077 17.138 30.4275 13.6734C30.4385 11.8882 30.1457 10.0986 29.9212 8.31786C29.8376 7.6509 29.558 7.00815 29.2961 6.10566C30.7489 5.37486 32.3359 4.56482 33.934 3.77679C34.6868 3.40699 35.0786 3.80981 35.1424 4.51199C35.5959 9.60996 35.4682 14.6463 32.9699 19.2952C31.7944 21.4832 30.0687 23.0483 27.1455 23.3762V23.3784Z" fill="white"/>
<path d="M14.8916 38.7362C15.5079 38.0032 16.0252 37.3912 16.5821 36.7309C16.8925 36.9268 17.1434 37.1425 17.434 37.2614C18.2726 37.6025 19.1069 38.0252 19.983 38.1859C20.8634 38.3465 21.9971 38.4148 22.2546 37.2415C22.5209 36.0221 21.3477 35.9274 20.5619 35.6435C19.7012 35.3331 18.7943 35.157 17.9381 34.8422C16.1551 34.1885 15.4265 33.1407 15.4485 31.3842C15.4683 29.6848 16.3752 28.3487 18.0349 27.816C20.443 27.0434 22.6464 27.5783 24.797 29.0993C24.3171 29.8257 23.8659 30.5081 23.3728 31.2543C23.0382 31.0804 22.7697 30.9043 22.4747 30.7986C21.7241 30.5279 20.9757 30.1955 20.1965 30.0635C19.4217 29.9336 18.5478 30.0414 18.3519 31.0078C18.156 31.9763 18.9902 32.2118 19.6858 32.4451C20.76 32.8061 21.8694 33.0725 22.926 33.4819C24.4492 34.0718 25.2394 35.212 25.1888 36.8872C25.1382 38.5733 24.2973 39.8676 22.686 40.4025C19.8311 41.349 17.2953 40.6138 14.8916 38.7362Z" fill="white"/>
<path d="M21.7145 0.0506275C22.1107 0.693376 22.5707 1.30751 22.8943 1.98548C23.8012 3.89832 24.6751 5.82656 25.4939 7.77682C25.6238 8.08499 25.5137 8.63309 25.3068 8.91484C24.0719 10.5811 22.7754 12.2012 21.4679 13.8785C21.0739 13.2556 20.6095 12.4896 20.112 11.7478C19.7862 11.2635 19.4934 10.7022 19.0466 10.3632C17.1998 8.96987 17.4485 7.39822 18.4215 5.62846C19.4318 3.78385 20.3299 1.87982 21.2764 0C21.4239 0.0176096 21.5714 0.0330179 21.7167 0.0506275H21.7145Z" fill="white"/>
<path d="M78.1229 14.1535V15.9101H69.6152V4.47266H78.0546V6.2028H71.6315V9.25805H77.3238V11.0828H71.6271V14.1557H78.1229V14.1535Z" fill="white"/>
<path d="M80.5172 46.2474C78.4238 46.4543 78.371 46.4741 77.6952 44.6735C77.3695 43.8041 76.9072 43.4981 76.0003 43.5641C74.9437 43.6412 73.874 43.639 72.8174 43.5641C72.0139 43.5069 71.5825 43.8063 71.3888 44.5525C71.3536 44.6933 71.2809 44.8232 71.2215 44.9575C70.7666 46.0141 69.8861 46.4235 68.5801 46.1858C69.1348 44.8959 69.6763 43.6258 70.2244 42.3601C71.2413 40.0092 72.2781 37.6671 73.2664 35.3053C73.4909 34.7704 73.8057 34.5238 74.3362 34.6581C74.8095 34.777 75.5314 34.8716 75.6767 35.1886C77.3254 38.814 78.8861 42.4811 80.5172 46.2474ZM76.4317 41.7283C75.767 40.1677 75.1705 38.7699 74.4925 37.1785C73.8167 38.7963 73.2246 40.2183 72.5951 41.7283H76.4317Z" fill="white"/>
<path d="M86.023 8.42648V4.07031H87.9138V15.8995H86.089C86.0516 15.5539 86.0142 15.2128 85.9613 14.7219C84.9422 15.7256 83.8262 16.4388 82.4923 16.069C81.6206 15.8269 80.6939 15.358 80.0753 14.7153C78.5191 13.0952 78.6446 10.0003 80.1722 8.36925C81.6866 6.75357 83.6721 6.73156 86.023 8.42648ZM86.0208 11.5852C86.0032 10.0598 84.8497 8.86672 83.4322 8.90193C82.0454 8.93715 81.0065 10.095 80.9999 11.616C80.9932 13.1502 82.1247 14.3851 83.5224 14.3697C84.9224 14.3521 86.0384 13.1084 86.0186 11.5852H86.0208Z" fill="white"/>
<path d="M110.518 23.5966V19.2471H112.45C112.45 21.2414 112.45 23.207 112.45 25.1705C112.45 27.134 112.45 29.0402 112.45 31.0587H110.522C110.493 30.7373 110.463 30.3961 110.416 29.8898C109.43 30.9266 108.334 31.5958 107.04 31.2678C106.164 31.0455 105.226 30.5964 104.594 29.9691C103.04 28.4216 103.078 25.3796 104.506 23.7045C105.99 21.9611 107.969 21.8863 110.518 23.5988V23.5966ZM110.471 26.861C110.491 25.3158 109.404 24.1073 107.982 24.0897C106.566 24.0721 105.448 25.2849 105.453 26.828C105.457 28.3006 106.547 29.5156 107.9 29.5553C109.309 29.5971 110.452 28.3996 110.469 26.861H110.471Z" fill="white"/>
<path d="M135.827 23.5222V19.2695H137.722V31.0547H135.887C135.854 30.7576 135.818 30.4428 135.77 30.0114C133.809 31.7503 131.828 31.889 129.974 30.0158C128.541 28.5674 128.458 25.6882 129.666 23.9757C131.046 22.0232 133.19 21.8361 135.825 23.5222H135.827ZM135.829 26.8526C135.84 25.27 134.764 24.0835 133.325 24.0901C131.92 24.099 130.875 25.2414 130.857 26.7844C130.839 28.3495 131.953 29.5777 133.373 29.5579C134.764 29.5381 135.818 28.3781 135.829 26.8526Z" fill="white"/>
<path d="M12.2844 23.1416C8.45869 22.9633 4.75188 22.446 1.45229 20.3725C-0.464955 19.1684 -0.500174 18.7128 1.44348 17.5484C3.34311 16.4081 5.32639 15.4044 7.41972 14.2598C8.3046 17.7883 9.4074 20.9404 12.2844 23.1416Z" fill="white"/>
<path d="M35.7145 14.2083C38.0456 15.5334 40.2556 16.7308 42.3996 18.0339C43.2801 18.5688 43.2008 19.2688 42.2565 19.96C40.1411 21.5096 37.7154 22.3109 35.1598 22.7357C33.7379 22.9712 32.3005 23.1121 30.8213 23.1825C33.7005 20.9527 34.8363 17.8138 35.7167 14.2061L35.7145 14.2083Z" fill="white"/>
<path d="M77.3652 20.8942C76.98 21.4401 76.6675 21.8848 76.3131 22.3866C75.9587 22.1995 75.6637 21.9794 75.3335 21.8804C74.5367 21.6448 73.7311 21.3477 72.9166 21.297C72.1616 21.2486 71.4484 21.6096 71.3097 22.4923C71.1733 23.3618 71.7896 23.747 72.483 23.9803C73.4889 24.3171 74.5345 24.5438 75.5206 24.9246C77.1891 25.5674 77.7857 26.5337 77.6778 28.2022C77.5876 29.6264 76.6498 30.7358 75.1046 31.1144C72.7647 31.6889 70.7066 31.0659 68.752 29.4745C69.179 28.9726 69.5642 28.517 69.8746 28.1538C70.8717 28.5962 71.7368 29.0695 72.6591 29.3578C73.1896 29.5251 73.8785 29.5537 74.376 29.3534C74.8779 29.1509 75.5184 28.616 75.5691 28.167C75.6175 27.7443 75.0782 27.0268 74.6247 26.8154C73.6386 26.3576 72.527 26.1881 71.4946 25.8183C69.9054 25.246 69.2868 24.3941 69.2692 22.9215C69.2516 21.3279 70.0375 20.1524 71.5695 19.7056C73.6364 19.1046 75.5382 19.5141 77.3652 20.8964V20.8942Z" fill="white"/>
<path d="M105.164 46.2819H103.181C103.181 44.6354 103.236 43.0351 103.165 41.437C103.091 39.7135 101.719 38.8616 100.302 39.5836C99.4806 40.0019 99.2429 40.7481 99.2407 41.6043C99.2363 43.1342 99.2407 44.6662 99.2407 46.2621H97.3477V34.4482H99.1812V38.7956C99.5863 38.4962 99.8196 38.3179 100.06 38.1485C101.143 37.3846 102.311 37.3032 103.498 37.8183C104.629 38.3091 105.116 39.3041 105.151 40.4641C105.21 42.3615 105.166 44.2612 105.166 46.2841L105.164 46.2819Z" fill="white"/>
<path d="M115.625 41.9898C115.631 44.5718 113.644 46.5088 110.989 46.5088C108.385 46.5088 106.375 44.596 106.349 42.0932C106.32 39.531 108.33 37.5412 110.958 37.5236C113.648 37.506 115.62 39.3924 115.625 41.9898ZM111.031 39.2911C109.565 39.2603 108.407 40.3961 108.352 41.9149C108.297 43.4228 109.483 44.7017 110.971 44.7369C112.444 44.7721 113.6 43.6319 113.63 42.1131C113.661 40.5546 112.523 39.3197 111.031 39.2911Z" fill="white"/>
<path d="M136.285 11.6221C136.285 14.2041 134.295 16.1345 131.64 16.1279C129.041 16.1235 127.035 14.1997 127.018 11.6947C127 9.12592 128.999 7.15585 131.638 7.14265C134.334 7.12944 136.285 9.00926 136.285 11.6221ZM131.645 8.91021C130.176 8.91021 129.032 10.0724 129.012 11.5825C128.992 13.0925 130.207 14.3516 131.689 14.356C133.161 14.3604 134.293 13.1981 134.297 11.6793C134.301 10.1209 133.144 8.91241 131.645 8.91021Z" fill="white"/>
<path d="M109.014 9.32911C108.86 8.87127 108.701 8.40241 108.521 7.86972C110.238 7.05748 111.939 6.85057 113.678 7.44489C114.772 7.81909 115.481 8.67976 115.534 9.81778C115.626 11.8165 115.56 13.8218 115.56 15.9327C114.821 15.7236 113.799 16.6503 113.592 15.0984C112.373 16.0384 111.118 16.3883 109.712 15.9547C108.446 15.5651 107.797 14.7264 107.783 13.4762C107.768 12.1334 108.362 11.1561 109.692 10.9008C110.953 10.6586 112.276 10.7247 113.584 10.6564C113.608 8.94831 112.701 8.64454 109.014 9.32691V9.32911ZM111.95 11.9287C111.9 11.8429 111.851 11.7548 111.801 11.669C111.154 12.0454 110.423 12.3337 109.908 12.8422C109.716 13.0293 109.925 14.0705 110.139 14.1409C110.878 14.3787 111.702 14.3721 112.494 14.4315C112.62 14.4403 112.813 14.35 112.873 14.2444C113.179 13.7051 113.454 13.1482 113.738 12.5957C113.286 12.3822 112.84 12.1599 112.382 11.9639C112.256 11.9111 112.096 11.9375 111.95 11.9287Z" fill="white"/>
<path d="M119.518 25.8447C119.494 24.0838 118.354 23.7052 114.962 24.557C114.803 24.1058 114.643 23.6391 114.442 23.0668C116.271 22.226 118.096 21.9552 119.947 22.7983C120.918 23.2407 121.46 24.1234 121.495 25.1756C121.556 27.1126 121.512 29.0519 121.512 31.0748C120.733 31.0219 119.826 31.6405 119.463 30.3396C118.272 31.2597 116.974 31.592 115.538 31.1188C114.341 30.7248 113.722 29.8773 113.709 28.6667C113.696 27.368 114.266 26.3708 115.525 26.1221C116.822 25.8667 118.18 25.924 119.52 25.8447H119.518ZM117.718 29.8355C117.958 29.7364 118.596 29.6374 118.972 29.2698C119.342 28.9088 119.571 28.2837 119.597 27.7598C119.606 27.5771 118.838 27.2931 118.393 27.1742C118.019 27.0752 117.597 27.1126 117.203 27.1544C116.181 27.2645 115.563 27.861 115.684 28.6446C115.831 29.6022 116.555 29.7959 117.72 29.8311L117.718 29.8355Z" fill="white"/>
<path d="M90.5569 26.0619C90.3566 24.0588 89.4409 23.7661 85.9168 24.5387C85.7649 24.0786 85.6064 23.6076 85.4259 23.0617C87.1472 22.2428 88.8818 22.0139 90.6537 22.6677C91.7874 23.0859 92.4235 24.0214 92.4675 25.2034C92.5402 27.1361 92.4873 29.0732 92.4873 31.1071C91.7477 30.942 90.7858 31.741 90.4711 30.3168C89.278 31.2171 87.9903 31.5935 86.5507 31.1269C85.3026 30.7218 84.6753 29.8656 84.6797 28.5999C84.6863 27.3122 85.274 26.3789 86.5507 26.0971C87.5303 25.8814 88.5758 25.9497 89.5906 25.9232C89.9031 25.9144 90.2179 26.0091 90.5525 26.0619H90.5569ZM88.8268 27.1185C88.7739 27.0304 88.7233 26.9446 88.6705 26.8565C88.0299 27.2418 87.3167 27.5477 86.7907 28.0518C86.608 28.2279 86.74 29.0247 86.9888 29.3043C87.6535 30.0461 88.5516 29.9074 89.4145 29.6212C89.5179 29.5882 89.661 29.5596 89.705 29.4826C90.0264 28.9147 90.328 28.3357 90.6361 27.7612C90.1783 27.5543 89.7248 27.3386 89.2582 27.1493C89.1305 27.0965 88.9698 27.1251 88.8268 27.1163V27.1185Z" fill="white"/>
<path d="M141.572 37.7949C140.324 40.958 139.171 44.0397 137.894 47.0685C137.062 49.0386 135.393 49.4722 133.214 48.3584C133.41 47.9182 133.611 47.4713 133.826 46.9915C134.192 47.0707 134.502 47.172 134.819 47.1984C135.873 47.2886 136.388 46.5997 135.981 45.6289C134.896 43.0359 133.8 40.4495 132.699 37.8433C134.054 37.5909 134.968 38.0766 135.442 39.3005C136.01 40.7643 136.578 42.2281 137.245 43.945C137.846 42.2655 138.37 40.8105 138.887 39.3511C139.309 38.1625 140.203 37.643 141.568 37.7927L141.572 37.7949Z" fill="white"/>
<path d="M96.1838 31.092H94.2666V22.5711H96.1068C96.1508 22.8485 96.1971 23.15 96.2499 23.4912C96.3731 23.4362 96.4854 23.4186 96.5536 23.3526C97.6719 22.2498 98.997 22.0142 100.401 22.6085C101.819 23.2073 102.138 24.4686 102.118 25.8839C102.096 27.5987 102.114 29.3134 102.114 31.0832H100.124C100.124 29.4565 100.216 27.8122 100.078 26.1899C100.023 25.5582 99.5847 24.7063 99.0696 24.4355C98.5457 24.1604 97.5442 24.2528 97.0599 24.605C96.5713 24.9616 96.2741 25.8223 96.2213 26.4893C96.1002 27.9795 96.1838 29.4851 96.1838 31.092Z" fill="white"/>
<path d="M97.6403 15.9098H95.7869C95.7539 15.5862 95.7231 15.3022 95.6901 14.9831C95.58 15.0139 95.4524 15.0117 95.3929 15.0733C94.2879 16.2113 92.9782 16.4535 91.5739 15.8041C90.2223 15.179 89.945 13.9463 89.9692 12.575C90 10.8624 89.9758 9.14769 89.9758 7.37793H91.9635C91.9635 9.03543 91.926 10.6753 91.9745 12.3108C92.0185 13.8076 93.0575 14.5824 94.3958 14.1664C95.3929 13.856 95.7077 13.0548 95.7209 12.1083C95.7429 10.5719 95.7275 9.03323 95.7275 7.40875H97.6403V15.9098Z" fill="white"/>
<path d="M145.561 15.9149H143.589C143.589 14.9882 143.589 14.0901 143.589 13.1921C143.589 9.83083 143.219 8.99438 141.718 8.96356C140.109 8.93055 139.649 9.89247 139.649 13.2735V15.8687H137.775V7.40732H139.534C139.585 7.63184 139.655 7.9334 139.734 8.27679C139.825 8.24817 139.937 8.24597 139.994 8.18874C141.137 7.03532 142.493 6.8152 143.93 7.44694C145.295 8.04787 145.587 9.28274 145.568 10.6541C145.543 12.371 145.561 14.0879 145.561 15.9127V15.9149Z" fill="white"/>
<path d="M81.4379 37.7461H83.4234C83.4234 39.3904 83.3882 40.9951 83.4344 42.5953C83.474 43.9865 84.163 44.6689 85.3538 44.627C86.4765 44.5874 87.15 43.8808 87.183 42.5843C87.2227 41.0127 87.1918 39.441 87.1918 37.7857H89.0783V46.2383H87.2733C87.2337 45.983 87.1896 45.7078 87.139 45.3886C87.0311 45.4239 86.9145 45.4239 86.8573 45.4833C85.7787 46.5795 84.4976 46.8172 83.1262 46.2163C81.7681 45.622 81.4269 44.4025 81.4357 43.029C81.4467 41.3098 81.4379 39.5885 81.4379 37.7461Z" fill="white"/>
<path d="M55.809 25.1838C55.809 18.5075 55.809 11.8313 55.809 5.15287C55.809 4.89533 55.754 4.62239 55.8266 4.38686C55.8971 4.15793 56.0996 3.96863 56.2449 3.76172C56.3924 3.97964 56.5839 4.18215 56.6719 4.42208C56.7423 4.61578 56.6895 4.85791 56.6895 5.07803C56.6895 18.4679 56.6939 31.8578 56.6719 45.2476C56.6719 45.6923 56.4078 46.1369 56.2669 46.5816C56.115 46.1259 55.831 45.6703 55.8288 45.2124C55.8002 38.5362 55.809 31.86 55.809 25.1838Z" fill="white"/>
<path d="M139.029 30.0135C139.37 29.5006 139.632 29.111 139.824 28.8226C140.858 29.1374 141.774 29.538 142.723 29.6503C143.165 29.7031 143.672 29.1946 144.151 28.9415C143.81 28.5761 143.533 28.0918 143.117 27.8739C142.476 27.5415 141.726 27.4315 141.05 27.1585C140.046 26.7557 139.459 26.0513 139.505 24.8869C139.551 23.7071 140.159 22.9543 141.208 22.5756C142.811 21.9967 144.292 22.415 145.84 23.2932C145.591 23.7665 145.364 24.2001 145.138 24.636C144.328 24.3982 143.579 24.046 142.811 24.0042C142.34 23.9778 141.842 24.4246 141.356 24.6602C141.684 24.9992 141.957 25.4482 142.355 25.6507C143.066 26.0117 143.881 26.168 144.605 26.5092C145.554 26.956 146.234 27.6648 146.111 28.8204C145.992 29.9474 145.34 30.7311 144.286 31.0745C142.397 31.6886 140.702 31.1779 139.032 30.0157L139.029 30.0135Z" fill="white"/>
<path d="M107.082 8.7105C106.591 9.09131 106.162 9.42369 105.708 9.77588C103.927 8.64887 102.706 8.62686 101.728 9.78028C100.857 10.8082 100.844 12.4041 101.7 13.4343C102.69 14.6273 104.009 14.6185 105.972 13.3682C106.322 13.7028 106.686 14.0484 107.042 14.3896C105.664 16.3861 102.677 16.7295 100.709 15.1578C98.715 13.5641 98.4839 10.5111 100.214 8.58723C101.96 6.64798 105.107 6.64358 107.082 8.7127V8.7105Z" fill="white"/>
<path d="M79.3665 24.2964C79.0759 24.2326 78.7633 24.1665 78.4111 24.0895V22.6037C78.7237 22.5465 79.0297 22.4914 79.4347 22.4188V20.1846H81.418V22.454C82.2258 22.4892 82.9412 22.5222 83.7314 22.5575V24.1489C83.0094 24.1819 82.2896 24.2128 81.4576 24.2502C81.4576 25.7096 81.429 27.1271 81.4708 28.5425C81.4928 29.2667 82.0035 29.5419 82.6814 29.5C83.0006 29.4802 83.3176 29.4032 83.705 29.3415C83.6984 30.0811 84.1518 30.845 83.0579 31.1751C81.6337 31.6044 80.1479 31.2016 79.7208 30.1076C79.5161 29.5815 79.4853 28.9695 79.4677 28.3928C79.4281 27.1139 79.4479 25.8328 79.4391 24.5517C79.4391 24.4813 79.3995 24.4131 79.3642 24.2986L79.3665 24.2964Z" fill="white"/>
<path d="M117.757 9.12651C117.374 9.04507 117.061 8.97683 116.707 8.89979V7.41398C117.015 7.35675 117.323 7.30172 117.728 7.22688V4.99707H119.709V7.2621C120.515 7.29952 121.23 7.33034 122.025 7.36776V8.95702C121.308 8.99004 120.588 9.02305 119.756 9.06268C119.756 10.5155 119.729 11.933 119.767 13.3484C119.786 14.077 120.297 14.3477 120.973 14.3081C121.292 14.2905 121.607 14.2113 121.999 14.1474C121.996 14.8936 122.443 15.6553 121.352 15.9854C119.927 16.4147 118.444 16.0118 118.019 14.9157C117.814 14.3896 117.783 13.7776 117.77 13.2009C117.737 11.8516 117.759 10.5001 117.759 9.12871L117.757 9.12651Z" fill="white"/>
<path d="M127.814 39.5027C127.394 39.4213 127.114 39.3662 126.775 39.3002V37.8122C127.048 37.7506 127.354 37.6823 127.766 37.5921V35.3799H129.769V37.6427C130.59 37.6823 131.303 37.7176 132.06 37.755V39.3244C131.325 39.3684 130.619 39.4103 129.809 39.4565C129.809 40.9269 129.703 42.3577 129.839 43.762C129.976 45.1598 131.096 44.5875 131.904 44.5545C132.265 45.9214 132.155 46.1877 131.129 46.4299C129.439 46.8305 128.048 46.1459 127.869 44.735C127.755 43.8325 127.821 42.9058 127.812 41.9901C127.806 41.1888 127.812 40.3854 127.812 39.4983L127.814 39.5027Z" fill="white"/>
<path d="M95.6531 44.5477C95.8732 46.1259 95.7499 46.3262 94.5084 46.4913C92.7981 46.7203 91.6139 45.9895 91.5258 44.5411C91.4444 43.1895 91.4576 41.8292 91.5104 40.4755C91.539 39.7249 91.3915 39.2516 90.4648 39.3595V37.823C90.7444 37.7526 91.0768 37.6689 91.5082 37.5611V35.3467H93.4387V37.6755H95.7257V39.3374C94.9773 39.3749 94.2927 39.4079 93.4915 39.4475C93.4915 40.9069 93.4783 42.3245 93.4981 43.742C93.5069 44.4376 93.9691 44.6996 94.5943 44.693C94.9487 44.6885 95.3009 44.5983 95.6531 44.5455V44.5477Z" fill="white"/>
<path d="M125.382 31.1182H123.5V22.6018H125.327C125.362 23.0222 125.397 23.4382 125.448 24.0238C126.262 23.009 127.044 22.2078 128.382 22.4037V24.3561C126.08 24.8888 125.433 25.6857 125.386 28.0277C125.367 29.0425 125.382 30.0594 125.382 31.1182Z" fill="white"/>
<path d="M117.105 37.7635H118.957C118.983 38.2125 119.005 38.6043 119.038 39.1745C119.868 38.2478 120.636 37.4267 121.979 37.5676V39.4958C119.412 40.3235 119.009 40.8892 118.998 43.6869C118.996 44.5234 118.998 45.3598 118.998 46.2623H117.108V37.7635H117.105Z" fill="white"/>
<path d="M38.9431 14.8472C35.5357 13.4803 35.4498 13.3306 36.1366 9.96496C36.1806 9.75364 36.4602 9.44768 36.6495 9.43447C37.8843 9.34202 39.128 9.26498 40.3651 9.29139C41.2962 9.3112 41.3138 10.0662 41.0519 10.6495C40.4179 12.0649 39.6673 13.4252 38.9431 14.8472Z" fill="white"/>
<path d="M4.20638 14.8577C3.48219 13.4313 2.70737 12.0468 2.07122 10.6028C1.71903 9.80815 2.06462 9.22924 3.02434 9.25785C4.32745 9.29527 5.62835 9.36791 6.92486 9.42514C7.04592 10.6974 7.1868 11.8178 7.23302 12.9427C7.24403 13.209 7.0019 13.6118 6.76417 13.7373C6.03117 14.1269 5.24314 14.413 4.20638 14.8577Z" fill="white"/>
<path d="M18.3778 3.51093C17.8099 4.90208 17.2882 6.17877 16.7313 7.54572C15.7452 6.76209 14.7921 6.0401 13.883 5.26748C13.3899 4.84925 14.266 1.18867 14.8757 1.07861C15.0892 1.03899 15.382 1.16665 15.5713 1.30753C16.5046 2.01191 17.4137 2.74711 18.3778 3.50873V3.51093Z" fill="white"/>
<path d="M26.4095 7.54567C25.8857 6.29319 25.3816 5.16178 24.9523 4.00395C24.8709 3.78383 24.9942 3.3568 25.1769 3.19611C25.9451 2.52254 26.7683 1.90841 27.5784 1.28327C28.1331 0.85624 28.5491 1.01252 28.734 1.65748C29.0069 2.60399 29.2623 3.55931 29.4472 4.52783C29.4956 4.77657 29.3305 5.16838 29.1302 5.34228C28.2783 6.08408 27.3781 6.77085 26.4073 7.54567H26.4095Z" fill="white"/>
<path d="M125.305 46.2935H123.5V37.7617H125.305V46.2935Z" fill="white"/>
<path d="M123.582 7.37793H125.422V15.8767H123.582V7.37793Z" fill="white"/>
<path d="M22.9756 24.6356C23.7636 24.5366 24.6353 24.3803 25.5158 24.3275C28.3531 24.1602 31.1904 24.0039 34.0322 23.9202C34.4768 23.907 34.9347 24.2967 35.3859 24.5014C35.0337 24.9042 34.7388 25.5667 34.3205 25.657C33.231 25.8881 32.0643 26.0466 30.9681 25.9123C28.2849 25.5822 25.6258 25.0715 22.9778 24.6378L22.9756 24.6356Z" fill="white"/>
<path d="M20.007 24.6581C17.5527 25.0631 14.9487 25.5914 12.3204 25.8864C11.0812 26.0251 9.78025 25.7807 8.53217 25.5628C8.2196 25.5078 8.00388 24.8892 7.74414 24.5282C8.11614 24.3147 8.49475 23.9009 8.85574 23.9185C12.327 24.0682 15.7939 24.2861 19.2608 24.4996C19.591 24.5194 19.9167 24.6383 20.007 24.6581Z" fill="white"/>
<path d="M23.8432 44.7988C23.8432 44.1451 23.808 43.6124 23.8586 43.0885C23.8807 42.8508 24.0766 42.6307 24.1932 42.4017C24.3253 42.6108 24.5652 42.8156 24.574 43.0269C24.6137 44.0856 24.5916 45.1466 24.5916 46.3661C23.1058 46.1261 22.9716 44.5391 21.7939 43.9051C21.7939 44.5875 21.8225 45.1906 21.7763 45.7894C21.7609 45.9787 21.5496 46.1548 21.4263 46.3375C21.3141 46.1482 21.1116 45.9611 21.1072 45.7674C21.0763 44.6734 21.0917 43.5772 21.0917 42.3379C22.5247 42.624 22.714 44.101 23.8432 44.7988Z" fill="white"/>
<path d="M18.1926 45.2151C18.0033 45.5893 17.8162 45.9635 17.6269 46.3399C17.497 45.9415 17.2791 45.5475 17.2526 45.1425C17.1954 44.273 17.235 43.3991 17.235 42.3888C18.3863 42.4944 19.6255 41.9045 20.3079 43.0778C20.5632 43.518 20.1604 44.339 20.057 44.9862C19.9447 44.9862 19.8346 44.9818 19.7224 44.9796C19.9755 45.3714 20.2287 45.7632 20.4818 46.1572C20.4136 46.2409 20.3475 46.3245 20.2793 46.4082C19.9579 46.1704 19.6321 45.9415 19.3152 45.695C18.9652 45.422 18.624 45.1381 18.2806 44.8585L18.1904 45.2129L18.1926 45.2151ZM18.0649 44.5151C18.7164 44.2928 19.2051 44.1497 19.6674 43.9406C19.7312 43.912 19.707 43.4145 19.6255 43.3815C19.1567 43.1944 18.657 43.0844 18.0649 42.9193V44.5151Z" fill="white"/>
<path d="M28.3999 43.6435C27.8716 44.3875 27.5436 44.8498 27.1716 45.3736C26.7886 44.8586 26.4694 44.4293 25.9455 43.7228C25.9455 44.5812 25.9808 45.1425 25.9279 45.6972C25.9059 45.9195 25.688 46.1221 25.5603 46.3312C25.4547 46.1353 25.261 45.9416 25.2566 45.7434C25.2257 44.6539 25.2412 43.5643 25.2412 42.4174C26.5487 42.2964 26.4166 43.6479 27.198 44.0133C27.8958 43.6897 27.8055 42.3074 29.1219 42.4064C29.1219 43.6061 29.1351 44.7309 29.1065 45.8557C29.1021 46.0164 28.9017 46.1727 28.7917 46.3312C28.6596 46.1595 28.4307 45.9966 28.4175 45.8183C28.3713 45.2064 28.3999 44.5878 28.3999 43.6479V43.6435Z" fill="white"/>
<path d="M7.34776 42.3264C8.52539 42.3418 9.43449 43.2773 9.39046 44.4351C9.34864 45.5643 8.47257 46.4008 7.32354 46.4096C6.09748 46.4184 5.24561 45.5775 5.25002 44.3647C5.25442 43.1804 6.1481 42.311 7.34776 42.3264ZM8.61124 44.3471C8.5276 43.5678 8.13578 43.0616 7.31474 43.0153C6.57514 42.9735 5.92138 43.6779 6.00503 44.4395C6.09087 45.2187 6.52011 45.7426 7.35216 45.7162C8.18201 45.6876 8.55841 45.1549 8.61344 44.3493L8.61124 44.3471Z" fill="white"/>
<path d="M34.2592 43.9465C33.819 44.7433 34.5454 45.7669 33.4844 46.5593V42.3154C34.7919 42.6896 35.023 44.0632 36.117 44.8006C36.117 44.083 36.095 43.4843 36.1302 42.8899C36.1412 42.7227 36.3195 42.5664 36.423 42.4035C36.5616 42.5686 36.8148 42.7271 36.8192 42.8965C36.8544 44.0192 36.8368 45.144 36.8368 46.2688L36.4868 46.4823C35.7604 45.6568 35.034 44.8292 34.257 43.9465H34.2592Z" fill="white"/>
<path d="M4.53653 43.2025C4.22396 43.1562 3.89818 43.0308 3.60102 43.0792C3.12997 43.154 2.48942 43.2091 2.2671 43.5194C2.00295 43.887 1.94792 44.5782 2.10641 45.0184C2.22527 45.3486 2.80199 45.6128 3.22021 45.703C3.47775 45.758 3.81894 45.4345 4.1227 45.2804C3.88498 45.0933 3.64725 44.9084 3.41172 44.7191C3.33248 44.6552 3.25763 44.5848 2.91425 44.2788C3.67146 44.204 4.17553 44.1556 4.67741 44.1049C5.0274 45.7492 4.8535 46.13 3.72429 46.3546C2.4608 46.6077 1.44605 46.0112 1.18631 44.8644C0.922167 43.6999 1.60894 42.5289 2.75356 42.3924C3.35449 42.3198 3.98843 42.5223 4.60917 42.6015C4.58496 42.8018 4.56294 42.9999 4.53873 43.2003L4.53653 43.2025Z" fill="white"/>
<path d="M32.6858 42.9497C31.9924 42.9937 31.2969 43.04 30.4934 43.0906C30.4032 44.7261 31.966 43.5771 32.3777 44.2858C32.2192 45.3358 30.2755 43.8566 30.5242 45.6022C31.2771 45.6704 32.0167 45.7386 32.7585 45.8069C32.7519 45.9367 32.7475 46.0688 32.7409 46.1987H29.7979V42.5293H32.688C32.688 42.6702 32.688 42.8088 32.6858 42.9497Z" fill="white"/>
<path d="M13.7197 42.3423C14.7147 42.3907 15.6326 42.4347 16.5527 42.4788L16.5483 43.0313C16.0332 43.0313 15.5093 42.9784 15.0052 43.0533C14.7675 43.0885 14.5672 43.3681 14.3515 43.5353C14.5738 43.7026 14.7763 43.9668 15.0228 44.0174C15.4212 44.0988 15.8483 44.0394 16.2621 44.0394C16.2819 44.1847 16.3017 44.33 16.3237 44.4753C15.9693 44.5435 15.6039 44.5743 15.265 44.6888C14.9458 44.7966 14.6574 44.9947 14.3559 45.1532C14.6728 45.3315 14.9744 45.5758 15.3134 45.6683C15.7404 45.785 16.2027 45.7784 16.6495 45.8246C16.6407 45.9545 16.6319 46.0865 16.6253 46.2164H13.7241V42.3379L13.7197 42.3423Z" fill="white"/>
<path d="M11.3052 45.1222C12.1197 43.3759 12.7477 42.4918 13.1894 42.4697C12.6876 43.6848 12.2407 44.8668 11.708 46.0093C11.4395 46.5838 11.0059 46.5089 10.7637 45.9608C10.2663 44.836 9.81942 43.687 9.49805 42.4609C10.7968 42.8307 10.5062 44.2901 11.3052 45.1244V45.1222Z" fill="white"/>
<path d="M38.5802 43.139C38.0806 43.0796 37.7658 43.0422 37.123 42.9652C37.4928 42.657 37.6689 42.3884 37.8186 42.4016C38.7387 42.4853 39.7469 42.0803 40.5745 42.9343C40.2047 43.007 39.8371 43.0818 39.3639 43.1765C39.3639 43.9777 39.3925 44.7767 39.3485 45.5714C39.333 45.8333 39.1261 46.082 39.0073 46.3374C38.8642 46.0952 38.6177 45.8619 38.6001 45.611C38.5472 44.8164 38.5802 44.0151 38.5802 43.139Z" fill="white"/>
<path d="M123.282 36.2534V34.4902H125.301V36.2534H123.282Z" fill="white"/>
<path d="M125.459 4.12891V5.84584H123.474V4.12891H125.459Z" fill="white"/>
<path d="M18.0654 44.5148V42.9189C18.6576 43.084 19.155 43.1963 19.6261 43.3812C19.7075 43.4142 19.7317 43.9095 19.6679 43.9403C19.2078 44.1494 18.717 44.2925 18.0654 44.5148Z" fill="white"/>
</g>
<defs>
<clipPath id="clip0_15042_2235">
<rect width="146.122" height="48.959" fill="white"/>
</clipPath>
</defs>
</svg>
