<svg width="150" height="59" viewBox="0 0 150 59" fill="none" xmlns="http://www.w3.org/2000/svg">
<path d="M65.2479 17.1104H64.1841V27.926H65.2479V17.1104Z" fill="white"/>
<path d="M68.3506 17.1104H69.4144V27.0394H74.4676V28.0146H68.3506V17.199V17.1104Z" fill="white"/>
<path d="M76.3291 17.1104H77.3929V27.0394H82.4461V28.0146H76.3291V17.199V17.1104Z" fill="white"/>
<path d="M89.7156 24.4685H85.3716L84.1305 27.926H82.978L86.9674 17.1104H88.1199L92.1092 27.926H90.9568L89.7156 24.4685ZM87.4993 18.2628C87.4993 18.2628 87.2333 19.1494 87.056 19.6813L85.6376 23.582H89.361L87.9426 19.6813C87.7653 19.1494 87.4993 18.2628 87.4993 18.2628Z" fill="white"/>
<path d="M99.0244 18.7061C99.0244 18.7061 98.8471 19.5926 98.6698 20.3018L96.6307 27.926H95.3896L92.5527 17.1104H93.7052L95.8329 25.5323C96.0102 26.0643 96.0988 26.6848 96.0988 26.6848C96.0988 26.6848 96.1875 26.0643 96.3648 25.5323L98.6698 17.1104H99.6449L101.95 25.5323C102.127 26.0643 102.216 26.6848 102.216 26.6848C102.216 26.6848 102.305 26.0643 102.482 25.5323L104.698 17.1104H105.851L102.925 27.926H101.684L99.6449 20.3018C99.4676 19.5926 99.2903 18.7061 99.2903 18.7061H99.0244Z" fill="white"/>
<path d="M112.765 24.4685H108.421L107.18 27.926H106.028L110.017 17.1104H111.17L115.159 27.926H114.007L112.765 24.4685ZM110.638 18.2628C110.638 18.2628 110.372 19.1494 110.195 19.6813L108.776 23.582H112.499L111.081 19.6813C110.904 19.1494 110.638 18.2628 110.638 18.2628Z" fill="white"/>
<path d="M116.932 17.1101H120.124C120.833 17.1101 121.542 17.1101 122.163 17.3761C123.227 17.908 123.847 18.9718 123.759 20.1243C123.759 21.4541 122.961 22.6952 121.72 23.0499C121.808 23.2272 121.897 23.4045 121.986 23.4931L124.379 27.8371H123.138L120.656 23.3158H117.908V27.8371H116.844V17.0215L116.932 17.1101ZM120.567 22.4293C121.72 22.4293 122.606 21.6314 122.695 20.5676C122.695 20.4789 122.695 20.3903 122.695 20.213C122.695 19.4151 122.34 18.7059 121.72 18.3513C121.276 18.174 120.744 18.0853 120.213 18.0853H117.996V22.4293H120.567Z" fill="white"/>
<path d="M126.684 17.1101H129.876C130.585 17.1101 131.294 17.1101 131.915 17.3761C132.979 17.908 133.599 18.9718 133.511 20.1243C133.511 21.4541 132.713 22.6952 131.472 23.0499C131.56 23.2272 131.649 23.4045 131.738 23.4931L134.131 27.8371H132.89L130.408 23.3158H127.66V27.8371H126.596V17.0215L126.684 17.1101ZM130.319 22.4293C131.472 22.4293 132.358 21.6314 132.447 20.5676C132.447 20.4789 132.447 20.3903 132.447 20.3016C132.447 19.5038 132.092 18.7945 131.472 18.4399C131.028 18.2626 130.496 18.174 129.965 18.174H127.748V22.5179H130.319V22.4293Z" fill="white"/>
<path d="M141.666 24.4685H137.322L136.081 27.926H134.929L138.918 17.1104H140.071L144.06 27.926H142.907L141.666 24.4685ZM139.539 18.2628C139.539 18.2628 139.273 19.1494 139.095 19.6813L137.677 23.582H141.4L139.982 19.6813C139.805 19.1494 139.539 18.2628 139.539 18.2628Z" fill="white"/>
<path d="M68.8826 31.7383C70.3011 31.7383 71.7195 32.1815 72.7833 33.1567L72.2514 33.9546C71.3649 33.1567 70.1238 32.7135 68.9713 32.7135C66.5777 32.7135 64.6273 34.6638 64.6273 37.0574C64.6273 37.0574 64.6273 37.2347 64.6273 37.3234C64.5387 39.8057 66.4004 41.9333 68.8826 42.022C68.8826 42.022 68.9713 42.022 69.0599 42.022C70.3897 42.022 71.6309 41.4901 72.606 40.6035L73.2266 41.4014C72.1628 42.4652 70.6557 43.0858 69.0599 43.0858C66.0458 43.0858 63.5635 40.6922 63.5635 37.678C63.5635 37.678 63.5635 37.5007 63.5635 37.412C63.5635 34.3979 65.7798 32.0042 68.794 31.9156C68.794 31.9156 68.9713 31.9156 69.0599 31.9156" fill="white"/>
<path d="M75.3545 31.915H76.4183V36.8796H82.7127V31.915H83.7765V42.7306H82.7127V37.7661H76.4183V42.7306H75.3545V31.915Z" fill="white"/>
<path d="M86.9676 31.9148H90.159C90.8683 31.9148 91.5775 31.9148 92.1981 32.1808C93.7051 32.9787 94.3257 34.929 93.4392 36.4361C93.0846 37.0567 92.464 37.5886 91.7548 37.8545C91.8434 38.0318 91.9321 38.2092 92.0208 38.2978L94.4144 42.6418H93.1732L90.691 38.1205H87.9427V42.6418H86.8789V31.8262L86.9676 31.9148ZM90.6023 37.234C91.8434 37.234 92.8186 36.1701 92.73 34.929C92.73 34.2198 92.3754 33.5992 91.7548 33.156C91.3115 32.9787 90.7796 32.89 90.2477 32.89H88.0314V37.234H90.6023Z" fill="white"/>
<path d="M97.6947 31.915H96.6309V42.7306H97.6947V31.915Z" fill="white"/>
<path d="M100.709 40.692C101.507 41.4013 102.482 41.8445 103.546 41.8445C104.61 41.9332 105.585 41.1353 105.674 40.0715C105.674 40.0715 105.674 39.9828 105.674 39.8942C105.674 37.1459 100.266 37.8552 100.266 34.4864C100.354 32.802 101.861 31.4722 103.546 31.5608C104.61 31.5608 105.674 31.9154 106.471 32.6247L105.94 33.5112C105.319 32.8906 104.432 32.6247 103.546 32.6247C102.393 32.536 101.418 33.3339 101.241 34.4864C101.241 37.0573 106.649 36.3481 106.649 39.8942C106.649 43.4403 105.408 42.8197 103.369 42.8197C102.039 42.8197 100.798 42.3764 99.9111 41.4013L100.532 40.6034L100.709 40.692Z" fill="white"/>
<path d="M111.613 32.8902H107.712V31.915H116.578V32.8902H112.677V42.8193H111.613V32.8902Z" fill="white"/>
<path d="M119.326 31.915H118.262V42.7306H119.326V31.915Z" fill="white"/>
<path d="M127.748 39.2732H123.404L122.163 42.7306H121.01L125 31.915H126.152L130.141 42.7306H128.989L127.748 39.2732ZM125.62 32.9789C125.62 32.9789 125.354 33.8654 125.177 34.3973L123.758 38.298H127.482L126.063 34.3973C125.886 33.8654 125.62 32.9789 125.62 32.9789Z" fill="white"/>
<path d="M131.915 31.915H132.978L138.475 39.7165C138.829 40.2484 139.361 41.2236 139.361 41.2236C139.361 41.2236 139.273 40.337 139.273 39.7165V31.915H140.337V42.7306H139.273L133.776 34.9292C133.422 34.3973 132.89 33.4221 132.89 33.4221C132.89 33.4221 132.978 34.3087 132.978 34.9292V42.7306H131.915V31.915Z" fill="white"/>
<path d="M64.1841 46.7197H70.3011V47.6949H65.2479V51.6843H69.3259V52.6594H65.2479V56.6488H70.5671V57.624H64.1841V46.8084V46.7197Z" fill="white"/>
<path d="M72.9604 46.7197H76.5065C79.7867 46.7197 81.9144 48.6701 81.9144 52.1275C81.9144 55.585 79.698 57.5353 76.5065 57.5353H72.9604V46.7197ZM76.3292 56.5602C78.9888 56.5602 80.7619 54.9644 80.7619 52.1275C80.9392 49.9112 79.2548 47.8722 77.0385 47.6949C76.7725 47.6949 76.5952 47.6949 76.3292 47.6949H74.0243V56.6488H76.3292V56.5602Z" fill="white"/>
<path d="M84.2197 46.7197H85.2836V53.8119C85.2836 55.4963 86.702 56.8261 88.3864 56.8261C90.0708 56.8261 91.4006 55.4077 91.4006 53.8119V46.8084H92.4644V53.9006C92.4644 56.0282 90.8687 57.8013 88.8297 57.8899C88.6523 57.8899 88.5637 57.8899 88.3864 57.8899C85.9041 57.8899 84.2197 56.2942 84.2197 53.9006V46.8084V46.7197Z" fill="white"/>
<path d="M100.265 46.4541C101.684 46.4541 103.102 46.8974 104.166 47.8725L103.634 48.6704C102.748 47.8725 101.507 47.4293 100.354 47.4293C97.9605 47.4293 96.0101 49.3796 96.0101 51.7733C96.0101 51.7733 96.0101 51.9506 96.0101 52.0392C95.9215 54.5215 97.7832 56.6491 100.265 56.7378C100.265 56.7378 100.354 56.7378 100.443 56.7378C101.773 56.7378 103.014 56.2059 103.989 55.3194L104.609 56.1172C103.546 57.1811 102.038 57.8016 100.443 57.8016C97.4286 57.8016 94.9463 55.408 94.9463 52.3938C94.9463 52.3938 94.9463 52.2165 94.9463 52.1279C94.9463 49.1137 97.1626 46.7201 100.177 46.6314C100.177 46.6314 100.354 46.6314 100.443 46.6314" fill="white"/>
<path d="M112.145 54.0779H107.801L106.56 57.5353H105.407L109.397 46.7197H110.549L114.538 57.5353H113.386L112.145 54.0779ZM109.929 47.7836C109.929 47.7836 109.663 48.6701 109.485 49.202L108.067 53.1027H111.79L110.372 49.202C110.194 48.6701 109.929 47.7836 109.929 47.7836Z" fill="white"/>
<path d="M117.996 47.607H114.095V46.6318H122.96V47.607H119.06V57.5361H117.996V47.607Z" fill="white"/>
<path d="M125.709 46.7197H124.645V57.5353H125.709V46.7197Z" fill="white"/>
<path d="M133.688 46.4539C136.702 46.4539 139.184 48.8475 139.184 51.8617C139.184 51.8617 139.184 51.8617 139.184 51.9503C139.184 54.9645 136.879 57.5355 133.776 57.6241C130.762 57.6241 128.191 55.3191 128.103 52.2163C128.103 52.1276 128.103 52.039 128.103 51.8617C128.103 48.8475 130.496 46.3652 133.51 46.3652C133.51 46.3652 133.51 46.3652 133.599 46.3652M133.688 56.7376C136.17 56.7376 138.12 54.6099 138.12 52.1276C138.12 49.734 136.259 47.695 133.865 47.6064C131.471 47.6064 129.432 49.4681 129.344 51.8617C129.344 51.9503 129.344 52.039 129.344 52.1276C129.255 54.6099 131.205 56.7376 133.688 56.8262C133.688 56.8262 133.688 56.8262 133.776 56.8262" fill="white"/>
<path d="M141.578 46.7197H142.641L148.138 54.5211C148.493 55.0531 149.024 56.0282 149.024 56.0282C149.024 56.0282 148.936 55.1417 148.936 54.5211V46.7197H150V57.5353H148.936L143.439 49.7339C143.085 49.202 142.553 48.2268 142.553 48.2268C142.553 48.2268 142.641 49.1133 142.641 49.7339V57.5353H141.578V46.7197Z" fill="white"/>
<path d="M23.3154 42.3759C20.1239 41.4894 14.8934 39.4504 11.6133 48.227C11.6133 48.227 20.3012 53.0142 23.3154 42.3759Z" fill="white"/>
<path d="M23.3155 31.9149C23.3155 31.9149 23.3155 20.2128 12.8545 18.9717C15.3368 23.227 13.9183 29.5213 23.3155 31.9149Z" fill="white"/>
<path d="M49.1134 21.8086C42.4644 21.0994 39.2729 24.8228 39.2729 24.8228C42.1985 24.3795 46.8971 27.2164 49.9999 27.8369C53.1027 28.4575 56.9148 26.2412 56.9148 26.2412C56.9148 26.2412 55.7623 22.5178 49.202 21.8086" fill="white"/>
<path d="M11.2589 22.9608C10.2837 20.3899 8.06742 14.8935 3.45749 14.4502C3.45749 14.4502 0.354648 22.2516 11.2589 22.9608Z" fill="white"/>
<path d="M12.5 32.7123C12.5 32.7123 13.0319 21.9854 0 24.7336C0.797872 28.1024 4.16667 36.879 12.5 32.7123Z" fill="white"/>
<path d="M39.8935 9.66289C38.9183 6.11679 36.8793 3.01395 34.0424 0.708984C34.0424 0.708984 27.7481 6.29409 30.1417 11.7019C31.4715 14.8047 34.9289 19.5033 33.5105 22.6062C36.2587 19.7693 41.3119 15.3366 39.8935 9.75154" fill="white"/>
<path d="M41.4893 19.947C51.4183 20.213 52.5708 18.1739 55.4964 15.603C45.6559 13.1208 41.4893 19.947 41.4893 19.947Z" fill="white"/>
<path d="M42.11 14.982C49.5568 14.982 49.5568 7.44653 49.5568 7.44653C49.5568 7.44653 48.0497 6.56 44.2376 8.0671C40.4256 9.57419 42.11 14.982 42.11 14.982Z" fill="white"/>
<path d="M23.8474 11.0816C23.8474 11.0816 31.1169 5.58511 22.2517 0C21.4538 1.77305 19.5921 7.0922 23.8474 11.0816Z" fill="white"/>
<path d="M5.85107 6.73768C7.35817 10.993 9.84044 14.7164 11.7908 15.6916C13.7411 16.6668 22.4291 18.7058 23.4929 21.72C23.4929 21.72 25.4433 4.25541 5.93973 6.73768" fill="white"/>
<path d="M27.6595 21.7195C29.4325 18.8826 29.1666 15.2479 26.8616 12.7656C23.9361 14.716 25.5318 19.06 27.6595 21.7195Z" fill="white"/>
<path d="M11.968 42.9075C9.48569 41.5777 6.47151 42.2869 4.78711 44.5032C6.73746 46.8082 10.0176 45.0351 11.968 42.9075Z" fill="white"/>
<path d="M40.7801 27.0393C40.7801 27.0393 35.3723 26.2414 33.9538 27.8372C32.5354 29.4329 31.8262 33.5109 31.8262 33.5109C31.8262 33.5109 38.3865 31.6492 40.6914 27.0393" fill="white"/>
<path d="M46.0108 49.3795C43.9718 46.6312 39.6278 40.7802 33.9541 41.6667C33.9541 41.6667 32.7129 52.039 46.0108 49.3795Z" fill="white"/>
<path d="M17.3756 39.8049C17.3756 39.8049 16.0458 37.4999 12.3224 36.7907C10.1061 36.3474 7.80116 36.7907 5.93945 38.0318C9.48555 42.6417 17.3756 39.8049 17.3756 39.8049Z" fill="white"/>
<path d="M41.1348 35.284L30.0532 35.9932L28.8121 24.7344H26.7731L25.7092 34.8408L14.7163 33.7769V35.0181L25.3546 38.9188L23.8475 58.1564H32.0035L30.4965 40.0713L41.2234 36.5252V35.1954L41.1348 35.284Z" fill="white"/>
<path d="M48.8474 44.77C48.8474 44.77 49.9999 38.7417 43.085 39.9828C43.4396 41.2239 44.9467 44.6814 48.8474 44.77Z" fill="white"/>
<path d="M52.0391 32.0034C48.7589 28.1914 41.7554 31.3829 41.7554 31.3829C44.149 31.7375 44.3263 34.663 46.3653 37.1453C48.4043 39.6275 54.1667 39.7162 54.1667 39.7162C54.7873 36.968 53.9894 34.0424 52.0391 32.0034Z" fill="white"/>
</svg>
