<svg width="125" height="65" viewBox="0 0 125 65" fill="none" xmlns="http://www.w3.org/2000/svg">
<path d="M105.327 37.0749L99.8498 35.9259L93.6834 34.6236L87.9 33.4363L86.5595 33.1299L78.976 40.0623L70.3584 17.8863L77.4823 18.614L99.3136 0L103.833 15.55L109.08 3.25554L124.745 28.3807V28.5339C124.783 28.5339 120.417 28.9552 120.417 28.9552L124.094 29.9127L107.778 47.8373L107.663 47.9522C107.663 47.9522 107.625 47.9139 107.586 47.8756L105.288 37.0749H105.327Z" fill="white"/>
<path d="M105.518 52.0883C105.786 51.667 106.092 51.3606 106.398 51.0159L108.199 48.9476L111.99 44.6963L114.059 54.0033L108.965 52.8543L105.518 52.05V52.0883Z" fill="white"/>
<path d="M83.9932 54.4249L82.6527 52.8928L79.7419 49.6373L78.5545 48.3351L77.7502 47.4925L76.2565 45.9605V53.6589L76.3331 55.076H74.5713L74.916 45.3859L74.8394 41.8623C75.4905 42.0155 75.9118 42.0155 76.5246 41.8623L79.9717 45.6541L84.8358 50.9778V42.5134C84.7975 42.5134 84.7209 41.8623 84.7209 41.8623C85.3337 41.9772 85.8316 42.0155 86.4827 41.8623C86.2146 46.2669 86.138 50.6331 86.1763 55.076H84.5677L83.9549 54.4249H83.9932Z" fill="white"/>
<path d="M92.7638 51.9741C93.9895 54.1572 96.2875 54.5402 98.7387 53.8891C98.8153 52.3188 98.7387 50.7485 98.6621 49.2164C99.6962 49.3696 100.692 49.3696 101.65 49.2164C101.496 51.0549 101.496 52.8167 101.535 54.6168C98.4706 55.4594 94.4491 55.8807 91.768 54.2338C89.2785 52.7018 88.5508 50.2123 89.0104 47.4163C89.47 44.6204 91.4233 42.7054 94.1044 42.0542C96.7854 41.4031 97.5897 41.5563 99.2749 41.9776L101.458 42.782L100.884 44.8119C100.654 44.8885 100.501 44.697 100.347 44.5055C99.926 43.931 99.2749 43.5097 98.5855 43.2033C97.0535 42.5522 95.33 42.8969 94.0278 43.9693C91.8829 45.8077 91.4999 49.5994 92.8404 51.9741H92.7638Z" fill="white"/>
<path d="M71.3536 48.373L71.5068 55.1138H68.3662L68.5194 48.6028L68.3662 41.9385L69.7833 42.0151L71.5068 41.9385L71.3536 48.373Z" fill="white"/>
<path d="M65.5321 46.1132C66.1066 48.7177 65.6087 51.5136 63.6554 53.3903C61.702 55.267 61.1275 54.9989 59.5955 55.1138H55.4591H53.3525L53.5057 48.6411L53.3525 41.9385L54.1568 42.0151H55.8804C57.1826 42.0151 58.4465 41.9002 59.787 42.0151L61.7786 42.3598C63.732 42.7045 65.1491 44.1982 65.5704 46.1515L65.5321 46.1132ZM62.2766 51.054C62.7362 49.6369 62.8128 48.1815 62.583 46.7643C62.3531 45.3472 62.0084 45.0025 61.3573 44.2748C60.1317 42.9343 58.1784 42.9343 56.34 43.1641V54.0031L58.2167 54.0414C60.0934 54.0797 61.702 52.9307 62.3148 51.054H62.2766Z" fill="white"/>
<path d="M15.3588 47.7604L16.8143 50.4797L19.3421 55.0758H15.9333L13.4821 50.3265L10.6096 55.1141H8.65625L9.46056 54.0033L12.7544 49.0626L8.77115 41.9387L10.4181 42.0153L12.2565 41.9004L14.5928 46.573L16.661 43.2026L17.4271 41.9387L18.3463 42.0153L19.4187 41.9004L18.1931 43.6239L15.3588 47.7604Z" fill="white"/>
<path d="M2.98744 47.5689L7.35369 47.3774C7.23879 47.9519 7.23879 48.4881 7.35369 49.0243L3.02574 48.9094V53.6969L7.43029 53.4671C7.35369 54.0033 7.31539 54.6161 7.43029 55.0758H0C0.229803 50.7095 0.229803 46.2666 0 41.9004L2.45123 41.977C3.63855 42.0153 4.78756 41.977 6.01318 41.977L7.43029 41.9004C7.35369 42.5132 7.35369 43.0877 7.43029 43.6239L3.14064 43.3941L3.02574 44.7346V47.5689H2.98744Z" fill="white"/>
<path d="M41.3647 47.3771C41.2497 47.9134 41.2497 48.4879 41.3647 49.0624L36.9984 48.9475V53.735L41.403 53.5052C41.3263 54.0414 41.288 54.5776 41.403 55.1138H33.9727L34.1259 48.4496L33.9727 41.9385L36.5005 42.0151H39.7177L41.403 41.9385C41.3263 42.513 41.288 43.0109 41.403 43.662L37.075 43.4322L36.9984 47.6069L41.3647 47.4154V47.3771Z" fill="white"/>
<path d="M51.0158 47.3774C50.8626 47.9136 50.8626 48.4881 51.0158 49.0626L46.6495 48.9094V53.6969L51.0541 53.4671V55.0758H43.6621L43.8153 48.6796L43.6621 41.9004L46.1133 41.977H48.7561L51.0541 41.9004V43.6239L46.7261 43.3941L46.6495 47.5689L51.0541 47.3774H51.0158Z" fill="white"/>
<path d="M25.8143 53.4287C27.4995 54.6161 30.1039 54.2713 31.5593 52.8925C33.0148 51.5137 31.7891 52.7393 31.8657 52.7393C31.9423 52.7393 31.9807 52.9691 31.9424 53.084L31.5593 54.5778C29.1847 55.6502 25.5079 55.6502 23.3247 54.233C21.1416 52.8159 20.8735 51.7818 20.6437 50.02C20.1841 46.3431 21.7161 43.011 25.4313 41.9769C29.1464 40.9428 28.8783 41.479 30.5252 41.9769L32.0573 42.5131C31.8274 43.2408 31.6742 43.8536 31.5976 44.5813C31.3678 44.5813 31.2912 44.4664 31.138 44.3515C29.7975 42.7046 27.6527 42.3216 25.8526 43.5855C24.9334 44.2366 24.3206 45.2324 24.0142 46.3048C23.3247 48.7178 23.6311 51.8967 25.776 53.3904L25.8143 53.4287Z" fill="white"/>
<path d="M37.1515 64.5743C36.5387 64.3062 36.1174 63.9998 35.6577 63.6168C34.5087 64.153 33.0916 63.9232 32.6703 62.8125C32.249 61.7018 32.3256 59.5953 33.4746 58.9058C34.6236 58.2164 34.93 58.5611 35.5428 58.9058C36.8068 59.6336 36.8451 62.0465 36.0025 63.2721L36.9217 63.8849C36.9983 63.9232 37.1898 63.9998 37.1898 64.1147L37.1132 64.5743H37.1515ZM35.8109 59.9017C35.5811 59.3271 35.0066 59.1739 34.4704 59.1739C33.9342 59.1739 33.4746 59.4037 33.2448 59.94C32.8618 60.8209 32.8618 61.9699 33.3214 62.8125C33.781 63.6551 34.164 63.4253 34.6619 63.4253C36.1557 63.3487 36.4238 61.2039 35.8492 59.9017H35.8109Z" fill="white"/>
<path d="M22.291 63.7702C22.0612 64 21.6399 63.8085 21.4867 63.5404L19.3419 59.5571V63.4638C19.3419 63.5404 19.3036 63.7702 19.227 63.8468C19.1504 63.9234 18.9206 63.8468 18.8057 63.8085V58.906C18.9206 58.7528 19.4568 58.7145 19.5334 58.906L21.7931 63.0808V58.8294H22.291V63.8085V63.7702Z" fill="white"/>
<path d="M3.44704 63.7699C3.21724 63.9997 2.79593 63.8082 2.64273 63.5401L0.536207 59.5568V63.8465C0.497906 63.8465 0 63.8465 0 63.8465V58.8674C0.153202 58.7525 0.574507 58.7525 0.727709 58.8674L2.94914 63.0422V58.8291H3.44704V63.8082V63.7699Z" fill="white"/>
<path d="M74.5328 63.732C74.4179 63.9235 73.92 63.8086 73.8051 63.5788L71.6219 59.4424V63.8086H71.124V58.8296C71.2772 58.7147 71.7751 58.6764 71.8517 58.8296L74.0349 62.9277V58.753C74.0732 58.753 74.5328 58.753 74.5328 58.753V63.732Z" fill="white"/>
<path d="M15.7029 63.9232C14.6688 63.9232 13.9028 63.387 13.7496 62.3912C13.5964 61.3954 13.6347 59.4804 14.822 58.8675C16.0093 58.2547 16.1625 58.5994 16.737 58.8675C18.0009 59.4804 18.0775 61.6252 17.503 62.8891C16.9285 64.153 16.5072 63.8466 15.7412 63.8849L15.7029 63.9232ZM16.9285 62.7742C17.3881 61.855 17.3881 60.7826 16.9668 59.9017C16.5455 59.0207 15.9327 59.0973 15.2433 59.2506C14.0177 59.5187 13.8262 61.7401 14.4773 62.8891C15.1284 64.0381 15.2816 63.4636 15.7412 63.4636C16.2008 63.4636 16.6604 63.2721 16.8902 62.8125L16.9285 62.7742Z" fill="white"/>
<path d="M92.0357 62.2764C91.8059 63.1956 91.0782 63.8084 90.159 63.8084H88.627V58.791H90.4654C91.1931 58.791 91.8059 59.557 91.9974 60.2464C92.1889 60.9358 92.1889 61.5869 91.9974 62.3147L92.0357 62.2764ZM91.5761 60.5145C91.4229 59.8634 90.925 59.3272 90.2739 59.2889H89.1632V63.4254L90.3888 63.3488C91.4995 63.2722 91.8442 61.8168 91.5761 60.5145Z" fill="white"/>
<path d="M79.3582 60.4765C79.588 62.0085 79.205 63.5788 77.7113 63.7703H75.9111C75.9111 63.8086 75.9111 58.7529 75.9111 58.7529H77.5198C78.439 58.7529 79.2433 59.5572 79.3965 60.4765H79.3582ZM78.5922 62.6979C79.0135 61.8553 79.0135 60.8595 78.6305 60.0551C78.2475 59.2508 77.9411 59.2891 77.4815 59.2891H76.3707V63.4256H77.4049C77.8262 63.3873 78.3624 63.1575 78.5922 62.7362V62.6979Z" fill="white"/>
<path d="M87.1721 63.8084L86.6359 62.3147C86.4061 61.6636 85.8316 61.3954 85.1422 61.587V63.8467H84.6826V58.791H86.3295C86.9423 58.791 87.3253 59.4038 87.4019 59.94C87.4785 60.4762 87.1721 61.089 86.5593 61.3188C86.7891 61.5487 87.0189 61.8168 87.1338 62.1232L87.7467 63.8084C87.6318 63.8467 87.3636 63.885 87.2104 63.8084H87.1721ZM86.1763 61.0124C86.6359 61.0124 86.8274 60.5528 86.8657 60.2464C86.904 59.94 86.7508 59.4804 86.3678 59.3655C85.9848 59.2506 85.5635 59.2506 85.1422 59.2889V61.089L86.1763 61.0507V61.0124Z" fill="white"/>
<path d="M26.1214 62.43H24.0915L23.6319 63.7322C23.5936 63.8471 23.2106 63.8471 23.0957 63.7322L24.8192 58.7148H25.3937L27.1173 63.7322H26.581C26.581 63.7705 26.1214 62.3534 26.1214 62.3534V62.43ZM25.9299 61.9704L25.049 59.366L24.1681 61.9704H25.9299Z" fill="white"/>
<path d="M44.85 62.4297H42.82L42.3604 63.8086C42.2455 63.8086 42.0157 63.8086 41.8242 63.8086L43.5477 58.8295C43.7009 58.7912 43.9307 58.7912 44.1222 58.8295L45.8458 63.8469H45.3096C45.3096 63.8852 44.85 62.4681 44.85 62.4681V62.4297ZM44.6585 61.9701L43.7775 59.4423L42.8966 62.0084H44.6202L44.6585 61.9701Z" fill="white"/>
<path d="M7.27671 62.4298H5.24679L4.78718 63.732C4.74888 63.8852 4.36588 63.8852 4.25098 63.7703L5.9745 58.7529H6.54901L8.31083 63.8086C8.15763 63.8469 7.88952 63.8469 7.77462 63.8086L7.31502 62.4298H7.27671ZM7.12351 61.9702L6.2426 59.4423L5.36169 62.0085H7.12351V61.9702Z" fill="white"/>
<path d="M69.3236 62.43H67.2937L66.8341 63.7705C66.7192 63.8471 66.4128 63.8471 66.2979 63.7705L68.0214 58.7914C68.1746 58.7531 68.4427 58.7531 68.5959 58.7914L70.3194 63.8088L69.7832 63.8854L69.3236 62.4683V62.43ZM69.1704 61.9704L68.2895 59.4425L67.4086 62.0087H69.1321L69.1704 61.9704Z" fill="white"/>
<path d="M82.8824 62.43H80.8142L80.3546 63.8088H79.8184L81.5419 58.7914C81.6951 58.7531 81.9632 58.7531 82.1164 58.7914L83.8399 63.8088H83.3037C83.3037 63.8471 82.8441 62.43 82.8441 62.43H82.8824ZM82.6909 61.9704L81.81 59.4808L80.9674 62.0087H82.6909V61.9704Z" fill="white"/>
<path d="M40.713 58.7531H41.1726V62.3534C41.1726 63.2726 40.4066 63.8471 39.564 63.8854C38.7214 63.9237 37.7256 63.2343 37.7256 62.1619V58.7148H38.2235V62.1619C38.2235 62.9279 38.7597 63.3875 39.4108 63.4258C40.0619 63.4641 40.6747 62.9279 40.6747 62.1619V58.7148L40.713 58.7531Z" fill="white"/>
<path d="M62.3912 63.5789C61.7401 64.0385 60.7826 63.9619 60.1698 63.5789C59.557 63.1959 60.0549 63.1193 60.1315 63.0044C60.6294 63.2342 61.0124 63.464 61.5486 63.464C62.0848 63.464 62.2763 63.1576 62.3912 62.8895C62.5061 62.6214 62.3912 62.0468 62.0465 61.817L61.0124 61.2042C60.5911 60.9361 60.2464 60.5914 60.2464 60.1318C60.2464 59.6722 60.3996 59.0977 60.8592 58.8679C61.3188 58.6381 62.4678 58.753 62.6976 59.136C62.9274 59.519 62.6976 59.519 62.621 59.5573C61.8933 59.136 61.0124 59.0977 60.7826 59.6722C60.5528 60.2467 61.2039 60.7829 61.9699 61.1276C62.7359 61.4723 62.8508 61.7404 62.9274 62.1235C63.0423 62.698 62.9274 63.2725 62.4678 63.6172L62.3912 63.5789Z" fill="white"/>
<path d="M53.0075 63.8086L52.5096 63.8469V59.2508L51.0541 59.2891L50.9775 58.7529H54.4629L54.5012 59.2125L53.0075 59.2508V63.8086Z" fill="white"/>
<path d="M64.7281 63.7705V59.251L63.2344 59.2128V58.7531L66.6431 58.7148C66.6431 58.7531 66.7197 58.9446 66.758 59.2128H65.226V63.8471L64.7281 63.7705Z" fill="white"/>
<path d="M58.4847 58.7912L57.0676 61.8553L57.0293 63.8469L56.5697 63.8086V61.8553L55.1143 58.7529H55.6505L56.8378 61.2808L57.9868 58.7529L58.4847 58.7912Z" fill="white"/>
<path d="M9.8434 63.8086L9.3455 63.8469V59.2508H7.81348L7.89008 58.7529H11.3371L11.3754 59.2508H9.8434V63.8086Z" fill="white"/>
<path d="M48.9477 63.3873C49.0243 63.4639 49.0626 63.7703 48.986 63.8469H46.6113V58.7529H47.1092V63.3873H48.9477Z" fill="white"/>
<path d="M29.9893 63.3486C30.1042 63.3486 30.2957 63.4252 30.2957 63.5401C30.2957 63.655 30.1808 63.8465 30.1042 63.8465H27.8828V58.7525C28.0743 58.6759 28.3424 58.7525 28.3424 58.8674V63.3486H29.9893Z" fill="white"/>
<path d="M50.2506 63.8086C50.1357 63.8852 49.9059 63.9235 49.791 63.8086V58.7912L50.2506 58.7529V63.8086Z" fill="white"/>
<path d="M12.1025 58.7144V63.8467H12.6004V58.7144H12.1025Z" fill="white"/>
<path d="M18.0779 37.4195C17.58 38.3004 15.9714 38.5302 14.9756 38.2621V33.2447C15.6267 33.2447 16.2778 33.1681 16.8906 33.283C18.6141 33.6277 18.8822 36.079 18.0779 37.4195ZM17.6183 37.228C18.1162 36.3471 18.1162 35.2747 17.6566 34.4321C17.197 33.5894 17.0055 33.7809 16.6608 33.7809H15.4352V37.8791H16.2012C16.6991 37.8791 17.3119 37.7642 17.58 37.2663L17.6183 37.228Z" fill="white"/>
<path d="M2.52783 38.3001L1.95332 36.7681C1.72352 36.117 1.14901 35.8106 0.459606 36.0021V38.3001C0.306404 38.3001 0.076601 38.3001 0 38.3001V33.2444C0.612808 33.2061 1.22562 33.1678 1.80012 33.2444C2.37463 33.321 2.68103 33.9338 2.71933 34.4317C2.75763 34.9296 2.48953 35.4658 1.91502 35.734C2.18313 36.117 2.45123 36.5 2.60443 36.9213L3.06404 38.2235C3.06404 38.3384 2.60443 38.415 2.56613 38.3001H2.52783ZM1.83842 35.3126C2.14483 35.1594 2.22143 34.7764 2.22143 34.5083C2.22143 34.2402 2.06823 33.8955 1.80012 33.8189C1.37882 33.6657 0.957512 33.6657 0.497906 33.704V35.5041C0.957512 35.5041 1.41712 35.5041 1.83842 35.3126Z" fill="white"/>
<path d="M6.473 36.8828H4.44308L4.06007 38.0318C4.06007 38.1467 3.90687 38.2999 3.83027 38.3765C3.75367 38.4531 3.52387 38.3382 3.44727 38.2233L5.09419 33.5124C5.09419 33.3975 5.20909 33.206 5.32399 33.1677C5.43889 33.1294 5.74529 33.1677 5.7836 33.2826L7.50712 38.2616C7.35391 38.3382 7.12411 38.3382 6.97091 38.2999L6.5113 36.8828H6.473ZM6.3198 36.4232L5.43889 33.8954L4.59628 36.4232H6.3198Z" fill="white"/>
<path d="M13.2907 35.8488H11.7586V37.8404H13.8269V38.3383H11.7586C11.6054 38.3383 11.4139 38.2617 11.2607 38.1851V33.2061H13.7886C13.8269 33.3593 13.7886 33.5891 13.7886 33.704H11.7586V35.4275H13.4056C13.4822 35.4275 13.5971 35.6573 13.5588 35.6956C13.5205 35.7339 13.3673 35.8488 13.2524 35.8488H13.2907Z" fill="white"/>
<path d="M9.0386 38.2242C9.0386 38.3774 8.69389 38.454 8.54069 38.3391V33.743H7.08527V33.2451C7.04697 33.2451 10.5323 33.2451 10.5323 33.2451V33.743H9.0003V38.2625L9.0386 38.2242Z" fill="white"/>
</svg>
