<svg width="197" height="79" viewBox="0 0 197 79" fill="none" xmlns="http://www.w3.org/2000/svg">
<path d="M39.3541 78.1339C60.7716 78.1339 78.1339 60.7716 78.1339 39.3541C78.1339 17.9365 60.7716 0.574219 39.3541 0.574219C17.9365 0.574219 0.574219 17.9365 0.574219 39.3541C0.574219 60.7716 17.9365 78.1339 39.3541 78.1339Z" fill="white"/>
<path d="M39.3541 78.7129C17.6529 78.7129 0 61.0553 0 39.3541C0 17.6529 17.6529 0 39.3541 0C61.0553 0 78.7081 17.6529 78.7081 39.3541C78.7081 61.0553 61.0553 78.7081 39.3541 78.7081V78.7129ZM39.3541 1.14847C18.2893 1.14847 1.14847 18.2893 1.14847 39.3541C1.14847 60.4188 18.2893 77.5597 39.3541 77.5597C60.4188 77.5597 77.5597 60.4188 77.5597 39.3541C77.5597 18.2893 60.4236 1.14847 39.3541 1.14847Z" fill="#373737"/>
<path d="M39.3543 66.5296C24.3716 66.5296 12.1787 54.3368 12.1787 39.3541C12.1787 24.3714 24.3716 12.1785 39.3543 12.1785C54.337 12.1785 66.5298 24.3714 66.5298 39.3541C66.5298 54.3368 54.337 66.5296 39.3543 66.5296ZM39.3543 12.6571C24.6348 12.6571 12.6572 24.6346 12.6572 39.3541C12.6572 54.0736 24.6348 66.0511 39.3543 66.0511C54.0738 66.0511 66.0513 54.0736 66.0513 39.3541C66.0513 24.6346 54.0738 12.6571 39.3543 12.6571Z" fill="#373737"/>
<path d="M5.23047 38.8851L5.24482 38.2822L9.53243 38.3683L9.51807 38.9712L5.23047 38.8851Z" fill="#373737"/>
<path d="M5.31152 36.6982L5.37373 36.1001L9.1206 36.4925L9.32158 34.5831L9.84318 34.6358L9.57999 37.1433L5.31152 36.6934V36.6982Z" fill="#373737"/>
<path d="M5.79492 33.0088L5.92412 32.4202L9.604 33.2193L10.0107 31.3435L10.5228 31.4536L9.98682 33.918L5.79492 33.004V33.0088Z" fill="#373737"/>
<path d="M10.2793 28.2905L9.74811 29.817L10.7722 30.6257L10.5664 31.2095L7.02051 28.3384L7.23106 27.7402L11.7914 27.6971L11.5857 28.2905H10.2793ZM7.68566 28.2427C7.68566 28.2427 8.02063 28.4628 8.20247 28.6016L9.33179 29.5012L9.75768 28.2714H8.31732C8.08762 28.2714 7.69045 28.2235 7.69045 28.2235V28.2331L7.68566 28.2427Z" fill="#373737"/>
<path d="M9.3888 22.9597L12.5567 23.7062C12.7959 23.7636 13.0017 23.8402 13.0017 23.8402V23.8306C13.0017 23.8306 12.8198 23.7062 12.6428 23.5483L10.2454 21.3662L10.5373 20.8207L13.7865 23.8354L13.4563 24.4527L10.6569 23.7923C10.3794 23.7253 10.0635 23.6153 10.0635 23.6153V23.6248C10.0635 23.6248 10.3267 23.8306 10.5325 24.022L12.6332 25.9888L12.303 26.6061L8.00586 25.5437L8.29776 24.9982L11.4273 25.8165C11.657 25.8787 11.8676 25.9601 11.8676 25.9601V25.9505C11.8676 25.9505 11.6953 25.8213 11.5135 25.6538L9.13518 23.4287L9.3888 22.9597Z" fill="#373737"/>
<path d="M15.0595 19.9067L14.0834 21.1987L14.8107 22.2802L14.4375 22.7731L11.9443 18.9544L12.3272 18.452L16.6818 19.8062L16.3037 20.3039L15.0595 19.9019V19.9067ZM12.6047 19.0645C12.6047 19.0645 12.8583 19.3755 12.9875 19.5669L13.7819 20.7728L14.5667 19.7344L13.1933 19.2894C12.9732 19.2176 12.6095 19.0549 12.6095 19.0549L12.5999 19.0645H12.6047Z" fill="#373737"/>
<path d="M14.0645 16.3417L14.9832 15.4038C15.2991 15.0832 15.457 14.9731 15.6149 14.9013C16.0408 14.7051 16.548 14.8008 16.95 15.198C17.3424 15.5808 17.4572 16.1216 17.2371 16.5618L17.2467 16.5714C17.2467 16.5714 17.3184 16.5714 17.4764 16.6145L19.3043 17.1313L18.8258 17.6194L16.9739 17.0691L16.3327 17.7246L17.5529 18.921L17.1318 19.3516L14.0692 16.3465L14.0645 16.3417ZM16.5624 16.7389C16.8925 16.4039 16.883 15.9876 16.5384 15.6526C16.3135 15.4325 16.0695 15.3607 15.8254 15.4325C15.701 15.4708 15.5766 15.5473 15.3421 15.7866L14.8588 16.2795L15.9546 17.3562L16.5576 16.7389H16.5624Z" fill="#373737"/>
<path d="M17.2793 13.2312L18.3129 12.4225C18.667 12.145 18.8393 12.0589 19.0068 12.0062C19.4518 11.8674 19.9447 12.0301 20.294 12.4752C20.629 12.9058 20.6768 13.4562 20.3993 13.8677L20.4089 13.8773C20.4089 13.8773 20.4806 13.8916 20.629 13.9538L22.3756 14.7051L21.8397 15.1262L20.0739 14.3366L19.3513 14.9013L20.4041 16.246L19.9303 16.6192L17.2841 13.236L17.2793 13.2312ZM19.7006 13.949C20.0691 13.6619 20.117 13.2456 19.8203 12.8676C19.6241 12.6187 19.3896 12.5182 19.1456 12.5565C19.0163 12.5804 18.8824 12.6379 18.6192 12.8436L18.0737 13.2695L19.0211 14.4802L19.7006 13.949Z" fill="#373737"/>
<path d="M24.2563 12.1163L22.8638 12.9393L23.127 14.217L22.5958 14.5328L21.7393 10.0538L22.2848 9.73322L25.7972 12.6379L25.2564 12.9585L24.2563 12.1163ZM22.3039 10.4079C22.3039 10.4079 22.4188 10.7908 22.4666 11.0157L22.749 12.4321L23.8687 11.7717L22.7681 10.8434C22.5958 10.6903 22.3183 10.4032 22.3183 10.4032H22.3087L22.3039 10.4079Z" fill="#373737"/>
<path d="M28.2186 6.93865C29.1948 6.59411 29.8791 6.94822 29.8791 6.94822L29.7499 7.46982C29.7499 7.46982 29.123 7.19705 28.4244 7.4411C27.52 7.76172 27.1706 8.65656 27.4769 9.51791C27.7832 10.384 28.6445 10.9056 29.5441 10.585C30.305 10.3171 30.6065 9.61362 30.6065 9.61362L31.0563 9.91509C31.0563 9.91509 30.7261 10.7525 29.7116 11.1114C28.4962 11.5421 27.3142 10.9152 26.8931 9.72846C26.4768 8.55129 27.0414 7.3454 28.2186 6.92908V6.93865Z" fill="#373737"/>
<path d="M31.2285 6.09162L31.8171 5.97677L32.1712 7.82389L34.3533 7.40278L33.9992 5.55088L34.5878 5.43604L35.3965 9.64707L34.8079 9.76192L34.4538 7.91002L32.2717 8.33112L32.6258 10.183L32.0372 10.2979L31.2285 6.08683V6.09162Z" fill="#373737"/>
<path d="M36.3826 5.259L37.6938 5.19679C38.1436 5.17765 38.3302 5.20158 38.4977 5.25422C38.9427 5.39778 39.249 5.81409 39.2729 6.37876C39.2968 6.92428 39.0145 7.39802 38.5551 7.57507V7.58943C38.5551 7.58943 38.6078 7.64207 38.6939 7.77606L39.6797 9.39348L39.0002 9.42697L38.0144 7.76648L37.0956 7.80955L37.177 9.51311L36.574 9.54182L36.373 5.259H36.3826ZM37.9426 7.24489C38.4116 7.22096 38.6891 6.90992 38.6652 6.43139C38.6508 6.11557 38.5168 5.89544 38.2967 5.78538C38.1771 5.72796 38.0383 5.69925 37.7034 5.7136L37.0095 5.7471L37.0813 7.28317L37.9426 7.24489Z" fill="#373737"/>
<path d="M40.732 5.18243L41.3302 5.21115L41.1244 9.49396L40.5215 9.46525L40.7273 5.18243H40.732Z" fill="#373737"/>
<path d="M42.4986 8.63264C42.4986 8.63264 42.8862 9.14945 43.5227 9.23559C43.9199 9.28823 44.2883 9.11117 44.341 8.70921C44.4654 7.78565 42.379 7.70909 42.5561 6.39792C42.647 5.73755 43.2882 5.28774 44.0921 5.3978C44.8817 5.50308 45.2406 5.99117 45.2406 5.99117L44.9008 6.45056C44.9008 6.45056 44.5611 6.02946 44.0156 5.95768C43.5658 5.89547 43.2069 6.13473 43.159 6.47449C43.0394 7.35498 45.1305 7.39804 44.9439 8.7762C44.853 9.43178 44.274 9.90553 43.4318 9.79068C42.5274 9.66626 42.0967 9.03939 42.0967 9.03939L42.4939 8.63264H42.4986Z" fill="#373737"/>
<path d="M47.4797 6.66108L46.0537 6.2974L46.1829 5.79016L49.614 6.67065L49.4848 7.17789L48.0587 6.81421L47.1208 10.4606L46.537 10.3122L47.4749 6.66587L47.4797 6.66108Z" fill="#373737"/>
<path d="M50.6238 7.05349L51.1884 7.25447L49.7385 11.2885L49.1738 11.0875L50.6238 7.04871V7.05349Z" fill="#373737"/>
<path d="M53.3465 11.5086L51.8822 10.8195L50.973 11.7526L50.4131 11.4894L53.6384 8.26416L54.2126 8.53214L53.7771 13.0734L53.2125 12.8054L53.3465 11.5038V11.5086ZM53.6671 8.92931C53.6671 8.92931 53.4135 9.24036 53.2555 9.40784L52.2411 10.4367L53.4182 10.9918L53.5714 9.55618C53.6001 9.32649 53.6814 8.93888 53.6814 8.93888H53.6719L53.6671 8.92931Z" fill="#373737"/>
<path d="M56.6815 9.80981L57.1792 10.1352L57.2414 13.5136C57.2462 13.7912 57.1983 14.2266 57.1983 14.2266H57.2079C57.2079 14.2266 57.3802 13.8917 57.5141 13.6907L59.0454 11.3602L59.5479 11.6904L57.1935 15.2746L56.7006 14.9492L56.6289 11.5756C56.6289 11.2932 56.6719 10.8578 56.6719 10.8578H56.6624C56.6624 10.8578 56.4853 11.1928 56.3561 11.3985L54.8296 13.7242L54.3271 13.394L56.6815 9.80981Z" fill="#373737"/>
<path d="M60.3709 16.7341C60.3709 16.7341 60.3709 17.3849 60.8207 17.8347C61.103 18.117 61.505 18.1984 61.7921 17.9113C62.4477 17.2509 60.835 15.9254 61.7682 14.9923C62.2419 14.5185 63.0219 14.552 63.5961 15.1263C64.1608 15.6861 64.1512 16.2891 64.1512 16.2891L63.6057 16.447C63.6057 16.447 63.5866 15.9063 63.199 15.5186C62.8783 15.198 62.4477 15.1693 62.2084 15.4134C61.5815 16.0402 63.2181 17.3418 62.2371 18.3276C61.7682 18.7966 61.0217 18.8205 60.4187 18.2223C59.7727 17.5763 59.811 16.8155 59.811 16.8155L60.3756 16.7341H60.3709Z" fill="#373737"/>
<path d="M66.6397 18.6147C67.2713 19.433 67.1469 20.1986 67.1469 20.1986L66.611 20.2369C66.611 20.2369 66.678 19.5574 66.2234 18.9688C65.6348 18.2079 64.6777 18.1601 63.9551 18.7152C63.2278 19.2751 63.0029 20.256 63.5867 21.0121C64.0796 21.6533 64.8404 21.7203 64.8404 21.7203L64.6969 22.2371C64.6969 22.2371 63.7972 22.1845 63.1416 21.3375C62.3521 20.3182 62.5818 18.9975 63.5771 18.2271C64.5629 17.4662 65.8884 17.6289 66.6492 18.6147H66.6397Z" fill="#373737"/>
<path d="M68.3963 21.2179L68.6882 21.7443L67.042 22.663L68.1235 24.6059L69.7697 23.6871L70.0616 24.2135L66.3147 26.2999L66.0228 25.7735L67.6689 24.8547L66.5874 22.9119L64.9413 23.8307L64.6494 23.3043L68.3963 21.2179Z" fill="#373737"/>
<path d="M71.5641 27.6637C71.9852 28.8313 71.4158 30.0563 70.253 30.4774C69.0662 30.9081 67.8125 30.3386 67.3914 29.171C66.9703 28.0034 67.5684 26.7592 68.7552 26.3333C69.918 25.9122 71.143 26.5008 71.5641 27.6637ZM67.9082 28.9844C68.2049 29.8075 69.1332 30.2238 70.0424 29.8936C70.9229 29.573 71.3488 28.6733 71.0473 27.8503C70.7506 27.0272 69.8462 26.5965 68.9657 26.9172C68.0565 27.2473 67.6115 28.1613 67.9082 28.9844Z" fill="#373737"/>
<path d="M73.0423 33.1476C73.2624 34.3678 72.4967 35.4828 71.2813 35.7029C70.0371 35.9278 68.8982 35.1622 68.6733 33.9419C68.4532 32.7217 69.2475 31.5971 70.4917 31.3674C71.7072 31.1473 72.8173 31.9273 73.0375 33.1476H73.0423ZM69.2188 33.8414C69.3767 34.7028 70.2189 35.2674 71.1712 35.0904C72.09 34.9229 72.6594 34.1046 72.5015 33.2433C72.3436 32.3819 71.5253 31.8077 70.6018 31.9752C69.6495 32.1474 69.0609 32.9801 69.2188 33.8414Z" fill="#373737"/>
<path d="M73.4497 36.8083L73.4736 37.4112L69.7076 37.5691L69.789 39.488L69.2674 39.512L69.1621 36.9901L73.4497 36.8083Z" fill="#373737"/>
<path d="M14.5757 56.1839L14.9202 56.6768L11.3983 59.1316L11.0537 58.6387L14.5757 56.1839Z" fill="#373737"/>
<path d="M15.5667 57.629L15.9543 58.0788L15.0977 61.3472C15.0259 61.6199 14.8632 62.0267 14.8632 62.0267L14.8728 62.0363C14.8728 62.0363 15.136 61.7539 15.3131 61.596L17.4234 59.768L17.8158 60.2226L14.5713 63.0316L14.1837 62.5866L15.0355 59.3182C15.1121 59.0455 15.2748 58.6387 15.2748 58.6387L15.2652 58.6291C15.2652 58.6291 15.002 58.9115 14.8202 59.0694L12.7147 60.8926L12.3223 60.438L15.5667 57.629Z" fill="#373737"/>
<path d="M21.3519 63.1943C22.1701 63.8259 22.2419 64.5964 22.2419 64.5964L21.7299 64.7687C21.7299 64.7687 21.6198 64.0939 21.036 63.6393C20.2752 63.0555 19.3373 63.2469 18.7774 63.9695C18.2175 64.6969 18.2462 65.7018 19.0023 66.2856C19.6435 66.7785 20.3948 66.6493 20.3948 66.6493L20.3852 67.1852C20.3852 67.1852 19.5047 67.3623 18.653 66.7067C17.6337 65.9219 17.5188 64.5868 18.2845 63.5915C19.0454 62.6057 20.3661 62.4239 21.3519 63.1847V63.1943Z" fill="#373737"/>
<path d="M23.266 64.6682L23.7923 64.9601L22.8736 66.6014L24.8116 67.6877L25.7304 66.0463L26.2568 66.3382L24.1656 70.0803L23.6392 69.7884L24.558 68.147L22.62 67.0608L21.7012 68.7021L21.1748 68.4102L23.266 64.6682Z" fill="#373737"/>
<path d="M27.2662 66.7881L28.4913 67.2618C28.9124 67.4245 29.0751 67.525 29.2043 67.6446C29.5536 67.9557 29.6637 68.4629 29.4579 68.9893C29.2617 69.5013 28.8119 69.8219 28.319 69.7932V69.8028C28.319 69.8028 28.3381 69.8698 28.3621 70.0325L28.6109 71.9131L27.9745 71.6691L27.7496 69.7502L26.893 69.42L26.2757 71.0135L25.7158 70.7934L27.2662 66.7929V66.7881ZM27.8835 69.2381C28.319 69.4056 28.7018 69.2381 28.8741 68.7883C28.9889 68.4916 28.9554 68.238 28.7975 68.0466C28.7114 67.9461 28.5966 67.8648 28.2807 67.7451L27.6347 67.4963L27.0796 68.9319L27.8835 69.2429V69.2381Z" fill="#373737"/>
<path d="M30.9411 68.0992L31.5202 68.2619L30.3573 72.3916L29.7783 72.2289L30.9411 68.0992Z" fill="#373737"/>
<path d="M32.0422 71.8461C32.0422 71.8461 32.4011 72.3869 33.0327 72.5065C33.4251 72.583 33.8032 72.4251 33.8797 72.0232C34.052 71.1092 31.9752 70.9178 32.2193 69.621C32.3437 68.9654 33.0088 68.5539 33.8032 68.7022C34.588 68.8505 34.9181 69.353 34.9181 69.353L34.5545 69.7932C34.5545 69.7932 34.2339 69.353 33.6979 69.2525C33.2481 69.1664 32.8796 69.3865 32.8174 69.7215C32.6499 70.5924 34.7363 70.7503 34.4779 72.1189C34.3535 72.7697 33.7505 73.2099 32.9131 73.052C32.0183 72.8797 31.6211 72.2289 31.6211 72.2289L32.0422 71.8461Z" fill="#373737"/>
<path d="M36.7846 69.7119L35.3203 69.6018L35.3586 69.0802L38.8901 69.3434L38.8518 69.865L37.3875 69.7549L37.1052 73.5114L36.5071 73.4683L36.7894 69.7119H36.7846Z" fill="#373737"/>
<path d="M39.4971 69.2237L40.0665 69.2142L39.6933 70.4057L39.2578 70.4153L39.4971 69.2237Z" fill="#373737"/>
<path d="M41.1869 72.6069C41.1869 72.6069 41.6798 73.028 42.3162 72.9754C42.7134 72.9419 43.034 72.6883 43.0005 72.2815C42.9191 71.3532 40.8663 71.7312 40.7562 70.4201C40.6988 69.7549 41.2299 69.1807 42.0339 69.1089C42.8282 69.0419 43.2828 69.4343 43.2828 69.4343L43.0531 69.9559C43.0531 69.9559 42.6272 69.6209 42.0817 69.6688C41.6271 69.7071 41.3304 70.0181 41.3591 70.3578C41.4357 71.2431 43.4838 70.8268 43.6034 72.2145C43.6609 72.8749 43.1967 73.4635 42.3497 73.5353C41.4405 73.6118 40.8854 73.095 40.8854 73.095L41.1869 72.6117V72.6069Z" fill="#373737"/>
<path d="M46.6135 71.87C46.6135 71.87 47.1686 72.205 47.7859 72.047C48.1735 71.9465 48.4463 71.6451 48.3458 71.2527C48.1161 70.3531 46.1541 71.0613 45.824 69.7836C45.6565 69.1376 46.0871 68.482 46.8719 68.281C47.6424 68.0848 48.1544 68.4007 48.1544 68.4007L48.0108 68.951C48.0108 68.951 47.5371 68.6878 47.0059 68.8266C46.5657 68.9414 46.3216 69.2955 46.4078 69.6257C46.6279 70.487 48.5803 69.7405 48.9248 71.09C49.0875 71.7312 48.7286 72.3868 47.9056 72.5974C47.0251 72.8223 46.3886 72.4012 46.3886 72.4012L46.604 71.8748L46.6135 71.87Z" fill="#373737"/>
<path d="M48.9482 67.7595L51.2787 66.8742L51.4653 67.3623L49.6995 68.0322L50.1781 69.286L51.6136 68.7405L51.8003 69.2286L50.3647 69.7741L50.8528 71.0661L52.7143 70.3579L52.9009 70.846L50.4747 71.7695L48.9482 67.7595Z" fill="#373737"/>
<path d="M52.1445 66.4866L53.3074 65.8741C53.7045 65.6635 53.8864 65.6109 54.0634 65.587C54.5276 65.5296 54.9822 65.7784 55.2454 66.2761C55.499 66.7594 55.4464 67.3097 55.1018 67.6638V67.6734C55.1018 67.6734 55.1784 67.6973 55.3124 67.7834L56.8963 68.8314L56.2934 69.1472L54.6951 68.061L53.8816 68.4869L54.6759 69.999L54.1448 70.2813L52.1445 66.4866ZM54.4032 67.6255C54.8147 67.4054 54.9343 67.0082 54.7142 66.5823C54.5659 66.3048 54.3553 66.1612 54.1065 66.1564C53.9773 66.1564 53.8337 66.1899 53.5418 66.3431L52.9293 66.6637L53.6471 68.0227L54.408 67.6207L54.4032 67.6255Z" fill="#373737"/>
<path d="M55.0684 64.9409L55.5995 64.5677L58.2171 66.4387C58.4133 66.5823 58.6908 66.8263 58.6908 66.8263H58.7004C58.7004 66.8263 58.5616 66.477 58.4946 66.2425L57.6285 63.1417L58.1501 62.7732L59.3273 67.1948L58.8344 67.5393L55.0684 64.9409Z" fill="#373737"/>
<path d="M58.6045 62.3282L59.0639 61.9358L61.8489 65.1993L61.3895 65.5917L58.6045 62.3282Z" fill="#373737"/>
<path d="M61.1938 59.7728C61.9068 59.0263 62.682 59.0359 62.682 59.0359L62.8016 59.5623C62.8016 59.5623 62.1173 59.6006 61.6053 60.1365C60.9401 60.8304 61.0358 61.7874 61.6962 62.4191C62.3614 63.0507 63.3615 63.1273 64.0219 62.4382C64.5817 61.8544 64.5339 61.0936 64.5339 61.0936L65.0698 61.1606C65.0698 61.1606 65.156 62.0554 64.4095 62.8354C63.5194 63.7685 62.1795 63.7398 61.2703 62.8737C60.3707 62.0123 60.3324 60.682 61.189 59.7824L61.1938 59.7728Z" fill="#373737"/>
<path d="M62.873 57.9879L64.3469 55.9829L64.768 56.294L63.6483 57.8157L64.7297 58.61L65.6389 57.3706L66.06 57.6817L65.1508 58.9211L66.261 59.7393L67.443 58.1363L67.8641 58.4473L66.328 60.5385L62.873 57.9975V57.9879Z" fill="#373737"/>
<path d="M39.3544 76.6792C18.773 76.6792 2.0293 59.9355 2.0293 39.354C2.0293 18.7726 18.773 2.02893 39.3544 2.02893C59.9359 2.02893 76.6795 18.7726 76.6795 39.354C76.6795 59.9355 59.9359 76.6792 39.3544 76.6792ZM39.3544 2.50746C19.0362 2.50746 2.50782 19.0358 2.50782 39.354C2.50782 59.6723 19.0362 76.2006 39.3544 76.2006C59.6727 76.2006 76.201 59.6723 76.201 39.354C76.201 19.0358 59.6727 2.50746 39.3544 2.50746Z" fill="#373737"/>
<path d="M38.9428 48.2308L30.2432 47.3742V45.2639H38.9428V48.2308Z" fill="#373737"/>
<path d="M48.3119 47.3742L39.6123 48.2738V45.3022H48.3119V47.3742Z" fill="#373737"/>
<path d="M38.0719 38.0956L36.7129 66.0464C37.6652 66.1516 38.6318 66.2043 39.608 66.2043C40.3449 66.2043 41.0771 66.166 41.7996 66.1086L40.4358 38.0956H38.0719Z" fill="#373737"/>
<path d="M27.0508 56.1552L27.0029 56.3561L27.1943 56.4327C27.2709 56.4614 28.4433 56.9208 29.9363 56.9208C30.8646 56.9208 31.9126 56.7437 32.9032 56.1791C34.6307 55.1933 35.7313 53.2648 36.1667 50.4463L36.205 50.2071L35.5255 50.1066C32.9797 49.7142 28.7208 49.0586 27.0508 56.1552Z" fill="#E8423F"/>
<path d="M47.2976 41.6176C48.4125 40.5792 49.7476 38.6411 49.7716 35.3058V34.9373L49.4749 35.1479C49.0251 35.4637 48.379 35.6934 47.6278 35.9614C45.2303 36.8131 41.9429 37.9807 42.0721 43.3068V43.479L42.2491 43.4886C42.3783 43.4982 42.5075 43.503 42.6415 43.503C44.2972 43.503 46.0103 42.8139 47.2976 41.6176Z" fill="#E8423F"/>
<path d="M23.352 44.4935C25.0221 44.4935 26.606 43.68 28.0703 42.0769L28.166 41.9764L28.1229 41.8425C28.0799 41.7132 27.0702 38.6363 24.1464 37.5836C21.9452 36.7892 19.2893 37.3778 16.2507 39.3254L16.0449 39.4594L16.1837 39.6604C16.9063 40.7275 19.5382 44.2303 22.974 44.4791C23.0984 44.4887 23.2228 44.4935 23.3472 44.4935H23.352Z" fill="#E8423F"/>
<path d="M41.9288 36.4255L42.2925 36.2963C46.0441 34.9804 48.8818 31.8221 49.7001 28.0609C50.5184 24.3044 49.2311 20.4523 46.1638 17.4998L46.0346 17.3754L45.8814 17.4711C40.297 20.9978 41.0387 26.0319 41.6895 30.4679C41.9862 32.4729 42.2638 34.3679 41.991 36.0475L41.9288 36.4255Z" fill="#E8423F"/>
<path d="M56.3317 23.8211L56.3412 23.6249L56.145 23.6153C56.0541 23.6153 53.9199 23.5388 52.4125 24.9791C51.4746 25.8788 50.9961 27.166 50.9961 28.7978V29.0179L51.2162 28.994C56.1115 28.4628 56.3317 23.8642 56.3365 23.8163L56.3317 23.8211Z" fill="#E8423F"/>
<path d="M37.4975 27.769L37.6793 27.5153C37.775 27.3861 39.9954 24.2996 39.3398 21.1079C38.9953 19.433 37.9234 18.0453 36.1432 16.9925L35.8896 16.8442L35.7556 17.1074C33.8032 20.9787 33.4204 23.9312 37.263 27.5536L37.4879 27.769H37.4975Z" fill="#E8423F"/>
<path d="M32.4681 34.009C33.7984 34.4205 34.9517 34.7746 35.6551 35.301L35.9901 35.5498L36.0379 35.1383C36.0667 34.899 36.6552 29.2667 32.9849 25.6491C30.5301 23.2277 26.7737 22.3185 21.8161 22.9502L21.5625 22.9837L21.6104 23.2325C23.1225 31.1186 28.5251 32.7935 32.4729 34.0137L32.4681 34.009Z" fill="#E8423F"/>
<path d="M38.5597 28.9605L38.3923 29.1806C36.5404 31.6259 36.77 34.2721 39.0335 36.6313L39.2536 36.861L39.4115 36.5834C41.8568 32.3341 38.7799 29.1854 38.7511 29.1519L38.555 28.9557L38.5597 28.9605Z" fill="#E8423F"/>
<path d="M26.812 51.6762C24.2423 50.298 21.663 51.5757 20.7873 53.0256L20.6533 53.2505L20.8926 53.3654C21.8161 53.8056 22.6105 54.0018 23.3187 54.0018C24.716 54.0018 25.7831 53.2314 26.879 52.0494L27.0895 51.8245L26.8168 51.6762H26.812Z" fill="#E8423F"/>
<path d="M51.8814 39.7417L51.7188 39.9857L52.0011 40.0575C52.7093 40.2394 53.4079 40.3303 54.0827 40.3303C56.0733 40.3303 57.9013 39.5455 59.4517 38.0094L59.6479 37.8132L59.4087 37.6745C56.6428 36.0905 53.7621 36.8801 51.8814 39.7321V39.7417Z" fill="#E8423F"/>
<path d="M29.1037 49.0012L29.3669 48.9055L29.2282 48.6614C29.1851 48.5801 28.1036 46.6947 25.0219 46.1492C21.9593 45.6084 19.8634 47.1206 19.7773 47.1876L19.5811 47.3311L19.7294 47.5225C21.0453 49.2404 23.0647 49.7142 24.8927 49.7142C27.0556 49.7142 28.9506 49.049 29.0942 48.9964L29.1037 49.0012Z" fill="#E8423F"/>
<path d="M42.6076 50.3363L42.4257 50.365L42.4066 50.5468C42.3923 50.676 42.0668 53.7243 44.2059 55.691C45.3495 56.7438 46.9622 57.2701 49.0199 57.2701C49.996 57.2701 51.0727 57.1505 52.2451 56.916L52.6136 56.8395L52.3935 56.5332C51.0105 54.6287 47.3402 49.5611 42.6028 50.3363H42.6076Z" fill="#E8423F"/>
<path d="M21.8163 34.5927C22.8642 35.5929 24.2855 36.1001 26.0464 36.1001C26.1852 36.1001 26.324 36.1001 26.4675 36.0905L26.7355 36.081L26.6972 35.8178C25.8072 30.0084 20.3328 29.9558 20.2275 29.9558H19.9883V30.1951C19.9883 30.3051 20.0122 32.8653 21.821 34.5975L21.8163 34.5927Z" fill="#E8423F"/>
<path d="M49.3788 49.0682L49.1826 49.0921L49.2065 49.2883C49.2161 49.3792 49.5032 51.4943 51.1829 52.7385C51.9581 53.3127 52.896 53.5998 53.9822 53.5998C54.3651 53.5998 54.767 53.5663 55.1881 53.4945L55.4083 53.4563L55.346 53.2409C53.9966 48.5083 49.4267 49.0586 49.3836 49.0682H49.3788Z" fill="#E8423F"/>
<path d="M51.0775 36.8418L51.0919 37.2199L51.4269 37.0428C51.8623 36.8131 52.3217 36.5882 52.7859 36.3585C55.9202 34.8177 59.4757 33.0663 58.3559 28.5633L58.3081 28.3671L58.1071 28.3863C53.1878 28.8074 50.8909 31.5733 51.0823 36.8418H51.0775Z" fill="#E8423F"/>
<path d="M28.8648 35.4158L28.5059 35.3776L28.6255 35.7173C28.7834 36.1623 28.9317 36.6217 29.0849 37.0907C30.0563 40.0815 31.1473 43.4503 34.966 43.4503C35.1957 43.4503 35.4349 43.436 35.6838 43.412L35.8752 43.3929L35.8847 43.1967C36.1575 38.4976 33.8558 35.947 28.8552 35.4111L28.8648 35.4158Z" fill="#E8423F"/>
<path d="M61.1512 49.3362C61.1273 49.1543 60.5722 44.8476 57.9977 43.2828C54.2987 41.0289 49.2981 43.5412 49.0875 43.6465L48.6855 43.8522L49.1162 43.9958C50.3221 44.3978 50.9968 45.2161 51.8534 46.2497C52.3702 46.8765 52.954 47.5848 53.7532 48.3026C55.0117 49.4367 57.2416 49.6711 58.8973 49.6711C60.041 49.6711 60.9071 49.5563 60.9933 49.5467L61.1799 49.5228L61.156 49.3362H61.1512Z" fill="#E8423F"/>
<path d="M89.3311 13.4944H90.7236V27.6732H89.3311V13.4944Z" fill="white"/>
<path d="M95.2217 13.4945H96.6142V26.4195H103.189V27.6684H95.2217V13.4897V13.4945Z" fill="white"/>
<path d="M106.07 13.4945H107.463V26.4195H114.038V27.6684H106.07V13.4897V13.4945Z" fill="white"/>
<path d="M123.919 23.1559H118.211L116.598 27.6732H115.124L120.326 13.4944H121.819L127.02 27.6732H125.546L123.915 23.1559H123.919ZM121.053 14.9683C121.053 14.9683 120.752 16.1359 120.507 16.8011L118.612 21.9452H123.493L121.637 16.8011C121.398 16.1359 121.091 14.9683 121.091 14.9683H121.053Z" fill="white"/>
<path d="M136.542 15.5713C136.542 15.5713 136.322 16.7819 136.078 17.6911L133.374 27.6732H131.7L128.029 13.4944H129.479L132.221 24.5054C132.403 25.2327 132.542 26.0175 132.542 26.0175H132.58C132.58 26.0175 132.7 25.2327 132.901 24.5054L135.887 13.4944H137.217L140.203 24.5054C140.404 25.2327 140.504 26.0175 140.524 26.0175H140.562C140.562 26.0175 140.701 25.2327 140.883 24.5054L143.725 13.4944H145.175L141.404 27.6732H139.729L137.026 17.6911C136.786 16.7819 136.561 15.5713 136.561 15.5713H136.523H136.542Z" fill="white"/>
<path d="M154.956 23.1559H149.248L147.635 27.6732H146.161L151.363 13.4944H152.856L158.057 27.6732H156.583L154.952 23.1559H154.956ZM152.09 14.9683C152.09 14.9683 151.789 16.1359 151.545 16.8011L149.65 21.9452H154.531L152.674 16.8011C152.43 16.1359 152.128 14.9683 152.128 14.9683H152.09Z" fill="white"/>
<path d="M160.761 13.4944H164.957C166.407 13.4944 167.053 13.6332 167.618 13.8773C168.948 14.4611 169.757 15.8153 169.757 17.5284C169.757 19.4425 168.666 20.9164 167.073 21.3614V21.3997C167.073 21.3997 167.211 21.5816 167.436 21.9644L170.523 27.6732H168.929L165.723 21.706H162.153V27.6732H160.761V13.4944ZM165.522 20.4522C167.235 20.4522 168.326 19.342 168.326 17.5667C168.326 16.3991 167.862 15.5282 167.034 15.0879C166.613 14.8678 166.106 14.7434 165.02 14.7434H162.158V20.4522H165.527H165.522Z" fill="white"/>
<path d="M173.829 13.4944H178.026C179.476 13.4944 180.122 13.6332 180.686 13.8773C182.017 14.4611 182.825 15.8153 182.825 17.5284C182.825 19.4425 181.734 20.9164 180.141 21.3614V21.3997C180.141 21.3997 180.28 21.5816 180.505 21.9644L183.591 27.6732H181.998L178.791 21.706H175.222V27.6732H173.829V13.4944ZM178.59 20.4522C180.304 20.4522 181.395 19.342 181.395 17.5667C181.395 16.3991 180.93 15.5282 180.103 15.0879C179.681 14.8678 179.174 14.7434 178.088 14.7434H175.226V20.4522H178.595H178.59Z" fill="white"/>
<path d="M193.899 23.1559H188.19L186.577 27.6732H185.104L190.305 13.4944H191.798L197 27.6732H195.526L193.894 23.1559H193.899ZM191.032 14.9683C191.032 14.9683 190.731 16.1359 190.487 16.8011L188.592 21.9452H193.473L191.616 16.8011C191.377 16.1359 191.071 14.9683 191.071 14.9683H191.032Z" fill="white"/>
<path d="M95.5043 31.9082C98.8922 31.9082 100.605 33.7409 100.605 33.7409L99.8589 34.7698C99.8589 34.7698 98.2032 33.1954 95.5426 33.1954C92.2168 33.1954 89.8337 35.7747 89.8337 39.1244C89.8337 42.474 92.212 45.2734 95.5808 45.2734C98.4424 45.2734 100.179 43.3785 100.179 43.3785L100.988 44.369C100.988 44.369 99.0502 46.5655 95.5617 46.5655C91.365 46.5655 88.3838 43.278 88.3838 39.1435C88.3838 35.009 91.4512 31.9034 95.5043 31.9034V31.9082Z" fill="white"/>
<path d="M104.395 32.1522H105.787V38.6076H114.013V32.1522H115.405V46.331H114.013V39.8565H105.787V46.331H104.395V32.1522Z" fill="white"/>
<path d="M119.923 32.1522H124.12C125.569 32.1522 126.215 32.2958 126.78 32.535C128.11 33.1188 128.919 34.4731 128.919 36.1862C128.919 38.1003 127.828 39.5742 126.235 40.0192V40.0575C126.235 40.0575 126.373 40.2393 126.598 40.6222L129.685 46.331H128.091L124.885 40.3637H121.315V46.331H119.923V32.1522ZM124.684 39.11C126.397 39.11 127.488 37.9998 127.488 36.2245C127.488 35.0569 127.024 34.186 126.196 33.7457C125.775 33.5256 125.268 33.4012 124.182 33.4012H121.32V39.11H124.689H124.684Z" fill="white"/>
<path d="M132.991 32.1522H134.384V46.331H132.991V32.1522Z" fill="white"/>
<path d="M138.663 43.6847C138.663 43.6847 140.137 45.2351 142.371 45.2351C143.927 45.2351 145.195 44.3068 145.195 42.7755C145.195 39.2057 138.117 40.1149 138.117 35.7172C138.117 33.6787 139.912 31.9034 142.534 31.9034C144.994 31.9034 146.324 33.2768 146.324 33.2768L145.64 34.4444C145.64 34.4444 144.391 33.2337 142.534 33.2337C140.677 33.2337 139.548 34.4252 139.548 35.6742C139.548 39.043 146.625 38.0764 146.625 42.7325C146.625 44.8523 144.994 46.5655 142.328 46.5655C139.424 46.5655 137.83 44.7518 137.83 44.7518L138.658 43.6847H138.663Z" fill="white"/>
<path d="M153.325 33.4012H148.224V32.1522H159.799V33.4012H154.717V46.3262H153.325V33.4012Z" fill="white"/>
<path d="M162.397 32.1522H163.79V46.331H162.397V32.1522Z" fill="white"/>
<path d="M175.284 41.8089H169.575L167.962 46.3262H166.488L171.69 32.1475H173.183L178.384 46.3262H176.911L175.279 41.8089H175.284ZM172.417 33.6213C172.417 33.6213 172.116 34.7889 171.872 35.4541L169.977 40.5983H174.858L173.001 35.4541C172.757 34.7889 172.456 33.6213 172.456 33.6213H172.417Z" fill="white"/>
<path d="M181.112 32.1522H182.462L189.702 42.3544C190.185 43.0579 190.869 44.2685 190.869 44.2685H190.908C190.908 44.2685 190.788 43.1009 190.788 42.3544V32.1522H192.181V46.331H190.831L183.591 36.1288C183.108 35.4206 182.423 34.2147 182.423 34.2147H182.385C182.385 34.2147 182.505 35.3823 182.505 36.1288V46.331H181.112V32.1522Z" fill="white"/>
<path d="M89.111 62.3378C89.111 62.3378 90.5848 63.893 92.8195 63.893C94.3748 63.893 95.6429 62.9646 95.6429 61.4334C95.6429 57.8635 88.5654 58.7727 88.5654 54.3751C88.5654 52.3366 90.3599 50.5612 92.9822 50.5612C95.4419 50.5612 96.7722 51.9346 96.7722 51.9346L96.0879 53.1022C96.0879 53.1022 94.8389 51.8915 92.9822 51.8915C91.1256 51.8915 89.9962 53.0831 89.9962 54.332C89.9962 57.7008 97.0737 56.7294 97.0737 61.3903C97.0737 63.5054 95.4419 65.2233 92.7765 65.2233C89.8718 65.2233 88.2783 63.4097 88.2783 63.4097L89.1062 62.3426L89.111 62.3378Z" fill="white"/>
<path d="M106.754 50.5612C110.142 50.5612 111.855 52.394 111.855 52.394L111.109 53.4228C111.109 53.4228 109.453 51.8484 106.793 51.8484C103.467 51.8484 101.084 54.4277 101.084 57.7774C101.084 61.1271 103.462 63.9265 106.831 63.9265C109.692 63.9265 111.429 62.0315 111.429 62.0315L112.238 63.0173C112.238 63.0173 110.3 65.2137 106.812 65.2137C102.615 65.2137 99.6338 61.9262 99.6338 57.7918C99.6338 53.6573 102.701 50.5516 106.754 50.5516V50.5612Z" fill="white"/>
<path d="M115.669 50.8052H117.061V57.2606H125.287V50.8052H126.68V64.984H125.287V58.5095H117.061V64.984H115.669V50.8052Z" fill="white"/>
<path d="M137.433 50.5612C141.448 50.5612 144.654 53.7291 144.654 57.8013C144.654 61.8736 141.448 65.2233 137.433 65.2233C133.418 65.2233 130.212 61.9549 130.212 57.8013C130.212 53.6477 133.418 50.5612 137.433 50.5612ZM137.433 63.9313C140.62 63.9313 143.199 61.2707 143.199 57.8013C143.199 54.332 140.62 51.8532 137.433 51.8532C134.246 51.8532 131.667 54.4134 131.667 57.8013C131.667 61.1893 134.227 63.9313 137.433 63.9313Z" fill="white"/>
<path d="M154.449 50.5612C158.464 50.5612 161.67 53.7291 161.67 57.8013C161.67 61.8736 158.464 65.2233 154.449 65.2233C150.435 65.2233 147.229 61.9549 147.229 57.8013C147.229 53.6477 150.435 50.5612 154.449 50.5612ZM154.449 63.9313C157.636 63.9313 160.216 61.2707 160.216 57.8013C160.216 54.332 157.636 51.8532 154.449 51.8532C151.262 51.8532 148.683 54.4134 148.683 57.8013C148.683 61.1893 151.243 63.9313 154.449 63.9313Z" fill="white"/>
<path d="M165.221 50.8053H166.613V63.7303H173.188V64.9792H165.221V50.8005V50.8053Z" fill="white"/>
</svg>
