<svg preserveAspectRatio="none" width="100%" height="100%" overflow="visible" style="display: block;" viewBox="0 0 1894.58 931.958" fill="none" xmlns="http://www.w3.org/2000/svg">
<path id="Vector" opacity="0.1" d="M538.305 30.623C801.89 -15.1063 1131.42 -23.2909 1411.59 119.961H1411.59C1606.48 219.363 1724.99 405.894 1795.25 570.585C1865.49 735.258 1887.43 877.952 1889.24 889.489L1889.37 890.334H1890.09L1893.43 912.198L1866.17 915.132C1853.03 916.359 1721.77 930.958 1548.46 930.958C1422.96 930.958 1275.73 923.501 1136.04 898.018C996.33 872.531 864.265 829.031 769.028 757.014L769.027 757.013L763.374 752.734C645.153 662.914 558.212 574.411 481.07 495.891L481.068 495.889L468.97 483.64C344.713 357.91 242.993 258.461 65.5752 208.834L2.99805 191.33L61.3379 166.269L61.3389 166.27C77.2739 159.584 274.743 76.3483 538.305 30.623Z" stroke="var(--stroke-0, #A6D222)" stroke-width="2"/>
</svg>
