<svg preserveAspectRatio="none" width="100%" height="100%" overflow="visible" style="display: block;" viewBox="0 0 1301 1644.8" fill="none" xmlns="http://www.w3.org/2000/svg">
<path id="Vector" opacity="0.1" d="M22.8994 25.9805C244.769 -14.5982 439.69 -5.66833 606.573 52.2432C773.447 110.151 912.35 217.058 1022.17 372.544L1022.17 372.545C1186.38 604.886 1255.35 901.982 1282.93 1144.92C1310.51 1387.83 1296.69 1576.47 1295.41 1591.81L1295.41 1591.81L1291.31 1642.47L1262.85 1612.13C1199.68 1544.27 1096.17 1498.67 977.104 1445.8L973.83 1444.34L974.259 1444.96C798.169 1366.82 590.452 1273.76 409.644 1075C227.725 875.014 72.9695 567.931 5.27637 61.1631V61.1621L1.11621 30.1113L22.8994 25.9805Z" stroke="var(--stroke-0, #A6D222)" stroke-width="2"/>
</svg>
