<svg preserveAspectRatio="none" width="100%" height="100%" overflow="visible" style="display: block;" viewBox="0 0 1712.87 2572.79" fill="none" xmlns="http://www.w3.org/2000/svg">
<g id="Group 29" opacity="0.1">
<path id="Vector" d="M22.8994 953.965C244.769 913.386 439.69 922.316 606.573 980.227C773.447 1038.14 912.35 1145.04 1022.17 1300.53L1022.17 1300.53C1186.38 1532.87 1255.35 1829.97 1282.93 2072.9C1310.51 2315.81 1296.69 2504.45 1295.41 2519.8L1295.41 2519.8L1291.31 2570.45L1262.85 2540.11C1199.68 2472.26 1096.17 2426.65 977.104 2373.78L973.83 2372.33L974.259 2372.94C798.169 2294.81 590.452 2201.75 409.644 2002.98C227.725 1803 72.9695 1495.92 5.27637 989.147V989.146L1.11621 958.095L22.8994 953.965Z" stroke="var(--stroke-0, #A6D222)" stroke-width="2"/>
<path id="Vector_2" d="M818.353 1833.83C684.858 1618.45 555.668 1317.92 561.453 966.511L561.452 966.51C565.286 722.225 664.667 493.181 765.234 322.86C865.79 152.557 967.444 41.1109 975.65 32.0669L976.251 31.4054L975.982 30.7348L991.565 13.6782L1003.99 37.0979C1009.83 48.5097 1070.02 160.982 1134.65 321.788C1181.45 438.233 1230.62 579.607 1263.1 725.489C1295.58 871.389 1311.35 1021.7 1291.43 1156.04L1291.43 1156.04L1290.24 1164.02C1265.19 1331.05 1229.49 1468.22 1197.82 1589.92L1197.82 1589.92L1192.91 1608.97C1142.47 1804.53 1103.85 1962.39 1131.82 2158.69L1141.68 2227.93L1100.63 2189.8L1100.63 2189.8C1089.54 2179.28 951.836 2049.19 818.353 1833.83Z" stroke="var(--stroke-0, #A6D222)" stroke-width="2"/>
</g>
</svg>
