<svg preserveAspectRatio="none" width="100%" height="100%" overflow="visible" style="display: block;" viewBox="0 0 1712.87 1791" fill="none" xmlns="http://www.w3.org/2000/svg">
<g id="Group 29" opacity="0.5">
<path id="Vector" d="M22.8398 664.395C466.67 607.885 802.731 689.253 1022.28 905.651C1186.43 1067.33 1255.37 1274.05 1282.94 1443.1C1310.51 1612.13 1296.69 1743.4 1295.41 1754.05V1754.05L1291.33 1789.17L1262.72 1767.93C1231.11 1744.29 1189.44 1724.55 1140.82 1706.13C1092.19 1687.7 1036.55 1670.56 976.993 1652.15L976.843 1652.39C800.165 1597.82 591.237 1533.08 409.512 1394.02C227.628 1254.83 72.9365 1041.13 5.26758 688.481V688.48L1.18262 667.252L22.8389 664.394L22.8398 664.395Z" stroke="var(--stroke-0, #EFE8E0)" stroke-width="2"/>
<path id="Vector_2" d="M818.406 1276.47C684.939 1126.57 555.816 917.449 561.598 672.945L561.597 672.945C565.429 502.976 664.771 343.562 765.351 224.98C865.907 106.427 967.563 28.8444 975.771 22.5471L976.467 22.0136L976.197 21.5476L991.629 9.791L1003.92 25.9209C1009.79 33.899 1069.95 112.169 1134.56 224.063C1181.35 305.111 1230.5 403.501 1262.97 505.02C1295.44 606.551 1311.19 711.125 1291.29 804.582L1291.29 804.583L1290.11 810.136C1265.06 926.396 1229.36 1021.87 1197.69 1106.59L1197.69 1106.6L1192.78 1119.85C1142.34 1255.97 1103.69 1365.94 1131.68 1502.68L1141.49 1550.65L1100.62 1524.22L1100.62 1524.21C1089.54 1516.9 951.858 1426.36 818.406 1276.47Z" stroke="var(--stroke-0, #EFE8E0)" stroke-width="2"/>
</g>
</svg>
