<svg preserveAspectRatio="none" width="100%" height="100%" overflow="visible" style="display: block;" viewBox="0 0 142 67.5688" fill="none" xmlns="http://www.w3.org/2000/svg">
<g id="Group 1">
<path id="Vector" d="M1.37512 0.0062561H3.19387V18.525H1.37512V0.0062561Z" fill="var(--fill-0, white)"/>
<path id="Vector_2" d="M9.0686 0.00625014H10.8874V16.8875H19.4749V18.5187H9.0686V0V0.00625014Z" fill="var(--fill-0, white)"/>
<path id="Vector_3" d="M23.2379 0.00625014H25.0567V16.8875H33.6442V18.5187H23.2379V0V0.00625014Z" fill="var(--fill-0, white)"/>
<path id="Vector_4" d="M46.5504 12.625H39.0941L36.9879 18.525H35.0629L41.8566 0.0062561H43.8066L50.6004 18.525H48.6754L46.5441 12.625H46.5504ZM42.8066 1.93126C42.8066 1.93126 42.4129 3.45626 42.0941 4.32501L39.6191 11.0438H45.9941L43.5691 4.32501C43.2566 3.45626 42.8566 1.93126 42.8566 1.93126H42.8066Z" fill="var(--fill-0, white)"/>
<path id="Vector_5" d="M63.0377 2.71876C63.0377 2.71876 62.7502 4.30001 62.4314 5.48751L58.9002 18.525H56.7127L51.9189 0.0062561H53.8127L57.3939 14.3875C57.6314 15.3375 57.8127 16.3625 57.8127 16.3625H57.8627C57.8627 16.3625 58.0189 15.3375 58.2814 14.3875L62.1814 0.0062561H63.9189L67.8189 14.3875C68.0814 15.3375 68.2127 16.3625 68.2377 16.3625H68.2877C68.2877 16.3625 68.4689 15.3375 68.7064 14.3875L72.4189 0.0062561H74.3127L69.3877 18.525H67.2002L63.6689 5.48751C63.3564 4.30001 63.0627 2.71876 63.0627 2.71876H63.0127H63.0377Z" fill="var(--fill-0, white)"/>
<path id="Vector_6" d="M87.0875 12.625H79.6312L77.525 18.525H75.6L82.3937 0.0062561H84.3437L91.1375 18.525H89.2125L87.0812 12.625H87.0875ZM83.3437 1.93126C83.3437 1.93126 82.95 3.45626 82.6312 4.32501L80.1562 11.0438H86.5312L84.1062 4.32501C83.7875 3.45626 83.3937 1.93126 83.3937 1.93126H83.3437Z" fill="var(--fill-0, white)"/>
<path id="Vector_7" d="M94.6686 0.0062561H100.15C102.044 0.0062561 102.887 0.187506 103.625 0.506256C105.362 1.26876 106.419 3.03751 106.419 5.27501C106.419 7.77501 104.994 9.70001 102.912 10.2813V10.3313C102.912 10.3313 103.094 10.5688 103.387 11.0688L107.419 18.525H105.337L101.15 10.7313H96.4873V18.525H94.6686V0.0062561ZM100.887 9.09376C103.125 9.09376 104.55 7.64376 104.55 5.32501C104.55 3.80001 103.944 2.66251 102.862 2.08751C102.312 1.80001 101.65 1.63751 100.231 1.63751H96.4936V9.09376H100.894H100.887Z" fill="var(--fill-0, white)"/>
<path id="Vector_8" d="M111.738 0.0062561H117.219C119.113 0.0062561 119.956 0.187506 120.694 0.506256C122.431 1.26876 123.488 3.03751 123.488 5.27501C123.488 7.77501 122.063 9.70001 119.981 10.2813V10.3313C119.981 10.3313 120.163 10.5688 120.456 11.0688L124.488 18.525H122.406L118.219 10.7313H113.556V18.525H111.738V0.0062561ZM117.956 9.09376C120.194 9.09376 121.619 7.64376 121.619 5.32501C121.619 3.80001 121.013 2.66251 119.931 2.08751C119.381 1.80001 118.719 1.63751 117.3 1.63751H113.563V9.09376H117.963H117.956Z" fill="var(--fill-0, white)"/>
<path id="Vector_9" d="M137.95 12.625H130.494L128.387 18.525H126.462L133.256 0.0062561H135.206L142 18.525H140.075L137.944 12.625H137.95ZM134.206 1.93126C134.206 1.93126 133.812 3.45626 133.494 4.32501L131.019 11.0438H137.394L134.969 4.32501C134.656 3.45626 134.256 1.93126 134.256 1.93126H134.206Z" fill="var(--fill-0, white)"/>
<path id="Vector_10" d="M9.43733 24.0562C13.8623 24.0562 16.0998 26.45 16.0998 26.45L15.1248 27.7937C15.1248 27.7937 12.9623 25.7375 9.48732 25.7375C5.14357 25.7375 2.03108 29.1062 2.03108 33.4812C2.03108 37.8562 5.13732 41.5125 9.53732 41.5125C13.2748 41.5125 15.5436 39.0375 15.5436 39.0375L16.5998 40.3312C16.5998 40.3312 14.0686 43.2 9.51233 43.2C4.03108 43.2 0.137329 38.9062 0.137329 33.5062C0.137329 28.1062 4.14358 24.05 9.43733 24.05V24.0562Z" fill="var(--fill-0, white)"/>
<path id="Vector_11" d="M21.0498 24.375H22.8686V32.8062H33.6123V24.375H35.4311V42.8938H33.6123V34.4375H22.8686V42.8938H21.0498V24.375Z" fill="var(--fill-0, white)"/>
<path id="Vector_12" d="M41.3312 24.375H46.8124C48.7062 24.375 49.5499 24.5625 50.2874 24.875C52.0249 25.6375 53.0812 27.4063 53.0812 29.6438C53.0812 32.1438 51.6562 34.0687 49.5749 34.65V34.7C49.5749 34.7 49.7562 34.9375 50.0499 35.4375L54.0812 42.8938H51.9999L47.8124 35.1H43.1499V42.8938H41.3312V24.375ZM47.5499 33.4625C49.7874 33.4625 51.2124 32.0125 51.2124 29.6938C51.2124 28.1688 50.6062 27.0313 49.5249 26.4563C48.9749 26.1688 48.3124 26.0063 46.8937 26.0063H43.1562V33.4625H47.5562H47.5499Z" fill="var(--fill-0, white)"/>
<path id="Vector_13" d="M58.3997 24.375H60.2184V42.8938H58.3997V24.375Z" fill="var(--fill-0, white)"/>
<path id="Vector_14" d="M65.8061 39.4375C65.8061 39.4375 67.7311 41.4625 70.6499 41.4625C72.6811 41.4625 74.3374 40.25 74.3374 38.25C74.3374 33.5875 65.0936 34.775 65.0936 29.0312C65.0936 26.3687 67.4374 24.05 70.8624 24.05C74.0749 24.05 75.8124 25.8437 75.8124 25.8437L74.9186 27.3687C74.9186 27.3687 73.2874 25.7875 70.8624 25.7875C68.4374 25.7875 66.9624 27.3437 66.9624 28.975C66.9624 33.375 76.2061 32.1125 76.2061 38.1937C76.2061 40.9625 74.0749 43.2 70.5936 43.2C66.7999 43.2 64.7186 40.8312 64.7186 40.8312L65.7999 39.4375H65.8061Z" fill="var(--fill-0, white)"/>
<path id="Vector_15" d="M84.956 26.0063H78.2935V24.375H93.4122V26.0063H86.7747V42.8875H84.956V26.0063Z" fill="var(--fill-0, white)"/>
<path id="Vector_16" d="M96.806 24.375H98.6248V42.8938H96.806V24.375Z" fill="var(--fill-0, white)"/>
<path id="Vector_17" d="M113.637 36.9875H106.181L104.075 42.8875H102.15L108.943 24.3687H110.893L117.687 42.8875H115.762L113.631 36.9875H113.637ZM109.893 26.2937C109.893 26.2937 109.5 27.8187 109.181 28.6875L106.706 35.4062H113.081L110.656 28.6875C110.337 27.8187 109.943 26.2937 109.943 26.2937H109.893Z" fill="var(--fill-0, white)"/>
<path id="Vector_18" d="M121.25 24.375H123.013L132.469 37.7C133.1 38.6188 133.994 40.2 133.994 40.2H134.044C134.044 40.2 133.888 38.675 133.888 37.7V24.375H135.706V42.8938H133.944L124.487 29.5687C123.856 28.6437 122.962 27.0687 122.962 27.0687H122.913C122.913 27.0687 123.069 28.5937 123.069 29.5687V42.8938H121.25V24.375Z" fill="var(--fill-0, white)"/>
<path id="Vector_19" d="M1.0875 63.8C1.0875 63.8 3.0125 65.8313 5.93125 65.8313C7.9625 65.8313 9.61875 64.6188 9.61875 62.6188C9.61875 57.9563 0.375004 59.1438 0.375004 53.4C0.375004 50.7375 2.71875 48.4188 6.14375 48.4188C9.35625 48.4188 11.0938 50.2125 11.0938 50.2125L10.2 51.7375C10.2 51.7375 8.56875 50.1563 6.14375 50.1563C3.71875 50.1563 2.24375 51.7125 2.24375 53.3438C2.24375 57.7438 11.4875 56.475 11.4875 62.5625C11.4875 65.325 9.35625 67.5688 5.875 67.5688C2.08125 67.5688 0 65.2 0 65.2L1.08125 63.8063L1.0875 63.8Z" fill="var(--fill-0, white)"/>
<path id="Vector_20" d="M24.1315 48.4188C28.5565 48.4188 30.794 50.8125 30.794 50.8125L29.819 52.1563C29.819 52.1563 27.6565 50.1 24.1815 50.1C19.8378 50.1 16.7253 53.4688 16.7253 57.8438C16.7253 62.2188 19.8315 65.875 24.2315 65.875C27.969 65.875 30.2378 63.4 30.2378 63.4L31.2941 64.6875C31.2941 64.6875 28.7628 67.5563 24.2065 67.5563C18.7253 67.5563 14.8315 63.2625 14.8315 57.8625C14.8315 52.4625 18.8378 48.4063 24.1315 48.4063V48.4188Z" fill="var(--fill-0, white)"/>
<path id="Vector_21" d="M35.7751 48.7375H37.5939V57.1687H48.3376V48.7375H50.1564V67.2562H48.3376V58.8H37.5939V67.2562H35.7751V48.7375Z" fill="var(--fill-0, white)"/>
<path id="Vector_22" d="M64.1999 48.4188C69.4437 48.4188 73.6312 52.5563 73.6312 57.875C73.6312 63.1938 69.4437 67.5688 64.1999 67.5688C58.9562 67.5688 54.7687 63.3 54.7687 57.875C54.7687 52.45 58.9562 48.4188 64.1999 48.4188ZM64.1999 65.8813C68.3624 65.8813 71.7312 62.4063 71.7312 57.875C71.7312 53.3438 68.3624 50.1063 64.1999 50.1063C60.0374 50.1063 56.6687 53.45 56.6687 57.875C56.6687 62.3 60.0124 65.8813 64.1999 65.8813Z" fill="var(--fill-0, white)"/>
<path id="Vector_23" d="M86.4253 48.4188C91.669 48.4188 95.8565 52.5563 95.8565 57.875C95.8565 63.1938 91.669 67.5688 86.4253 67.5688C81.1815 67.5688 76.994 63.3 76.994 57.875C76.994 52.45 81.1815 48.4188 86.4253 48.4188ZM86.4253 65.8813C90.5878 65.8813 93.9565 62.4063 93.9565 57.875C93.9565 53.3438 90.5878 50.1063 86.4253 50.1063C82.2628 50.1063 78.894 53.45 78.894 57.875C78.894 62.3 82.2378 65.8813 86.4253 65.8813Z" fill="var(--fill-0, white)"/>
<path id="Vector_24" d="M100.494 48.7375H102.313V65.6188H110.9V67.25H100.494V48.7313V48.7375Z" fill="var(--fill-0, white)"/>
</g>
</svg>
