<svg preserveAspectRatio="none" width="100%" height="100%" overflow="visible" style="display: block;" viewBox="0 0 124.745 64.5747" fill="none" xmlns="http://www.w3.org/2000/svg">
<g id="Group 41">
<path id="Vector" d="M105.326 37.0749L99.8494 35.9259L93.6831 34.6236L87.8997 33.4363L86.5592 33.1299L78.9757 40.0623L70.3581 17.8863L77.4819 18.614L99.3132 0L103.833 15.55L109.08 3.25554L124.745 28.3807V28.5339C124.783 28.5339 120.417 28.9552 120.417 28.9552L124.094 29.9127L107.778 47.8373L107.663 47.9522C107.663 47.9522 107.624 47.9139 107.586 47.8756L105.288 37.0749H105.326Z" fill="var(--fill-0, white)"/>
<path id="Vector_2" d="M105.518 52.0887C105.786 51.6674 106.092 51.361 106.399 51.0163L108.199 48.9481L111.991 44.6967L114.059 54.0038L108.965 52.8547L105.518 52.0504V52.0887Z" fill="var(--fill-0, white)"/>
<path id="Vector_3" d="M83.993 54.4251L82.6525 52.8931L79.7417 49.6375L78.5544 48.3353L77.7501 47.4927L76.2563 45.9607V53.6591L76.3329 55.0762H74.5711L74.9158 45.3862L74.8392 41.8625C75.4903 42.0157 75.9116 42.0157 76.5244 41.8625L79.9715 45.6543L84.8356 50.9781V42.5136C84.7973 42.5136 84.7207 41.8625 84.7207 41.8625C85.3335 41.9774 85.8315 42.0157 86.4826 41.8625C86.2145 46.2671 86.1379 50.6333 86.1762 55.0762H84.5675L83.9547 54.4251H83.993Z" fill="var(--fill-0, white)"/>
<path id="Vector_4" d="M92.7639 51.9738C93.9895 54.157 96.2875 54.54 98.7387 53.8889C98.8153 52.3186 98.7387 50.7482 98.6621 49.2162C99.6962 49.3694 100.692 49.3694 101.65 49.2162C101.496 51.0546 101.496 52.8165 101.535 54.6166C98.4706 55.4592 94.4491 55.8805 91.768 54.2336C89.2785 52.7016 88.5508 50.212 89.0104 47.4161C89.47 44.6202 91.4233 42.7051 94.1044 42.054C96.7854 41.4029 97.5897 41.5561 99.2749 41.9774L101.458 42.7817L100.884 44.8117C100.654 44.8883 100.501 44.6968 100.347 44.5053C99.926 43.9307 99.2749 43.5094 98.5855 43.203C97.0535 42.5519 95.33 42.8966 94.0278 43.9691C91.8829 45.8075 91.4999 49.5992 92.8405 51.9738H92.7639Z" fill="var(--fill-0, white)"/>
<path id="Vector_5" d="M71.3538 48.3735L71.507 55.1144H68.3664L68.5196 48.6033L68.3664 41.939L69.7835 42.0156L71.507 41.939L71.3538 48.3735Z" fill="var(--fill-0, white)"/>
<path id="Vector_6" d="M65.5322 46.1138C66.1067 48.7182 65.6088 51.5141 63.6555 53.3909C61.7022 55.2676 61.1277 54.9995 59.5957 55.1144H55.4592H53.3527L53.5059 48.6416L53.3527 41.939L54.157 42.0156H55.8805C57.1827 42.0156 58.4466 41.9007 59.7872 42.0156L61.7788 42.3603C63.7321 42.705 65.1492 44.1988 65.5705 46.1521L65.5322 46.1138ZM62.2767 51.0545C62.7363 49.6374 62.8129 48.182 62.5831 46.7649C62.3533 45.3478 62.0086 45.0031 61.3575 44.2754C60.1319 42.9348 58.1785 42.9348 56.3401 43.1646V54.0037L58.2168 54.042C60.0936 54.0803 61.7022 52.9313 62.315 51.0545H62.2767Z" fill="var(--fill-0, white)"/>
<path id="Vector_7" d="M15.3585 47.7607L16.8139 50.48L19.3418 55.0761H15.933L13.4818 50.3268L10.6093 55.1144H8.65595L9.46026 54.0036L12.7541 49.0629L8.77085 41.939L10.4178 42.0156L12.2562 41.9007L14.5925 46.5733L16.6607 43.2029L17.4268 41.939L18.346 42.0156L19.4184 41.9007L18.1928 43.6242L15.3585 47.7607Z" fill="var(--fill-0, white)"/>
<path id="Vector_8" d="M2.98744 47.5692L7.35369 47.3777C7.23879 47.9522 7.23879 48.4884 7.35369 49.0246L3.02574 48.9097V53.6972L7.43029 53.4674C7.35369 54.0036 7.31539 54.6164 7.43029 55.0761H0C0.229803 50.7098 0.229803 46.2669 0 41.9007L2.45123 41.9773C3.63855 42.0156 4.78756 41.9773 6.01318 41.9773L7.43029 41.9007C7.35369 42.5135 7.35369 43.088 7.43029 43.6242L3.14064 43.3944L3.02574 44.7349V47.5692H2.98744Z" fill="var(--fill-0, white)"/>
<path id="Vector_9" d="M41.3646 47.3777C41.2497 47.9139 41.2497 48.4884 41.3646 49.0629L36.9983 48.948V53.7356L41.4029 53.5058C41.3263 54.042 41.288 54.5782 41.4029 55.1144H33.9726L34.1258 48.4501L33.9726 41.939L36.5004 42.0156H39.7177L41.4029 41.939C41.3263 42.5135 41.288 43.0114 41.4029 43.6625L37.0749 43.4327L36.9983 47.6075L41.3646 47.416V47.3777Z" fill="var(--fill-0, white)"/>
<path id="Vector_10" d="M51.0162 47.3777C50.863 47.9139 50.863 48.4884 51.0162 49.0629L46.65 48.9097V53.6972L51.0545 53.4674V55.0761H43.6625L43.8158 48.6799L43.6625 41.9007L46.1138 41.9773H48.7565L51.0545 41.9007V43.6242L46.7266 43.3944L46.65 47.5692L51.0545 47.3777H51.0162Z" fill="var(--fill-0, white)"/>
<path id="Vector_11" d="M25.8146 53.4292C27.4999 54.6165 30.1043 54.2718 31.5597 52.893C33.0151 51.5142 31.7895 52.7398 31.8661 52.7398C31.9427 52.7398 31.981 52.9696 31.9427 53.0845L31.5597 54.5782C29.1851 55.6506 25.5082 55.6506 23.3251 54.2335C21.142 52.8164 20.8739 51.7823 20.6441 50.0205C20.1845 46.3436 21.7165 43.0115 25.4316 41.9774C29.1468 40.9432 28.8787 41.4795 30.5256 41.9774L32.0576 42.5136C31.8278 43.2413 31.6746 43.8541 31.598 44.5818C31.3682 44.5818 31.2916 44.4669 31.1384 44.352C29.7979 42.7051 27.6531 42.3221 25.8529 43.586C24.9337 44.2371 24.3209 45.2329 24.0145 46.3053C23.3251 48.7182 23.6315 51.8972 25.7763 53.3909L25.8146 53.4292Z" fill="var(--fill-0, white)"/>
<path id="Vector_12" d="M37.1515 64.5746C36.5386 64.3065 36.1173 64.0001 35.6577 63.6171C34.5087 64.1533 33.0916 63.9235 32.6703 62.8128C32.249 61.7021 32.3256 59.5955 33.4746 58.9061C34.6236 58.2167 34.93 58.5614 35.5428 58.9061C36.8067 59.6338 36.845 62.0468 36.0024 63.2724L36.9216 63.8852C36.9982 63.9235 37.1898 64.0001 37.1898 64.115L37.1132 64.5746H37.1515ZM35.8109 59.9019C35.5811 59.3274 35.0066 59.1742 34.4704 59.1742C33.9342 59.1742 33.4746 59.404 33.2448 59.9402C32.8618 60.8212 32.8618 61.9702 33.3214 62.8128C33.781 63.6554 34.164 63.4256 34.6619 63.4256C36.1556 63.349 36.4237 61.2042 35.8492 59.9019H35.8109Z" fill="var(--fill-0, white)"/>
<path id="Vector_13" d="M22.2909 63.7703C22.0611 64.0001 21.6398 63.8086 21.4866 63.5405L19.3418 59.5572V63.4639C19.3418 63.5405 19.3035 63.7703 19.2269 63.8469C19.1503 63.9235 18.9205 63.8469 18.8056 63.8086V58.9061C18.9205 58.7529 19.4567 58.7146 19.5333 58.9061L21.793 63.0809V58.8295H22.2909V63.8086V63.7703Z" fill="var(--fill-0, white)"/>
<path id="Vector_14" d="M3.44704 63.7703C3.21724 64.0001 2.79593 63.8086 2.64273 63.5405L0.536207 59.5573V63.8469C0.497906 63.8469 0 63.8469 0 63.8469V58.8679C0.153202 58.753 0.574507 58.753 0.727709 58.8679L2.94914 63.0426V58.8296H3.44704V63.8086V63.7703Z" fill="var(--fill-0, white)"/>
<path id="Vector_15" d="M74.5328 63.7321C74.4179 63.9236 73.92 63.8087 73.8051 63.5789L71.622 59.4424V63.8087H71.1241V58.8296C71.2773 58.7147 71.7752 58.6764 71.8518 58.8296L74.0349 62.9278V58.753C74.0732 58.753 74.5328 58.753 74.5328 58.753V63.7321Z" fill="var(--fill-0, white)"/>
<path id="Vector_16" d="M15.7032 63.9235C14.6691 63.9235 13.9031 63.3873 13.7499 62.3915C13.5967 61.3957 13.635 59.4806 14.8223 58.8678C16.0096 58.255 16.1628 58.5997 16.7374 58.8678C18.0013 59.4806 18.0779 61.6255 17.5034 62.8894C16.9289 64.1533 16.5076 63.8469 15.7415 63.8852L15.7032 63.9235ZM16.9289 62.7745C17.3885 61.8553 17.3885 60.7829 16.9672 59.9019C16.5459 59.021 15.933 59.0976 15.2436 59.2508C14.018 59.5189 13.8265 61.7404 14.4776 62.8894C15.1287 64.0384 15.2819 63.4639 15.7415 63.4639C16.2011 63.4639 16.6608 63.2724 16.8906 62.8128L16.9289 62.7745Z" fill="var(--fill-0, white)"/>
<path id="Vector_17" d="M92.036 62.2766C91.8062 63.1958 91.0785 63.8086 90.1593 63.8086H88.6273V58.7912H90.4657C91.1934 58.7912 91.8062 59.5572 91.9977 60.2467C92.1892 60.9361 92.1892 61.5872 91.9977 62.3149L92.036 62.2766ZM91.5764 60.5148C91.4232 59.8637 90.9253 59.3274 90.2742 59.2891H89.1635V63.4256L90.3891 63.349C91.4998 63.2724 91.8445 61.817 91.5764 60.5148Z" fill="var(--fill-0, white)"/>
<path id="Vector_18" d="M79.3587 60.4764C79.5885 62.0084 79.2055 63.5788 77.7118 63.7703H75.9116C75.9116 63.8086 75.9116 58.7529 75.9116 58.7529H77.5202C78.4395 58.7529 79.2438 59.5572 79.397 60.4764H79.3587ZM78.5927 62.6979C79.014 61.8552 79.014 60.8594 78.631 60.0551C78.248 59.2508 77.9416 59.2891 77.482 59.2891H76.3712V63.4256H77.4054C77.8267 63.3873 78.3629 63.1575 78.5927 62.7362V62.6979Z" fill="var(--fill-0, white)"/>
<path id="Vector_19" d="M87.1719 63.8086L86.6357 62.3149C86.4059 61.6638 85.8314 61.3957 85.142 61.5872V63.8469H84.6824V58.7912H86.3293C86.9421 58.7912 87.3251 59.404 87.4017 59.9403C87.4783 60.4765 87.1719 61.0893 86.5591 61.3191C86.7889 61.5489 87.0187 61.817 87.1336 62.1234L87.7464 63.8086C87.6315 63.8469 87.3634 63.8852 87.2102 63.8086H87.1719ZM86.1761 61.0127C86.6357 61.0127 86.8272 60.5531 86.8655 60.2467C86.9038 59.9403 86.7506 59.4806 86.3676 59.3657C85.9846 59.2508 85.5633 59.2508 85.142 59.2891V61.0893L86.1761 61.051V61.0127Z" fill="var(--fill-0, white)"/>
<path id="Vector_20" d="M26.121 62.4299H24.0911L23.6315 63.7321C23.5932 63.847 23.2102 63.847 23.0953 63.7321L24.8188 58.7147H25.3933L27.1169 63.7321H26.5806C26.5806 63.7704 26.121 62.3533 26.121 62.3533V62.4299ZM25.9295 61.9703L25.0486 59.3659L24.1677 61.9703H25.9295Z" fill="var(--fill-0, white)"/>
<path id="Vector_21" d="M44.8499 62.4297H42.82L42.3604 63.8086C42.2455 63.8086 42.0157 63.8086 41.8242 63.8086L43.5477 58.8295C43.7009 58.7912 43.9307 58.7912 44.1222 58.8295L45.8458 63.8469H45.3095C45.3095 63.8852 44.8499 62.468 44.8499 62.468V62.4297ZM44.6584 61.9701L43.7775 59.4423L42.8966 62.0084H44.6201L44.6584 61.9701Z" fill="var(--fill-0, white)"/>
<path id="Vector_22" d="M7.27713 62.4297H5.2472L4.7876 63.732C4.7493 63.8852 4.36629 63.8852 4.25139 63.7703L5.97491 58.7529H6.54942L8.31124 63.8086C8.15804 63.8469 7.88994 63.8469 7.77503 63.8086L7.31543 62.4297H7.27713ZM7.12393 61.9701L6.24302 59.4423L5.3621 62.0084H7.12393V61.9701Z" fill="var(--fill-0, white)"/>
<path id="Vector_23" d="M69.3239 62.4299H67.294L66.8344 63.7704C66.7195 63.847 66.4131 63.847 66.2982 63.7704L68.0217 58.7913C68.1749 58.753 68.443 58.753 68.5962 58.7913L70.3197 63.8087L69.7835 63.8853L69.3239 62.4682V62.4299ZM69.1707 61.9703L68.2898 59.4425L67.4089 62.0086H69.1324L69.1707 61.9703Z" fill="var(--fill-0, white)"/>
<path id="Vector_24" d="M82.8822 62.4299H80.814L80.3544 63.8087H79.8182L81.5417 58.7913C81.6949 58.753 81.963 58.753 82.1162 58.7913L83.8397 63.8087H83.3035C83.3035 63.847 82.8439 62.4299 82.8439 62.4299H82.8822ZM82.6907 61.9703L81.8098 59.4808L80.9672 62.0086H82.6907V61.9703Z" fill="var(--fill-0, white)"/>
<path id="Vector_25" d="M40.7134 58.753H41.173V62.3533C41.173 63.2725 40.407 63.847 39.5644 63.8853C38.7218 63.9236 37.726 63.2342 37.726 62.1618V58.7147H38.2239V62.1618C38.2239 62.9278 38.7601 63.3874 39.4112 63.4257C40.0623 63.464 40.6751 62.9278 40.6751 62.1618V58.7147L40.7134 58.753Z" fill="var(--fill-0, white)"/>
<path id="Vector_26" d="M62.3915 63.5788C61.7404 64.0384 60.7829 63.9618 60.1701 63.5788C59.5573 63.1958 60.0552 63.1192 60.1318 63.0043C60.6297 63.2341 61.0127 63.4639 61.5489 63.4639C62.0851 63.4639 62.2766 63.1575 62.3915 62.8894C62.5064 62.6213 62.3915 62.0468 62.0468 61.817L61.0127 61.2041C60.5914 60.936 60.2467 60.5913 60.2467 60.1317C60.2467 59.6721 60.3999 59.0976 60.8595 58.8678C61.3191 58.638 62.4681 58.7529 62.6979 59.1359C62.9277 59.5189 62.6979 59.5189 62.6213 59.5572C61.8936 59.1359 61.0127 59.0976 60.7829 59.6721C60.5531 60.2466 61.2042 60.7828 61.9702 61.1275C62.7362 61.4723 62.8511 61.7404 62.9277 62.1234C63.0426 62.6979 62.9277 63.2724 62.4681 63.6171L62.3915 63.5788Z" fill="var(--fill-0, white)"/>
<path id="Vector_27" d="M53.0079 63.8086L52.51 63.8469V59.2508L51.0546 59.2891L50.978 58.7529H54.4633L54.5016 59.2125L53.0079 59.2508V63.8086Z" fill="var(--fill-0, white)"/>
<path id="Vector_28" d="M64.7278 63.7704V59.251L63.2341 59.2127V58.753L66.6429 58.7147C66.6429 58.753 66.7195 58.9446 66.7578 59.2127H65.2258V63.847L64.7278 63.7704Z" fill="var(--fill-0, white)"/>
<path id="Vector_29" d="M58.4848 58.7912L57.0677 61.8552L57.0294 63.8469L56.5698 63.8086V61.8552L55.1144 58.7529H55.6506L56.8379 61.2807L57.9869 58.7529L58.4848 58.7912Z" fill="var(--fill-0, white)"/>
<path id="Vector_30" d="M9.84319 63.8086L9.34528 63.8469V59.2508H7.81326L7.88986 58.7529H11.3369L11.3752 59.2508H9.84319V63.8086Z" fill="var(--fill-0, white)"/>
<path id="Vector_31" d="M48.9481 63.3873C49.0247 63.4639 49.063 63.7703 48.9864 63.8469H46.6118V58.7529H47.1097V63.3873H48.9481Z" fill="var(--fill-0, white)"/>
<path id="Vector_32" d="M29.9894 63.3491C30.1043 63.3491 30.2958 63.4257 30.2958 63.5406C30.2958 63.6555 30.1809 63.847 30.1043 63.847H27.8829V58.7531C28.0744 58.6765 28.3425 58.7531 28.3425 58.868V63.3491H29.9894Z" fill="var(--fill-0, white)"/>
<path id="Vector_33" d="M50.2502 63.8086C50.1353 63.8852 49.9055 63.9235 49.7906 63.8086V58.7912L50.2502 58.7529V63.8086Z" fill="var(--fill-0, white)"/>
<path id="Vector_34" d="M12.103 58.7147V63.847H12.6009V58.7147H12.103Z" fill="var(--fill-0, white)"/>
<path id="Vector_35" d="M18.0779 37.4196C17.58 38.3005 15.9713 38.5303 14.9755 38.2622V33.2449C15.6266 33.2449 16.2777 33.1683 16.8905 33.2832C18.6141 33.6279 18.8822 36.0791 18.0779 37.4196ZM17.6183 37.2281C18.1162 36.3472 18.1162 35.2748 17.6566 34.4322C17.197 33.5896 17.0055 33.7811 16.6607 33.7811H15.4351V37.8792H16.2011C16.699 37.8792 17.3119 37.7643 17.58 37.2664L17.6183 37.2281Z" fill="var(--fill-0, white)"/>
<path id="Vector_36" d="M2.52783 38.3005L1.95332 36.7685C1.72352 36.1174 1.14901 35.811 0.459606 36.0025V38.3005C0.306404 38.3005 0.076601 38.3005 0 38.3005V33.2448C0.612808 33.2065 1.22562 33.1682 1.80012 33.2448C2.37463 33.3214 2.68103 33.9342 2.71933 34.4321C2.75763 34.9301 2.48953 35.4663 1.91502 35.7344C2.18313 36.1174 2.45123 36.5004 2.60443 36.9217L3.06404 38.2239C3.06404 38.3388 2.60443 38.4154 2.56613 38.3005H2.52783ZM1.83842 35.3131C2.14483 35.1599 2.22143 34.7769 2.22143 34.5087C2.22143 34.2406 2.06823 33.8959 1.80012 33.8193C1.37882 33.6661 0.957512 33.6661 0.497906 33.7044V35.5046C0.957512 35.5046 1.41712 35.5046 1.83842 35.3131Z" fill="var(--fill-0, white)"/>
<path id="Vector_37" d="M6.47278 36.8834H4.44286L4.05985 38.0324C4.05985 38.1473 3.90665 38.3005 3.83005 38.3771C3.75345 38.4537 3.52364 38.3388 3.44704 38.2239L5.09396 33.5129C5.09396 33.398 5.20887 33.2065 5.32377 33.1682C5.43867 33.1299 5.74507 33.1682 5.78337 33.2831L7.50689 38.2622C7.35369 38.3388 7.12389 38.3388 6.97069 38.3005L6.51108 36.8834H6.47278ZM6.31958 36.4238L5.43867 33.8959L4.59606 36.4238H6.31958Z" fill="var(--fill-0, white)"/>
<path id="Vector_38" d="M13.2902 35.8493H11.7582V37.841H13.8264V38.3389H11.7582C11.605 38.3389 11.4135 38.2623 11.2603 38.1857V33.2066H13.7881C13.8264 33.3598 13.7881 33.5896 13.7881 33.7045H11.7582V35.428H13.4051C13.4817 35.428 13.5966 35.6578 13.5583 35.6961C13.52 35.7344 13.3668 35.8493 13.2519 35.8493H13.2902Z" fill="var(--fill-0, white)"/>
<path id="Vector_39" d="M9.03904 38.224C9.03904 38.3772 8.69434 38.4538 8.54113 38.3389V33.7428H7.08572V33.2449C7.04741 33.2449 10.5328 33.2449 10.5328 33.2449V33.7428H9.00074V38.2623L9.03904 38.224Z" fill="var(--fill-0, white)"/>
</g>
</svg>
