<svg preserveAspectRatio="none" width="100%" height="100%" overflow="visible" style="display: block;" viewBox="0 0 74.0562 46.7046" fill="none" xmlns="http://www.w3.org/2000/svg">
<g id="Group">
<path id="Vector" d="M71.959 20.9233C71.959 21.2229 71.3099 20.9233 71.1101 20.7236L66.7157 15.4303V20.9233C66.2662 20.9733 65.9666 20.9233 65.5172 20.9233V13.1332C65.9666 12.9834 66.1664 13.2331 66.4161 13.5327L70.7606 18.5264V13.2331C71.21 13.1332 71.5595 13.1332 71.959 13.2331V20.9233Z" fill="var(--fill-0, white)"/>
<path id="Vector_2" d="M8.53928 29.8621C8.53928 32.0593 6.74155 33.857 4.54434 33.857C2.34712 33.857 0.549395 32.0593 0.549395 29.8621C0.549395 27.6649 2.34712 25.8672 4.54434 25.8672C6.74155 25.8672 8.53928 27.6649 8.53928 29.8621ZM7.39073 29.8621C7.39073 28.2641 6.09237 26.9658 4.4944 26.9658C2.89642 26.9658 1.59806 28.2641 1.59806 29.8621C1.59806 31.4601 2.89642 32.7584 4.4944 32.7584C6.09237 32.7584 7.39073 31.4601 7.39073 29.8621Z" fill="var(--fill-0, white)"/>
<path id="Vector_3" d="M27.8149 17.0782C27.8149 19.2754 26.0172 21.0732 23.82 21.0732C21.6228 21.0732 19.825 19.2754 19.825 17.0782C19.825 14.881 21.6228 13.0833 23.82 13.0833C26.0172 13.0833 27.8149 14.881 27.8149 17.0782ZM26.7163 17.0782C26.7163 15.4803 25.418 14.1819 23.82 14.1819C22.222 14.1819 20.9237 15.4803 20.9237 17.0782C20.9237 18.6762 22.222 19.9746 23.82 19.9746C25.418 19.9746 26.7163 18.6762 26.7163 17.0782Z" fill="var(--fill-0, white)"/>
<path id="Vector_4" d="M64.0191 17.0782C64.0191 19.2754 62.2214 21.0732 60.0241 21.0732C57.8269 21.0732 56.0292 19.2754 56.0292 17.0782C56.0292 14.881 57.8269 13.0833 60.0241 13.0833C62.2214 13.0833 64.0191 14.881 64.0191 17.0782ZM62.9205 17.0782C62.9205 15.4803 61.6221 14.1819 60.0241 14.1819C58.4262 14.1819 57.1278 15.4803 57.1278 17.0782C57.1278 18.6762 58.4262 19.9746 60.0241 19.9746C61.6221 19.9746 62.9205 18.6762 62.9205 17.0782Z" fill="var(--fill-0, white)"/>
<path id="Vector_5" d="M30.5614 42.6959C30.5614 44.8932 28.7637 46.6909 26.5665 46.6909C24.3693 46.6909 22.5716 44.8932 22.5716 42.6959C22.5716 40.4987 24.3693 38.701 26.5665 38.701C28.7637 38.701 30.5614 40.4987 30.5614 42.6959ZM29.4628 42.6959C29.4628 41.098 28.1645 39.7996 26.5665 39.7996C24.9685 39.7996 23.6702 41.098 23.6702 42.6959C23.6702 44.2939 24.9685 45.5923 26.5665 45.5923C28.1645 45.5923 29.4628 44.2939 29.4628 42.6959Z" fill="var(--fill-0, white)"/>
<path id="Vector_6" d="M32.3092 8.08971L30.7611 5.14344H29.1632V8.08971C28.8136 8.18958 28.4141 8.18958 28.0146 8.08971V0.449382H31.6101C32.7087 0.449382 33.5077 1.49805 33.6075 2.39692C33.7074 3.29578 33.1581 4.49426 32.0595 5.0935L33.5576 8.13964C33.1581 8.18958 32.6088 8.23952 32.3092 8.13964V8.08971ZM31.2106 4.09477C32.0595 4.09477 32.5089 3.29578 32.459 2.6466C32.4091 1.99742 31.8098 1.39818 30.9609 1.39818H29.1632C29.1632 1.44812 29.1632 4.09477 29.1632 4.09477H31.1606H31.2106Z" fill="var(--fill-0, white)"/>
<path id="Vector_7" d="M39.2503 33.7074L37.7522 30.811C37.2029 30.6612 36.6536 30.6612 36.0543 30.7611V33.7074C35.6049 33.7573 35.2554 33.7573 34.9058 33.7074V26.0171H38.2016C39.4001 26.0171 40.299 26.866 40.4987 27.8648C40.6985 28.8635 40.1991 30.1119 38.9507 30.6113L40.4987 33.7074C40.1492 33.8072 39.5999 33.8572 39.2503 33.7074ZM38.1517 29.7124C38.9507 29.7124 39.4001 29.0133 39.4001 28.3142C39.4001 27.6151 38.9507 27.1157 38.3015 27.0658H36.0543C36.0543 27.0158 36.0543 29.6625 36.0543 29.6625H38.1018L38.1517 29.7124Z" fill="var(--fill-0, white)"/>
<path id="Vector_8" d="M39.6001 42.6959C39.6001 44.8932 37.8023 46.6909 35.6051 46.6909C33.4079 46.6909 31.6102 44.8932 31.6102 42.6959C31.6102 40.4987 33.4079 38.701 35.6051 38.701C37.8023 38.701 39.6001 40.4987 39.6001 42.6959ZM38.4515 42.6959C38.4515 41.098 37.1531 39.7996 35.5552 39.7996C33.9572 39.7996 32.6588 41.098 32.6588 42.6959C32.6588 44.2939 33.9572 45.5923 35.5552 45.5923C37.1531 45.5923 38.4515 44.2939 38.4515 42.6959Z" fill="var(--fill-0, white)"/>
<path id="Vector_9" d="M65.1177 8.18966C64.9678 8.43934 64.4685 8.08979 64.3187 7.89004L59.8743 2.59674V8.08979C59.4249 8.2396 59.0254 8.2396 58.7257 7.98991V0.449459C58.7257 0.249712 59.2251 0.299649 59.3749 0.449459L63.9691 5.74276L64.069 0.449459C64.4185 0.399522 64.7182 0.399522 65.1676 0.449459V8.18966H65.1177Z" fill="var(--fill-0, white)"/>
<path id="Vector_10" d="M21.0734 46.4911C20.7238 46.6409 20.3243 46.591 19.9248 46.591V43.1953H15.9299V46.591C15.4804 46.591 15.0809 46.6409 14.7314 46.591V38.9506H15.83V42.1965C15.8799 42.1965 19.8749 42.1965 19.8749 42.1965V38.9007H21.0234V46.591L21.0734 46.4911Z" fill="var(--fill-0, white)"/>
<path id="Vector_11" d="M74.0562 26.0169L73.9064 34.1067L68.8129 28.2641L68.713 33.7072H67.6144V25.967C67.8141 25.7173 68.3135 26.1168 68.4633 26.3166L72.8078 31.3602L72.9077 26.0669H74.0063L74.0562 26.0169Z" fill="var(--fill-0, white)"/>
<path id="Vector_12" d="M32.9585 33.6572C32.509 33.807 32.1595 33.7571 31.8099 33.6572V30.3115H27.815V33.6572C27.4155 33.7072 27.0659 33.7072 26.6165 33.6572V25.967H27.7151V29.2628C27.765 29.2628 31.76 29.2628 31.76 29.2628V26.0169C32.1595 25.917 32.509 25.917 32.9585 26.0169V33.6572Z" fill="var(--fill-0, white)"/>
<path id="Vector_13" d="M13.1835 0.449431C13.5829 0.349557 13.9824 0.349557 14.332 0.449431V5.2933C14.332 7.04108 13.0836 8.28951 11.3358 8.28951C9.588 8.28951 8.33958 7.1909 8.33958 5.49304V0.499367C8.68914 0.349557 9.0387 0.349557 9.48813 0.499367V5.49304C9.48813 6.49178 10.387 7.14096 11.2359 7.1909C12.0848 7.24083 13.1335 6.69153 13.1335 5.69279V0.549304L13.1835 0.449431Z" fill="var(--fill-0, white)"/>
<path id="Vector_14" d="M5.54309 6.49196H1.99758L1.24853 7.94013C1.09872 8.23975 0.399601 8.18982 0.000106812 8.04L3.74537 0.0501195L7.49062 8.04C7.14107 8.18982 6.59176 8.23975 6.34208 8.04C5.94258 7.69045 5.89265 7.09121 5.59302 6.5419L5.54309 6.49196ZM5.04372 5.39336L3.64549 2.49702L2.34713 5.44329H5.04372V5.39336Z" fill="var(--fill-0, white)"/>
<path id="Vector_15" d="M39.7997 6.49178H36.1043L35.4052 7.93995C35.2554 8.18963 34.6562 8.18963 34.2067 7.93995L37.9021 0L41.6473 7.89001C41.3976 8.18963 40.6985 8.18963 40.4488 7.93995C40.1991 7.69026 39.9994 7.09102 39.7997 6.44185V6.49178ZM39.2504 5.39317L37.952 2.49684L36.6037 5.44311C37.5525 5.44311 38.2516 5.59292 39.3003 5.39317H39.2504Z" fill="var(--fill-0, white)"/>
<path id="Vector_16" d="M64.768 32.1592L61.1726 32.0594L60.3736 33.6074C60.2238 33.907 59.5247 33.8571 59.1751 33.6074L62.9204 25.6675L66.6157 33.6074C66.3161 33.8071 65.6669 33.8571 65.4671 33.6074C65.1176 33.2578 65.0677 32.7585 64.768 32.1093V32.1592ZM64.2687 31.0606L62.9204 28.0145L61.5221 31.0606H64.2687Z" fill="var(--fill-0, white)"/>
<path id="Vector_17" d="M55.7795 6.44184H52.234L51.435 7.98988C51.2852 8.2895 50.586 8.13969 50.2365 7.98988L53.9817 0L57.6771 7.98988C57.3275 8.13969 56.6284 8.23957 56.4786 7.98988L55.7295 6.44184H55.7795ZM55.33 5.39317L53.9817 2.4469L52.6335 5.44311H55.33V5.39317Z" fill="var(--fill-0, white)"/>
<path id="Vector_18" d="M5.49313 19.2754H1.94763L1.19857 20.7736C1.04876 21.1231 0.1499 21.0232 0.0500268 20.6737L3.74535 12.8336L7.4906 20.7736C7.19098 20.9234 6.59174 21.0232 6.34206 20.7736C5.94256 20.424 5.84269 19.7748 5.54307 19.1756L5.49313 19.2754ZM5.0437 18.2268L3.69541 15.2805L2.34711 18.2268H5.0437Z" fill="var(--fill-0, white)"/>
<path id="Vector_19" d="M44.7433 19.2754H41.1479L40.3489 20.8235C40.1492 21.0232 39.5499 20.9733 39.1504 20.8235L42.8957 12.8336L46.591 20.8235C46.2414 21.0232 45.6422 21.0732 45.4425 20.8235C45.0929 20.424 44.993 19.9246 44.6934 19.2754H44.7433ZM44.2939 18.2767L42.8957 15.2306L41.5474 18.2767H44.2939Z" fill="var(--fill-0, white)"/>
<path id="Vector_20" d="M30.112 16.8786C30.0621 18.127 30.7113 19.0758 31.6102 19.5752C32.509 20.0745 33.8074 19.9247 34.8061 19.1757C35.8048 18.4266 35.7549 19.725 35.5552 19.9247C34.0071 21.5227 31.4104 21.3729 29.9622 19.8249C28.5141 18.2768 28.4641 15.8299 29.9622 14.2319C31.4603 12.634 33.9572 12.5341 35.5052 14.1321C37.0533 15.73 35.0059 15.0809 34.7562 14.8811C33.8573 14.2319 32.8586 13.9323 31.76 14.3817C30.6614 14.8312 30.162 15.6302 30.0621 16.8286L30.112 16.8786Z" fill="var(--fill-0, white)"/>
<path id="Vector_21" d="M7.8902 41.747C7.44077 43.0454 7.99007 44.3937 8.98881 45.0429C9.98754 45.692 11.3858 45.6421 12.4844 44.7932C13.583 43.9443 13.4332 45.2925 13.2334 45.5422C11.7353 47.1901 9.13862 46.9904 7.64051 45.5422C6.14241 44.0941 6.14241 41.4974 7.64051 39.9493C9.13862 38.4013 11.7353 38.3014 13.2334 39.8994C12.6841 41.6971 11.8851 39.4499 9.83773 39.9992C7.79032 40.5486 8.23976 40.8482 7.8902 41.8469V41.747Z" fill="var(--fill-0, white)"/>
<path id="Vector_22" d="M19.6752 29.4127C19.5254 30.6112 20.0247 31.56 20.8237 32.1592C22.6214 33.5575 24.1195 31.8596 24.6189 32.0094C25.1183 32.1592 25.2681 32.5587 25.0683 32.7585C23.5203 34.3065 21.0235 34.1567 19.5254 32.7085C18.0272 31.2604 17.9773 28.7136 19.4255 27.1156C20.8736 25.5176 23.4204 25.3678 25.0184 26.9658C26.6164 28.5638 24.569 27.9146 24.2693 27.7149C23.3705 27.0657 22.4217 26.7661 21.3231 27.2155C20.2245 27.6649 19.775 28.3141 19.5753 29.4626L19.6752 29.4127Z" fill="var(--fill-0, white)"/>
<path id="Vector_23" d="M17.428 20.8735C16.2296 21.273 14.8313 21.0233 13.9325 20.1744C13.0336 19.3254 14.2321 19.0758 14.5816 19.3254C15.2808 19.8248 15.9299 20.2742 16.7789 20.0246C17.6278 19.7749 17.5279 19.5252 17.5779 19.2256C17.6278 18.926 17.478 18.3766 17.0785 18.1769L15.3307 17.278C14.5816 16.8785 14.0323 16.3292 13.9325 15.5802C13.8326 14.8311 14.1322 13.9323 14.8813 13.5328C16.0298 12.9335 17.3781 13.0833 18.4268 13.8324C19.4755 14.5815 18.4268 14.2818 18.3768 14.4316C17.9274 15.2806 17.1784 13.8324 15.8301 14.2319C14.4818 14.6314 15.1809 14.6813 15.081 14.9809C14.9811 15.2806 15.1809 15.8798 15.5804 16.0796L17.5779 17.0783C18.3768 17.4778 18.8762 18.1769 18.8263 19.0258C18.7763 19.8748 18.3768 20.5739 17.428 20.9234V20.8735Z" fill="var(--fill-0, white)"/>
<path id="Vector_24" d="M48.2391 33.7573C46.9907 34.0569 45.6424 33.7573 44.8434 32.8584C44.8434 32.5089 45.193 32.1094 45.4926 32.0095C46.1418 32.6587 46.9408 33.0582 47.7897 32.8085C48.6386 32.5588 48.4888 32.409 48.5387 32.1094C48.6386 31.6599 48.5387 31.2105 48.0893 30.9608L46.2416 30.012C45.3428 29.5626 44.8434 28.8135 44.8934 27.8647C44.9433 26.9159 45.6424 26.1669 46.6911 25.9671C47.7397 25.7674 48.6885 25.9671 49.4376 26.6163C50.1866 27.2655 49.138 27.6151 48.8883 27.5152C48.1892 27.1656 47.6399 26.7661 46.8908 26.9659C46.1418 27.1656 46.0918 27.4153 46.0918 27.8148C46.0918 28.2143 46.2916 28.6637 46.6911 28.8635L48.7884 29.9121C49.5874 30.3116 49.937 31.1606 49.8371 32.0095C49.7372 32.8584 49.1879 33.5076 48.2391 33.7573Z" fill="var(--fill-0, white)"/>
<path id="Vector_25" d="M4.79398 46.0916C3.54556 47.0404 1.69789 46.7907 0.599285 45.6921C-0.499324 44.5935 0.948849 44.6933 1.19853 44.8431C1.89765 45.2926 2.49688 45.742 3.34581 45.5922C4.19473 45.4424 4.19473 45.1428 4.24467 44.7433C4.29461 44.3438 4.1448 43.8444 3.69537 43.6447L1.8477 42.6959C0.948843 42.2464 0.449478 41.3975 0.649225 40.3988C0.848972 39.4 1.59803 38.7009 2.69664 38.651C3.79525 38.601 4.54429 38.7009 5.14354 39.4C5.74278 40.0991 4.89385 40.3488 4.5443 40.199C3.94505 39.8495 3.39575 39.5498 2.69664 39.6997C1.99752 39.8495 1.84771 40.0991 1.79777 40.5486C1.74784 40.998 1.94758 41.4474 2.39701 41.6472L4.39448 42.6459C5.04366 42.9455 5.39322 43.5947 5.49309 44.144C5.59296 44.6933 5.49309 45.5922 4.79398 46.0916Z" fill="var(--fill-0, white)"/>
<path id="Vector_26" d="M49.8869 46.3912C48.6884 46.8906 47.1403 46.6409 46.2914 45.6921C45.4425 44.7433 46.591 44.6933 46.8907 44.8931C47.6397 45.4424 48.3888 45.8918 49.2876 45.4923C50.1865 45.0928 49.8369 45.0429 49.8869 44.7433C49.9368 44.4437 49.787 43.9443 49.4374 43.7445L47.5898 42.7957C46.641 42.2964 46.0917 41.5973 46.1915 40.5486C46.2914 39.4999 46.8907 38.9007 47.9393 38.7509C48.988 38.601 50.0367 38.7509 50.6858 39.45C51.335 40.1491 50.3862 40.4487 50.0866 40.2989C49.4874 39.9493 48.9381 39.6497 48.2389 39.7496C47.5398 39.8495 47.39 40.1491 47.2901 40.5985C47.1903 41.0479 47.44 41.4974 47.8894 41.6971L49.787 42.596C50.586 42.9955 51.0354 43.6447 51.0354 44.4437C51.0354 45.2426 50.6858 45.9917 49.787 46.3912H49.8869Z" fill="var(--fill-0, white)"/>
<path id="Vector_27" d="M11.6853 20.7735C10.1373 21.4726 7.74029 20.7236 8.03991 19.625C8.33953 18.5264 9.3882 20.5238 10.8863 19.9246C12.3844 19.3254 11.5854 19.4752 11.5854 19.1256C11.5854 18.7761 11.4855 18.3266 11.136 18.1269L9.18846 17.1281C8.33953 16.6787 7.8901 15.9796 7.94004 15.0807C7.98998 14.1819 8.53928 13.4328 9.48808 13.1831C10.9862 12.7836 13.0336 13.4828 12.3844 14.3317C11.7352 15.1806 11.2359 13.7824 9.93751 14.082C8.63916 14.3816 9.18846 14.5314 9.13852 14.8311C9.08858 15.1307 9.28833 15.7799 9.73776 15.9796L11.885 17.0283C12.5842 17.3778 12.9337 18.1768 12.9337 18.8759C12.9337 19.575 12.5842 20.3241 11.7352 20.6737L11.6853 20.7735Z" fill="var(--fill-0, white)"/>
<path id="Vector_28" d="M19.3756 8.03975C18.1771 8.43925 16.7289 8.13963 15.88 7.2907C15.0311 6.44178 16.2295 6.3419 16.4293 6.44178C17.1284 6.89121 17.7276 7.34064 18.5766 7.19083C19.4255 7.04102 19.4255 6.79133 19.5254 6.39184C19.6252 5.99235 19.3756 5.3931 18.8762 5.14342L17.0785 4.29449C16.1796 3.84506 15.7801 2.9462 15.88 2.04734C15.9799 1.14848 16.8288 0.349489 17.8775 0.249616C18.9261 0.149742 19.825 0.349489 20.4242 0.998667C20.5241 1.19841 20.0747 1.84759 19.8749 1.79766C19.2757 1.54797 18.7763 1.14848 18.0772 1.24835C17.3781 1.34822 17.1284 1.64785 17.0285 2.14721C16.9287 2.64658 17.2283 3.04608 17.7276 3.29576L19.5254 4.14468C20.3244 4.54418 20.8237 5.19336 20.8237 6.04228C20.8237 6.89121 20.3743 7.6902 19.3756 7.98982V8.03975Z" fill="var(--fill-0, white)"/>
<path id="Vector_29" d="M14.1821 29.6126C14.3819 29.6625 14.3819 30.3117 14.282 30.5614H11.1859C11.1859 30.6113 11.136 33.7074 11.136 33.7074C10.7365 33.7573 10.4868 33.7573 10.0374 33.7074V26.0171H14.7814C14.8812 26.3667 14.8812 26.6663 14.7814 27.0158H11.136V29.5626L14.1322 29.6625L14.1821 29.6126Z" fill="var(--fill-0, white)"/>
<path id="Vector_30" d="M24.6689 8.03972C24.3692 8.18953 23.9697 8.18953 23.5203 8.03972V1.49801C22.8212 1.34819 22.172 1.44807 21.5228 1.44807V0.399397H26.6164C26.7662 0.798891 26.7662 1.09851 26.6164 1.44807H24.6689V8.03972Z" fill="var(--fill-0, white)"/>
<path id="Vector_31" d="M53.782 33.6574C53.4324 33.7573 53.0329 33.7573 52.6335 33.6574V27.0158H50.6859C50.586 26.6663 50.586 26.3667 50.6859 26.0171H55.7295C55.8294 26.3667 55.8294 26.6663 55.7295 27.0658H53.782V33.7074V33.6574Z" fill="var(--fill-0, white)"/>
<path id="Vector_32" d="M50.0368 20.7737C49.8371 21.0233 49.2378 20.9734 48.8883 20.8735V14.2319H46.9407C46.8908 13.8824 46.8409 13.5828 46.9407 13.1833H52.0343C52.1342 13.5828 52.0842 13.8824 52.0343 14.2319H50.0867V20.7737H50.0368Z" fill="var(--fill-0, white)"/>
<path id="Vector_33" d="M45.3925 45.4924C45.4924 45.792 45.4924 46.1915 45.3925 46.591H41.1479V38.9008C41.4975 38.751 41.847 38.751 42.2964 38.8508V45.4924H45.4425H45.3925Z" fill="var(--fill-0, white)"/>
<path id="Vector_34" d="M46.8409 7.14091C47.0906 7.14091 47.0906 7.9399 46.8409 8.08971H42.5963V0.399445C42.9958 0.299572 43.3453 0.299572 43.7448 0.399445V6.9911C43.7947 6.9911 46.7909 7.09097 46.7909 7.09097L46.8409 7.14091Z" fill="var(--fill-0, white)"/>
<path id="Vector_35" d="M43.3275 25.8909L42.1291 25.8971L42.1696 33.6372L43.3681 33.631L43.3275 25.8909Z" fill="var(--fill-0, white)"/>
<path id="Vector_36" d="M58.1984 26.0975L56.9999 26.1017L57.0269 33.8419L58.2254 33.8377L58.1984 26.0975Z" fill="var(--fill-0, white)"/>
<path id="Vector_37" d="M49.3376 7.98976C49.1378 8.23945 48.5386 8.13957 48.189 7.98976V0.449309C48.5386 0.299499 48.8881 0.249561 49.3376 0.349435V7.93983V7.98976Z" fill="var(--fill-0, white)"/>
<path id="Vector_38" d="M54.5309 13.1833H53.3824V20.9235H54.5309V13.1833Z" fill="var(--fill-0, white)"/>
<path id="Vector_39" d="M38.1518 13.4329H37.0032V21.1731H38.1518V13.4329Z" fill="var(--fill-0, white)"/>
</g>
</svg>
