<svg preserveAspectRatio="none" width="100%" height="100%" overflow="visible" style="display: block;" viewBox="0 0 86.4362 40.8689" fill="none" xmlns="http://www.w3.org/2000/svg">
<g id="Group">
<path id="Rectangle_602" d="M1.68435 0.0887906H0.620524V10.9044H1.68435V0.0887906Z" fill="var(--fill-0, white)"/>
<path id="Path_1925" d="M4.78715 0.0887906H5.85098V10.0179H10.9042V10.9931H4.78715V0.177443V0.0887906Z" fill="var(--fill-0, white)"/>
<path id="Path_1926" d="M12.7659 0.0887906H13.8297V10.0179H18.8829V10.9931H12.7659V0.177443V0.0887906Z" fill="var(--fill-0, white)"/>
<path id="Path_1927" d="M26.1524 7.44695H21.8084L20.5673 10.9044H19.4148L23.4042 0.0887906H24.5567L28.546 10.9044H27.3935L26.1524 7.44695ZM23.9361 1.24127C23.9361 1.24127 23.6701 2.1278 23.4928 2.65971L22.0744 6.56042H25.7978L24.3794 2.65971C24.202 2.1278 23.9361 1.24127 23.9361 1.24127Z" fill="var(--fill-0, white)"/>
<path id="Path_1928" d="M35.461 1.68454C35.461 1.68454 35.2837 2.57106 35.1064 3.28028L33.0673 10.9044H31.8262L28.9893 0.0887906H30.1418L32.2695 8.51078C32.4468 9.04269 32.5354 9.66326 32.5354 9.66326C32.5354 9.66326 32.6241 9.04269 32.8014 8.51078L35.1064 0.0887906H36.0815L38.3865 8.51078C38.5638 9.04269 38.6525 9.66326 38.6525 9.66326C38.6525 9.66326 38.7411 9.04269 38.9184 8.51078L41.1347 0.0887906H42.2872L39.3617 10.9044H38.1205L36.0815 3.28028C35.9042 2.57106 35.7269 1.68454 35.7269 1.68454H35.461Z" fill="var(--fill-0, white)"/>
<path id="Path_1929" d="M49.2021 7.44695H44.8581L43.617 10.9044H42.4645L46.4538 0.0887906H47.6063L51.5957 10.9044H50.4432L49.2021 7.44695ZM47.0744 1.24127C47.0744 1.24127 46.8084 2.1278 46.6311 2.65971L45.2127 6.56042H48.9361L47.5177 2.65971C47.3404 2.1278 47.0744 1.24127 47.0744 1.24127Z" fill="var(--fill-0, white)"/>
<path id="Path_1930" d="M53.3689 0.0887027H56.5604C57.2696 0.0887027 57.9788 0.0887037 58.5994 0.354661C59.6632 0.886576 60.2838 1.95041 60.1951 3.10289C60.1951 4.43268 59.3973 5.67381 58.1561 6.02842C58.2448 6.20573 58.3334 6.38303 58.4221 6.47168L60.8157 10.8157H59.5746L57.0923 6.29438H54.3441V10.8157H53.2802V5.14956e-05L53.3689 0.0887027ZM57.0036 5.40785C58.1561 5.40785 59.0426 4.60998 59.1313 3.54615C59.1313 3.4575 59.1313 3.36885 59.1313 3.19154C59.1313 2.39367 58.7767 1.68445 58.1561 1.32984C57.7129 1.15253 57.181 1.06388 56.649 1.06388H54.4327V5.40785H57.0036Z" fill="var(--fill-0, white)"/>
<path id="Path_1931" d="M63.1207 0.0887027H66.3122C67.0214 0.0887027 67.7306 0.0887037 68.3512 0.354661C69.415 0.886576 70.0356 1.95041 69.9469 3.10289C69.9469 4.43268 69.149 5.67381 67.9079 6.02842C67.9966 6.20573 68.0852 6.38303 68.1739 6.47168L70.5675 10.8157H69.3263L66.8441 6.29438H64.0958V10.8157H63.032V5.14956e-05L63.1207 0.0887027ZM66.7554 5.40785C67.9079 5.40785 68.7944 4.60998 68.8831 3.54615C68.8831 3.4575 68.8831 3.36885 68.8831 3.28019C68.8831 2.48232 68.5285 1.7731 67.9079 1.41849C67.4646 1.24119 66.9327 1.15253 66.4008 1.15253H64.1845V5.49651H66.7554V5.40785Z" fill="var(--fill-0, white)"/>
<path id="Path_1932" d="M78.1029 7.44695H73.7589L72.5178 10.9044H71.3653L75.3546 0.0887906H76.5071L80.4965 10.9044H79.344L78.1029 7.44695ZM75.9752 1.24127C75.9752 1.24127 75.7092 2.1278 75.5319 2.65971L74.1135 6.56042H77.8369L76.4185 2.65971C76.2412 2.1278 75.9752 1.24127 75.9752 1.24127Z" fill="var(--fill-0, white)"/>
<path id="Path_1933" d="M5.31915 14.7165C6.73759 14.7165 8.15603 15.1597 9.21986 16.1349L8.68795 16.9328C7.80142 16.1349 6.56029 15.6916 5.40781 15.6916C3.01419 15.6916 1.06383 17.642 1.06383 20.0356C1.06383 20.0356 1.06383 20.2129 1.06383 20.3016C0.975182 22.7838 2.83688 24.9115 5.31915 25.0001C5.31915 25.0001 5.40781 25.0001 5.49646 25.0001C6.82625 25.0001 8.06738 24.4682 9.04256 23.5817L9.66312 24.3796C8.59929 25.4434 7.0922 26.064 5.49646 26.064C2.48227 26.064 0 23.6704 0 20.6562C0 20.6562 0 20.4789 0 20.3902C0 17.376 2.21631 14.9824 5.2305 14.8938C5.2305 14.8938 5.40781 14.8938 5.49646 14.8938" fill="var(--fill-0, white)"/>
<path id="Path_1934" d="M11.7908 14.8937H12.8547V19.8583H19.149V14.8937H20.2128V25.7093H19.149V20.7448H12.8547V25.7093H11.7908V14.8937Z" fill="var(--fill-0, white)"/>
<path id="Path_1935" d="M23.4043 14.8936H26.5958C27.305 14.8936 28.0142 14.8936 28.6348 15.1596C30.1419 15.9575 30.7625 17.9078 29.8759 19.4149C29.5213 20.0355 28.9008 20.5674 28.1915 20.8333C28.2802 21.0107 28.3688 21.188 28.4575 21.2766L30.8511 25.6206H29.61L27.1277 21.0993H24.3795V25.6206H23.3157V14.805L23.4043 14.8936ZM27.0391 20.2128C28.2802 20.2128 29.2554 19.149 29.1667 17.9078C29.1667 17.1986 28.8121 16.578 28.1915 16.1348C27.7483 15.9575 27.2164 15.8688 26.6845 15.8688H24.4681V20.2128H27.0391Z" fill="var(--fill-0, white)"/>
<path id="Rectangle_603" d="M34.1313 14.8937H33.0674V25.7093H34.1313V14.8937Z" fill="var(--fill-0, white)"/>
<path id="Path_1936" d="M37.1454 23.6703C37.9433 24.3795 38.9185 24.8227 39.9823 24.8227C41.0461 24.9114 42.0213 24.1135 42.1099 23.0497C42.1099 23.0497 42.1099 22.961 42.1099 22.8724C42.1099 20.1242 36.7021 20.8334 36.7021 17.4646C36.7908 15.7802 38.2979 14.4504 39.9823 14.5391C41.0461 14.5391 42.1099 14.8937 42.9078 15.6029L42.3759 16.4894C41.7553 15.8688 40.8688 15.6029 39.9823 15.6029C38.8298 15.5142 37.8546 16.3121 37.6773 17.4646C37.6773 20.0355 43.0851 19.3263 43.0851 22.8724C43.0851 26.4185 41.844 25.7979 39.805 25.7979C38.4752 25.7979 37.2341 25.3547 36.3475 24.3795L36.9681 23.5816L37.1454 23.6703Z" fill="var(--fill-0, white)"/>
<path id="Path_1937" d="M48.0497 15.8689H44.149V14.8937H53.0142V15.8689H49.1135V25.798H48.0497V15.8689Z" fill="var(--fill-0, white)"/>
<path id="Rectangle_604" d="M55.7624 14.8937H54.6986V25.7093H55.7624V14.8937Z" fill="var(--fill-0, white)"/>
<path id="Path_1938" d="M64.1845 22.2519H59.8405L58.5994 25.7093H57.4469L61.4362 14.8937H62.5887L66.5781 25.7093H65.4256L64.1845 22.2519ZM62.0568 15.9575C62.0568 15.9575 61.7908 16.8441 61.6135 17.376L60.1951 21.2767H63.9185L62.5001 17.376C62.3228 16.8441 62.0568 15.9575 62.0568 15.9575Z" fill="var(--fill-0, white)"/>
<path id="Path_1939" d="M68.3512 14.8937H69.415L74.9115 22.6951C75.2661 23.2271 75.798 24.2022 75.798 24.2022C75.798 24.2022 75.7093 23.3157 75.7093 22.6951V14.8937H76.7732V25.7093H75.7093L70.2129 17.9079C69.8583 17.376 69.3263 16.4008 69.3263 16.4008C69.3263 16.4008 69.415 17.2873 69.415 17.9079V25.7093H68.3512V14.8937Z" fill="var(--fill-0, white)"/>
<path id="Path_1940" d="M0.620524 29.6986H6.73755V30.6738H1.68435V34.6632H5.76237V35.6384H1.68435V39.6277H7.0035V40.6029H0.620524V29.7873V29.6986Z" fill="var(--fill-0, white)"/>
<path id="Path_1941" d="M9.39725 29.6986H12.9434C16.2235 29.6986 18.3512 31.649 18.3512 35.1064C18.3512 38.5639 16.1348 40.5142 12.9434 40.5142H9.39725V29.6986ZM12.766 39.5391C15.4256 39.5391 17.1987 37.9433 17.1987 35.1064C17.376 32.8901 15.6916 30.8511 13.4753 30.6738C13.2093 30.6738 13.032 30.6738 12.766 30.6738H10.4611V39.6277H12.766V39.5391Z" fill="var(--fill-0, white)"/>
<path id="Path_1942" d="M20.6561 29.6986H21.7199V36.7908C21.7199 38.4752 23.1383 39.805 24.8227 39.805C26.5071 39.805 27.8369 38.3866 27.8369 36.7908V29.7873H28.9008V36.8795C28.9008 39.0072 27.305 40.7802 25.266 40.8689C25.0887 40.8689 25 40.8689 24.8227 40.8689C22.3405 40.8689 20.6561 39.2731 20.6561 36.8795V29.7873V29.6986Z" fill="var(--fill-0, white)"/>
<path id="Path_1943" d="M36.7021 29.4326C38.1205 29.4326 39.5389 29.8759 40.6028 30.8511L40.0709 31.649C39.1843 30.8511 37.9432 30.4078 36.7907 30.4078C34.3971 30.4078 32.4467 32.3582 32.4467 34.7518C32.4467 34.7518 32.4467 34.9291 32.4467 35.0177C32.3581 37.5 34.2198 39.6277 36.7021 39.7163C36.7021 39.7163 36.7907 39.7163 36.8794 39.7163C38.2091 39.7163 39.4503 39.1844 40.4255 38.2979L41.046 39.0958C39.9822 40.1596 38.4751 40.7802 36.8794 40.7802C33.8652 40.7802 31.3829 38.3865 31.3829 35.3724C31.3829 35.3724 31.3829 35.1951 31.3829 35.1064C31.3829 32.0922 33.5992 29.6986 36.6134 29.6099C36.6134 29.6099 36.7907 29.6099 36.8794 29.6099" fill="var(--fill-0, white)"/>
<path id="Path_1944" d="M48.5815 37.0568H44.2376L42.9964 40.5142H41.8439L45.8333 29.6986H46.9858L50.9751 40.5142H49.8227L48.5815 37.0568ZM46.3652 30.7625C46.3652 30.7625 46.0993 31.649 45.922 32.1809L44.5035 36.0816H48.2269L46.8085 32.1809C46.6312 31.649 46.3652 30.7625 46.3652 30.7625Z" fill="var(--fill-0, white)"/>
<path id="Path_1945" d="M54.4326 30.5851H50.5319V29.6099H59.3972V30.5851H55.4965V40.5142H54.4326V30.5851Z" fill="var(--fill-0, white)"/>
<path id="Rectangle_605" d="M62.1453 29.6986H61.0815V40.5142H62.1453V29.6986Z" fill="var(--fill-0, white)"/>
<path id="Path_1946" d="M70.1242 29.4328C73.1384 29.4328 75.6206 31.8264 75.6206 34.8406C75.6206 34.8406 75.6206 34.8406 75.6206 34.9292C75.6206 37.9434 73.3157 40.5143 70.2128 40.603C67.1986 40.603 64.6277 38.298 64.5391 35.1952C64.5391 35.1065 64.5391 35.0179 64.5391 34.8406C64.5391 31.8264 66.9327 29.3441 69.9469 29.3441C69.9469 29.3441 69.9469 29.3441 70.0355 29.3441M70.1242 39.7165C72.6065 39.7165 74.5568 37.5888 74.5568 35.1065C74.5568 32.7129 72.6951 30.6739 70.3015 30.5853C67.9079 30.5853 65.8689 32.447 65.7802 34.8406C65.7802 34.9292 65.7802 35.0179 65.7802 35.1065C65.6915 37.5888 67.6419 39.7165 70.1242 39.8051C70.1242 39.8051 70.1242 39.8051 70.2128 39.8051" fill="var(--fill-0, white)"/>
<path id="Path_1947" d="M78.0142 29.6986H79.078L84.5745 37.5001C84.9291 38.032 85.461 39.0072 85.461 39.0072C85.461 39.0072 85.3724 38.1206 85.3724 37.5001V29.6986H86.4362V40.5142H85.3724L79.8759 32.7128C79.5213 32.1809 78.9894 31.2057 78.9894 31.2057C78.9894 31.2057 79.078 32.0923 79.078 32.7128V40.5142H78.0142V29.6986Z" fill="var(--fill-0, white)"/>
</g>
</svg>
