<svg preserveAspectRatio="none" width="100%" height="100%" overflow="visible" style="display: block;" viewBox="0 0 150 51.0289" fill="none" xmlns="http://www.w3.org/2000/svg">
<g id="Logo Independent Schools NSW">
<path id="Vector" d="M94.194 49.8369C93.7497 49.8369 93.3478 49.7652 92.9604 49.6361C92.5876 49.5069 92.2573 49.3061 91.9991 49.0479L92.4295 48.5601C92.6446 48.7609 92.9029 48.9188 93.2332 49.0335C93.563 49.1483 93.8927 49.2057 94.237 49.2057C94.5098 49.2057 94.7395 49.177 94.9402 49.1196C95.1408 49.0622 95.299 48.9761 95.4136 48.8614C95.5281 48.7466 95.5857 48.5888 95.5857 48.4166C95.5857 48.2589 95.5281 48.1297 95.4281 48.0294C95.3275 47.9289 95.1699 47.8572 94.9547 47.7998C94.7395 47.7424 94.4522 47.6851 94.0649 47.6133C93.6345 47.5416 93.3048 47.4698 93.0465 47.3837C92.7883 47.2977 92.5876 47.1829 92.444 47.0108C92.3003 46.853 92.2288 46.6234 92.2288 46.3365C92.2288 46.0209 92.3149 45.7627 92.5016 45.5619C92.6877 45.361 92.9174 45.2032 93.2187 45.1028C93.5199 45.0024 93.8357 44.9593 94.18 44.9593C94.5959 44.9593 94.9687 45.0167 95.313 45.1315C95.6573 45.2462 95.9585 45.4184 96.2167 45.6336L95.8155 46.15C95.6003 45.9635 95.356 45.8201 95.0693 45.7196C94.7826 45.6193 94.4668 45.5619 94.1225 45.5619C93.7636 45.5619 93.4769 45.6193 93.2617 45.7196C93.0465 45.8201 92.932 45.9922 92.932 46.2074C92.932 46.3652 92.975 46.48 93.075 46.566C93.1611 46.6521 93.3048 46.7239 93.4914 46.7812C93.6775 46.8386 93.9503 46.8817 94.2946 46.9391C94.7395 46.9964 95.0978 47.0825 95.3851 47.1829C95.6718 47.2834 95.9015 47.4125 96.0591 47.5989C96.2167 47.7854 96.3028 48.015 96.3028 48.3163C96.3028 48.6462 96.2028 48.9188 96.0161 49.1483C95.8155 49.3778 95.5572 49.5356 95.2414 49.6504C94.9256 49.7652 94.5674 49.8082 94.18 49.8082" fill="var(--fill-0, white)"/>
<path id="Vector_2" d="M99.0146 49.7515L97.2646 45.0604H98.0393L99.3304 48.6756H99.5025L100.837 45.0604H101.611L102.946 48.6756H103.118L104.423 45.0604H105.169L103.404 49.7515H102.644L101.296 46.2368H101.123L99.7753 49.7515H99.0146Z" fill="var(--fill-0, white)"/>
<path id="Vector_3" d="M0 33.5412L1.21939 32.8813C1.3772 32.7952 1.40589 32.7522 1.40589 32.6087V24.9338C1.40589 24.7759 1.3772 24.7472 1.21939 24.6612L0 24.0012V23.8865H4.20331V24.0012L2.98393 24.6612C2.82612 24.7472 2.81178 24.7903 2.81178 24.9338V32.6087C2.81178 32.7666 2.81178 32.8096 2.98393 32.8813L4.20331 33.5412V33.656H0V33.5412Z" fill="var(--fill-0, white)"/>
<path id="Vector_4" d="M9.35363 33.5551L10.3148 32.9813C10.4727 32.8809 10.5013 32.8379 10.5013 32.7088V29.4092C10.5156 28.1324 10.0136 27.5586 9.21021 27.5586C8.52161 27.5586 7.97643 28.0033 7.63214 28.6919V32.6944C7.63214 32.8522 7.63219 32.8952 7.80434 32.967L8.77984 33.5551V33.6556H5.19338V33.5551L6.1976 32.9813C6.34101 32.8952 6.35538 32.8379 6.35538 32.6944V28.075C6.35538 27.9029 6.34107 27.8742 6.21196 27.7738L5.19338 26.9848V26.8843H7.56043V28.3907C7.9334 27.3721 8.66509 26.7552 9.72666 26.7552C11.0752 26.7552 11.8211 27.616 11.8211 29.4379V32.7088C11.8068 32.8665 11.8211 32.9239 11.9646 32.9956L12.9688 33.5695V33.6699H9.38236V33.5695L9.35363 33.5551Z" fill="var(--fill-0, white)"/>
<path id="Vector_5" d="M16.0672 33.7848C14.6183 33.7848 13.4276 32.4506 13.4276 30.3418C13.4276 28.0321 14.8048 26.7267 16.3398 26.7267C17.1431 26.7267 17.6883 27.1283 18.0613 27.6591V24.8617C18.0613 24.7039 18.0613 24.6465 17.9178 24.5604L17.014 23.9723V23.8718L19.3524 23.5275V32.4793C19.3524 32.6515 19.3668 32.6801 19.5102 32.7806L20.457 33.5409V33.6413H18.133V32.3215C17.7456 33.297 16.9567 33.7848 16.0672 33.7848ZM16.5693 33.0532C17.1288 33.0532 17.6883 32.7232 18.0613 31.9915V28.1039C17.7313 27.6161 17.2005 27.3292 16.6554 27.3292C15.7086 27.3292 14.8191 28.1899 14.8191 30.184C14.8191 32.1781 15.6512 33.0388 16.555 33.0388" fill="var(--fill-0, white)"/>
<path id="Vector_6" d="M21.1171 30.327C21.1171 27.8166 22.5374 26.7263 24.0437 26.7263C25.55 26.7263 26.7407 27.7161 26.7407 29.5381V29.8536H22.4226V30.0545C22.4226 32.0629 23.4412 32.9236 24.6032 32.9236C25.4639 32.9236 26.2099 32.5363 26.7263 31.4604L26.8411 31.489C26.4824 33.0241 25.4639 33.7844 24.0867 33.7844C22.48 33.7844 21.1171 32.6798 21.1171 30.327ZM24.015 27.1423C23.1112 27.1423 22.5374 28.003 22.4369 29.495H25.4639C25.4209 28.0891 25.0048 27.1423 24.015 27.1423Z" fill="var(--fill-0, white)"/>
<path id="Vector_7" d="M27.4004 36.6538L28.4046 36.08C28.5481 35.9939 28.5624 35.9366 28.5624 35.7931V28.075C28.5624 27.9029 28.5624 27.8598 28.419 27.7738L27.4004 26.9848V26.8843H29.7675V28.3046C30.2552 27.1856 30.9868 26.7552 31.9194 26.7552C33.44 26.7552 34.4729 28.0894 34.4729 30.1552C34.4586 32.4792 33.1817 33.8134 31.6181 33.8134C30.7573 33.8134 30.1979 33.4547 29.8536 32.9526V35.7357C29.8536 35.9078 29.8822 35.9509 30.04 36.0226L31.489 36.6825V36.7829H27.4147V36.6825L27.4004 36.6538ZM31.2164 33.2108C32.321 33.2108 33.067 32.1779 33.067 30.2269C33.067 28.6058 32.4071 27.4869 31.3742 27.4869C30.7573 27.4869 30.2265 27.8598 29.8392 28.6058V32.4792C30.1835 32.967 30.6425 33.1965 31.2164 33.1965" fill="var(--fill-0, white)"/>
<path id="Vector_8" d="M35.6204 30.327C35.6204 27.8166 37.0407 26.7263 38.547 26.7263C40.0533 26.7263 41.244 27.7161 41.244 29.5381V29.8536H36.9259V30.0545C36.9259 32.0629 37.9445 32.9236 39.1065 32.9236C39.9672 32.9236 40.7132 32.5363 41.2297 31.4604L41.3444 31.489C40.9858 33.0241 39.9672 33.7844 38.59 33.7844C36.9833 33.7844 35.6204 32.6798 35.6204 30.327ZM38.5183 27.1423C37.6145 27.1423 37.0407 28.003 36.9402 29.495H39.9672C39.9242 28.0891 39.5082 27.1423 38.5183 27.1423Z" fill="var(--fill-0, white)"/>
<path id="Vector_9" d="M46.2219 33.5551L47.1831 32.9813C47.3409 32.8809 47.3696 32.8379 47.3696 32.7088V29.4092C47.3839 28.1324 46.8818 27.5586 46.0784 27.5586C45.3898 27.5586 44.8447 28.0033 44.5004 28.6919V32.6944C44.5004 32.8522 44.5004 32.8952 44.6725 32.967L45.6481 33.5551V33.6556H42.0616V33.5551L43.0659 32.9813C43.2093 32.8952 43.2236 32.8379 43.2236 32.6944V28.075C43.2236 27.9029 43.2093 27.8742 43.0802 27.7738L42.0616 26.9848V26.8843H44.4287V28.3907C44.8017 27.3721 45.5333 26.7552 46.5949 26.7552C47.9434 26.7552 48.6894 27.616 48.6894 29.4379V32.7088C48.675 32.8665 48.6894 32.9239 48.8329 32.9956L49.837 33.5695V33.6699H46.2506V33.5695L46.2219 33.5551Z" fill="var(--fill-0, white)"/>
<path id="Vector_10" d="M52.9644 33.7848C51.5155 33.7848 50.3248 32.4506 50.3248 30.3418C50.3248 28.0321 51.702 26.7267 53.237 26.7267C54.0404 26.7267 54.5855 27.1283 54.9585 27.6591V24.8617C54.9585 24.7039 54.9585 24.6465 54.8151 24.5604L53.9113 23.9723V23.8718L56.2496 23.5275V32.4793C56.2496 32.6515 56.264 32.6801 56.4074 32.7806L57.3543 33.5409V33.6413H55.0302V32.3215C54.6429 33.297 53.8539 33.7848 52.9644 33.7848ZM53.4665 33.0532C54.026 33.0532 54.5855 32.7232 54.9585 31.9915V28.1039C54.6285 27.6161 54.0977 27.3292 53.5526 27.3292C52.6058 27.3292 51.7164 28.1899 51.7164 30.184C51.7164 32.1781 52.5484 33.0388 53.4522 33.0388" fill="var(--fill-0, white)"/>
<path id="Vector_11" d="M57.957 30.327C57.957 27.8166 59.377 26.7263 60.8833 26.7263C62.3896 26.7263 63.5807 27.7161 63.5807 29.5381V29.8536H59.2624V30.0545C59.2624 32.0629 60.2808 32.9236 61.4428 32.9236C62.3035 32.9236 63.0497 32.5363 63.5662 31.4604L63.6807 31.489C63.3225 33.0241 62.3035 33.7844 60.9263 33.7844C59.32 33.7844 57.957 32.6798 57.957 30.327ZM60.8693 27.1423C59.9656 27.1423 59.3915 28.003 59.2909 29.495H62.3181C62.275 28.0891 61.8592 27.1423 60.8693 27.1423Z" fill="var(--fill-0, white)"/>
<path id="Vector_12" d="M68.6298 33.5551L69.5912 32.9813C69.7488 32.8809 69.7779 32.8379 69.7779 32.7088V29.4092C69.7918 28.1324 69.2899 27.5586 68.4868 27.5586C67.7982 27.5586 67.2526 28.0033 66.9083 28.6919V32.6944C66.9083 32.8522 66.9083 32.8952 67.0805 32.967L68.0564 33.5551V33.6556H64.4697V33.5551L65.4741 32.9813C65.6172 32.8952 65.6317 32.8379 65.6317 32.6944V28.075C65.6317 27.9029 65.6317 27.8742 65.4881 27.7738L64.4697 26.9848V26.8843H66.8368V28.3907C67.2096 27.3721 67.9412 26.7552 69.0032 26.7552C70.3513 26.7552 71.0975 27.616 71.0975 29.4379V32.7088C71.083 32.8665 71.0975 32.9239 71.2411 32.9956L72.245 33.5695V33.6699H68.6589V33.5695L68.6298 33.5551Z" fill="var(--fill-0, white)"/>
<path id="Vector_13" d="M73.393 32.0774V27.3433H72.3456V26.8699H73.1348C73.35 26.8699 73.3785 26.8699 73.4791 26.6404L74.5835 24.5459H74.6841V26.8699H76.793V27.3433H74.6841V31.9626C74.6841 32.6226 75.0284 33.0099 75.6019 33.0099C76.1044 33.0099 76.5202 32.68 76.7208 32.2783L76.8069 32.3069C76.6063 33.182 75.9752 33.7989 74.9854 33.7989C73.9955 33.7989 73.393 33.2251 73.393 32.0918" fill="var(--fill-0, white)"/>
<path id="Vector_14" d="M31.2451 49.4934V46.6529H31.3598L32.5649 49.1491C32.651 49.3212 32.694 49.3643 32.8948 49.4217C33.153 49.479 33.5117 49.5364 33.8704 49.5364C35.2188 49.5364 36.1657 48.8335 36.1657 47.6428C36.1657 46.6816 35.5631 46.1795 34.4155 45.6774L33.2391 45.161C32.0198 44.6302 31.2307 43.712 31.2307 42.4783C31.2307 40.8859 32.5362 39.7813 34.4729 39.7813C35.1902 39.7813 35.9505 39.8961 36.7825 40.0969V42.8082H36.6678L35.4771 40.4555C35.4053 40.2978 35.3193 40.2404 35.2045 40.226C34.9893 40.1829 34.7598 40.1686 34.5159 40.1686C33.2821 40.1686 32.4358 40.9003 32.4358 42.0336C32.4358 42.8943 32.9953 43.3964 33.899 43.8125L35.2188 44.415C36.6534 45.0749 37.4425 45.7635 37.4425 47.0259C37.4425 48.7043 36.137 49.9094 33.9421 49.9094C33.0813 49.9094 32.1058 49.7372 31.2881 49.4647" fill="var(--fill-0, white)"/>
<path id="Vector_15" d="M38.5761 46.4807C38.5761 44.0419 40.1398 42.8369 41.9904 42.8369C42.5499 42.8369 43.2241 42.9516 43.9415 43.2242L43.3246 45.1896H43.2241L42.4782 43.4251C42.4351 43.3103 42.3777 43.2816 42.2773 43.2529C42.1482 43.2242 42.0621 43.2099 41.933 43.2099C40.7136 43.2099 39.8959 44.2715 39.8959 46.0934C39.8959 48.1161 40.8858 48.9912 42.0621 48.9912C42.8368 48.9912 43.4823 48.6182 43.9415 47.7432L44.0418 47.7718C43.7263 48.9769 42.8798 49.8663 41.4596 49.8663C39.9676 49.8663 38.5761 48.7474 38.5761 46.452" fill="var(--fill-0, white)"/>
<path id="Vector_16" d="M44.5004 49.6511L45.4903 49.0773C45.6337 48.9912 45.6481 48.9338 45.6481 48.7904V40.9862C45.6481 40.8141 45.6337 40.771 45.5046 40.685L44.6008 40.0824V39.982L46.9392 39.6234V44.3288C47.3265 43.3533 48.0582 42.8225 49.0194 42.8225C50.3678 42.8225 51.1138 43.6832 51.1138 45.4908V48.776C51.1138 48.9338 51.1282 48.9912 51.2716 49.063L52.2615 49.6367V49.7372H48.6751V49.6367L49.6362 49.063C49.794 48.9625 49.8227 48.9195 49.8227 48.7904V45.4765C49.8371 44.1997 49.3206 43.6402 48.5316 43.6402C47.843 43.6402 47.2979 44.0993 46.9536 44.7879V48.776C46.9536 48.9338 46.9679 48.9768 47.1257 49.0486L48.1156 49.6367V49.7372H44.5291V49.6367L44.5004 49.6511Z" fill="var(--fill-0, white)"/>
<path id="Vector_17" d="M52.5631 46.3946C52.5631 44.1423 53.9403 42.8369 55.7766 42.8369C57.6129 42.8369 58.9468 44.0993 58.9468 46.3372C58.9468 48.5752 57.5698 49.895 55.7336 49.895C53.8973 49.895 52.5631 48.6326 52.5631 46.3946ZM55.7766 49.5077C56.8525 49.5077 57.455 48.403 57.455 46.366C57.455 44.3288 56.8382 43.2385 55.7336 43.2385C54.6289 43.2385 54.0551 44.3145 54.0551 46.366C54.0551 48.4174 54.6719 49.5077 55.7766 49.5077Z" fill="var(--fill-0, white)"/>
<path id="Vector_18" d="M59.9658 46.3946C59.9658 44.1423 61.343 42.8369 63.1791 42.8369C65.0152 42.8369 66.3493 44.0993 66.3493 46.3372C66.3493 48.5752 64.9721 49.895 63.1361 49.895C61.3 49.895 59.9658 48.6326 59.9658 46.3946ZM63.1791 49.5077C64.2405 49.5077 64.8576 48.403 64.8576 46.366C64.8576 44.3288 64.2405 43.2385 63.1361 43.2385C62.0316 43.2385 61.4576 44.3145 61.4576 46.366C61.4576 48.4174 62.0747 49.5077 63.1791 49.5077Z" fill="var(--fill-0, white)"/>
<path id="Vector_19" d="M66.9517 49.6511L67.9416 49.0773C68.0852 48.9912 68.0997 48.9338 68.0997 48.7904V40.9862C68.0997 40.8141 68.0852 40.771 67.9561 40.685L67.0523 40.0824V39.982L69.3909 39.6234V48.7904C69.3909 48.9481 69.4048 48.9912 69.563 49.063L70.5529 49.6511V49.7515H66.9662V49.6511H66.9517Z" fill="var(--fill-0, white)"/>
<path id="Vector_20" d="M71.4997 49.4647L72.0876 47.528H72.1883L72.8478 49.2064C72.9199 49.3786 72.9629 49.4216 73.106 49.4503C73.3212 49.4933 73.5509 49.522 73.8091 49.522C74.7275 49.522 75.3439 49.0056 75.3439 48.2309C75.3439 47.5997 74.8705 47.3271 74.168 47.0546L73.1636 46.6672C72.3174 46.3372 71.6858 45.7491 71.6858 44.8166C71.6858 43.6259 72.7762 42.8369 74.1389 42.8369C74.7705 42.8369 75.5161 42.9516 76.2338 43.1955L75.7173 44.9888H75.6167L74.8566 43.4251C74.7845 43.2816 74.756 43.2673 74.6123 43.2385C74.4547 43.2099 74.311 43.1955 74.1534 43.1955C73.3357 43.1955 72.7332 43.6689 72.7332 44.3862C72.7332 45.0031 73.2211 45.3043 73.8807 45.5483L74.9566 45.9499C75.8464 46.2799 76.492 46.7963 76.492 47.7575C76.492 49.1204 75.2724 49.8807 73.7806 49.8807C73.0345 49.8807 72.1737 49.7085 71.4851 49.4503" fill="var(--fill-0, white)"/>
<path id="Vector_21" d="M150 11.5921C150 15.3937 146.915 18.478 143.114 18.478C139.312 18.478 136.228 15.3937 136.228 11.5921C136.228 7.7904 139.312 4.70608 143.114 4.70608C146.915 4.70608 150 7.7904 150 11.5921Z" fill="var(--fill-0, white)"/>
<path id="Vector_22" d="M137.677 38.0452C136.629 40.154 134.32 41.3447 131.996 40.9573L121.193 39.1928C118.912 38.8198 117.119 37.0266 116.761 34.7456L116.201 31.2739C115.842 28.9929 114.049 27.1997 111.768 26.8268L88.0547 22.939C85.7022 22.5517 83.8801 20.6581 83.5934 18.291L84.5687 26.2959L84.9415 29.3372C85.2288 31.7043 87.0503 33.5979 89.4034 33.9853L113.561 37.9447C115.842 38.3177 117.636 40.1109 117.994 42.3919L118.554 45.8493C118.927 48.1303 120.706 49.9235 122.987 50.2964L127.061 50.9564C129.385 51.3437 131.695 50.153 132.742 48.0442L137.691 38.0308L137.677 38.0452Z" fill="var(--fill-0, white)"/>
<path id="Vector_23" d="M146.629 21.4756C145.581 23.5845 143.272 24.7752 140.948 24.3878L119.056 20.8014C116.775 20.4284 114.982 18.6352 114.623 16.3542L114.064 12.8825C113.69 10.6016 111.912 8.8083 109.631 8.43532L86.5053 4.64804C84.1528 4.2607 82.3307 2.36706 82.044 0L83.0193 8.00495L83.3921 11.0462C83.6794 13.4133 85.5009 15.3069 87.854 15.6943L111.424 19.5533C113.705 19.9263 115.484 21.7195 115.857 24.0005L116.416 27.4722C116.789 29.7532 118.568 31.5464 120.849 31.9194L136.013 34.4012C138.337 34.7886 140.646 33.5978 141.694 31.489L143.128 28.5912L146.643 21.4756H146.629Z" fill="var(--fill-0, white)"/>
<path id="Vector_24" d="M85.8163 49.7515V45.0604H86.6486L89.5891 48.6756H89.7473V45.0604H90.4498V49.7515H89.6036L86.6625 46.1507H86.5049V49.7515H85.8163Z" fill="var(--fill-0, white)"/>
</g>
</svg>
