<svg preserveAspectRatio="none" width="100%" height="100%" overflow="visible" style="display: block;" viewBox="0 0 102.8 102.806" fill="none" xmlns="http://www.w3.org/2000/svg">
<g id="Layer 2">
<path id="Vector" d="M51.4 102.05C79.3732 102.05 102.05 79.3732 102.05 51.4C102.05 23.4268 79.3732 0.75 51.4 0.75C23.4268 0.75 0.75 23.4268 0.75 51.4C0.75 79.3732 23.4268 102.05 51.4 102.05Z" fill="var(--fill-0, white)"/>
<path id="Vector_2" d="M51.4 102.806C23.0562 102.806 0 79.7437 0 51.4C0 23.0562 23.0562 0 51.4 0C79.7437 0 102.8 23.0562 102.8 51.4C102.8 79.7437 79.7437 102.8 51.4 102.8V102.806ZM51.4 1.5C23.8875 1.5 1.5 23.8875 1.5 51.4C1.5 78.9125 23.8875 101.3 51.4 101.3C78.9125 101.3 101.3 78.9125 101.3 51.4C101.3 23.8875 78.9187 1.5 51.4 1.5Z" fill="var(--fill-0, #373737)"/>
<path id="Vector_3" d="M51.4 86.8938C31.8312 86.8938 15.9062 70.9687 15.9062 51.4C15.9062 31.8312 31.8312 15.9062 51.4 15.9062C70.9687 15.9062 86.8938 31.8312 86.8938 51.4C86.8938 70.9687 70.9687 86.8938 51.4 86.8938ZM51.4 16.5312C32.175 16.5312 16.5312 32.175 16.5312 51.4C16.5312 70.625 32.175 86.2688 51.4 86.2688C70.625 86.2688 86.2688 70.625 86.2688 51.4C86.2688 32.175 70.625 16.5312 51.4 16.5312Z" fill="var(--fill-0, #373737)"/>
<g id="Group">
<path id="Vector_4" d="M6.83125 50.7875L6.85 50L12.45 50.1125L12.4312 50.9L6.83125 50.7875Z" fill="var(--fill-0, #373737)"/>
<path id="Vector_5" d="M6.9375 47.9313L7.01875 47.15L11.9125 47.6625L12.175 45.1687L12.8562 45.2375L12.5125 48.5125L6.9375 47.925V47.9313Z" fill="var(--fill-0, #373737)"/>
<path id="Vector_6" d="M7.56875 43.1125L7.7375 42.3437L12.5437 43.3875L13.075 40.9375L13.7437 41.0812L13.0438 44.3L7.56875 43.1062V43.1125Z" fill="var(--fill-0, #373737)"/>
<path id="Vector_7" d="M13.425 36.95L12.7313 38.9438L14.0687 40L13.8 40.7625L9.16875 37.0125L9.44375 36.2313L15.4 36.175L15.1312 36.95H13.425ZM10.0375 36.8875C10.0375 36.8875 10.475 37.175 10.7125 37.3563L12.1875 38.5313L12.7437 36.925H10.8625C10.5625 36.925 10.0437 36.8625 10.0437 36.8625V36.875L10.0375 36.8875Z" fill="var(--fill-0, #373737)"/>
<path id="Vector_8" d="M12.2625 29.9875L16.4 30.9625C16.7125 31.0375 16.9812 31.1375 16.9812 31.1375V31.125C16.9812 31.125 16.7437 30.9625 16.5125 30.7562L13.3812 27.9063L13.7625 27.1937L18.0062 31.1313L17.575 31.9375L13.9187 31.075C13.5562 30.9875 13.1437 30.8437 13.1437 30.8437V30.8562C13.1437 30.8562 13.4875 31.125 13.7562 31.375L16.5 33.9438L16.0687 34.75L10.4562 33.3625L10.8375 32.65L14.925 33.7188C15.225 33.8 15.5 33.9062 15.5 33.9062V33.8937C15.5 33.8937 15.275 33.725 15.0375 33.5062L11.9312 30.6L12.2625 29.9875Z" fill="var(--fill-0, #373737)"/>
<path id="Vector_9" d="M19.6687 26L18.3938 27.6875L19.3438 29.1L18.8563 29.7438L15.6 24.7563L16.1 24.1L21.7875 25.8688L21.2937 26.5188L19.6687 25.9938V26ZM16.4625 24.9C16.4625 24.9 16.7937 25.3063 16.9625 25.5563L18 27.1313L19.025 25.775L17.2312 25.1938C16.9437 25.1 16.4688 24.8875 16.4688 24.8875L16.4562 24.9H16.4625Z" fill="var(--fill-0, #373737)"/>
<path id="Vector_10" d="M18.3687 21.3438L19.5687 20.1187C19.9812 19.7 20.1875 19.5563 20.3938 19.4625C20.95 19.2063 21.6125 19.3313 22.1375 19.85C22.65 20.35 22.8 21.0563 22.5125 21.6313L22.525 21.6438C22.525 21.6438 22.6188 21.6438 22.825 21.7L25.2125 22.375L24.5875 23.0125L22.1688 22.2937L21.3313 23.15L22.925 24.7125L22.375 25.275L18.375 21.35L18.3687 21.3438ZM21.6313 21.8625C22.0625 21.425 22.05 20.8812 21.6 20.4437C21.3063 20.1562 20.9875 20.0625 20.6687 20.1563C20.5062 20.2063 20.3438 20.3063 20.0375 20.6188L19.4062 21.2625L20.8375 22.6688L21.625 21.8625H21.6313Z" fill="var(--fill-0, #373737)"/>
<path id="Vector_11" d="M22.5688 17.2812L23.9188 16.225C24.3813 15.8625 24.6063 15.75 24.825 15.6812C25.4063 15.5 26.05 15.7125 26.5062 16.2937C26.9437 16.8562 27.0063 17.575 26.6438 18.1125L26.6563 18.125C26.6563 18.125 26.75 18.1437 26.9438 18.225L29.225 19.2062L28.525 19.7563L26.2188 18.725L25.275 19.4625L26.65 21.2188L26.0313 21.7062L22.575 17.2875L22.5688 17.2812ZM25.7312 18.2187C26.2125 17.8437 26.275 17.3 25.8875 16.8062C25.6312 16.4812 25.325 16.35 25.0062 16.4C24.8375 16.4312 24.6625 16.5062 24.3187 16.775L23.6063 17.3312L24.8438 18.9125L25.7312 18.2187Z" fill="var(--fill-0, #373737)"/>
<path id="Vector_12" d="M31.6812 15.825L29.8625 16.9L30.2063 18.5687L29.5125 18.9813L28.3937 13.1313L29.1062 12.7125L33.6937 16.5063L32.9875 16.925L31.6812 15.825ZM29.1312 13.5938C29.1312 13.5938 29.2812 14.0938 29.3437 14.3875L29.7125 16.2375L31.175 15.375L29.7375 14.1625C29.5125 13.9625 29.15 13.5875 29.15 13.5875H29.1375L29.1312 13.5938Z" fill="var(--fill-0, #373737)"/>
<path id="Vector_13" d="M36.8563 9.0625C38.1313 8.6125 39.025 9.075 39.025 9.075L38.8563 9.75625C38.8563 9.75625 38.0375 9.4 37.125 9.71875C35.9438 10.1375 35.4875 11.3062 35.8875 12.4312C36.2875 13.5625 37.4125 14.2438 38.5875 13.825C39.5813 13.475 39.975 12.5563 39.975 12.5563L40.5625 12.95C40.5625 12.95 40.1313 14.0437 38.8063 14.5125C37.2188 15.075 35.675 14.2562 35.125 12.7062C34.5813 11.1687 35.3188 9.59375 36.8563 9.05V9.0625Z" fill="var(--fill-0, #373737)"/>
<path id="Vector_14" d="M40.7875 7.95625L41.5562 7.80625L42.0188 10.2188L44.8688 9.66875L44.4063 7.25L45.175 7.1L46.2313 12.6L45.4625 12.75L45 10.3313L42.15 10.8813L42.6125 13.3L41.8437 13.45L40.7875 7.95V7.95625Z" fill="var(--fill-0, #373737)"/>
<path id="Vector_15" d="M47.5188 6.86875L49.2312 6.7875C49.8187 6.7625 50.0625 6.79375 50.2812 6.8625C50.8625 7.05 51.2625 7.59375 51.2938 8.33125C51.325 9.04375 50.9563 9.6625 50.3563 9.89375V9.9125C50.3563 9.9125 50.425 9.98125 50.5375 10.1563L51.825 12.2687L50.9375 12.3125L49.65 10.1438L48.45 10.2L48.5563 12.425L47.7688 12.4625L47.5063 6.86875H47.5188ZM49.5563 9.4625C50.1688 9.43125 50.5313 9.025 50.5 8.4C50.4813 7.9875 50.3063 7.7 50.0188 7.55625C49.8625 7.48125 49.6813 7.44375 49.2438 7.4625L48.3375 7.50625L48.4312 9.5125L49.5563 9.4625Z" fill="var(--fill-0, #373737)"/>
<path id="Vector_16" d="M53.2 6.76875L53.9813 6.80625L53.7125 12.4L52.925 12.3625L53.1937 6.76875H53.2Z" fill="var(--fill-0, #373737)"/>
<path id="Vector_17" d="M55.5062 11.275C55.5062 11.275 56.0125 11.95 56.8437 12.0625C57.3625 12.1312 57.8438 11.9 57.9125 11.375C58.075 10.1688 55.35 10.0688 55.5813 8.35625C55.7 7.49375 56.5375 6.90625 57.5875 7.05C58.6187 7.1875 59.0875 7.825 59.0875 7.825L58.6438 8.425C58.6438 8.425 58.2 7.875 57.4875 7.78125C56.9 7.7 56.4313 8.0125 56.3688 8.45625C56.2125 9.60625 58.9437 9.6625 58.7 11.4625C58.5812 12.3188 57.825 12.9375 56.725 12.7875C55.5438 12.625 54.9813 11.8062 54.9813 11.8062L55.5 11.275H55.5062Z" fill="var(--fill-0, #373737)"/>
<path id="Vector_18" d="M62.0125 8.7L60.15 8.225L60.3188 7.5625L64.8 8.7125L64.6313 9.375L62.7687 8.9L61.5437 13.6625L60.7812 13.4687L62.0062 8.70625L62.0125 8.7Z" fill="var(--fill-0, #373737)"/>
<path id="Vector_19" d="M66.1188 9.2125L66.8563 9.475L64.9625 14.7438L64.225 14.4813L66.1188 9.20625V9.2125Z" fill="var(--fill-0, #373737)"/>
<path id="Vector_20" d="M69.675 15.0312L67.7625 14.1313L66.575 15.35L65.8438 15.0063L70.0562 10.7938L70.8063 11.1438L70.2375 17.075L69.5 16.725L69.675 15.025V15.0312ZM70.0938 11.6625C70.0938 11.6625 69.7625 12.0688 69.5563 12.2875L68.2312 13.6313L69.7687 14.3563L69.9687 12.4813C70.0062 12.1813 70.1125 11.675 70.1125 11.675H70.1L70.0938 11.6625Z" fill="var(--fill-0, #373737)"/>
<path id="Vector_21" d="M74.0313 12.8125L74.6813 13.2375L74.7625 17.65C74.7688 18.0125 74.7063 18.5812 74.7063 18.5812H74.7188C74.7188 18.5812 74.9438 18.1438 75.1188 17.8813L77.1188 14.8375L77.775 15.2688L74.7 19.95L74.0563 19.525L73.9625 15.1188C73.9625 14.75 74.0188 14.1813 74.0188 14.1813H74.0063C74.0063 14.1813 73.775 14.6187 73.6063 14.8875L71.6125 17.925L70.9563 17.4937L74.0313 12.8125Z" fill="var(--fill-0, #373737)"/>
<path id="Vector_22" d="M78.85 21.8562C78.85 21.8562 78.85 22.7062 79.4375 23.2937C79.8062 23.6625 80.3313 23.7687 80.7063 23.3937C81.5625 22.5312 79.4563 20.8 80.675 19.5812C81.2938 18.9625 82.3125 19.0062 83.0625 19.7562C83.8 20.4875 83.7875 21.275 83.7875 21.275L83.075 21.4812C83.075 21.4812 83.05 20.775 82.5438 20.2687C82.125 19.85 81.5625 19.8125 81.25 20.1312C80.4312 20.95 82.5687 22.65 81.2875 23.9375C80.675 24.55 79.7 24.5812 78.9125 23.8C78.0688 22.9562 78.1187 21.9625 78.1187 21.9625L78.8562 21.8562H78.85Z" fill="var(--fill-0, #373737)"/>
<path id="Vector_23" d="M87.0375 24.3125C87.8625 25.3813 87.7 26.3812 87.7 26.3812L87 26.4312C87 26.4312 87.0875 25.5437 86.4938 24.775C85.725 23.7812 84.475 23.7187 83.5313 24.4437C82.5813 25.175 82.2875 26.4562 83.05 27.4437C83.6938 28.2812 84.6875 28.3687 84.6875 28.3687L84.5 29.0437C84.5 29.0437 83.325 28.975 82.4688 27.8687C81.4375 26.5375 81.7375 24.8125 83.0375 23.8062C84.325 22.8125 86.0563 23.025 87.05 24.3125H87.0375Z" fill="var(--fill-0, #373737)"/>
<path id="Vector_24" d="M89.3312 27.7125L89.7125 28.4L87.5625 29.6L88.975 32.1375L91.125 30.9375L91.5063 31.625L86.6125 34.35L86.2313 33.6625L88.3813 32.4625L86.9688 29.925L84.8188 31.125L84.4375 30.4375L89.3312 27.7125Z" fill="var(--fill-0, #373737)"/>
<path id="Vector_25" d="M93.4688 36.1312C94.0188 37.6562 93.275 39.2562 91.7563 39.8062C90.2063 40.3687 88.5688 39.625 88.0188 38.1C87.4688 36.575 88.25 34.95 89.8 34.3937C91.3188 33.8437 92.9188 34.6125 93.4688 36.1312ZM88.6938 37.8562C89.0813 38.9312 90.2938 39.475 91.4813 39.0437C92.6313 38.625 93.1875 37.45 92.7938 36.375C92.4063 35.3 91.225 34.7375 90.075 35.1562C88.8875 35.5875 88.3063 36.7812 88.6938 37.8562Z" fill="var(--fill-0, #373737)"/>
<path id="Vector_26" d="M95.4 43.2937C95.6875 44.8875 94.6875 46.3437 93.1 46.6312C91.475 46.925 89.9875 45.925 89.6938 44.3312C89.4063 42.7375 90.4438 41.2687 92.0688 40.9687C93.6563 40.6812 95.1063 41.7 95.3938 43.2937H95.4ZM90.4063 44.2C90.6125 45.325 91.7125 46.0625 92.9563 45.8312C94.1563 45.6125 94.9 44.5437 94.6938 43.4187C94.4875 42.2937 93.4188 41.5437 92.2125 41.7625C90.9688 41.9875 90.2 43.075 90.4063 44.2Z" fill="var(--fill-0, #373737)"/>
<path id="Vector_27" d="M95.9313 48.075L95.9625 48.8625L91.0438 49.0687L91.15 51.575L90.4688 51.6062L90.3313 48.3125L95.9313 48.075Z" fill="var(--fill-0, #373737)"/>
</g>
<g id="Group_2">
<path id="Vector_28" d="M19.0375 73.3813L19.4875 74.025L14.8875 77.2313L14.4375 76.5875L19.0375 73.3813Z" fill="var(--fill-0, #373737)"/>
<path id="Vector_29" d="M20.3312 75.2688L20.8375 75.8563L19.7187 80.125C19.625 80.4813 19.4125 81.0125 19.4125 81.0125L19.425 81.025C19.425 81.025 19.7687 80.6563 20 80.45L22.7562 78.0625L23.2687 78.6563L19.0313 82.325L18.525 81.7437L19.6375 77.475C19.7375 77.1188 19.95 76.5875 19.95 76.5875L19.9375 76.575C19.9375 76.575 19.5937 76.9438 19.3562 77.15L16.6062 79.5313L16.0938 78.9375L20.3312 75.2688Z" fill="var(--fill-0, #373737)"/>
<path id="Vector_30" d="M27.8875 82.5375C28.9562 83.3625 29.05 84.3688 29.05 84.3688L28.3812 84.5938C28.3812 84.5938 28.2375 83.7125 27.475 83.1188C26.4812 82.3563 25.2563 82.6062 24.525 83.55C23.7938 84.5 23.8312 85.8125 24.8187 86.575C25.6562 87.2188 26.6375 87.05 26.6375 87.05L26.625 87.75C26.625 87.75 25.475 87.9812 24.3625 87.125C23.0312 86.1 22.8812 84.3562 23.8812 83.0562C24.875 81.7687 26.6 81.5312 27.8875 82.525V82.5375Z" fill="var(--fill-0, #373737)"/>
<path id="Vector_31" d="M30.3875 84.4625L31.075 84.8438L29.875 86.9875L32.4062 88.4062L33.6063 86.2625L34.2937 86.6438L31.5625 91.5312L30.875 91.15L32.075 89.0063L29.5438 87.5875L28.3437 89.7313L27.6562 89.35L30.3875 84.4625Z" fill="var(--fill-0, #373737)"/>
<path id="Vector_32" d="M35.6125 87.2313L37.2125 87.85C37.7625 88.0625 37.975 88.1938 38.1437 88.35C38.6 88.7563 38.7438 89.4187 38.475 90.1062C38.2188 90.775 37.6313 91.1938 36.9875 91.1563V91.1687C36.9875 91.1687 37.0125 91.2563 37.0438 91.4688L37.3688 93.925L36.5375 93.6063L36.2438 91.1L35.125 90.6688L34.3188 92.75L33.5875 92.4625L35.6125 87.2375V87.2313ZM36.4188 90.4313C36.9875 90.65 37.4875 90.4312 37.7125 89.8438C37.8625 89.4562 37.8188 89.125 37.6125 88.875C37.5 88.7437 37.35 88.6375 36.9375 88.4813L36.0938 88.1563L35.3688 90.0313L36.4188 90.4375V90.4313Z" fill="var(--fill-0, #373737)"/>
<path id="Vector_33" d="M40.4125 88.9437L41.1688 89.1562L39.65 94.55L38.8937 94.3375L40.4125 88.9437Z" fill="var(--fill-0, #373737)"/>
<path id="Vector_34" d="M41.85 93.8375C41.85 93.8375 42.3188 94.5438 43.1438 94.7C43.6563 94.8 44.15 94.5938 44.25 94.0688C44.475 92.875 41.7625 92.625 42.0813 90.9313C42.2438 90.075 43.1125 89.5375 44.15 89.7313C45.175 89.925 45.6063 90.5813 45.6063 90.5813L45.1313 91.1563C45.1313 91.1563 44.7125 90.5813 44.0125 90.45C43.425 90.3375 42.9438 90.625 42.8625 91.0625C42.6438 92.2 45.3688 92.4063 45.0313 94.1938C44.8688 95.0438 44.0813 95.6188 42.9875 95.4125C41.8188 95.1875 41.3 94.3375 41.3 94.3375L41.85 93.8375Z" fill="var(--fill-0, #373737)"/>
<path id="Vector_35" d="M48.0438 91.05L46.1312 90.9063L46.1812 90.225L50.7937 90.5688L50.7438 91.25L48.8312 91.1063L48.4625 96.0125L47.6813 95.9563L48.05 91.05H48.0438Z" fill="var(--fill-0, #373737)"/>
<path id="Vector_36" d="M51.5875 90.4125L52.3313 90.4L51.8437 91.9563L51.275 91.9687L51.5875 90.4125Z" fill="var(--fill-0, #373737)"/>
<path id="Vector_37" d="M53.7938 94.8312C53.7938 94.8312 54.4375 95.3813 55.2688 95.3125C55.7875 95.2688 56.2063 94.9375 56.1625 94.4063C56.0563 93.1938 53.375 93.6875 53.2313 91.975C53.1563 91.1063 53.85 90.3563 54.9 90.2625C55.9375 90.175 56.5313 90.6875 56.5313 90.6875L56.2313 91.3688C56.2313 91.3688 55.675 90.9313 54.9625 90.9938C54.3688 91.0438 53.9813 91.45 54.0188 91.8938C54.1188 93.05 56.7938 92.5063 56.95 94.3188C57.025 95.1813 56.4188 95.95 55.3125 96.0438C54.125 96.1438 53.4 95.4688 53.4 95.4688L53.7938 94.8375V94.8312Z" fill="var(--fill-0, #373737)"/>
<path id="Vector_38" d="M60.8812 93.8688C60.8812 93.8688 61.6062 94.3063 62.4125 94.1C62.9187 93.9688 63.275 93.575 63.1437 93.0625C62.8437 91.8875 60.2812 92.8125 59.85 91.1438C59.6312 90.3 60.1937 89.4438 61.2187 89.1813C62.225 88.925 62.8937 89.3375 62.8937 89.3375L62.7062 90.0563C62.7062 90.0563 62.0875 89.7125 61.3937 89.8938C60.8187 90.0438 60.5 90.5063 60.6125 90.9375C60.9 92.0625 63.45 91.0875 63.9 92.85C64.1125 93.6875 63.6437 94.5438 62.5687 94.8188C61.4187 95.1125 60.5875 94.5625 60.5875 94.5625L60.8687 93.875L60.8812 93.8688Z" fill="var(--fill-0, #373737)"/>
<path id="Vector_39" d="M63.9313 88.5L66.975 87.3438L67.2188 87.9813L64.9125 88.8562L65.5375 90.4937L67.4125 89.7812L67.6563 90.4187L65.7813 91.1312L66.4187 92.8187L68.85 91.8937L69.0938 92.5313L65.925 93.7375L63.9313 88.5Z" fill="var(--fill-0, #373737)"/>
<path id="Vector_40" d="M68.1062 86.8375L69.625 86.0375C70.1437 85.7625 70.3812 85.6938 70.6125 85.6625C71.2187 85.5875 71.8125 85.9125 72.1562 86.5625C72.4875 87.1938 72.4187 87.9125 71.9687 88.375V88.3875C71.9687 88.3875 72.0687 88.4188 72.2437 88.5313L74.3125 89.9L73.525 90.3125L71.4375 88.8938L70.375 89.45L71.4125 91.425L70.7187 91.7938L68.1062 86.8375ZM71.0562 88.325C71.5937 88.0375 71.75 87.5188 71.4625 86.9625C71.2687 86.6 70.9937 86.4125 70.6687 86.4063C70.5 86.4063 70.3125 86.45 69.9312 86.65L69.1312 87.0688L70.0687 88.8438L71.0625 88.3188L71.0562 88.325Z" fill="var(--fill-0, #373737)"/>
<path id="Vector_41" d="M71.925 84.8188L72.6188 84.3312L76.0375 86.775C76.2938 86.9625 76.6563 87.2812 76.6563 87.2812H76.6688C76.6688 87.2812 76.4875 86.825 76.4 86.5187L75.2688 82.4687L75.95 81.9875L77.4875 87.7625L76.8438 88.2125L71.925 84.8188Z" fill="var(--fill-0, #373737)"/>
<path id="Vector_42" d="M76.5437 81.4062L77.1437 80.8937L80.7812 85.1562L80.1812 85.6688L76.5437 81.4062Z" fill="var(--fill-0, #373737)"/>
<path id="Vector_43" d="M79.925 78.0688C80.8562 77.0938 81.8688 77.1063 81.8688 77.1063L82.025 77.7938C82.025 77.7938 81.1313 77.8438 80.4625 78.5438C79.5938 79.45 79.7187 80.7 80.5812 81.525C81.45 82.35 82.7562 82.45 83.6187 81.55C84.35 80.7875 84.2875 79.7938 84.2875 79.7938L84.9875 79.8813C84.9875 79.8813 85.1 81.05 84.125 82.0688C82.9625 83.2875 81.2125 83.25 80.025 82.1188C78.85 80.9938 78.8 79.2563 79.9187 78.0813L79.925 78.0688Z" fill="var(--fill-0, #373737)"/>
<path id="Vector_44" d="M82.1188 75.7375L84.0438 73.1188L84.5938 73.525L83.1312 75.5125L84.5438 76.55L85.7313 74.9313L86.2813 75.3375L85.0937 76.9563L86.5438 78.025L88.0875 75.9313L88.6375 76.3375L86.6313 79.0688L82.1188 75.75V75.7375Z" fill="var(--fill-0, #373737)"/>
</g>
<path id="Vector_45" d="M51.4 100.15C24.5188 100.15 2.65 78.2812 2.65 51.4C2.65 24.5188 24.5188 2.65 51.4 2.65C78.2812 2.65 100.15 24.5188 100.15 51.4C100.15 78.2812 78.2812 100.15 51.4 100.15ZM51.4 3.275C24.8625 3.275 3.275 24.8625 3.275 51.4C3.275 77.9375 24.8625 99.525 51.4 99.525C77.9375 99.525 99.525 77.9375 99.525 51.4C99.525 24.8625 77.9375 3.275 51.4 3.275Z" fill="var(--fill-0, #373737)"/>
<path id="Vector_46" d="M50.8625 62.9938L39.5 61.875V59.1187H50.8625V62.9938Z" fill="var(--fill-0, #373737)"/>
<path id="Vector_47" d="M63.1 61.875L51.7375 63.05V59.1687H63.1V61.875Z" fill="var(--fill-0, #373737)"/>
<path id="Vector_48" d="M49.725 49.7562L47.95 86.2625C49.1938 86.4 50.4562 86.4687 51.7312 86.4687C52.6937 86.4687 53.65 86.4187 54.5937 86.3437L52.8125 49.7562H49.725Z" fill="var(--fill-0, #373737)"/>
</g>
</svg>
