<svg preserveAspectRatio="none" width="100%" height="100%" overflow="visible" style="display: block;" viewBox="0 0 68.4535 61.2225" fill="none" xmlns="http://www.w3.org/2000/svg">
<g id="Group">
<path id="Vector" d="M0.339558 26.6165C0.239558 26.6165 0.239558 26.5165 0.339558 26.4165V26.6165Z" fill="var(--fill-0, #9F9F9F)"/>
<g id="Group_2">
<path id="Vector_2" d="M68.4533 28.414C68.3534 28.7636 68.0538 28.6138 67.8041 28.7136L44.7833 39.4501L44.3838 39.6498C44.4837 39.4001 44.3838 39.1504 44.234 38.8009L36.6935 23.72C36.294 22.9709 36.0444 22.2718 35.4451 21.5727L39.4401 16.2794C39.7397 15.8799 40.1392 15.6302 40.289 15.1808L45.8819 7.84007L51.9243 0L68.4533 28.414Z" fill="var(--fill-0, #757575)"/>
<path id="Vector_3" d="M0.688971 24.9684C1.38809 25.1182 1.83752 25.5676 2.4867 25.9172L18.3666 35.1056C18.866 35.4052 19.1156 35.3552 19.5651 35.7547C20.4639 36.5038 21.6624 37.0531 22.6612 37.5525L23.2105 37.7023L24.8084 38.7509C25.3078 39.0506 25.5075 39.1005 25.957 39.4001L28.4538 40.8483L31.8995 42.8458C32.4488 43.1454 32.8982 43.6947 33.5474 43.8445C34.1965 43.9943 33.7971 44.0442 33.7971 44.1441C33.7971 44.244 33.7471 44.3439 33.6972 44.4437V44.6435L5.78252 57.627L0.339414 26.6163V26.4166V26.067V24.7187C0.489224 24.7187 0.589098 24.9185 0.688971 24.9185V24.9684Z" fill="var(--fill-0, #595959)"/>
<path id="Vector_4" d="M23.2605 4.59428C23.61 4.74409 23.4103 5.04371 23.4103 5.34333L23.2605 13.0835L23.1106 25.4679L23.0108 36.9034C23.0108 37.2529 23.0108 37.5026 22.6113 37.6025C21.6125 37.0532 20.4141 36.5538 19.5152 35.8048C18.6163 35.0557 18.8161 35.4552 18.3167 35.1556L2.43682 25.9173C1.78764 25.5178 1.33821 25.0684 0.639092 24.9685C0.539218 24.569 0.539218 23.9198 1.03859 23.8199C1.53795 23.7201 1.58789 23.8199 1.63783 23.6202C2.08726 22.7713 2.53669 23.021 2.43682 22.3218L12.7737 13.483L23.1606 4.59428H23.2605Z" fill="var(--fill-0, #898989)"/>
<path id="Vector_5" d="M51.7743 54.6308C51.8742 54.6308 51.974 54.5809 52.024 54.531C52.0739 54.481 51.8242 54.3811 51.8242 54.2813C51.7244 53.3824 51.0752 52.7832 50.7756 52.0341C50.4759 51.2851 50.426 51.1353 50.1763 50.6359L45.1826 40.7983C44.933 40.3489 44.883 39.9494 44.7831 39.5L67.804 28.7636C68.0537 28.6637 68.4032 28.7636 68.4532 28.464L65.0575 49.0879C64.9576 49.787 64.658 50.3363 64.8078 51.1852L52.3735 54.9305C52.024 55.0303 51.9241 54.7307 51.7743 54.6808V54.6308Z" fill="var(--fill-0, #9F9F9F)"/>
<path id="Vector_6" d="M40.2889 15.2308C40.1391 15.6303 39.7396 15.9299 39.44 16.3294L35.445 21.6227L23.1606 37.8022L22.6113 37.6524C22.9608 37.5026 22.9608 37.3029 23.0108 36.9533L23.1106 25.5178L23.2604 13.1335L23.4103 5.39328C23.4103 5.1436 23.61 4.79404 23.2604 4.64423C23.61 4.34461 23.9096 4.7441 24.2092 4.94385L27.6549 7.29088C28.1043 7.5905 28.7535 7.98999 29.2029 8.18974C29.6523 8.38949 30.0019 8.88886 30.5512 9.23841L35.5948 12.5342L39.3401 14.9811C39.6896 15.2308 39.9393 15.4805 40.2889 15.3307V15.2308Z" fill="var(--fill-0, #9F9F9F)"/>
<path id="Vector_7" d="M35.4451 21.6228C36.0443 22.3219 36.294 22.9711 36.6935 23.7701L44.2339 38.851C44.3837 39.2005 44.4836 39.4502 44.3837 39.6999L35.2453 43.9944C34.9457 44.1443 34.5961 44.2441 34.3964 44.5437H33.9969H33.6473C33.6973 44.4439 33.7472 44.344 33.7472 44.2441C33.7472 44.1443 33.6473 43.9944 33.4975 43.9445C32.8484 43.7947 32.3989 43.2454 31.8496 42.9458L28.404 40.9483L25.9071 39.5001C25.4577 39.2505 25.208 39.2005 24.7586 38.851L23.1606 37.8023L35.4451 21.6228Z" fill="var(--fill-0, #4F4F4F)"/>
<path id="Vector_8" d="M51.7743 54.6308L47.7794 52.2838L42.8356 49.3375C42.8356 48.4387 41.2876 48.4387 40.4886 47.7396C39.6896 47.0404 38.641 46.8407 37.8919 46.2415C37.1428 45.6422 35.9943 45.2927 35.3451 44.7434C35.3451 44.4937 35.1953 44.4437 35.0954 44.3938C34.9456 44.2939 35.0954 43.9943 35.1953 43.9444L44.3337 39.6498L44.7332 39.4501C44.8331 39.8995 44.883 40.299 45.1327 40.7484L50.1264 50.586C50.3761 51.0853 50.5259 51.4848 50.7257 51.9842C51.0752 52.7332 51.6745 53.3325 51.7743 54.2313C51.8742 55.1302 52.024 54.3811 51.9741 54.481C51.9241 54.5809 51.8243 54.6308 51.7244 54.5809L51.7743 54.6308Z" fill="var(--fill-0, #898989)"/>
<path id="Vector_9" d="M63.0602 61.2225L54.9205 56.5285L63.959 55.7295L63.0602 61.2225Z" fill="var(--fill-0, #757575)"/>
<path id="Vector_10" d="M42.8357 49.3375L41.787 48.938L37.892 46.6409C36.6935 45.9418 35.4451 45.3925 34.3964 44.4937C34.5961 44.194 34.9457 44.0942 35.2453 43.9444C35.1454 43.9943 34.9956 44.2939 35.1454 44.3938C35.2953 44.4937 35.3452 44.4937 35.3951 44.7434C35.9944 45.2927 36.9432 45.4924 37.9419 46.2415C38.9406 46.9905 39.8395 47.0404 40.5386 47.7396C41.2377 48.4387 42.8856 48.4387 42.8856 49.3375H42.8357Z" fill="var(--fill-0, #9F9F9F)"/>
<path id="Vector_11" d="M2.53674 22.3218C2.63661 23.021 2.13724 22.7713 1.73775 23.6202C1.33826 24.4691 1.28832 23.77 1.13851 23.8199C0.589204 23.9198 0.639141 24.569 0.739014 24.9685C0.639141 24.9685 0.539267 24.8187 0.439393 24.7687V26.117C0.0398992 25.7175 -0.209785 24.6189 0.239646 24.2194L2.53674 22.3218Z" fill="var(--fill-0, #9F9F9F)"/>
<path id="Vector_12" d="M33.9973 44.4937C33.9473 44.6437 33.7473 44.6437 33.6473 44.6937V44.4937H33.9973Z" fill="var(--fill-0, #9F9F9F)"/>
</g>
</g>
</svg>
