<svg preserveAspectRatio="none" width="100%" height="100%" overflow="visible" style="display: block;" viewBox="0 0 146.122 48.959" fill="none" xmlns="http://www.w3.org/2000/svg">
<g id="NESA Logo" clip-path="url(#clip0_0_1155)">
<path id="Vector" d="M36.9294 35.3182C37.5149 32.8286 38.1026 30.3391 38.6925 27.8319H41.6003C41.5299 28.1995 41.4858 28.5099 41.4066 28.8114C40.4645 32.3884 39.4938 35.9587 38.5913 39.5444C38.402 40.2995 38.0982 40.5372 37.33 40.5218C35.4149 40.4844 35.4149 40.5218 34.9439 38.6354C34.4794 36.7753 34.015 34.9153 33.3216 33.0575C32.8175 35.1377 32.2694 37.2068 31.8336 39.3001C31.6443 40.2114 31.3075 40.5746 30.3236 40.5262C28.1202 40.4161 28.6265 40.7595 28.1092 38.8159C27.1517 35.2081 26.2183 31.5959 25.2256 27.7923C26.1523 27.7923 26.9778 27.7394 27.7878 27.8253C28.0189 27.8495 28.3293 28.2435 28.3975 28.5209C28.95 30.7485 29.4519 32.9893 30.1761 35.2521C30.5305 33.85 30.8871 32.4478 31.2415 31.0456C31.4022 30.4073 31.6311 29.7755 31.7081 29.1262C31.8336 28.041 32.3641 27.7593 33.4405 27.7416C34.5873 27.7218 35.0121 28.074 35.2256 29.1834C35.6263 31.257 36.2052 33.2953 36.7092 35.349C36.7797 35.3402 36.8523 35.3314 36.9228 35.3226L36.9294 35.3182Z" fill="var(--fill-0, white)"/>
<path id="Vector_2" d="M14.0701 40.4977C13.1896 40.4977 12.4148 40.5703 11.662 40.4669C11.2856 40.4162 10.8761 40.1147 10.6142 39.8131C8.80921 37.7374 7.03945 35.633 5.25428 33.5397C5.02535 33.2734 4.77882 33.0202 4.3694 32.5756V40.414H1.51225V27.8562C3.03767 27.7726 4.44864 27.4644 5.63508 29.1153C7.25296 31.3671 9.20102 33.3834 11.2239 35.7541V27.8408H14.0701V40.4977Z" fill="var(--fill-0, white)"/>
<path id="Vector_3" d="M28.6794 7.10767C28.8247 7.43344 28.9876 7.67557 29.0404 7.93752C29.7602 11.6091 29.8416 15.2895 28.9766 18.9435C28.4307 21.2393 27.0175 22.8594 24.7481 23.6078C22.6371 24.3034 21.2834 23.3767 21.1227 21.1667C20.984 19.2451 21.202 17.3806 21.9614 15.5757C23.205 12.6173 26.4298 8.43939 28.6816 7.10767H28.6794Z" fill="var(--fill-0, white)"/>
<path id="Vector_4" d="M21.0523 23.6474C20.2466 23.6937 19.6259 23.8522 19.0558 23.7421C16.7908 23.3019 15.1619 21.9591 14.4487 19.7865C13.1434 15.8178 13.3833 11.7676 14.1295 7.7218C14.1493 7.61834 14.211 7.51709 14.277 7.43124C14.3408 7.3476 14.4333 7.28596 14.6314 7.10767C15.0848 7.49508 15.6219 7.82305 15.9917 8.28751C17.5788 10.2862 19.1284 12.3157 20.6671 14.3518C21.1403 14.9769 21.1073 15.6439 20.8586 16.4121C20.1146 18.7146 19.7822 21.0522 21.0545 23.6474H21.0523Z" fill="var(--fill-0, white)"/>
<path id="Vector_5" d="M13.8566 6.12816C12.7296 9.19223 12.6129 12.144 12.7362 15.1046C12.8616 18.1049 13.2799 21.0413 15.8486 23.2116C14.1625 23.2711 12.5909 22.4632 11.2702 20.907C9.6831 19.0382 8.71017 16.8216 8.42842 14.4509C8.05862 11.3406 7.98818 8.18628 7.93315 5.04738C7.90894 3.58138 8.37119 3.34585 9.71832 3.96439C11.1403 4.61814 12.4984 5.41057 13.8588 6.12596L13.8566 6.12816Z" fill="var(--fill-0, white)"/>
<path id="Vector_6" d="M27.1452 23.3788C30.2313 20.6119 30.4074 17.1385 30.4272 13.6738C30.4382 11.8886 30.1454 10.099 29.9209 8.31827C29.8373 7.65131 29.5577 7.00856 29.2958 6.10607C30.7486 5.37527 32.3356 4.56523 33.9337 3.77721C34.6865 3.40741 35.0783 3.81022 35.1421 4.51241C35.5956 9.61037 35.4679 14.6467 32.9696 19.2956C31.7941 21.4836 30.0684 23.0487 27.1452 23.3766V23.3788Z" fill="var(--fill-0, white)"/>
<path id="Vector_7" d="M14.8912 38.7366C15.5075 38.0036 16.0248 37.3917 16.5817 36.7313C16.8921 36.9272 17.143 37.1429 17.4335 37.2618C18.2722 37.603 19.1065 38.0256 19.9825 38.1863C20.863 38.347 21.9966 38.4152 22.2542 37.242C22.5205 36.0225 21.3473 35.9279 20.5614 35.6439C19.7008 35.3335 18.7939 35.1574 17.9376 34.8427C16.1547 34.1889 15.4261 33.1412 15.4481 31.3846C15.4679 29.6853 16.3748 28.3492 18.0345 27.8165C20.4426 27.0438 22.646 27.5787 24.7965 29.0998C24.3167 29.8262 23.8654 30.5085 23.3724 31.2547C23.0378 31.0808 22.7692 30.9047 22.4743 30.7991C21.7237 30.5283 20.9753 30.196 20.196 30.0639C19.4212 29.934 18.5474 30.0419 18.3514 31.0082C18.1555 31.9767 18.9898 32.2122 19.6854 32.4456C20.7596 32.8066 21.869 33.0729 22.9255 33.4823C24.4488 34.0723 25.239 35.2125 25.1884 36.8876C25.1377 38.5737 24.2969 39.868 22.6856 40.4029C19.8306 41.3494 17.2949 40.6142 14.8912 38.7366Z" fill="var(--fill-0, white)"/>
<path id="Vector_8" d="M21.7147 0.0506275C22.1109 0.693376 22.571 1.30751 22.8945 1.98548C23.8014 3.89832 24.6753 5.82656 25.4941 7.77682C25.624 8.08499 25.514 8.63309 25.307 8.91484C24.0722 10.5811 22.7757 12.2012 21.4682 13.8785C21.0741 13.2556 20.6097 12.4896 20.1122 11.7478C19.7864 11.2635 19.4937 10.7022 19.0468 10.3632C17.2 8.96987 17.4488 7.39822 18.4217 5.62845C19.4321 3.78385 20.3301 1.87982 21.2767 0C21.4241 0.0176096 21.5716 0.0330179 21.7169 0.0506275H21.7147Z" fill="var(--fill-0, white)"/>
<path id="Vector_9" d="M78.1226 14.1538V15.9103H69.6149V4.4729H78.0543V6.20304H71.6312V9.25829H77.3235V11.0831H71.6268V14.156H78.1226V14.1538Z" fill="var(--fill-0, white)"/>
<path id="Vector_10" d="M80.5174 46.2471C78.4241 46.454 78.3712 46.4738 77.6955 44.6732C77.3697 43.8037 76.9074 43.4978 76.0006 43.5638C74.944 43.6409 73.8742 43.6386 72.8176 43.5638C72.0142 43.5066 71.5828 43.8059 71.3891 44.5521C71.3538 44.693 71.2812 44.8229 71.2218 44.9572C70.7669 46.0137 69.8864 46.4232 68.5803 46.1854C69.135 44.8955 69.6765 43.6254 70.2246 42.3598C71.2416 40.0089 72.2783 37.6668 73.2667 35.3049C73.4912 34.77 73.806 34.5235 74.3365 34.6578C74.8097 34.7766 75.5317 34.8713 75.677 35.1883C77.3257 38.8136 78.8863 42.4808 80.5174 46.2471ZM76.432 41.728C75.7672 40.1674 75.1707 38.7696 74.4927 37.1781C73.817 38.796 73.2248 40.218 72.5953 41.728H76.432Z" fill="var(--fill-0, white)"/>
<path id="Vector_11" d="M86.0227 8.42623V4.07006H87.9135V15.8993H86.0887C86.0513 15.5537 86.0138 15.2125 85.961 14.7216C84.9419 15.7254 83.8259 16.4386 82.4919 16.0688C81.6203 15.8266 80.6936 15.3578 80.075 14.715C78.5188 13.095 78.6443 10.0001 80.1719 8.36899C81.6863 6.75332 83.6718 6.73131 86.0227 8.42623ZM86.0205 11.5849C86.0028 10.0595 84.8494 8.86646 83.4318 8.90168C82.0451 8.9369 81.0061 10.0947 80.9995 11.6158C80.9929 13.15 82.1243 14.3849 83.5221 14.3695C84.9221 14.3518 86.0381 13.1082 86.0183 11.5849H86.0205Z" fill="var(--fill-0, white)"/>
<path id="Vector_12" d="M110.518 23.5969V19.2473H112.45C112.45 21.2416 112.45 23.2073 112.45 25.1708C112.45 27.1342 112.45 29.0405 112.45 31.059H110.522C110.493 30.7376 110.463 30.3964 110.416 29.8901C109.43 30.9269 108.334 31.596 107.04 31.2681C106.164 31.0457 105.226 30.5967 104.594 29.9694C103.04 28.4219 103.078 25.3799 104.506 23.7048C105.99 21.9614 107.969 21.8866 110.518 23.5991V23.5969ZM110.471 26.8613C110.491 25.316 109.404 24.1076 107.982 24.09C106.567 24.0724 105.448 25.2852 105.453 26.8283C105.457 28.3009 106.547 29.5159 107.9 29.5555C109.309 29.5974 110.452 28.3999 110.469 26.8613H110.471Z" fill="var(--fill-0, white)"/>
<path id="Vector_13" d="M135.827 23.522V19.2693H137.722V31.0545H135.886C135.853 30.7573 135.818 30.4425 135.77 30.0111C133.808 31.75 131.827 31.8887 129.974 30.0155C128.541 28.5671 128.457 25.688 129.666 23.9754C131.046 22.023 133.19 21.8359 135.825 23.522H135.827ZM135.829 26.8524C135.84 25.2697 134.764 24.0833 133.324 24.0899C131.92 24.0987 130.874 25.2411 130.857 26.7841C130.839 28.3492 131.953 29.5775 133.373 29.5577C134.764 29.5378 135.818 28.3778 135.829 26.8524Z" fill="var(--fill-0, white)"/>
<path id="Vector_14" d="M12.2848 23.1412C8.45912 22.9629 4.75231 22.4456 1.45272 20.3721C-0.464525 19.1681 -0.499744 18.7124 1.44391 17.548C3.34354 16.4078 5.32682 15.404 7.42015 14.2594C8.30503 17.7879 9.40783 20.94 12.2848 23.1412Z" fill="var(--fill-0, white)"/>
<path id="Vector_15" d="M35.7143 14.2087C38.0453 15.5338 40.2553 16.7313 42.3993 18.0344C43.2798 18.5693 43.2005 19.2693 42.2562 19.9604C40.1409 21.5101 37.7152 22.3113 35.1596 22.7361C33.7376 22.9717 32.3002 23.1126 30.821 23.183C33.7002 20.9532 34.836 17.8143 35.7165 14.2065L35.7143 14.2087Z" fill="var(--fill-0, white)"/>
<path id="Vector_16" d="M77.3654 20.8938C76.9801 21.4397 76.6676 21.8843 76.3132 22.3862C75.9588 22.1991 75.6638 21.979 75.3337 21.8799C74.5368 21.6444 73.7312 21.3472 72.9167 21.2966C72.1617 21.2482 71.4485 21.6092 71.3099 22.4918C71.1734 23.3613 71.7897 23.7465 72.4831 23.9799C73.4891 24.3166 74.5346 24.5434 75.5208 24.9242C77.1893 25.5669 77.7858 26.5332 77.6779 28.2017C77.5877 29.6259 76.65 30.7353 75.1047 31.1139C72.7649 31.6884 70.7067 31.0655 68.7521 29.474C69.1791 28.9722 69.5643 28.5165 69.8747 28.1533C70.8718 28.5958 71.7369 29.069 72.6592 29.3574C73.1897 29.5247 73.8787 29.5533 74.3761 29.353C74.878 29.1505 75.5186 28.6156 75.5692 28.1665C75.6176 27.7439 75.0783 27.0263 74.6249 26.815C73.6387 26.3571 72.5271 26.1876 71.4948 25.8178C69.9055 25.2455 69.287 24.3937 69.2694 22.9211C69.2518 21.3274 70.0376 20.152 71.5696 19.7051C73.6365 19.1042 75.5384 19.5136 77.3654 20.896V20.8938Z" fill="var(--fill-0, white)"/>
<path id="Vector_17" d="M105.164 46.2823H103.181C103.181 44.6358 103.236 43.0356 103.166 41.4375C103.091 39.714 101.719 38.8621 100.302 39.5841C99.4808 40.0023 99.2431 40.7485 99.2409 41.6048C99.2365 43.1346 99.2409 44.6666 99.2409 46.2625H97.3478V34.4487H99.1814V38.7961C99.5865 38.4967 99.8198 38.3184 100.06 38.1489C101.143 37.3851 102.312 37.3036 103.498 37.8187C104.629 38.3096 105.116 39.3045 105.151 40.4646C105.211 42.362 105.166 44.2616 105.166 46.2845L105.164 46.2823Z" fill="var(--fill-0, white)"/>
<path id="Vector_18" d="M115.624 41.9901C115.631 44.5721 113.643 46.5091 110.989 46.5091C108.385 46.5091 106.375 44.5963 106.349 42.0935C106.32 39.5313 108.33 37.5414 110.958 37.5238C113.648 37.5062 115.62 39.3926 115.624 41.9901ZM111.03 39.2914C109.564 39.2606 108.407 40.3964 108.352 41.9152C108.297 43.423 109.483 44.7019 110.971 44.7371C112.444 44.7724 113.599 43.6321 113.63 42.1133C113.661 40.5549 112.523 39.32 111.03 39.2914Z" fill="var(--fill-0, white)"/>
<path id="Vector_19" d="M136.285 11.6222C136.285 14.2042 134.295 16.1347 131.64 16.128C129.041 16.1236 127.035 14.1998 127.018 11.6948C127 9.12605 128.999 7.15598 131.638 7.14277C134.334 7.12957 136.285 9.00939 136.285 11.6222ZM131.645 8.91033C130.176 8.91033 129.032 10.0726 129.012 11.5826C128.992 13.0926 130.207 14.3517 131.689 14.3561C133.161 14.3605 134.293 13.1983 134.297 11.6794C134.301 10.121 133.144 8.91253 131.645 8.91033Z" fill="var(--fill-0, white)"/>
<path id="Vector_20" d="M109.014 9.32875C108.86 8.8709 108.702 8.40205 108.521 7.86936C110.238 7.05712 111.939 6.85021 113.678 7.44453C114.772 7.81873 115.481 8.6794 115.534 9.81742C115.626 11.8161 115.56 13.8214 115.56 15.9323C114.821 15.7232 113.799 16.6499 113.593 15.0981C112.373 16.038 111.118 16.388 109.712 15.9543C108.446 15.5647 107.797 14.7261 107.784 13.4758C107.768 12.1331 108.363 11.1557 109.692 10.9004C110.953 10.6583 112.276 10.7243 113.584 10.6561C113.608 8.94794 112.701 8.64418 109.014 9.32655V9.32875ZM111.95 11.9284C111.9 11.8425 111.851 11.7545 111.801 11.6686C111.154 12.045 110.423 12.3334 109.908 12.8419C109.716 13.029 109.925 14.0701 110.139 14.1406C110.878 14.3783 111.702 14.3717 112.494 14.4311C112.62 14.4399 112.813 14.3497 112.873 14.244C113.179 13.7047 113.454 13.1478 113.738 12.5953C113.287 12.3818 112.84 12.1595 112.382 11.9636C112.256 11.9108 112.096 11.9372 111.95 11.9284Z" fill="var(--fill-0, white)"/>
<path id="Vector_21" d="M119.518 25.8443C119.494 24.0833 118.354 23.7047 114.962 24.5566C114.803 24.1054 114.643 23.6387 114.442 23.0664C116.272 22.2255 118.096 21.9548 119.948 22.7979C120.918 23.2403 121.46 24.123 121.495 25.1751C121.557 27.1122 121.513 29.0514 121.513 31.0743C120.733 31.0215 119.826 31.6401 119.463 30.3391C118.272 31.2592 116.974 31.5916 115.539 31.1184C114.341 30.7244 113.723 29.8769 113.709 28.6662C113.696 27.3675 114.266 26.3704 115.525 26.1217C116.822 25.8663 118.18 25.9235 119.52 25.8443H119.518ZM117.718 29.8351C117.958 29.736 118.596 29.637 118.972 29.2694C119.342 28.9084 119.571 28.2832 119.598 27.7593C119.606 27.5766 118.838 27.2927 118.393 27.1738C118.019 27.0748 117.597 27.1122 117.203 27.154C116.181 27.2641 115.563 27.8606 115.684 28.6442C115.831 29.6017 116.555 29.7955 117.72 29.8307L117.718 29.8351Z" fill="var(--fill-0, white)"/>
<path id="Vector_22" d="M90.5572 26.0622C90.3569 24.0591 89.4412 23.7664 85.9171 24.539C85.7652 24.0789 85.6067 23.6079 85.4262 23.062C87.1476 22.2431 88.8821 22.0142 90.6541 22.668C91.7877 23.0862 92.4238 24.0217 92.4679 25.2038C92.5405 27.1364 92.4877 29.0735 92.4877 31.1074C91.7481 30.9423 90.7861 31.7413 90.4714 30.3171C89.2783 31.2174 87.9906 31.5938 86.551 31.1272C85.303 30.7221 84.6756 29.8659 84.68 28.6002C84.6866 27.3125 85.2744 26.3792 86.551 26.0974C87.5306 25.8817 88.5761 25.95 89.5909 25.9235C89.9035 25.9147 90.2182 26.0094 90.5528 26.0622H90.5572ZM88.8271 27.1188C88.7743 27.0307 88.7236 26.9449 88.6708 26.8568C88.0302 27.2421 87.3171 27.548 86.791 28.0521C86.6083 28.2282 86.7403 29.025 86.9891 29.3046C87.6538 30.0464 88.5519 29.9077 89.4148 29.6215C89.5183 29.5885 89.6613 29.5599 89.7054 29.4829C90.0267 28.915 90.3283 28.3361 90.6365 27.7615C90.1786 27.5546 89.7252 27.3389 89.2585 27.1496C89.1308 27.0968 88.9702 27.1254 88.8271 27.1166V27.1188Z" fill="var(--fill-0, white)"/>
<path id="Vector_23" d="M141.572 37.7946C140.324 40.9577 139.17 44.0394 137.894 47.0682C137.062 49.0383 135.393 49.4719 133.214 48.3581C133.41 47.9179 133.61 47.471 133.826 46.9912C134.191 47.0704 134.502 47.1717 134.819 47.1981C135.873 47.2883 136.388 46.5993 135.981 45.6286C134.896 43.0356 133.8 40.4492 132.699 37.843C134.053 37.5906 134.968 38.0763 135.442 39.3002C136.01 40.764 136.577 42.2278 137.244 43.9447C137.845 42.2652 138.369 40.8102 138.887 39.3508C139.309 38.1622 140.203 37.6427 141.568 37.7924L141.572 37.7946Z" fill="var(--fill-0, white)"/>
<path id="Vector_24" d="M96.1834 31.0919H94.2662V22.5711H96.1064C96.1504 22.8484 96.1966 23.15 96.2494 23.4912C96.3727 23.4361 96.485 23.4185 96.5532 23.3525C97.6714 22.2497 98.9965 22.0142 100.401 22.6085C101.818 23.2072 102.138 24.4685 102.118 25.8839C102.096 27.5986 102.113 29.3133 102.113 31.0831H100.124C100.124 29.4564 100.216 27.8121 100.077 26.1898C100.022 25.5581 99.5843 24.7062 99.0692 24.4355C98.5453 24.1603 97.5437 24.2528 97.0595 24.605C96.5708 24.9616 96.2737 25.8222 96.2208 26.4892C96.0998 27.9794 96.1834 29.485 96.1834 31.0919Z" fill="var(--fill-0, white)"/>
<path id="Vector_25" d="M97.6406 15.9101H95.7872C95.7542 15.5866 95.7234 15.3026 95.6903 14.9834C95.5803 15.0142 95.4526 15.012 95.3932 15.0737C94.2882 16.2117 92.9785 16.4538 91.5741 15.8045C90.2226 15.1793 89.9452 13.9467 89.9694 12.5753C90.0003 10.8628 89.976 9.14806 89.976 7.3783H91.9637C91.9637 9.0358 91.9263 10.6757 91.9747 12.3112C92.0188 13.808 93.0577 14.5828 94.396 14.1668C95.3932 13.8564 95.708 13.0552 95.7212 12.1087C95.7432 10.5722 95.7278 9.0336 95.7278 7.40912H97.6406V15.9101Z" fill="var(--fill-0, white)"/>
<path id="Vector_26" d="M145.561 15.9146H143.588C143.588 14.9879 143.588 14.0898 143.588 13.1917C143.588 9.83051 143.219 8.99405 141.717 8.96324C140.108 8.93022 139.648 9.89214 139.648 13.2732V15.8684H137.775V7.40699H139.534C139.584 7.63151 139.655 7.93308 139.734 8.27646C139.824 8.24785 139.937 8.24565 139.994 8.18842C141.136 7.03499 142.492 6.81487 143.93 7.44661C145.294 8.04754 145.587 9.28241 145.567 10.6538C145.543 12.3707 145.561 14.0876 145.561 15.9124V15.9146Z" fill="var(--fill-0, white)"/>
<path id="Vector_27" d="M81.4375 37.7462H83.423C83.423 39.3905 83.3878 40.9952 83.434 42.5954C83.4737 43.9866 84.1626 44.669 85.3535 44.6271C86.4761 44.5875 87.1497 43.8809 87.1827 42.5844C87.2223 41.0128 87.1915 39.4411 87.1915 37.7858H89.0779V46.2384H87.2729C87.2333 45.9831 87.1893 45.7079 87.1386 45.3887C87.0308 45.424 86.9141 45.424 86.8569 45.4834C85.7783 46.5796 84.4972 46.8173 83.1259 46.2164C81.7677 45.6221 81.4265 44.4026 81.4353 43.0291C81.4464 41.3099 81.4375 39.5886 81.4375 37.7462Z" fill="var(--fill-0, white)"/>
<path id="Vector_28" d="M55.8091 25.1838C55.8091 18.5076 55.8091 11.8314 55.8091 5.15296C55.8091 4.89542 55.7541 4.62247 55.8267 4.38695C55.8971 4.15802 56.0996 3.96872 56.2449 3.76181C56.3924 3.97973 56.5839 4.18224 56.6719 4.42217C56.7424 4.61587 56.6896 4.858 56.6896 5.07812C56.6896 18.468 56.694 31.8579 56.6719 45.2477C56.6719 45.6924 56.4078 46.137 56.2669 46.5817C56.115 46.126 55.8311 45.6704 55.8289 45.2125C55.8003 38.5363 55.8091 31.8601 55.8091 25.1838Z" fill="var(--fill-0, white)"/>
<path id="Vector_29" d="M139.03 30.0133C139.371 29.5004 139.633 29.1108 139.824 28.8224C140.859 29.1372 141.775 29.5378 142.723 29.6501C143.166 29.7029 143.672 29.1944 144.152 28.9413C143.811 28.5759 143.533 28.0916 143.117 27.8737C142.477 27.5413 141.726 27.4313 141.05 27.1583C140.047 26.7555 139.459 26.0511 139.505 24.8867C139.551 23.7068 140.159 22.954 141.209 22.5754C142.811 21.9965 144.293 22.4147 145.84 23.293C145.592 23.7663 145.365 24.1999 145.138 24.6357C144.328 24.398 143.58 24.0458 142.811 24.004C142.34 23.9776 141.843 24.4244 141.356 24.66C141.684 24.9989 141.957 25.448 142.356 25.6505C143.067 26.0115 143.881 26.1678 144.605 26.509C145.554 26.9558 146.234 27.6646 146.111 28.8202C145.992 29.9472 145.341 30.7309 144.286 31.0742C142.398 31.6884 140.703 31.1777 139.032 30.0155L139.03 30.0133Z" fill="var(--fill-0, white)"/>
<path id="Vector_30" d="M107.082 8.71016C106.591 9.09097 106.162 9.42335 105.708 9.77554C103.927 8.64853 102.706 8.62652 101.728 9.77994C100.857 10.8079 100.843 12.4038 101.7 13.4339C102.69 14.627 104.009 14.6182 105.972 13.3679C106.322 13.7025 106.685 14.0481 107.042 14.3892C105.664 16.3857 102.677 16.7291 100.709 15.1575C98.7149 13.5638 98.4838 10.5107 100.214 8.58689C101.959 6.64764 105.107 6.64324 107.082 8.71236V8.71016Z" fill="var(--fill-0, white)"/>
<path id="Vector_31" d="M79.3662 24.2968C79.0757 24.233 78.7631 24.167 78.4109 24.0899V22.6041C78.7235 22.5469 79.0294 22.4919 79.4345 22.4192V20.185H81.4177V22.4544C82.2256 22.4897 82.941 22.5227 83.7312 22.5579V24.1494C83.0092 24.1824 82.2894 24.2132 81.4574 24.2506C81.4574 25.71 81.4287 27.1276 81.4706 28.5429C81.4926 29.2671 82.0033 29.5423 82.6812 29.5005C83.0004 29.4806 83.3174 29.4036 83.7048 29.342C83.6982 30.0816 84.1516 30.8454 83.0576 31.1756C81.6334 31.6048 80.1476 31.202 79.7206 30.108C79.5159 29.5819 79.4851 28.97 79.4675 28.3933C79.4279 27.1144 79.4477 25.8333 79.4389 24.5522C79.4389 24.4817 79.3992 24.4135 79.364 24.299L79.3662 24.2968Z" fill="var(--fill-0, white)"/>
<path id="Vector_32" d="M117.757 9.1262C117.374 9.04475 117.062 8.97652 116.707 8.89947V7.41367C117.016 7.35644 117.324 7.30141 117.729 7.22657V4.99676H119.71V7.26179C120.515 7.29921 121.231 7.33002 122.025 7.36744V8.9567C121.308 8.98972 120.588 9.02274 119.756 9.06236C119.756 10.5151 119.73 11.9327 119.767 13.3481C119.787 14.0767 120.298 14.3474 120.973 14.3078C121.292 14.2902 121.607 14.211 121.999 14.1471C121.997 14.8933 122.444 15.6549 121.352 15.9851C119.928 16.4144 118.444 16.0115 118.019 14.9153C117.815 14.3893 117.784 13.7773 117.771 13.2006C117.738 11.8513 117.76 10.4997 117.76 9.1284L117.757 9.1262Z" fill="var(--fill-0, white)"/>
<path id="Vector_33" d="M127.815 39.5028C127.394 39.4213 127.115 39.3663 126.776 39.3002V37.8122C127.049 37.7506 127.355 37.6824 127.766 37.5921V35.3799H129.769V37.6427C130.59 37.6824 131.304 37.7176 132.061 37.755V39.3245C131.326 39.3685 130.619 39.4103 129.809 39.4565C129.809 40.9269 129.703 42.3577 129.84 43.7621C129.976 45.1598 131.097 44.5875 131.904 44.5545C132.265 45.9214 132.155 46.1878 131.13 46.4299C129.439 46.8305 128.048 46.146 127.87 44.735C127.755 43.8325 127.821 42.9058 127.812 41.9901C127.806 41.1889 127.812 40.3854 127.812 39.4983L127.815 39.5028Z" fill="var(--fill-0, white)"/>
<path id="Vector_34" d="M95.653 44.5478C95.8731 46.1261 95.7499 46.3264 94.5084 46.4915C92.7981 46.7204 91.6138 45.9896 91.5258 44.5412C91.4443 43.1897 91.4576 41.8293 91.5104 40.4756C91.539 39.725 91.3915 39.2517 90.4648 39.3596V37.8231C90.7444 37.7527 91.0767 37.6691 91.5082 37.5612V35.3468H93.4386V37.6757H95.7257V39.3376C94.9773 39.375 94.2927 39.408 93.4915 39.4476C93.4915 40.907 93.4782 42.3246 93.4981 43.7422C93.5069 44.4377 93.9691 44.6997 94.5943 44.6931C94.9486 44.6887 95.3008 44.5984 95.653 44.5456V44.5478Z" fill="var(--fill-0, white)"/>
<path id="Vector_35" d="M125.382 31.1183H123.5V22.6019H125.327C125.362 23.0223 125.398 23.4384 125.448 24.0239C126.263 23.0091 127.044 22.2079 128.382 22.4038V24.3563C126.08 24.889 125.433 25.6858 125.387 28.0279C125.367 29.0426 125.382 30.0596 125.382 31.1183Z" fill="var(--fill-0, white)"/>
<path id="Vector_36" d="M117.106 37.7636H118.957C118.983 38.2126 119.005 38.6045 119.038 39.1746C119.868 38.2479 120.636 37.4268 121.979 37.5677V39.4959C119.413 40.3236 119.01 40.8893 118.999 43.687C118.997 44.5235 118.999 45.3599 118.999 46.2624H117.108V37.7636H117.106Z" fill="var(--fill-0, white)"/>
<path id="Vector_37" d="M38.9435 14.8471C35.536 13.4802 35.4502 13.3305 36.137 9.9649C36.181 9.75358 36.4605 9.44762 36.6498 9.43441C37.8847 9.34196 39.1284 9.26492 40.3655 9.29133C41.2966 9.31114 41.3142 10.0662 41.0522 10.6495C40.4183 12.0648 39.6677 13.4252 38.9435 14.8471Z" fill="var(--fill-0, white)"/>
<path id="Vector_38" d="M4.20644 14.8581C3.48224 13.4318 2.70742 12.0472 2.07128 10.6032C1.71908 9.80858 2.06467 9.22967 3.02439 9.25829C4.3275 9.29571 5.62841 9.36835 6.92491 9.42558C7.04598 10.6979 7.18685 11.8183 7.23308 12.9431C7.24408 13.2094 7.00195 13.6122 6.76422 13.7377C6.03123 14.1273 5.2432 14.4135 4.20644 14.8581Z" fill="var(--fill-0, white)"/>
<path id="Vector_39" d="M18.3777 3.511C17.8098 4.90216 17.2881 6.17885 16.7312 7.54579C15.745 6.76216 14.7919 6.04017 13.8828 5.26755C13.3898 4.84933 14.2658 1.18874 14.8756 1.07868C15.0891 1.03906 15.3818 1.16673 15.5711 1.3076C16.5045 2.01199 17.4135 2.74719 18.3777 3.5088V3.511Z" fill="var(--fill-0, white)"/>
<path id="Vector_40" d="M26.41 7.54579C25.8861 6.29331 25.3821 5.16189 24.9528 4.00407C24.8714 3.78395 24.9946 3.35691 25.1773 3.19623C25.9456 2.52266 26.7688 1.90853 27.5789 1.28339C28.1336 0.856358 28.5496 1.01264 28.7345 1.65759C29.0074 2.60411 29.2628 3.55942 29.4477 4.52795C29.4961 4.77669 29.331 5.1685 29.1307 5.34239C28.2788 6.0842 27.3785 6.77097 26.4078 7.54579H26.41Z" fill="var(--fill-0, white)"/>
<path id="Vector_41" d="M125.305 46.2933H123.5V37.7615H125.305V46.2933Z" fill="var(--fill-0, white)"/>
<path id="Vector_42" d="M123.582 7.3783H125.422V15.8771H123.582V7.3783Z" fill="var(--fill-0, white)"/>
<path id="Vector_43" d="M22.976 24.6359C23.7641 24.5368 24.6357 24.3805 25.5162 24.3277C28.3536 24.1604 31.1909 24.0041 34.0326 23.9205C34.4773 23.9073 34.9351 24.2969 35.3864 24.5016C35.0342 24.9044 34.7392 25.567 34.321 25.6572C33.2314 25.8883 32.0648 26.0468 30.9686 25.9126C28.2853 25.5824 25.6263 25.0717 22.9782 24.6381L22.976 24.6359Z" fill="var(--fill-0, white)"/>
<path id="Vector_44" d="M20.0066 24.6577C17.5523 25.0627 14.9482 25.591 12.32 25.886C11.0807 26.0247 9.77984 25.7803 8.53176 25.5624C8.21919 25.5074 8.00348 24.8888 7.74373 24.5278C8.11574 24.3143 8.49434 23.9005 8.85534 23.9181C12.3266 24.0678 15.7935 24.2857 19.2604 24.4992C19.5906 24.519 19.9163 24.6379 20.0066 24.6577Z" fill="var(--fill-0, white)"/>
<path id="Vector_45" d="M23.8434 44.7987C23.8434 44.1449 23.8082 43.6122 23.8588 43.0884C23.8808 42.8506 24.0767 42.6305 24.1934 42.4016C24.3255 42.6107 24.5654 42.8154 24.5742 43.0267C24.6138 44.0855 24.5918 45.1465 24.5918 46.3659C23.106 46.126 22.9717 44.5389 21.7941 43.905C21.7941 44.5874 21.8227 45.1905 21.7765 45.7892C21.7611 45.9785 21.5497 46.1546 21.4265 46.3373C21.3142 46.148 21.1117 45.9609 21.1073 45.7672C21.0765 44.6732 21.0919 43.577 21.0919 42.3377C22.5249 42.6239 22.7142 44.1009 23.8434 44.7987Z" fill="var(--fill-0, white)"/>
<path id="Vector_46" d="M18.1929 45.2148C18.0036 45.589 17.8165 45.9632 17.6272 46.3396C17.4973 45.9412 17.2794 45.5472 17.253 45.1422C17.1957 44.2727 17.2353 43.3988 17.2353 42.3885C18.3866 42.4941 19.6258 41.9042 20.3082 43.0774C20.5636 43.5177 20.1607 44.3387 20.0573 44.9859C19.945 44.9859 19.835 44.9815 19.7227 44.9793C19.9758 45.3711 20.229 45.7629 20.4821 46.1569C20.4139 46.2406 20.3478 46.3242 20.2796 46.4079C19.9582 46.1701 19.6324 45.9412 19.3155 45.6947C18.9655 45.4217 18.6243 45.1378 18.2809 44.8582L18.1907 45.2126L18.1929 45.2148ZM18.0652 44.5148C18.7167 44.2925 19.2054 44.1494 19.6677 43.9403C19.7315 43.9117 19.7073 43.4142 19.6258 43.3812C19.157 43.1941 18.6573 43.0841 18.0652 42.919V44.5148Z" fill="var(--fill-0, white)"/>
<path id="Vector_47" d="M28.3998 43.6431C27.8715 44.3871 27.5435 44.8493 27.1715 45.3732C26.7885 44.8581 26.4693 44.4289 25.9454 43.7223C25.9454 44.5808 25.9807 45.1421 25.9278 45.6968C25.9058 45.9191 25.6879 46.1216 25.5602 46.3307C25.4546 46.1348 25.2609 45.9411 25.2565 45.743C25.2257 44.6534 25.2411 43.5638 25.2411 42.417C26.5486 42.296 26.4165 43.6475 27.1979 44.0129C27.8957 43.6893 27.8055 42.307 29.1218 42.406C29.1218 43.6057 29.135 44.7305 29.1064 45.8553C29.102 46.016 28.9017 46.1723 28.7916 46.3307C28.6595 46.159 28.4306 45.9962 28.4174 45.8179C28.3712 45.2059 28.3998 44.5874 28.3998 43.6475V43.6431Z" fill="var(--fill-0, white)"/>
<path id="Vector_48" d="M7.34752 42.3268C8.52516 42.3422 9.43425 43.2777 9.39023 44.4355C9.34841 45.5647 8.47233 46.4012 7.32331 46.41C6.09724 46.4188 5.24538 45.5779 5.24978 44.3651C5.25418 43.1808 6.14787 42.3114 7.34752 42.3268ZM8.61101 44.3475C8.52736 43.5682 8.13555 43.062 7.3145 43.0157C6.5749 42.9739 5.92115 43.6783 6.00479 44.4399C6.09064 45.2191 6.51987 45.743 7.35192 45.7166C8.18177 45.688 8.55818 45.1553 8.61321 44.3497L8.61101 44.3475Z" fill="var(--fill-0, white)"/>
<path id="Vector_49" d="M34.2594 43.9469C33.8192 44.7437 34.5456 45.7673 33.4846 46.5597V42.3158C34.7921 42.69 35.0232 44.0636 36.1172 44.801C36.1172 44.0834 36.0952 43.4847 36.1304 42.8903C36.1414 42.723 36.3197 42.5668 36.4232 42.4039C36.5619 42.569 36.815 42.7274 36.8194 42.8969C36.8546 44.0195 36.837 45.1444 36.837 46.2692L36.487 46.4827C35.7606 45.6572 35.0342 44.8296 34.2572 43.9469H34.2594Z" fill="var(--fill-0, white)"/>
<path id="Vector_50" d="M4.53669 43.2028C4.22412 43.1566 3.89835 43.0311 3.60119 43.0795C3.13013 43.1544 2.48958 43.2094 2.26726 43.5198C2.00312 43.8874 1.94809 44.5786 2.10657 45.0188C2.22544 45.349 2.80215 45.6131 3.22038 45.7034C3.47792 45.7584 3.8191 45.4348 4.12287 45.2807C3.88514 45.0936 3.64741 44.9087 3.41188 44.7194C3.33264 44.6556 3.2578 44.5852 2.91441 44.2792C3.67162 44.2043 4.1757 44.1559 4.67757 44.1053C5.02756 45.7496 4.85367 46.1304 3.72445 46.3549C2.46097 46.6081 1.44622 46.0115 1.18647 44.8647C0.922331 43.7003 1.6091 42.5292 2.75373 42.3928C3.35465 42.3201 3.9886 42.5226 4.60933 42.6019C4.58512 42.8022 4.56311 43.0003 4.53889 43.2006L4.53669 43.2028Z" fill="var(--fill-0, white)"/>
<path id="Vector_51" d="M32.6856 42.9497C31.9922 42.9937 31.2966 43.04 30.4932 43.0906C30.4029 44.7261 31.9658 43.577 32.3774 44.2858C32.2189 45.3358 30.2753 43.8566 30.524 45.6021C31.2768 45.6704 32.0164 45.7386 32.7582 45.8069C32.7516 45.9367 32.7472 46.0688 32.7406 46.1987H29.7976V42.5293H32.6878C32.6878 42.6702 32.6878 42.8088 32.6856 42.9497Z" fill="var(--fill-0, white)"/>
<path id="Vector_52" d="M13.7201 42.3421C14.715 42.3906 15.6329 42.4346 16.553 42.4786L16.5486 43.0311C16.0335 43.0311 15.5096 42.9783 15.0056 43.0531C14.7678 43.0884 14.5675 43.3679 14.3518 43.5352C14.5741 43.7025 14.7766 43.9666 15.0232 44.0173C15.4216 44.0987 15.8486 44.0393 16.2624 44.0393C16.2823 44.1846 16.3021 44.3298 16.3241 44.4751C15.9697 44.5433 15.6043 44.5742 15.2653 44.6886C14.9461 44.7965 14.6578 44.9946 14.3562 45.1531C14.6732 45.3314 14.9747 45.5757 15.3137 45.6682C15.7408 45.7848 16.203 45.7782 16.6499 45.8244C16.6411 45.9543 16.6322 46.0864 16.6256 46.2163H13.7245V42.3377L13.7201 42.3421Z" fill="var(--fill-0, white)"/>
<path id="Vector_53" d="M11.3054 45.1224C12.1199 43.3761 12.7479 42.492 13.1896 42.4699C12.6878 43.685 12.2409 44.867 11.7082 46.0095C11.4397 46.584 11.0061 46.5091 10.7639 45.961C10.2665 44.8362 9.81962 43.6872 9.49824 42.4611C10.7969 42.8309 10.5064 44.2903 11.3054 45.1246V45.1224Z" fill="var(--fill-0, white)"/>
<path id="Vector_54" d="M38.5804 43.139C38.0808 43.0795 37.766 43.0421 37.1232 42.9651C37.493 42.6569 37.6691 42.3884 37.8188 42.4016C38.7389 42.4852 39.7471 42.0802 40.5747 42.9342C40.2049 43.0069 39.8373 43.0817 39.3641 43.1764C39.3641 43.9776 39.3927 44.7766 39.3486 45.5713C39.3332 45.8332 39.1263 46.082 39.0075 46.3373C38.8644 46.0952 38.6179 45.8618 38.6002 45.6109C38.5474 44.8163 38.5804 44.015 38.5804 43.139Z" fill="var(--fill-0, white)"/>
<path id="Vector_55" d="M123.282 36.2538V34.4906H125.301V36.2538H123.282Z" fill="var(--fill-0, white)"/>
<path id="Vector_56" d="M125.459 4.12939V5.84632H123.474V4.12939H125.459Z" fill="var(--fill-0, white)"/>
<path id="Vector_57" d="M18.0653 44.5149V42.919C18.6574 43.0841 19.1549 43.1964 19.6259 43.3813C19.7074 43.4143 19.7316 43.9095 19.6677 43.9404C19.2077 44.1495 18.7168 44.2925 18.0653 44.5149Z" fill="var(--fill-0, white)"/>
</g>
<defs>
<clipPath id="clip0_0_1155">
<rect width="146.122" height="48.959" fill="white"/>
</clipPath>
</defs>
</svg>
