<svg preserveAspectRatio="none" width="100%" height="100%" overflow="visible" style="display: block;" viewBox="0 0 58.95 52.8" fill="none" xmlns="http://www.w3.org/2000/svg">
<g id="Group">
<path id="Vector" d="M14.375 51.3437L14.3125 51.6062L14.5625 51.7062C14.6625 51.7437 16.1938 52.3437 18.1438 52.3437C19.3563 52.3437 20.725 52.1125 22.0188 51.375C24.275 50.0875 25.7125 47.5687 26.2813 43.8875L26.3313 43.575L25.4437 43.4437C22.1187 42.9312 16.5563 42.075 14.375 51.3437Z" fill="var(--fill-0, #E8423F)"/>
<path id="Vector_2" d="M40.8187 32.3562C42.275 31 44.0187 28.4687 44.05 24.1125V23.6313L43.6625 23.9062C43.075 24.3187 42.2312 24.6187 41.25 24.9688C38.1187 26.0812 33.825 27.6062 33.9937 34.5625V34.7875L34.225 34.8C34.3937 34.8125 34.5625 34.8188 34.7375 34.8188C36.9 34.8188 39.1375 33.9187 40.8187 32.3562Z" fill="var(--fill-0, #E8423F)"/>
<path id="Vector_3" d="M9.54375 36.1125C11.725 36.1125 13.7938 35.05 15.7063 32.9563L15.8313 32.825L15.775 32.65C15.7188 32.4813 14.4 28.4625 10.5813 27.0875C7.70625 26.05 4.2375 26.8188 0.26875 29.3625L0 29.5375L0.181251 29.8C1.125 31.1937 4.5625 35.7687 9.05 36.0937C9.2125 36.1062 9.375 36.1125 9.5375 36.1125H9.54375Z" fill="var(--fill-0, #E8423F)"/>
<path id="Vector_4" d="M33.8063 25.575L34.2813 25.4062C39.1813 23.6875 42.8875 19.5625 43.9563 14.65C45.025 9.74375 43.3438 4.7125 39.3375 0.856249L39.1688 0.69375L38.9688 0.818748C31.675 5.425 32.6438 12 33.4938 17.7937C33.8813 20.4125 34.2438 22.8875 33.8875 25.0813L33.8063 25.575Z" fill="var(--fill-0, #E8423F)"/>
<path id="Vector_5" d="M52.6188 9.1125L52.6313 8.85625L52.375 8.84375C52.2563 8.84375 49.4688 8.74375 47.5 10.625C46.275 11.8 45.65 13.4813 45.65 15.6125V15.9L45.9375 15.8688C52.3313 15.175 52.6188 9.16875 52.625 9.10625L52.6188 9.1125Z" fill="var(--fill-0, #E8423F)"/>
<path id="Vector_6" d="M28.0188 14.2687L28.2562 13.9375C28.3812 13.7687 31.2812 9.7375 30.425 5.56875C29.975 3.38125 28.575 1.56875 26.25 0.193748L25.9188 0L25.7438 0.34375C23.1938 5.4 22.6938 9.25625 27.7125 13.9875L28.0062 14.2687H28.0188Z" fill="var(--fill-0, #E8423F)"/>
<path id="Vector_7" d="M21.45 22.4187C23.1875 22.9562 24.6938 23.4187 25.6125 24.1062L26.05 24.4313L26.1125 23.8937C26.15 23.5812 26.9188 16.225 22.125 11.5C18.9188 8.3375 14.0125 7.15 7.5375 7.975L7.20625 8.01875L7.26875 8.34375C9.24375 18.6437 16.3 20.8313 21.4563 22.425L21.45 22.4187Z" fill="var(--fill-0, #E8423F)"/>
<path id="Vector_8" d="M29.4063 15.825L29.1875 16.1125C26.7688 19.3062 27.0688 22.7625 30.025 25.8438L30.3125 26.1437L30.5188 25.7812C33.7125 20.2312 29.6938 16.1187 29.6563 16.075L29.4 15.8187L29.4063 15.825Z" fill="var(--fill-0, #E8423F)"/>
<path id="Vector_9" d="M14.0625 45.4937C10.7062 43.6937 7.3375 45.3625 6.19375 47.2562L6.01875 47.55L6.33125 47.7C7.5375 48.275 8.575 48.5312 9.5 48.5312C11.325 48.5312 12.7187 47.525 14.15 45.9812L14.425 45.6875L14.0688 45.4937H14.0625Z" fill="var(--fill-0, #E8423F)"/>
<path id="Vector_10" d="M46.8062 29.9062L46.5938 30.225L46.9625 30.3187C47.8875 30.5562 48.8 30.675 49.6812 30.675C52.2812 30.675 54.6687 29.65 56.6937 27.6437L56.95 27.3875L56.6375 27.2063C53.025 25.1375 49.2625 26.1687 46.8062 29.8937V29.9062Z" fill="var(--fill-0, #E8423F)"/>
<path id="Vector_11" d="M17.0563 42L17.4 41.875L17.2188 41.5563C17.1625 41.45 15.75 38.9875 11.725 38.275C7.725 37.5688 4.9875 39.5438 4.875 39.6313L4.61875 39.8188L4.8125 40.0687C6.53125 42.3125 9.16875 42.9312 11.5563 42.9312C14.3813 42.9312 16.8563 42.0625 17.0438 41.9937L17.0563 42Z" fill="var(--fill-0, #E8423F)"/>
<path id="Vector_12" d="M34.6938 43.7437L34.4563 43.7812L34.4313 44.0187C34.4125 44.1875 33.9875 48.1687 36.7812 50.7375C38.275 52.1125 40.3813 52.8 43.0688 52.8C44.3438 52.8 45.75 52.6437 47.2813 52.3375L47.7625 52.2375L47.475 51.8375C45.6687 49.35 40.875 42.7312 34.6875 43.7437H34.6938Z" fill="var(--fill-0, #E8423F)"/>
<path id="Vector_13" d="M7.5375 23.1812C8.90625 24.4875 10.7625 25.15 13.0625 25.15C13.2438 25.15 13.425 25.15 13.6125 25.1375L13.9625 25.125L13.9125 24.7812C12.75 17.1937 5.6 17.125 5.4625 17.125H5.15V17.4375C5.15 17.5812 5.18125 20.925 7.54375 23.1875L7.5375 23.1812Z" fill="var(--fill-0, #E8423F)"/>
<path id="Vector_14" d="M43.5375 42.0875L43.2812 42.1187L43.3125 42.375C43.325 42.4937 43.7 45.2562 45.8938 46.8812C46.9063 47.6312 48.1312 48.0062 49.55 48.0062C50.05 48.0062 50.575 47.9625 51.125 47.8687L51.4125 47.8187L51.3313 47.5375C49.5688 41.3562 43.6 42.075 43.5437 42.0875H43.5375Z" fill="var(--fill-0, #E8423F)"/>
<path id="Vector_15" d="M45.7562 26.1187L45.775 26.6125L46.2125 26.3813C46.7812 26.0813 47.3812 25.7875 47.9875 25.4875C52.0812 23.475 56.725 21.1875 55.2625 15.3062L55.2 15.05L54.9375 15.075C48.5125 15.625 45.5125 19.2375 45.7625 26.1187H45.7562Z" fill="var(--fill-0, #E8423F)"/>
<path id="Vector_16" d="M16.7438 24.2563L16.275 24.2062L16.4313 24.65C16.6375 25.2312 16.8313 25.8313 17.0313 26.4438C18.3 30.35 19.725 34.75 24.7125 34.75C25.0125 34.75 25.325 34.7312 25.65 34.7L25.9 34.675L25.9125 34.4187C26.2688 28.2812 23.2625 24.95 16.7313 24.25L16.7438 24.2563Z" fill="var(--fill-0, #E8423F)"/>
<path id="Vector_17" d="M58.9125 42.4375C58.8813 42.2 58.1562 36.575 54.7937 34.5312C49.9625 31.5875 43.4313 34.8687 43.1563 35.0062L42.6312 35.275L43.1937 35.4625C44.7687 35.9875 45.65 37.0563 46.7688 38.4063C47.4438 39.225 48.2063 40.15 49.25 41.0875C50.8938 42.5688 53.8063 42.875 55.9688 42.875C57.4625 42.875 58.5937 42.725 58.7062 42.7125L58.95 42.6812L58.9188 42.4375H58.9125Z" fill="var(--fill-0, #E8423F)"/>
</g>
</svg>
