<svg preserveAspectRatio="none" width="100%" height="100%" overflow="visible" style="display: block;" viewBox="0 0 56.9151 58.156" fill="none" xmlns="http://www.w3.org/2000/svg">
<g id="Group">
<path id="Path_1948" d="M23.3157 42.376C20.1242 41.4895 14.8937 39.4505 11.6136 48.2271C11.6136 48.2271 20.3015 53.0143 23.3157 42.376Z" fill="var(--fill-0, white)"/>
<path id="Path_1949" d="M23.3156 31.9149C23.3156 31.9149 23.3156 20.2127 12.8546 18.9716C15.3369 23.2269 13.9184 29.5213 23.3156 31.9149Z" fill="var(--fill-0, white)"/>
<path id="Path_1950" d="M49.1135 21.8087C42.4646 21.0994 39.2731 24.8228 39.2731 24.8228C42.1986 24.3796 46.8972 27.2165 50.0001 27.837C53.1029 28.4576 56.915 26.2413 56.915 26.2413C56.915 26.2413 55.7625 22.5179 49.2022 21.8087" fill="var(--fill-0, white)"/>
<path id="Path_1951" d="M11.259 22.9611C10.2838 20.3902 8.06748 14.8937 3.45755 14.4505C3.45755 14.4505 0.35471 22.2519 11.259 22.9611Z" fill="var(--fill-0, white)"/>
<path id="Path_1952" d="M12.5 32.7127C12.5 32.7127 13.0319 21.9858 0 24.734C0.797873 28.1028 4.16667 36.8794 12.5 32.7127Z" fill="var(--fill-0, white)"/>
<path id="Path_1953" d="M39.8937 9.66322C38.9185 6.11712 36.8795 3.01428 34.0426 0.709317C34.0426 0.709317 27.7483 6.29442 30.1419 11.7022C31.4717 14.8051 34.9291 19.5036 33.5107 22.6065C36.2589 19.7696 41.3121 15.337 39.8937 9.75187" fill="var(--fill-0, white)"/>
<path id="Path_1954" d="M41.4894 19.9469C51.4185 20.2129 52.571 18.1739 55.4965 15.603C45.6561 13.1207 41.4894 19.9469 41.4894 19.9469Z" fill="var(--fill-0, white)"/>
<path id="Path_1955" d="M42.1099 14.9824C49.5567 14.9824 49.5567 7.44695 49.5567 7.44695C49.5567 7.44695 48.0496 6.56042 44.2376 8.06752C40.4255 9.57461 42.1099 14.9824 42.1099 14.9824Z" fill="var(--fill-0, white)"/>
<path id="Path_1956" d="M23.8476 11.0816C23.8476 11.0816 31.1171 5.58516 22.2518 5.35095e-05C21.4539 1.7731 19.5922 7.09225 23.8476 11.0816Z" fill="var(--fill-0, white)"/>
<path id="Path_1957" d="M5.85115 6.73756C7.35824 10.9929 9.84052 14.7163 11.7909 15.6915C13.7412 16.6666 22.4292 18.7056 23.493 21.7198C23.493 21.7198 25.4434 4.25529 5.9398 6.73756" fill="var(--fill-0, white)"/>
<path id="Path_1958" d="M27.6597 21.7198C29.4327 18.883 29.1667 15.2482 26.8618 12.7659C23.9363 14.7163 25.532 19.0603 27.6597 21.7198Z" fill="var(--fill-0, white)"/>
<path id="Path_1959" d="M11.968 42.9079C9.48573 41.5781 6.47155 42.2873 4.78715 44.5036C6.7375 46.8086 10.0176 45.0355 11.968 42.9079Z" fill="var(--fill-0, white)"/>
<path id="Path_1960" d="M40.7801 27.039C40.7801 27.039 35.3723 26.2411 33.9538 27.8369C32.5354 29.4326 31.8262 33.5106 31.8262 33.5106C31.8262 33.5106 38.3865 31.6489 40.6914 27.039" fill="var(--fill-0, white)"/>
<path id="Path_1961" d="M46.0107 49.3795C43.9717 46.6313 39.6277 40.7803 33.9539 41.6668C33.9539 41.6668 32.7128 52.0391 46.0107 49.3795Z" fill="var(--fill-0, white)"/>
<path id="Path_1962" d="M17.3758 39.8049C17.3758 39.8049 16.0461 37.5 12.3227 36.7907C10.1063 36.3475 7.80138 36.7907 5.93967 38.0319C9.48578 42.6418 17.3758 39.8049 17.3758 39.8049Z" fill="var(--fill-0, white)"/>
<path id="Path_1963" d="M41.1349 35.2837L30.0533 35.9929L28.8122 24.734H26.7731L25.7093 34.8404L14.7164 33.7766V35.0177L25.3547 38.9184L23.8476 58.156H32.0036L30.4966 40.0709L41.2235 36.5248V35.195L41.1349 35.2837Z" fill="var(--fill-0, white)"/>
<path id="Path_1964" d="M48.8476 44.7696C48.8476 44.7696 50.0001 38.7413 43.0852 39.9824C43.4398 41.2235 44.9469 44.681 48.8476 44.7696Z" fill="var(--fill-0, white)"/>
<path id="Path_1965" d="M52.0391 32.0035C48.759 28.1915 41.7554 31.383 41.7554 31.383C44.149 31.7376 44.3263 34.6631 46.3653 37.1454C48.4044 39.6277 54.1668 39.7163 54.1668 39.7163C54.7873 36.9681 53.9895 34.0425 52.0391 32.0035Z" fill="var(--fill-0, white)"/>
</g>
</svg>
