<svg preserveAspectRatio="none" width="100%" height="100%" overflow="visible" style="display: block;" viewBox="0 0 108.721 51.7336" fill="none" xmlns="http://www.w3.org/2000/svg">
<g id="Group 1">
<path id="Vector" d="M1.05285 0.00478995H2.44537V14.1836H1.05285V0.00478995Z" fill="var(--fill-0, white)"/>
<path id="Vector_2" d="M6.94332 0.00478538H8.33583V12.9298H14.9108V14.1788H6.94332V0V0.00478538Z" fill="var(--fill-0, white)"/>
<path id="Vector_3" d="M17.792 0.00478538H19.1845V12.9298H25.7594V14.1788H17.792V0V0.00478538Z" fill="var(--fill-0, white)"/>
<path id="Vector_4" d="M35.641 9.66625H29.9322L28.3195 14.1836H26.8457L32.0472 0.00478995H33.5402L38.7418 14.1836H37.268L35.6362 9.66625H35.641ZM32.7746 1.47865C32.7746 1.47865 32.4731 2.64626 32.2291 3.31141L30.3341 8.45558H35.2151L33.3584 3.31141C33.1191 2.64626 32.8129 1.47865 32.8129 1.47865H32.7746Z" fill="var(--fill-0, white)"/>
<path id="Vector_5" d="M48.2644 2.0816C48.2644 2.0816 48.0443 3.29227 47.8002 4.20147L45.0965 14.1836H43.4217L39.7514 0.00478995H41.2013L43.9433 11.0157C44.1251 11.7431 44.2639 12.5278 44.2639 12.5278H44.3022C44.3022 12.5278 44.4218 11.7431 44.6228 11.0157L47.6088 0.00478995H48.9391L51.9251 11.0157C52.1261 11.7431 52.2266 12.5278 52.2457 12.5278H52.284C52.284 12.5278 52.4228 11.7431 52.6046 11.0157L55.4471 0.00478995H56.897L53.1262 14.1836H51.4514L48.7477 4.20147C48.5084 3.29227 48.2835 2.0816 48.2835 2.0816H48.2453H48.2644Z" fill="var(--fill-0, white)"/>
<path id="Vector_6" d="M66.678 9.66625H60.9691L59.3565 14.1836H57.8826L63.0842 0.00478995H64.5772L69.7788 14.1836H68.305L66.6732 9.66625H66.678ZM63.8116 1.47865C63.8116 1.47865 63.5101 2.64626 63.2661 3.31141L61.3711 8.45558H66.2521L64.3954 3.31141C64.1513 2.64626 63.8499 1.47865 63.8499 1.47865H63.8116Z" fill="var(--fill-0, white)"/>
<path id="Vector_7" d="M72.4824 0.00478995H76.6791C78.129 0.00478995 78.775 0.143562 79.3397 0.387611C80.67 0.971414 81.4787 2.32565 81.4787 4.03877C81.4787 5.95288 80.3877 7.42675 78.7942 7.87178V7.91006C78.7942 7.91006 78.9329 8.0919 79.1578 8.47472L82.2443 14.1836H80.6508L77.4447 8.21632H73.8749V14.1836H72.4824V0.00478995ZM77.2437 6.96258C78.9569 6.96258 80.0479 5.85239 80.0479 4.07706C80.0479 2.90945 79.5837 2.03853 78.7559 1.59829C78.3348 1.37816 77.8275 1.25375 76.7413 1.25375H73.8797V6.96258H77.2485H77.2437Z" fill="var(--fill-0, white)"/>
<path id="Vector_8" d="M85.5512 0.00478995H89.7479C91.1978 0.00478995 91.8438 0.143562 92.4085 0.387611C93.7388 0.971414 94.5475 2.32565 94.5475 4.03877C94.5475 5.95288 93.4565 7.42675 91.863 7.87178V7.91006C91.863 7.91006 92.0018 8.0919 92.2267 8.47472L95.3132 14.1836H93.7197L90.5135 8.21632H86.9437V14.1836H85.5512V0.00478995ZM90.3126 6.96258C92.0257 6.96258 93.1167 5.85239 93.1167 4.07706C93.1167 2.90945 92.6526 2.03853 91.8247 1.59829C91.4036 1.37816 90.8964 1.25375 89.8101 1.25375H86.9485V6.96258H90.3174H90.3126Z" fill="var(--fill-0, white)"/>
<path id="Vector_9" d="M105.62 9.66625H99.9116L98.299 14.1836H96.8251L102.027 0.00478995H103.52L108.721 14.1836H107.247L105.616 9.66625H105.62ZM102.754 1.47865C102.754 1.47865 102.453 2.64626 102.209 3.31141L100.314 8.45558H105.195L103.338 3.31141C103.099 2.64626 102.792 1.47865 102.792 1.47865H102.754Z" fill="var(--fill-0, white)"/>
<path id="Vector_10" d="M7.22563 18.4185C10.6136 18.4185 12.3267 20.2513 12.3267 20.2513L11.5802 21.2801C11.5802 21.2801 9.92452 19.7057 7.26391 19.7057C3.93814 19.7057 1.55508 22.285 1.55508 25.6347C1.55508 28.9844 3.93336 31.7838 7.30219 31.7838C10.1638 31.7838 11.9008 29.8888 11.9008 29.8888L12.7095 30.8794C12.7095 30.8794 10.7715 33.0758 7.28305 33.0758C3.08637 33.0758 0.105145 29.7883 0.105145 25.6538C0.105145 21.5194 3.17251 18.4137 7.22563 18.4137V18.4185Z" fill="var(--fill-0, white)"/>
<path id="Vector_11" d="M16.1166 18.6626H17.5092V25.1179H25.735V18.6626H27.1276V32.8413H25.735V26.3668H17.5092V32.8413H16.1166V18.6626Z" fill="var(--fill-0, white)"/>
<path id="Vector_12" d="M31.6449 18.6626H35.8416C37.2916 18.6626 37.9376 18.8061 38.5022 19.0454C39.8325 19.6292 40.6413 20.9834 40.6413 22.6965C40.6413 24.6107 39.5502 26.0845 37.9567 26.5295V26.5678C37.9567 26.5678 38.0955 26.7497 38.3204 27.1325L41.4069 32.8413H39.8134L36.6073 26.8741H33.0375V32.8413H31.6449V18.6626ZM36.4063 25.6203C38.1194 25.6203 39.2105 24.5102 39.2105 22.7348C39.2105 21.5672 38.7463 20.6963 37.9184 20.2561C37.4973 20.0359 36.9901 19.9115 35.9038 19.9115H33.0422V25.6203H36.4111H36.4063Z" fill="var(--fill-0, white)"/>
<path id="Vector_13" d="M44.7133 18.6626H46.1058V32.8413H44.7133V18.6626Z" fill="var(--fill-0, white)"/>
<path id="Vector_14" d="M50.384 30.1951C50.384 30.1951 51.8579 31.7455 54.0926 31.7455C55.6478 31.7455 56.9159 30.8171 56.9159 29.2859C56.9159 25.716 49.8385 26.6252 49.8385 22.2276C49.8385 20.1891 51.633 18.4137 54.2553 18.4137C56.715 18.4137 58.0453 19.7871 58.0453 19.7871L57.361 20.9547C57.361 20.9547 56.112 19.744 54.2553 19.744C52.3986 19.744 51.2693 20.9356 51.2693 22.1845C51.2693 25.5533 58.3467 24.5867 58.3467 29.2428C58.3467 31.3627 56.715 33.0758 54.0496 33.0758C51.1449 33.0758 49.5514 31.2622 49.5514 31.2622L50.3793 30.1951H50.384Z" fill="var(--fill-0, white)"/>
<path id="Vector_15" d="M65.046 19.9115H59.9449V18.6626H71.5205V19.9115H66.4385V32.8365H65.046V19.9115Z" fill="var(--fill-0, white)"/>
<path id="Vector_16" d="M74.1189 18.6626H75.5114V32.8413H74.1189V18.6626Z" fill="var(--fill-0, white)"/>
<path id="Vector_17" d="M87.0056 28.3192H81.2967L79.6841 32.8365H78.2102L83.4118 18.6578H84.9048L90.1064 32.8365H88.6325L87.0008 28.3192H87.0056ZM84.1392 20.1316C84.1392 20.1316 83.8377 21.2992 83.5937 21.9644L81.6987 27.1086H86.5797L84.723 21.9644C84.4789 21.2992 84.1775 20.1316 84.1775 20.1316H84.1392Z" fill="var(--fill-0, white)"/>
<path id="Vector_18" d="M92.8343 18.6626H94.1837L101.424 28.8648C101.907 29.5682 102.591 30.7789 102.591 30.7789H102.63C102.63 30.7789 102.51 29.6113 102.51 28.8648V18.6626H103.903V32.8413H102.553L95.313 22.6391C94.8297 21.9309 94.1454 20.725 94.1454 20.725H94.1072C94.1072 20.725 94.2268 21.8926 94.2268 22.6391V32.8413H92.8343V18.6626Z" fill="var(--fill-0, white)"/>
<path id="Vector_19" d="M0.83264 48.8481C0.83264 48.8481 2.3065 50.4033 4.54123 50.4033C6.09644 50.4033 7.36453 49.4749 7.36453 47.9437C7.36453 44.3738 0.287119 45.283 0.287119 40.8854C0.287119 38.8469 2.08159 37.0715 4.70392 37.0715C7.16355 37.0715 8.49386 38.4449 8.49386 38.4449L7.80957 39.6125C7.80957 39.6125 6.56061 38.4018 4.70392 38.4018C2.84724 38.4018 1.71791 39.5934 1.71791 40.8423C1.71791 44.2111 8.79533 43.2397 8.79533 47.9006C8.79533 50.0157 7.16355 51.7336 4.49815 51.7336C1.59349 51.7336 0 49.92 0 49.92L0.82785 48.8529L0.83264 48.8481Z" fill="var(--fill-0, white)"/>
<path id="Vector_20" d="M18.4762 37.0715C21.8641 37.0715 23.5773 38.9043 23.5773 38.9043L22.8308 39.9331C22.8308 39.9331 21.1751 38.3587 18.5144 38.3587C15.1887 38.3587 12.8056 40.938 12.8056 44.2877C12.8056 47.6374 15.1839 50.4368 18.5527 50.4368C21.4143 50.4368 23.1514 48.5418 23.1514 48.5418L23.9601 49.5276C23.9601 49.5276 22.022 51.724 18.5336 51.724C14.3369 51.724 11.3557 48.4365 11.3557 44.3021C11.3557 40.1676 14.423 37.0619 18.4762 37.0619V37.0715Z" fill="var(--fill-0, white)"/>
<path id="Vector_21" d="M27.391 37.3155H28.7835V43.7709H37.0094V37.3155H38.4019V51.4943H37.0094V45.0198H28.7835V51.4943H27.391V37.3155Z" fill="var(--fill-0, white)"/>
<path id="Vector_22" d="M49.1543 37.0715C53.1691 37.0715 56.3752 40.2394 56.3752 44.3116C56.3752 48.3839 53.1691 51.7336 49.1543 51.7336C45.1394 51.7336 41.9333 48.4652 41.9333 44.3116C41.9333 40.158 45.1394 37.0715 49.1543 37.0715ZM49.1543 50.4416C52.3412 50.4416 54.9205 47.781 54.9205 44.3116C54.9205 40.8423 52.3412 38.3635 49.1543 38.3635C45.9673 38.3635 43.388 40.9237 43.388 44.3116C43.388 47.6996 45.9481 50.4416 49.1543 50.4416Z" fill="var(--fill-0, white)"/>
<path id="Vector_23" d="M66.1709 37.0715C70.1858 37.0715 73.3919 40.2394 73.3919 44.3116C73.3919 48.3839 70.1858 51.7336 66.1709 51.7336C62.1561 51.7336 58.95 48.4652 58.95 44.3116C58.95 40.158 62.1561 37.0715 66.1709 37.0715ZM66.1709 50.4416C69.3579 50.4416 71.9372 47.781 71.9372 44.3116C71.9372 40.8423 69.3579 38.3635 66.1709 38.3635C62.984 38.3635 60.4047 40.9237 60.4047 44.3116C60.4047 47.6996 62.9648 50.4416 66.1709 50.4416Z" fill="var(--fill-0, white)"/>
<path id="Vector_24" d="M76.9424 37.3156H78.3349V50.2406H84.9099V51.4895H76.9424V37.3108V37.3156Z" fill="var(--fill-0, white)"/>
</g>
</svg>
