<svg preserveAspectRatio="none" width="100%" height="100%" overflow="visible" style="display: block;" viewBox="0 0 40.5955 40.598" fill="none" xmlns="http://www.w3.org/2000/svg">
<g id="Layer 2">
<path id="Vector" d="M20.2977 40.2993C31.3443 40.2993 40.2993 31.3443 40.2993 20.2977C40.2993 9.25118 31.3443 0.296173 20.2977 0.296173C9.25118 0.296173 0.296173 9.25118 0.296173 20.2977C0.296173 31.3443 9.25118 40.2993 20.2977 40.2993Z" fill="var(--fill-0, white)"/>
<path id="Vector_2" d="M20.2977 40.598C9.10486 40.598 0 31.4906 0 20.2977C0 9.10486 9.10486 0 20.2977 0C31.4906 0 40.5955 9.10486 40.5955 20.2977C40.5955 31.4906 31.4906 40.5955 20.2977 40.5955V40.598ZM20.2977 0.592347C9.43312 0.592347 0.592347 9.43312 0.592347 20.2977C0.592347 31.1624 9.43312 40.0031 20.2977 40.0031C31.1624 40.0031 40.0031 31.1624 40.0031 20.2977C40.0031 9.43312 31.1648 0.592347 20.2977 0.592347Z" fill="var(--fill-0, #373737)"/>
<path id="Vector_3" d="M20.2977 34.3141C12.5701 34.3141 6.28134 28.0254 6.28134 20.2977C6.28134 12.5701 12.5701 6.28134 20.2977 6.28134C28.0254 6.28134 34.3141 12.5701 34.3141 20.2977C34.3141 28.0254 28.0254 34.3141 20.2977 34.3141ZM20.2977 6.52815C12.7058 6.52815 6.52815 12.7058 6.52815 20.2977C6.52815 27.8897 12.7058 34.0673 20.2977 34.0673C27.8897 34.0673 34.0673 27.8897 34.0673 20.2977C34.0673 12.7058 27.8897 6.52815 20.2977 6.52815Z" fill="var(--fill-0, #373737)"/>
<g id="Group">
<path id="Vector_4" d="M2.69765 20.0559L2.70505 19.7449L4.91648 19.7893L4.90907 20.1003L2.69765 20.0559Z" fill="var(--fill-0, #373737)"/>
<path id="Vector_5" d="M2.7396 18.9279L2.77169 18.6194L4.70422 18.8218L4.80788 17.837L5.0769 17.8642L4.94116 19.1575L2.7396 18.9255V18.9279Z" fill="var(--fill-0, #373737)"/>
<path id="Vector_6" d="M2.98888 17.025L3.05552 16.7215L4.9535 17.1336L5.16329 16.1661L5.42738 16.2229L5.15095 17.494L2.98888 17.0226V17.025Z" fill="var(--fill-0, #373737)"/>
<path id="Vector_7" d="M5.3015 14.5915L5.02754 15.3788L5.55572 15.7959L5.44959 16.097L3.62072 14.6162L3.72932 14.3076L6.08143 14.2854L5.9753 14.5915H5.3015ZM3.96379 14.5668C3.96379 14.5668 4.13655 14.6803 4.23034 14.7519L4.81282 15.2159L5.03248 14.5816H4.28958C4.17111 14.5816 3.96625 14.5569 3.96625 14.5569V14.5619L3.96379 14.5668Z" fill="var(--fill-0, #373737)"/>
<path id="Vector_8" d="M4.84243 11.842L6.47632 12.227C6.59973 12.2566 6.70586 12.2961 6.70586 12.2961V12.2912C6.70586 12.2912 6.61207 12.227 6.52075 12.1456L5.28423 11.0201L5.43478 10.7388L7.11063 12.2937L6.94033 12.612L5.49648 12.2714C5.35333 12.2369 5.19044 12.1801 5.19044 12.1801V12.1851C5.19044 12.1851 5.32618 12.2912 5.43231 12.3899L6.51581 13.4043L6.34551 13.7227L4.12915 13.1748L4.2797 12.8934L5.89385 13.3155C6.01232 13.3475 6.12091 13.3895 6.12091 13.3895V13.3846C6.12091 13.3846 6.03206 13.3179 5.93827 13.2315L4.71162 12.0839L4.84243 11.842Z" fill="var(--fill-0, #373737)"/>
<path id="Vector_9" d="M7.76714 10.2673L7.26365 10.9337L7.6388 11.4915L7.44629 11.7457L6.1604 9.77619L6.35785 9.51704L8.60383 10.2155L8.40885 10.4722L7.76714 10.2649V10.2673ZM6.501 9.83295C6.501 9.83295 6.63181 9.99338 6.69845 10.0921L7.10816 10.7141L7.51293 10.1785L6.80458 9.94896C6.69105 9.91193 6.50347 9.82802 6.50347 9.82802L6.49854 9.83295H6.501Z" fill="var(--fill-0, #373737)"/>
<path id="Vector_10" d="M7.25378 8.4286L7.72765 7.94485C7.89055 7.77949 7.972 7.72272 8.05345 7.6857C8.27311 7.58451 8.53473 7.63387 8.74205 7.83872C8.94443 8.03617 9.00367 8.31507 8.89014 8.54213L8.89507 8.54707C8.89507 8.54707 8.93209 8.54707 9.01354 8.56928L9.95636 8.83584L9.70955 9.08758L8.75439 8.80375L8.42366 9.14188L9.05303 9.75891L8.83584 9.98104L7.25625 8.43107L7.25378 8.4286ZM8.54213 8.63345C8.71243 8.46068 8.7075 8.24596 8.52979 8.07319C8.41379 7.95966 8.28792 7.92264 8.16204 7.95966C8.09787 7.9794 8.0337 8.01889 7.91276 8.1423L7.66348 8.39651L8.22868 8.95184L8.53966 8.63345H8.54213Z" fill="var(--fill-0, #373737)"/>
<path id="Vector_11" d="M8.91235 6.82433L9.44546 6.40722C9.6281 6.26407 9.71695 6.21964 9.80334 6.19249C10.0329 6.12091 10.2871 6.20483 10.4673 6.43436C10.64 6.65649 10.6647 6.94033 10.5216 7.15259L10.5265 7.15752C10.5265 7.15752 10.5635 7.16493 10.64 7.19701L11.5409 7.5845L11.2645 7.8017L10.3537 7.39446L9.98104 7.6857L10.524 8.37924L10.2797 8.57175L8.91482 6.82679L8.91235 6.82433ZM10.1612 7.19454C10.3513 7.04646 10.3759 6.83173 10.2229 6.63675C10.1217 6.50841 10.0008 6.45658 9.87491 6.47632C9.80827 6.48866 9.73917 6.51828 9.60342 6.62441L9.32206 6.84407L9.81074 7.4685L10.1612 7.19454Z" fill="var(--fill-0, #373737)"/>
<path id="Vector_12" d="M12.5109 6.24926L11.7926 6.67377L11.9284 7.33276L11.6544 7.49565L11.2126 5.1855L11.494 5.02014L13.3056 6.51828L13.0267 6.68364L12.5109 6.24926ZM11.5039 5.36814C11.5039 5.36814 11.5631 5.56559 11.5878 5.68159L11.7334 6.41215L12.3109 6.07155L11.7433 5.59274C11.6544 5.51376 11.5113 5.36567 11.5113 5.36567H11.5063L11.5039 5.36814Z" fill="var(--fill-0, #373737)"/>
<path id="Vector_13" d="M14.5545 3.57876C15.0579 3.40106 15.4109 3.5837 15.4109 3.5837L15.3442 3.85272C15.3442 3.85272 15.0209 3.71204 14.6606 3.83791C14.1941 4.00328 14.0139 4.46481 14.1719 4.90907C14.3299 5.3558 14.7741 5.62483 15.2381 5.45946C15.6305 5.32125 15.786 4.95844 15.786 4.95844L16.018 5.11393C16.018 5.11393 15.8477 5.54585 15.3245 5.73095C14.6976 5.95308 14.088 5.62976 13.8708 5.01767C13.6561 4.41051 13.9473 3.78855 14.5545 3.57382V3.57876Z" fill="var(--fill-0, #373737)"/>
<path id="Vector_14" d="M16.1069 3.14191L16.4105 3.08267L16.5931 4.03536L17.7186 3.81817L17.5359 2.86301L17.8395 2.80377L18.2566 4.97571L17.953 5.03495L17.7704 4.07979L16.6449 4.29698L16.8276 5.25214L16.524 5.31137L16.1069 3.13944V3.14191Z" fill="var(--fill-0, #373737)"/>
<path id="Vector_15" d="M18.765 2.71245L19.4413 2.68037C19.6733 2.6705 19.7696 2.68284 19.856 2.70999C20.0855 2.78403 20.2434 2.99875 20.2558 3.28999C20.2681 3.57136 20.1225 3.8157 19.8856 3.90702V3.91442C19.8856 3.91442 19.9127 3.94157 19.9571 4.01068L20.4656 4.8449L20.1151 4.86218L19.6067 4.00574L19.1328 4.02796L19.1748 4.9066L18.8638 4.92141L18.7601 2.71245H18.765ZM19.5697 3.73672C19.8115 3.72438 19.9547 3.56395 19.9423 3.31714C19.9349 3.15425 19.8658 3.04071 19.7523 2.98395C19.6906 2.95433 19.619 2.93952 19.4462 2.94692L19.0884 2.9642L19.1254 3.75646L19.5697 3.73672Z" fill="var(--fill-0, #373737)"/>
<path id="Vector_16" d="M21.0086 2.67296L21.3171 2.68777L21.2109 4.89673L20.9 4.88192L21.0061 2.67296H21.0086Z" fill="var(--fill-0, #373737)"/>
<path id="Vector_17" d="M21.9193 4.45247C21.9193 4.45247 22.1192 4.71903 22.4475 4.76345C22.6523 4.7906 22.8424 4.69928 22.8695 4.49196C22.9337 4.01562 21.8576 3.97613 21.9489 3.29986C21.9958 2.95926 22.3265 2.72726 22.7412 2.78403C23.1484 2.83833 23.3335 3.09007 23.3335 3.09007L23.1583 3.32701C23.1583 3.32701 22.983 3.10982 22.7017 3.0728C22.4697 3.04071 22.2846 3.16412 22.2599 3.33935C22.1982 3.79349 23.2768 3.8157 23.1805 4.52652C23.1336 4.86465 22.835 5.10899 22.4006 5.04975C21.9341 4.98558 21.712 4.66226 21.712 4.66226L21.9168 4.45247H21.9193Z" fill="var(--fill-0, #373737)"/>
<path id="Vector_18" d="M24.4886 3.43561L23.7531 3.24803L23.8197 2.98641L25.5894 3.44055L25.5227 3.70217L24.7872 3.51459L24.3035 5.39529L24.0024 5.31878L24.4861 3.43808L24.4886 3.43561Z" fill="var(--fill-0, #373737)"/>
<path id="Vector_19" d="M26.1101 3.638L26.4014 3.74166L25.6535 5.82227L25.3623 5.71861L26.1101 3.63553V3.638Z" fill="var(--fill-0, #373737)"/>
<path id="Vector_20" d="M27.5145 5.93581L26.7593 5.5804L26.2903 6.06168L26.0015 5.92593L27.6651 4.26243L27.9612 4.40064L27.7366 6.74288L27.4454 6.60467L27.5145 5.93334V5.93581ZM27.6799 4.6055C27.6799 4.6055 27.5491 4.76592 27.4676 4.85231L26.9444 5.38295L27.5515 5.66925L27.6305 4.92882C27.6453 4.81035 27.6873 4.61043 27.6873 4.61043H27.6823L27.6799 4.6055Z" fill="var(--fill-0, #373737)"/>
<path id="Vector_21" d="M29.2348 5.05963L29.4915 5.22746L29.5235 6.96995C29.526 7.1131 29.5013 7.33769 29.5013 7.33769H29.5063C29.5063 7.33769 29.5951 7.16493 29.6642 7.06127L30.454 5.8593L30.7132 6.0296L29.4989 7.87821L29.2446 7.71038L29.2076 5.97036C29.2076 5.82474 29.2298 5.60014 29.2298 5.60014H29.2249C29.2249 5.60014 29.1336 5.77291 29.0669 5.87904L28.2796 7.07854L28.0205 6.90824L29.2348 5.05963Z" fill="var(--fill-0, #373737)"/>
<path id="Vector_22" d="M31.1377 8.63098C31.1377 8.63098 31.1377 8.96665 31.3697 9.19865C31.5153 9.34427 31.7226 9.38623 31.8707 9.23814C32.2088 8.89754 31.3771 8.21387 31.8584 7.73259C32.1027 7.48825 32.505 7.50553 32.8012 7.8017C33.0924 8.09047 33.0875 8.40145 33.0875 8.40145L32.8061 8.4829C32.8061 8.4829 32.7963 8.204 32.5963 8.00408C32.431 7.83872 32.2088 7.82391 32.0854 7.94979C31.7621 8.27311 32.6062 8.94443 32.1002 9.45286C31.8584 9.69474 31.4734 9.70708 31.1624 9.39857C30.8292 9.06537 30.8489 8.67294 30.8489 8.67294L31.1402 8.63098H31.1377Z" fill="var(--fill-0, #373737)"/>
<path id="Vector_23" d="M34.3709 9.60095C34.6967 10.023 34.6325 10.4179 34.6325 10.4179L34.3561 10.4376C34.3561 10.4376 34.3907 10.0872 34.1562 9.78359C33.8526 9.39116 33.359 9.36648 32.9863 9.65278C32.6111 9.94155 32.4952 10.4475 32.7963 10.8375C33.0505 11.1682 33.4429 11.2028 33.4429 11.2028L33.3689 11.4693C33.3689 11.4693 32.9049 11.4422 32.5667 11.0053C32.1595 10.4796 32.278 9.7984 32.7913 9.40103C33.2998 9.0086 33.9834 9.09252 34.3758 9.60095H34.3709Z" fill="var(--fill-0, #373737)"/>
<path id="Vector_24" d="M35.2767 10.9436L35.4273 11.2151L34.5782 11.689L35.136 12.691L35.9851 12.2171L36.1356 12.4886L34.2031 13.5647L34.0525 13.2932L34.9016 12.8194L34.3438 11.8173L33.4947 12.2912L33.3442 12.0197L35.2767 10.9436Z" fill="var(--fill-0, #373737)"/>
<path id="Vector_25" d="M36.9106 14.2681C37.1278 14.8704 36.8341 15.5022 36.2343 15.7194C35.6222 15.9415 34.9756 15.6478 34.7584 15.0456C34.5412 14.4434 34.8497 13.8017 35.4618 13.582C36.0616 13.3648 36.6934 13.6684 36.9106 14.2681ZM35.025 14.9493C35.178 15.3739 35.6568 15.5886 36.1257 15.4183C36.5799 15.2529 36.7995 14.7889 36.644 14.3644C36.491 13.9399 36.0245 13.7178 35.5704 13.8831C35.1015 14.0534 34.8719 14.5248 35.025 14.9493Z" fill="var(--fill-0, #373737)"/>
<path id="Vector_26" d="M37.6732 17.0966C37.7868 17.726 37.3919 18.301 36.765 18.4146C36.1233 18.5306 35.5359 18.1357 35.4199 17.5063C35.3063 16.8769 35.716 16.2969 36.3577 16.1785C36.9846 16.0649 37.5572 16.4672 37.6708 17.0966H37.6732ZM35.7012 17.4545C35.7827 17.8987 36.2171 18.19 36.7082 18.0987C37.1821 18.0123 37.4758 17.5902 37.3944 17.146C37.3129 16.7017 36.8909 16.4055 36.4145 16.4919C35.9234 16.5808 35.6198 17.0102 35.7012 17.4545Z" fill="var(--fill-0, #373737)"/>
<path id="Vector_27" d="M37.883 18.9847L37.8954 19.2957L35.953 19.3771L35.9949 20.3669L35.7259 20.3792L35.6716 19.0785L37.883 18.9847Z" fill="var(--fill-0, #373737)"/>
</g>
<g id="Group_2">
<path id="Vector_28" d="M7.51787 28.9781L7.69557 29.2323L5.87904 30.4984L5.70134 30.2442L7.51787 28.9781Z" fill="var(--fill-0, #373737)"/>
<path id="Vector_29" d="M8.02876 29.7235L8.22868 29.9555L7.78689 31.6412C7.74987 31.7819 7.66595 31.9917 7.66595 31.9917L7.67089 31.9966C7.67089 31.9966 7.80663 31.851 7.89796 31.7695L8.98639 30.8267L9.18878 31.0612L7.5154 32.51L7.31548 32.2804L7.7548 30.5947C7.79429 30.454 7.87821 30.2442 7.87821 30.2442L7.87327 30.2393C7.87327 30.2393 7.73753 30.3849 7.64374 30.4664L6.55777 31.4067L6.35539 31.1722L8.02876 29.7235Z" fill="var(--fill-0, #373737)"/>
<path id="Vector_30" d="M11.0127 32.5939C11.4348 32.9197 11.4718 33.317 11.4718 33.317L11.2077 33.4059C11.2077 33.4059 11.1509 33.0579 10.8498 32.8234C10.4574 32.5223 9.97364 32.621 9.68487 32.9937C9.3961 33.3689 9.41091 33.8872 9.80087 34.1883C10.1316 34.4425 10.5191 34.3758 10.5191 34.3758L10.5142 34.6523C10.5142 34.6523 10.06 34.7436 9.6207 34.4055C9.09499 34.0007 9.03575 33.3121 9.43065 32.7987C9.82308 32.2903 10.5043 32.1965 11.0127 32.5889V32.5939Z" fill="var(--fill-0, #373737)"/>
<path id="Vector_31" d="M12 33.354L12.2714 33.5046L11.7976 34.3512L12.7972 34.9114L13.271 34.0649L13.5425 34.2154L12.464 36.1455L12.1925 35.9949L12.6663 35.1484L11.6668 34.5881L11.1929 35.4347L10.9214 35.2841L12 33.354Z" fill="var(--fill-0, #373737)"/>
<path id="Vector_32" d="M14.0633 34.4474L14.6951 34.6918C14.9123 34.7757 14.9962 34.8275 15.0629 34.8892C15.2431 35.0496 15.2998 35.3113 15.1937 35.5828C15.0925 35.8468 14.8605 36.0122 14.6063 35.9974V36.0023C14.6063 36.0023 14.6162 36.0369 14.6285 36.1208L14.7568 37.0908L14.4286 36.9649L14.3126 35.9752L13.8708 35.8049L13.5524 36.6268L13.2636 36.5132L14.0633 34.4499V34.4474ZM14.3817 35.7111C14.6063 35.7975 14.8037 35.7111 14.8926 35.4791C14.9518 35.3261 14.9345 35.1953 14.8531 35.0965C14.8087 35.0447 14.7494 35.0028 14.5865 34.941L14.2533 34.8127L13.967 35.5531L14.3817 35.7136V35.7111Z" fill="var(--fill-0, #373737)"/>
<path id="Vector_33" d="M15.9588 35.1237L16.2574 35.2076L15.6577 37.3376L15.3591 37.2537L15.9588 35.1237Z" fill="var(--fill-0, #373737)"/>
<path id="Vector_34" d="M16.5265 37.0562C16.5265 37.0562 16.7116 37.3351 17.0374 37.3968C17.2398 37.4363 17.4347 37.3549 17.4742 37.1475C17.5631 36.6761 16.4919 36.5774 16.6178 35.9085C16.682 35.5704 17.025 35.3582 17.4347 35.4347C17.8395 35.5112 18.0098 35.7703 18.0098 35.7703L17.8222 35.9974C17.8222 35.9974 17.6569 35.7703 17.3804 35.7185C17.1484 35.6741 16.9584 35.7876 16.9263 35.9604C16.8399 36.4096 17.916 36.491 17.7827 37.1969C17.7186 37.5326 17.4076 37.7596 16.9757 37.6782C16.5141 37.5893 16.3093 37.2537 16.3093 37.2537L16.5265 37.0562Z" fill="var(--fill-0, #373737)"/>
<path id="Vector_35" d="M18.9724 35.9554L18.2171 35.8987L18.2369 35.6297L20.0583 35.7654L20.0386 36.0344L19.2834 35.9777L19.1377 37.9151L18.8292 37.8929L18.9748 35.9554H18.9724Z" fill="var(--fill-0, #373737)"/>
<path id="Vector_36" d="M20.3718 35.7037L20.6655 35.6988L20.473 36.3133L20.2484 36.3183L20.3718 35.7037Z" fill="var(--fill-0, #373737)"/>
<path id="Vector_37" d="M21.243 37.4486C21.243 37.4486 21.4972 37.6658 21.8255 37.6387C22.0304 37.6214 22.1957 37.4906 22.1784 37.2808C22.1365 36.802 21.0777 36.997 21.0209 36.3207C20.9913 35.9777 21.2652 35.6815 21.6799 35.6445C22.0896 35.6099 22.3241 35.8123 22.3241 35.8123L22.2056 36.0813C22.2056 36.0813 21.9859 35.9085 21.7046 35.9332C21.4701 35.953 21.3171 36.1134 21.3319 36.2886C21.3714 36.7452 22.4277 36.5305 22.4894 37.2463C22.519 37.5869 22.2796 37.8904 21.8428 37.9275C21.3738 37.9669 21.0875 37.7004 21.0875 37.7004L21.243 37.4511V37.4486Z" fill="var(--fill-0, #373737)"/>
<path id="Vector_38" d="M24.0419 37.0686C24.0419 37.0686 24.3282 37.2413 24.6466 37.1599C24.8465 37.108 24.9872 36.9526 24.9353 36.7502C24.8169 36.2862 23.8049 36.6514 23.6346 35.9925C23.5482 35.6593 23.7704 35.3211 24.1751 35.2175C24.5725 35.1163 24.8366 35.2792 24.8366 35.2792L24.7626 35.563C24.7626 35.563 24.5182 35.4273 24.2443 35.4988C24.0172 35.5581 23.8913 35.7407 23.9357 35.911C24.0493 36.3553 25.0563 35.9702 25.234 36.6663C25.3179 36.997 25.1328 37.3351 24.7083 37.4437C24.2541 37.5597 23.9259 37.3425 23.9259 37.3425L24.0369 37.071L24.0419 37.0686Z" fill="var(--fill-0, #373737)"/>
<path id="Vector_39" d="M25.2463 34.9485L26.4483 34.4919L26.5445 34.7436L25.6338 35.0891L25.8806 35.7358L26.621 35.4544L26.7173 35.7062L25.9769 35.9875L26.2286 36.6539L27.1887 36.2886L27.285 36.5404L26.0336 37.0167L25.2463 34.9485Z" fill="var(--fill-0, #373737)"/>
<path id="Vector_40" d="M26.895 34.2919L27.4948 33.976C27.6996 33.8674 27.7934 33.8403 27.8847 33.8279C28.1241 33.7983 28.3586 33.9267 28.4943 34.1833C28.6251 34.4326 28.598 34.7165 28.4203 34.8991V34.904C28.4203 34.904 28.4598 34.9164 28.5289 34.9608L29.3458 35.5013L29.0349 35.6642L28.2105 35.1039L27.7909 35.3236L28.2006 36.1035L27.9267 36.2491L26.895 34.2919ZM28.06 34.8793C28.2722 34.7658 28.3339 34.561 28.2204 34.3413C28.1439 34.1981 28.0353 34.1241 27.9069 34.1216C27.8403 34.1216 27.7662 34.1389 27.6157 34.2179L27.2998 34.3833L27.67 35.0842L28.0624 34.8769L28.06 34.8793Z" fill="var(--fill-0, #373737)"/>
<path id="Vector_41" d="M28.403 33.4947L28.677 33.3022L30.027 34.2673C30.1282 34.3413 30.2714 34.4672 30.2714 34.4672H30.2763C30.2763 34.4672 30.2047 34.287 30.1702 34.1661L29.7235 32.5667L29.9925 32.3767L30.5996 34.6572L30.3454 34.8349L28.403 33.4947Z" fill="var(--fill-0, #373737)"/>
<path id="Vector_42" d="M30.227 32.1471L30.4639 31.9448L31.9003 33.628L31.6634 33.8304L30.227 32.1471Z" fill="var(--fill-0, #373737)"/>
<path id="Vector_43" d="M31.5622 30.8292C31.9299 30.4441 32.3298 30.4491 32.3298 30.4491L32.3915 30.7206C32.3915 30.7206 32.0385 30.7403 31.7745 31.0167C31.4314 31.3746 31.4808 31.8682 31.8214 32.194C32.1644 32.5198 32.6803 32.5593 33.0209 32.2039C33.3096 31.9028 33.2849 31.5104 33.2849 31.5104L33.5614 31.5449C33.5614 31.5449 33.6058 32.0065 33.2208 32.4088C32.7617 32.89 32.0706 32.8752 31.6017 32.4285C31.1377 31.9842 31.1179 31.2981 31.5597 30.8341L31.5622 30.8292Z" fill="var(--fill-0, #373737)"/>
<path id="Vector_44" d="M32.4285 29.9086L33.1887 28.8744L33.4059 29.0349L32.8283 29.8197L33.3861 30.2294L33.8551 29.5902L34.0723 29.7506L33.6033 30.3898L34.1759 30.8119L34.7856 29.9851L35.0028 30.1455L34.2105 31.2241L32.4285 29.9135V29.9086Z" fill="var(--fill-0, #373737)"/>
</g>
<path id="Vector_45" d="M20.2977 39.549C9.6824 39.549 1.04648 30.9131 1.04648 20.2977C1.04648 9.6824 9.6824 1.04648 20.2977 1.04648C30.9131 1.04648 39.549 9.6824 39.549 20.2977C39.549 30.9131 30.9131 39.549 20.2977 39.549ZM20.2977 1.29329C9.81814 1.29329 1.29329 9.81814 1.29329 20.2977C1.29329 30.7773 9.81814 39.3022 20.2977 39.3022C30.7773 39.3022 39.3022 30.7773 39.3022 20.2977C39.3022 9.81814 30.7773 1.29329 20.2977 1.29329Z" fill="var(--fill-0, #373737)"/>
<path id="Vector_46" d="M20.0855 24.8761L15.5985 24.4343V23.3459H20.0855V24.8761Z" fill="var(--fill-0, #373737)"/>
<path id="Vector_47" d="M24.918 24.4343L20.431 24.8983V23.3656H24.918V24.4343Z" fill="var(--fill-0, #373737)"/>
<path id="Vector_48" d="M19.6363 19.6486L18.9353 34.0649C19.4265 34.1192 19.9251 34.1463 20.4286 34.1463C20.8086 34.1463 21.1863 34.1266 21.5589 34.097L20.8555 19.6486H19.6363Z" fill="var(--fill-0, #373737)"/>
</g>
</svg>
