<svg preserveAspectRatio="none" width="100%" height="100%" overflow="visible" style="display: block;" viewBox="0 0 23.2792 20.8506" fill="none" xmlns="http://www.w3.org/2000/svg">
<g id="Group">
<path id="Vector" d="M5.67665 20.2755L5.65197 20.3792L5.7507 20.4187C5.79019 20.4335 6.39488 20.6704 7.16493 20.6704C7.64374 20.6704 8.18426 20.5791 8.69516 20.2879C9.58614 19.7794 10.1538 18.7848 10.3784 17.3311L10.3982 17.2077L10.0477 17.1558C8.73464 16.9535 6.53803 16.6153 5.67665 20.2755Z" fill="var(--fill-0, #E8423F)"/>
<path id="Vector_2" d="M16.1192 12.7774C16.6943 12.2418 17.3829 11.2422 17.3952 9.52197V9.33193L17.2422 9.44052C17.0102 9.60342 16.677 9.72189 16.2895 9.8601C15.053 10.2994 13.3574 10.9016 13.4241 13.6487V13.7375L13.5154 13.7424C13.582 13.7474 13.6487 13.7498 13.7178 13.7498C14.5717 13.7498 15.4553 13.3944 16.1192 12.7774Z" fill="var(--fill-0, #E8423F)"/>
<path id="Vector_3" d="M3.76881 14.2607C4.63018 14.2607 5.44712 13.8412 6.20236 13.0143L6.25173 12.9625L6.22951 12.8934C6.2073 12.8268 5.68653 11.2398 4.17851 10.6968C3.04318 10.2871 1.67338 10.5907 0.106129 11.5952L0 11.6643L0.0715754 11.768C0.44426 12.3183 1.80172 14.125 3.57382 14.2533C3.638 14.2583 3.70217 14.2607 3.76634 14.2607H3.76881Z" fill="var(--fill-0, #E8423F)"/>
<path id="Vector_4" d="M13.35 10.0995L13.5376 10.0329C15.4726 9.35414 16.9362 7.72519 17.3582 5.78525C17.7803 3.84778 17.1164 1.86096 15.5343 0.338131L15.4677 0.27396L15.3887 0.323322C12.5084 2.14232 12.8909 4.73877 13.2266 7.02671C13.3796 8.06085 13.5228 9.03822 13.3821 9.90453L13.35 10.0995Z" fill="var(--fill-0, #E8423F)"/>
<path id="Vector_5" d="M20.779 3.59851L20.784 3.49731L20.6828 3.49238C20.6359 3.49238 19.5351 3.45289 18.7576 4.19579C18.2739 4.65979 18.0271 5.32372 18.0271 6.16534V6.27887L18.1406 6.26653C20.6655 5.99257 20.779 3.62072 20.7815 3.59604L20.779 3.59851Z" fill="var(--fill-0, #E8423F)"/>
<path id="Vector_6" d="M11.0645 5.6347L11.1583 5.50389C11.2077 5.43725 12.3529 3.84532 12.0148 2.19909C11.8371 1.33525 11.2842 0.619495 10.3661 0.0765108L10.2353 0L10.1661 0.135746C9.15916 2.13245 8.96171 3.65527 10.9436 5.52363L11.0596 5.6347H11.0645Z" fill="var(--fill-0, #E8423F)"/>
<path id="Vector_7" d="M8.47056 8.85311C9.15669 9.06537 9.75151 9.24801 10.1143 9.5195L10.2871 9.64785L10.3118 9.43559C10.3266 9.31218 10.6302 6.40722 8.73711 4.54132C7.47097 3.29246 5.5335 2.82352 2.97654 3.14931L2.84573 3.16659L2.87041 3.29493C3.65034 7.36237 6.43683 8.22621 8.47303 8.85558L8.47056 8.85311Z" fill="var(--fill-0, #E8423F)"/>
<path id="Vector_8" d="M11.6125 6.24926L11.5261 6.36279C10.5709 7.62399 10.6894 8.98886 11.8568 10.2056L11.9703 10.3241L12.0518 10.181C13.313 7.98927 11.726 6.36526 11.7112 6.34798L11.61 6.24679L11.6125 6.24926Z" fill="var(--fill-0, #E8423F)"/>
<path id="Vector_9" d="M5.55325 17.9654C4.22787 17.2546 2.89756 17.9135 2.4459 18.6614L2.37679 18.7774L2.5002 18.8366C2.97654 19.0637 3.38625 19.1649 3.75153 19.1649C4.47222 19.1649 5.02261 18.7675 5.5878 18.1579L5.6964 18.0419L5.55572 17.9654H5.55325Z" fill="var(--fill-0, #E8423F)"/>
<path id="Vector_10" d="M18.4837 11.8099L18.3998 11.9358L18.5454 11.9728C18.9107 12.0666 19.271 12.1135 19.619 12.1135C20.6457 12.1135 21.5886 11.7087 22.3882 10.9165L22.4894 10.8153L22.366 10.7437C20.9395 9.92674 19.4536 10.334 18.4837 11.805V11.8099Z" fill="var(--fill-0, #E8423F)"/>
<path id="Vector_11" d="M6.73547 16.5857L6.87122 16.5363L6.79965 16.4105C6.77743 16.3685 6.21964 15.3961 4.63018 15.1147C3.05059 14.8358 1.96955 15.6157 1.92513 15.6503L1.82393 15.7243L1.90045 15.8231C2.57918 16.7091 3.62072 16.9535 4.56354 16.9535C5.67912 16.9535 6.6565 16.6104 6.73054 16.5832L6.73547 16.5857Z" fill="var(--fill-0, #E8423F)"/>
<path id="Vector_12" d="M13.7005 17.2743L13.6067 17.2891L13.5968 17.3829C13.5894 17.4495 13.4216 19.0217 14.5248 20.0361C15.1147 20.5791 15.9465 20.8506 17.0078 20.8506C17.5112 20.8506 18.0666 20.7889 18.6713 20.668L18.8613 20.6285L18.7478 20.4705C18.0345 19.4882 16.1414 16.8745 13.698 17.2743H13.7005Z" fill="var(--fill-0, #E8423F)"/>
<path id="Vector_13" d="M2.97654 9.15422C3.51706 9.67006 4.25009 9.93168 5.15835 9.93168C5.22993 9.93168 5.3015 9.93168 5.37555 9.92674L5.51376 9.92181L5.49402 9.78606C5.03495 6.78977 2.21143 6.76262 2.15713 6.76262H2.03372V6.88603C2.03372 6.9428 2.04606 8.26324 2.97901 9.15669L2.97654 9.15422Z" fill="var(--fill-0, #E8423F)"/>
<path id="Vector_14" d="M17.1929 16.6203L17.0917 16.6326L17.104 16.7338C17.1089 16.7807 17.257 17.8716 18.1233 18.5133C18.5232 18.8095 19.0069 18.9576 19.5672 18.9576C19.7646 18.9576 19.972 18.9403 20.1891 18.9033L20.3027 18.8835L20.2706 18.7725C19.5746 16.3315 17.2175 16.6153 17.1953 16.6203H17.1929Z" fill="var(--fill-0, #E8423F)"/>
<path id="Vector_15" d="M18.069 10.3142L18.0764 10.5092L18.2492 10.4179C18.4738 10.2994 18.7107 10.1834 18.9502 10.065C20.5668 9.27023 22.4006 8.3669 21.823 6.0444L21.7984 5.94321L21.6947 5.95308C19.1575 6.17028 17.9728 7.59684 18.0715 10.3142H18.069Z" fill="var(--fill-0, #E8423F)"/>
<path id="Vector_16" d="M6.61207 9.57874L6.42696 9.55899L6.48866 9.73423C6.57011 9.96376 6.64662 10.2007 6.7256 10.4426C7.22663 11.9851 7.78936 13.7227 9.75891 13.7227C9.87738 13.7227 10.0008 13.7153 10.1291 13.703L10.2279 13.6931L10.2328 13.5919C10.3735 11.1682 9.18631 9.8527 6.60713 9.57627L6.61207 9.57874Z" fill="var(--fill-0, #E8423F)"/>
<path id="Vector_17" d="M23.2644 16.7585C23.2521 16.6647 22.9658 14.4434 21.6379 13.6363C19.7301 12.4738 17.1509 13.7696 17.0423 13.8239L16.835 13.93L17.0571 14.0041C17.6791 14.2114 18.0271 14.6334 18.4689 15.1665C18.7354 15.4899 19.0365 15.8551 19.4487 16.2254C20.0978 16.8103 21.248 16.9312 22.1019 16.9312C22.6918 16.9312 23.1385 16.872 23.183 16.8671L23.2792 16.8547L23.2669 16.7585H23.2644Z" fill="var(--fill-0, #E8423F)"/>
</g>
</svg>
