<svg preserveAspectRatio="none" width="100%" height="100%" overflow="visible" style="display: block;" viewBox="0 0 45.1347 40.426" fill="none" xmlns="http://www.w3.org/2000/svg">
<g id="Group">
<path id="Vector" d="M11.0061 39.311L10.9583 39.512L11.1497 39.5886C11.2262 39.6173 12.3986 40.0766 13.8916 40.0766C14.82 40.0766 15.868 39.8996 16.8585 39.3349C18.586 38.3492 19.6866 36.4207 20.1221 33.6022L20.1604 33.3629L19.4808 33.2624C16.9351 32.87 12.6762 32.2144 11.0061 39.311Z" fill="var(--fill-0, #E8423F)"/>
<path id="Vector_2" d="M31.2526 24.7734C32.3676 23.7349 33.7027 21.7969 33.7266 18.4616V18.0931L33.4299 18.3037C32.9801 18.6195 32.3341 18.8492 31.5828 19.1172C29.1854 19.9689 25.8979 21.1365 26.0271 26.4626V26.6348L26.2041 26.6444C26.3334 26.654 26.4626 26.6587 26.5965 26.6587C28.2522 26.6587 29.9654 25.9697 31.2526 24.7734Z" fill="var(--fill-0, #E8423F)"/>
<path id="Vector_3" d="M7.30711 27.6493C8.97717 27.6493 10.5611 26.8358 12.0254 25.2327L12.1211 25.1322L12.078 24.9983C12.035 24.8691 11.0253 21.7921 8.10146 20.7394C5.90024 19.945 3.24441 20.5336 0.205767 22.4812L0 22.6152L0.138773 22.8162C0.861349 23.8833 3.49325 27.3861 6.92907 27.6349C7.05349 27.6445 7.17791 27.6493 7.30233 27.6493H7.30711Z" fill="var(--fill-0, #E8423F)"/>
<path id="Vector_4" d="M25.8835 19.5813L26.2472 19.4521C29.9989 18.1362 32.8365 14.9779 33.6548 11.2167C34.4731 7.46024 33.1859 3.60809 30.1185 0.655582L29.9893 0.531165L29.8362 0.626869C24.2518 4.15361 24.9935 9.18772 25.6443 13.6237C25.941 15.6287 26.2185 17.5237 25.9457 19.2033L25.8835 19.5813Z" fill="var(--fill-0, #E8423F)"/>
<path id="Vector_5" d="M40.2872 6.97693L40.2968 6.78073L40.1006 6.77116C40.0097 6.77116 37.8754 6.6946 36.3681 8.13496C35.4302 9.03459 34.9516 10.3218 34.9516 11.9536V12.1737L35.1717 12.1498C40.0671 11.6186 40.2872 7.01999 40.292 6.97214L40.2872 6.97693Z" fill="var(--fill-0, #E8423F)"/>
<path id="Vector_6" d="M21.4524 10.9248L21.6342 10.6712C21.7299 10.542 23.9503 7.45545 23.2947 4.26368C22.9502 2.58883 21.8783 1.2011 20.0981 0.148342L19.8445 0L19.7105 0.26319C17.7581 4.13447 17.3753 7.08699 21.2179 10.7094L21.4428 10.9248H21.4524Z" fill="var(--fill-0, #E8423F)"/>
<path id="Vector_7" d="M16.4231 17.1648C17.7534 17.5763 18.9066 17.9304 19.61 18.4568L19.945 18.7056L19.9929 18.2941C20.0216 18.0548 20.6102 12.4226 16.9399 8.8049C14.485 6.38355 10.7286 5.47435 5.77104 6.10601L5.51742 6.1395L5.56527 6.38834C7.07742 14.2745 12.48 15.9493 16.4278 17.1696L16.4231 17.1648Z" fill="var(--fill-0, #E8423F)"/>
<path id="Vector_8" d="M22.5147 12.1163L22.3472 12.3364C20.4953 14.7817 20.725 17.428 22.9884 19.7871L23.2086 20.0168L23.3665 19.7392C25.8118 15.4899 22.7348 12.3412 22.7061 12.3077L22.5099 12.1115L22.5147 12.1163Z" fill="var(--fill-0, #E8423F)"/>
<path id="Vector_9" d="M10.7669 34.832C8.19717 33.4538 5.61791 34.7315 4.7422 36.1814L4.60822 36.4063L4.84748 36.5212C5.77104 36.9614 6.56539 37.1576 7.27361 37.1576C8.67091 37.1576 9.73803 36.3872 10.8339 35.2052L11.0444 34.9803L10.7716 34.832H10.7669Z" fill="var(--fill-0, #E8423F)"/>
<path id="Vector_10" d="M35.8369 22.8975L35.6742 23.1416L35.9565 23.2134C36.6648 23.3952 37.3634 23.4861 38.0381 23.4861C40.0288 23.4861 41.8568 22.7013 43.4072 21.1653L43.6034 20.9691L43.3641 20.8303C40.5982 19.2464 37.7175 20.0359 35.8369 22.888V22.8975Z" fill="var(--fill-0, #E8423F)"/>
<path id="Vector_11" d="M13.059 32.157L13.3222 32.0613L13.1834 31.8173C13.1404 31.7359 12.0589 29.8505 8.97717 29.305C5.9146 28.7643 3.81865 30.2764 3.73251 30.3434L3.53632 30.487L3.68466 30.6784C5.00061 32.3963 7.01999 32.87 8.84797 32.87C11.0109 32.87 12.9059 32.2049 13.0494 32.1522L13.059 32.157Z" fill="var(--fill-0, #E8423F)"/>
<path id="Vector_12" d="M26.563 33.4921L26.3812 33.5208L26.3621 33.7027C26.3477 33.8319 26.0223 36.8801 28.1613 38.8468C29.305 39.8996 30.9176 40.426 32.9753 40.426C33.9515 40.426 35.0282 40.3063 36.2006 40.0719L36.569 39.9953L36.3489 39.689C34.966 37.7845 31.2957 32.7169 26.5583 33.4921H26.563Z" fill="var(--fill-0, #E8423F)"/>
<path id="Vector_13" d="M5.77104 17.7486C6.81901 18.7487 8.24024 19.2559 10.0012 19.2559C10.14 19.2559 10.2788 19.2559 10.4223 19.2464L10.6903 19.2368L10.652 18.9736C9.76196 13.1643 4.2876 13.1116 4.18233 13.1116H3.94306V13.3509C3.94306 13.461 3.96699 16.0211 5.77582 17.7534L5.77104 17.7486Z" fill="var(--fill-0, #E8423F)"/>
<path id="Vector_14" d="M33.3342 32.224L33.138 32.2479L33.1619 32.4441C33.1715 32.5351 33.4586 34.6502 35.1383 35.8943C35.9135 36.4686 36.8514 36.7557 37.9376 36.7557C38.3205 36.7557 38.7224 36.7222 39.1435 36.6504L39.3636 36.6121L39.3014 36.3968C37.952 31.6641 33.3821 32.2144 33.339 32.224H33.3342Z" fill="var(--fill-0, #E8423F)"/>
<path id="Vector_15" d="M35.033 19.9976L35.0473 20.3757L35.3823 20.1986C35.8178 19.9689 36.2771 19.744 36.7413 19.5143C39.8757 17.9735 43.4311 16.2221 42.3114 11.7191L42.2635 11.5229L42.0625 11.5421C37.1433 11.9632 34.8464 14.7291 35.0378 19.9976H35.033Z" fill="var(--fill-0, #E8423F)"/>
<path id="Vector_16" d="M12.8197 18.5716L12.4608 18.5334L12.5805 18.8731C12.7384 19.3181 12.8867 19.7775 13.0399 20.2465C14.0113 23.2373 15.1023 26.6061 18.921 26.6061C19.1507 26.6061 19.3899 26.5918 19.6388 26.5678L19.8302 26.5487L19.8397 26.3525C20.1125 21.6534 17.8108 19.1028 12.8102 18.5669L12.8197 18.5716Z" fill="var(--fill-0, #E8423F)"/>
<path id="Vector_17" d="M45.106 32.492C45.082 32.3102 44.527 28.0034 41.9525 26.4386C38.2535 24.1848 33.2529 26.697 33.0423 26.8023L32.6403 27.0081L33.071 27.1516C34.2769 27.5536 34.9516 28.3719 35.8082 29.4055C36.325 30.0324 36.9088 30.7406 37.7079 31.4584C38.9665 32.5925 41.1964 32.827 42.8521 32.827C43.9958 32.827 44.8619 32.7121 44.9481 32.7025L45.1347 32.6786L45.1108 32.492H45.106Z" fill="var(--fill-0, #E8423F)"/>
</g>
</svg>
