<svg preserveAspectRatio="none" width="100%" height="100%" overflow="visible" style="display: block;" viewBox="0 0 78.7081 78.7129" fill="none" xmlns="http://www.w3.org/2000/svg">
<g id="Layer 2">
<path id="Vector" d="M39.3541 78.1339C60.7716 78.1339 78.1339 60.7716 78.1339 39.3541C78.1339 17.9366 60.7716 0.574233 39.3541 0.574233C17.9366 0.574233 0.574233 17.9366 0.574233 39.3541C0.574233 60.7716 17.9366 78.1339 39.3541 78.1339Z" fill="var(--fill-0, white)"/>
<path id="Vector_2" d="M39.3541 78.7129C17.6529 78.7129 0 61.0553 0 39.3541C0 17.6529 17.6529 0 39.3541 0C61.0553 0 78.7081 17.6529 78.7081 39.3541C78.7081 61.0553 61.0553 78.7081 39.3541 78.7081V78.7129ZM39.3541 1.14847C18.2893 1.14847 1.14847 18.2893 1.14847 39.3541C1.14847 60.4188 18.2893 77.5597 39.3541 77.5597C60.4188 77.5597 77.5597 60.4188 77.5597 39.3541C77.5597 18.2893 60.4236 1.14847 39.3541 1.14847Z" fill="var(--fill-0, #373737)"/>
<path id="Vector_3" d="M39.3541 66.5296C24.3714 66.5296 12.1785 54.3368 12.1785 39.3541C12.1785 24.3714 24.3714 12.1785 39.3541 12.1785C54.3368 12.1785 66.5296 24.3714 66.5296 39.3541C66.5296 54.3368 54.3368 66.5296 39.3541 66.5296ZM39.3541 12.657C24.6346 12.657 12.657 24.6346 12.657 39.3541C12.657 54.0736 24.6346 66.0511 39.3541 66.0511C54.0736 66.0511 66.0511 54.0736 66.0511 39.3541C66.0511 24.6346 54.0736 12.657 39.3541 12.657Z" fill="var(--fill-0, #373737)"/>
<g id="Group">
<path id="Vector_4" d="M5.2303 38.8851L5.24466 38.2822L9.53226 38.3683L9.51791 38.9713L5.2303 38.8851Z" fill="var(--fill-0, #373737)"/>
<path id="Vector_5" d="M5.31165 36.6982L5.37386 36.1001L9.12073 36.4925L9.32171 34.5832L9.8433 34.6358L9.58011 37.1433L5.31165 36.6935V36.6982Z" fill="var(--fill-0, #373737)"/>
<path id="Vector_6" d="M5.79496 33.0088L5.92417 32.4202L9.60404 33.2194L10.0108 31.3435L10.5228 31.4536L9.98686 33.918L5.79496 33.004V33.0088Z" fill="var(--fill-0, #373737)"/>
<path id="Vector_7" d="M10.2788 28.2905L9.7476 29.817L10.7716 30.6257L10.5659 31.2095L7.01999 28.3384L7.23055 27.7402L11.7909 27.6972L11.5851 28.2905H10.2788ZM7.68515 28.2427C7.68515 28.2427 8.02012 28.4628 8.20196 28.6016L9.33128 29.5012L9.75717 28.2714H8.3168C8.08711 28.2714 7.68993 28.2235 7.68993 28.2235V28.2331L7.68515 28.2427Z" fill="var(--fill-0, #373737)"/>
<path id="Vector_8" d="M9.3887 22.9597L12.5566 23.7062C12.7958 23.7637 13.0016 23.8402 13.0016 23.8402V23.8307C13.0016 23.8307 12.8197 23.7062 12.6427 23.5483L10.2453 21.3662L10.5372 20.8207L13.7864 23.8354L13.4562 24.4527L10.6568 23.7924C10.3793 23.7254 10.0634 23.6153 10.0634 23.6153V23.6249C10.0634 23.6249 10.3266 23.8307 10.5324 24.0221L12.6331 25.9888L12.3029 26.6061L8.00576 25.5438L8.29766 24.9983L11.4272 25.8165C11.6569 25.8787 11.8675 25.9601 11.8675 25.9601V25.9505C11.8675 25.9505 11.6952 25.8213 11.5134 25.6538L9.13508 23.4287L9.3887 22.9597Z" fill="var(--fill-0, #373737)"/>
<path id="Vector_9" d="M15.0593 19.9067L14.0831 21.1988L14.8104 22.2802L14.4372 22.7731L11.944 18.9545L12.3269 18.452L16.6815 19.8062L16.3034 20.3039L15.0593 19.9019V19.9067ZM12.6044 19.0645C12.6044 19.0645 12.858 19.3756 12.9872 19.567L13.7816 20.7729L14.5664 19.7345L13.193 19.2894C12.9729 19.2177 12.6092 19.055 12.6092 19.055L12.5996 19.0645H12.6044Z" fill="var(--fill-0, #373737)"/>
<path id="Vector_10" d="M14.0639 16.3417L14.9827 15.4038C15.2985 15.0832 15.4564 14.9731 15.6143 14.9013C16.0402 14.7051 16.5475 14.8008 16.9494 15.198C17.3418 15.5808 17.4567 16.1216 17.2365 16.5618L17.2461 16.5714C17.2461 16.5714 17.3179 16.5714 17.4758 16.6145L19.3038 17.1313L18.8253 17.6194L16.9734 17.0691L16.3321 17.7246L17.5524 18.921L17.1313 19.3516L14.0687 16.3465L14.0639 16.3417ZM16.5618 16.7389C16.892 16.4039 16.8824 15.9876 16.5379 15.6526C16.313 15.4325 16.0689 15.3607 15.8249 15.4325C15.7005 15.4708 15.5761 15.5473 15.3416 15.7866L14.8583 16.2795L15.9541 17.3562L16.557 16.7389H16.5618Z" fill="var(--fill-0, #373737)"/>
<path id="Vector_11" d="M17.2796 13.2313L18.3132 12.4226C18.6673 12.145 18.8396 12.0589 19.0071 12.0062C19.4521 11.8675 19.945 12.0302 20.2943 12.4752C20.6293 12.9059 20.6772 13.4562 20.3996 13.8677L20.4092 13.8773C20.4092 13.8773 20.481 13.8916 20.6293 13.9539L22.3759 14.7051L21.84 15.1262L20.0742 14.3367L19.3516 14.9013L20.4044 16.246L19.9307 16.6192L17.2844 13.2361L17.2796 13.2313ZM19.701 13.9491C20.0694 13.662 20.1173 13.2456 19.8206 12.8676C19.6244 12.6188 19.3899 12.5183 19.1459 12.5566C19.0167 12.5805 18.8827 12.6379 18.6195 12.8437L18.074 13.2696L19.0215 14.4802L19.701 13.9491Z" fill="var(--fill-0, #373737)"/>
<path id="Vector_12" d="M24.2565 12.1163L22.864 12.9394L23.1272 14.217L22.5961 14.5329L21.7395 10.0539L22.285 9.73324L25.7974 12.6379L25.2567 12.9585L24.2565 12.1163ZM22.3042 10.408C22.3042 10.408 22.419 10.7908 22.4669 11.0157L22.7492 12.4321L23.8689 11.7718L22.7683 10.8434C22.5961 10.6903 22.3185 10.4032 22.3185 10.4032H22.3089L22.3042 10.408Z" fill="var(--fill-0, #373737)"/>
<path id="Vector_13" d="M28.2188 6.93864C29.1949 6.5941 29.8792 6.94822 29.8792 6.94822L29.75 7.46981C29.75 7.46981 29.1232 7.19705 28.4245 7.4411C27.5201 7.76171 27.1708 8.65656 27.477 9.51791C27.7833 10.384 28.6446 10.9056 29.5443 10.585C30.3051 10.317 30.6066 9.61361 30.6066 9.61361L31.0564 9.91508C31.0564 9.91508 30.7262 10.7525 29.7118 11.1114C28.4963 11.5421 27.3143 10.9152 26.8932 9.72846C26.4769 8.55128 27.0416 7.34539 28.2188 6.92907V6.93864Z" fill="var(--fill-0, #373737)"/>
<path id="Vector_14" d="M31.2287 6.09165L31.8173 5.9768L32.1714 7.82392L34.3535 7.40282L33.9994 5.55092L34.5879 5.43607L35.3967 9.64711L34.8081 9.76195L34.454 7.91005L32.2719 8.33116L32.626 10.1831L32.0374 10.2979L31.2287 6.08687V6.09165Z" fill="var(--fill-0, #373737)"/>
<path id="Vector_15" d="M36.3824 5.25901L37.6936 5.1968C38.1434 5.17766 38.33 5.20159 38.4975 5.25423C38.9425 5.39779 39.2488 5.81411 39.2727 6.37877C39.2967 6.92429 39.0143 7.39803 38.5549 7.57509V7.58944C38.5549 7.58944 38.6076 7.64208 38.6937 7.77607L39.6795 9.39349L39 9.42699L38.0142 7.7665L37.0954 7.80956L37.1768 9.51312L36.5738 9.54183L36.3729 5.25901H36.3824ZM37.9424 7.2449C38.4114 7.22098 38.6889 6.90993 38.665 6.4314C38.6506 6.11558 38.5167 5.89545 38.2965 5.78539C38.1769 5.72797 38.0381 5.69926 37.7032 5.71361L37.0093 5.74711L37.0811 7.28318L37.9424 7.2449Z" fill="var(--fill-0, #373737)"/>
<path id="Vector_16" d="M40.7322 5.18245L41.3304 5.21116L41.1246 9.49398L40.5217 9.46527L40.7274 5.18245H40.7322Z" fill="var(--fill-0, #373737)"/>
<path id="Vector_17" d="M42.498 8.63263C42.498 8.63263 42.8856 9.14944 43.522 9.23557C43.9192 9.28821 44.2877 9.11116 44.3403 8.70919C44.4647 7.78564 42.3784 7.70907 42.5554 6.39791C42.6463 5.73754 43.2876 5.28772 44.0915 5.39779C44.8811 5.50306 45.24 5.99116 45.24 5.99116L44.9002 6.45055C44.9002 6.45055 44.5605 6.02944 44.0149 5.95766C43.5651 5.89545 43.2062 6.13472 43.1584 6.47447C43.0387 7.35496 45.1299 7.39803 44.9433 8.77619C44.8523 9.43177 44.2733 9.90551 43.4311 9.79067C42.5267 9.66625 42.096 9.03938 42.096 9.03938L42.4932 8.63263H42.498Z" fill="var(--fill-0, #373737)"/>
<path id="Vector_18" d="M47.4795 6.6611L46.0535 6.29742L46.1827 5.79018L49.6137 6.67067L49.4845 7.17791L48.0585 6.81423L47.1206 10.4606L46.5368 10.3123L47.4747 6.66588L47.4795 6.6611Z" fill="var(--fill-0, #373737)"/>
<path id="Vector_19" d="M50.6234 7.05349L51.1881 7.25447L49.7381 11.2885L49.1735 11.0875L50.6234 7.04871V7.05349Z" fill="var(--fill-0, #373737)"/>
<path id="Vector_20" d="M53.3462 11.5086L51.8819 10.8195L50.9727 11.7526L50.4128 11.4894L53.6381 8.26416L54.2123 8.53214L53.7769 13.0734L53.2122 12.8054L53.3462 11.5038V11.5086ZM53.6668 8.92932C53.6668 8.92932 53.4132 9.24036 53.2553 9.40784L52.2408 10.4367L53.418 10.9918L53.5711 9.55619C53.5998 9.32649 53.6812 8.93889 53.6812 8.93889H53.6716L53.6668 8.92932Z" fill="var(--fill-0, #373737)"/>
<path id="Vector_21" d="M56.6815 9.80981L57.1792 10.1352L57.2414 13.5136C57.2462 13.7912 57.1984 14.2266 57.1984 14.2266H57.2079C57.2079 14.2266 57.3802 13.8916 57.5142 13.6907L59.0455 11.3602L59.5479 11.6904L57.1936 15.2746L56.7007 14.9492L56.6289 11.5756C56.6289 11.2932 56.672 10.8578 56.672 10.8578H56.6624C56.6624 10.8578 56.4853 11.1928 56.3561 11.3985L54.8296 13.7242L54.3272 13.394L56.6815 9.80981Z" fill="var(--fill-0, #373737)"/>
<path id="Vector_22" d="M60.371 16.7341C60.371 16.7341 60.371 17.3849 60.8208 17.8347C61.1031 18.117 61.5051 18.1984 61.7922 17.9113C62.4478 17.2509 60.8352 15.9254 61.7683 14.9923C62.242 14.5185 63.022 14.552 63.5963 15.1262C64.1609 15.6861 64.1514 16.2891 64.1514 16.2891L63.6058 16.447C63.6058 16.447 63.5867 15.9062 63.1991 15.5186C62.8785 15.198 62.4478 15.1693 62.2085 15.4134C61.5817 16.0402 63.2182 17.3418 62.2372 18.3276C61.7683 18.7965 61.0218 18.8205 60.4188 18.2223C59.7728 17.5763 59.8111 16.8154 59.8111 16.8154L60.3758 16.7341H60.371Z" fill="var(--fill-0, #373737)"/>
<path id="Vector_23" d="M66.6397 18.6147C67.2713 19.433 67.1469 20.1986 67.1469 20.1986L66.611 20.2369C66.611 20.2369 66.678 19.5574 66.2234 18.9688C65.6348 18.208 64.6777 18.1601 63.9552 18.7152C63.2278 19.2751 63.0029 20.2561 63.5867 21.0121C64.0796 21.6534 64.8404 21.7203 64.8404 21.7203L64.6969 22.2372C64.6969 22.2372 63.7972 22.1845 63.1417 21.3375C62.3521 20.3183 62.5818 18.9975 63.5771 18.2271C64.5629 17.4662 65.8884 17.6289 66.6493 18.6147H66.6397Z" fill="var(--fill-0, #373737)"/>
<path id="Vector_24" d="M68.3959 21.2179L68.6878 21.7443L67.0417 22.663L68.1231 24.6059L69.7693 23.6871L70.0612 24.2135L66.3143 26.2999L66.0224 25.7735L67.6685 24.8547L66.5871 22.9119L64.9409 23.8307L64.649 23.3043L68.3959 21.2179Z" fill="var(--fill-0, #373737)"/>
<path id="Vector_25" d="M71.5637 27.6637C71.9849 28.8313 71.4154 30.0563 70.2526 30.4774C69.0658 30.9081 67.8121 30.3386 67.391 29.171C66.9699 28.0034 67.568 26.7592 68.7548 26.3333C69.9176 25.9122 71.1426 26.5008 71.5637 27.6637ZM67.9078 28.9844C68.2045 29.8075 69.1328 30.2238 70.042 29.8936C70.9225 29.573 71.3484 28.6733 71.0469 27.8503C70.7503 27.0272 69.8458 26.5965 68.9653 26.9172C68.0561 27.2473 67.6111 28.1613 67.9078 28.9844Z" fill="var(--fill-0, #373737)"/>
<path id="Vector_26" d="M73.0424 33.1476C73.2625 34.3678 72.4969 35.4828 71.2814 35.7029C70.0372 35.9278 68.8983 35.1622 68.6734 33.9419C68.4533 32.7217 69.2477 31.5972 70.4918 31.3675C71.7073 31.1473 72.8175 31.9273 73.0376 33.1476H73.0424ZM69.219 33.8414C69.3769 34.7028 70.2191 35.2675 71.1714 35.0904C72.0901 34.9229 72.6596 34.1046 72.5017 33.2433C72.3437 32.3819 71.5255 31.8077 70.6019 31.9752C69.6496 32.1475 69.061 32.9801 69.219 33.8414Z" fill="var(--fill-0, #373737)"/>
<path id="Vector_27" d="M73.4491 36.8083L73.4731 37.4113L69.7071 37.5692L69.7884 39.4881L69.2668 39.512L69.1615 36.9902L73.4491 36.8083Z" fill="var(--fill-0, #373737)"/>
</g>
<g id="Group_2">
<path id="Vector_28" d="M14.5759 56.1839L14.9205 56.6768L11.3985 59.1316L11.054 58.6387L14.5759 56.1839Z" fill="var(--fill-0, #373737)"/>
<path id="Vector_29" d="M15.5665 57.629L15.9541 58.0788L15.0975 61.3472C15.0258 61.6199 14.8631 62.0267 14.8631 62.0267L14.8726 62.0363C14.8726 62.0363 15.1358 61.7539 15.3129 61.596L17.4232 59.768L17.8156 60.2226L14.5712 63.0316L14.1835 62.5866L15.0353 59.3182C15.1119 59.0455 15.2746 58.6387 15.2746 58.6387L15.265 58.6291C15.265 58.6291 15.0018 58.9115 14.82 59.0694L12.7145 60.8926L12.3221 60.438L15.5665 57.629Z" fill="var(--fill-0, #373737)"/>
<path id="Vector_30" d="M21.3519 63.1943C22.1702 63.826 22.2419 64.5964 22.2419 64.5964L21.7299 64.7687C21.7299 64.7687 21.6199 64.0939 21.0361 63.6393C20.2752 63.0555 19.3373 63.2469 18.7774 63.9695C18.2175 64.6969 18.2462 65.7018 19.0023 66.2856C19.6435 66.7785 20.3948 66.6493 20.3948 66.6493L20.3853 67.1852C20.3853 67.1852 19.5048 67.3623 18.653 66.7067C17.6337 65.9219 17.5189 64.5868 18.2845 63.5915C19.0454 62.6057 20.3661 62.4239 21.3519 63.1847V63.1943Z" fill="var(--fill-0, #373737)"/>
<path id="Vector_31" d="M23.266 64.6682L23.7924 64.9601L22.8736 66.6014L24.8116 67.6877L25.7304 66.0463L26.2568 66.3382L24.1656 70.0803L23.6392 69.7884L24.558 68.1471L22.62 67.0608L21.7012 68.7022L21.1748 68.4103L23.266 64.6682Z" fill="var(--fill-0, #373737)"/>
<path id="Vector_32" d="M27.2665 66.788L28.4915 67.2618C28.9126 67.4245 29.0753 67.525 29.2045 67.6446C29.5538 67.9556 29.6639 68.4629 29.4581 68.9893C29.2619 69.5013 28.8121 69.8219 28.3192 69.7932V69.8028C28.3192 69.8028 28.3384 69.8698 28.3623 70.0325L28.6111 71.9131L27.9747 71.669L27.7498 69.7501L26.8932 69.4199L26.2759 71.0134L25.7161 70.7933L27.2665 66.7928V66.788ZM27.8838 69.2381C28.3192 69.4056 28.7021 69.2381 28.8743 68.7883C28.9892 68.4916 28.9557 68.238 28.7978 68.0466C28.7116 67.9461 28.5968 67.8647 28.281 67.7451L27.6349 67.4963L27.0799 68.9318L27.8838 69.2429V69.2381Z" fill="var(--fill-0, #373737)"/>
<path id="Vector_33" d="M30.9416 68.0992L31.5206 68.2619L30.3578 72.3916L29.7787 72.2289L30.9416 68.0992Z" fill="var(--fill-0, #373737)"/>
<path id="Vector_34" d="M32.0422 71.8461C32.0422 71.8461 32.4011 72.3868 33.0327 72.5064C33.4251 72.583 33.8032 72.4251 33.8797 72.0231C34.052 71.1091 31.9752 70.9177 32.2192 69.6209C32.3437 68.9653 33.0088 68.5538 33.8032 68.7021C34.5879 68.8505 34.9181 69.3529 34.9181 69.3529L34.5544 69.7932C34.5544 69.7932 34.2338 69.3529 33.6979 69.2525C33.2481 69.1663 32.8796 69.3864 32.8174 69.7214C32.6499 70.5923 34.7363 70.7502 34.4779 72.1188C34.3535 72.7696 33.7505 73.2099 32.9131 73.052C32.0183 72.8797 31.6211 72.2289 31.6211 72.2289L32.0422 71.8461Z" fill="var(--fill-0, #373737)"/>
<path id="Vector_35" d="M36.7844 69.7118L35.3201 69.6018L35.3584 69.0802L38.8899 69.3434L38.8516 69.865L37.3873 69.7549L37.105 73.5113L36.5068 73.4683L36.7892 69.7118H36.7844Z" fill="var(--fill-0, #373737)"/>
<path id="Vector_36" d="M39.4976 69.2237L40.0671 69.2142L39.6938 70.4057L39.2584 70.4153L39.4976 69.2237Z" fill="var(--fill-0, #373737)"/>
<path id="Vector_37" d="M41.1868 72.6069C41.1868 72.6069 41.6797 73.028 42.3162 72.9754C42.7133 72.9419 43.034 72.6883 43.0005 72.2815C42.9191 71.3532 40.8662 71.7312 40.7562 70.4201C40.6987 69.7549 41.2299 69.1807 42.0338 69.1089C42.8282 69.0419 43.2828 69.4343 43.2828 69.4343L43.0531 69.9559C43.0531 69.9559 42.6272 69.6209 42.0817 69.6688C41.6271 69.7071 41.3304 70.0181 41.3591 70.3578C41.4357 71.2431 43.4838 70.8268 43.6034 72.2145C43.6608 72.8749 43.1967 73.4635 42.3497 73.5353C41.4405 73.6118 40.8854 73.095 40.8854 73.095L41.1868 72.6117V72.6069Z" fill="var(--fill-0, #373737)"/>
<path id="Vector_38" d="M46.6133 71.87C46.6133 71.87 47.1684 72.205 47.7857 72.0471C48.1733 71.9466 48.4461 71.6451 48.3456 71.2527C48.1159 70.3531 46.1539 71.0613 45.8238 69.7836C45.6563 69.1376 46.087 68.482 46.8717 68.281C47.6422 68.0849 48.1542 68.4007 48.1542 68.4007L48.0106 68.951C48.0106 68.951 47.5369 68.6878 47.0057 68.8266C46.5655 68.9414 46.3214 69.2955 46.4076 69.6257C46.6277 70.4871 48.5801 69.7406 48.9246 71.09C49.0873 71.7312 48.7284 72.3868 47.9054 72.5974C47.0249 72.8223 46.3884 72.4012 46.3884 72.4012L46.6038 71.8748L46.6133 71.87Z" fill="var(--fill-0, #373737)"/>
<path id="Vector_39" d="M48.9485 67.7595L51.279 66.8742L51.4656 67.3623L49.6998 68.0322L50.1784 69.2859L51.6139 68.7404L51.8006 69.2285L50.365 69.774L50.8531 71.0661L52.7146 70.3579L52.9012 70.846L50.4751 71.7695L48.9485 67.7595Z" fill="var(--fill-0, #373737)"/>
<path id="Vector_40" d="M52.1451 66.4866L53.3079 65.8741C53.7051 65.6635 53.8869 65.6109 54.064 65.5869C54.5282 65.5295 54.9828 65.7783 55.246 66.276C55.4996 66.7593 55.4469 67.3096 55.1024 67.6637V67.6733C55.1024 67.6733 55.179 67.6972 55.313 67.7834L56.8969 68.8313L56.2939 69.1472L54.6957 68.0609L53.8822 68.4868L54.6765 69.999L54.1454 70.2813L52.1451 66.4866ZM54.4038 67.6255C54.8153 67.4053 54.9349 67.0082 54.7148 66.5823C54.5665 66.3047 54.3559 66.1612 54.1071 66.1564C53.9779 66.1564 53.8343 66.1899 53.5424 66.343L52.9299 66.6636L53.6477 68.0226L54.4085 67.6207L54.4038 67.6255Z" fill="var(--fill-0, #373737)"/>
<path id="Vector_41" d="M55.0689 64.9409L55.6001 64.5677L58.2176 66.4387C58.4138 66.5823 58.6914 66.8263 58.6914 66.8263H58.7009C58.7009 66.8263 58.5622 66.477 58.4952 66.2425L57.629 63.1417L58.1506 62.7732L59.3278 67.1948L58.8349 67.5393L55.0689 64.9409Z" fill="var(--fill-0, #373737)"/>
<path id="Vector_42" d="M58.6052 62.3282L59.0646 61.9358L61.8496 65.1993L61.3902 65.5917L58.6052 62.3282Z" fill="var(--fill-0, #373737)"/>
<path id="Vector_43" d="M61.1941 59.7728C61.9071 59.0263 62.6823 59.0359 62.6823 59.0359L62.8019 59.5623C62.8019 59.5623 62.1176 59.6006 61.6056 60.1365C60.9404 60.8304 61.0361 61.7874 61.6965 62.4191C62.3617 63.0507 63.3618 63.1273 64.0221 62.4382C64.582 61.8544 64.5342 61.0936 64.5342 61.0936L65.0701 61.1606C65.0701 61.1606 65.1563 62.0554 64.4098 62.8354C63.5197 63.7685 62.1798 63.7398 61.2706 62.8737C60.371 62.0123 60.3327 60.682 61.1893 59.7824L61.1941 59.7728Z" fill="var(--fill-0, #373737)"/>
<path id="Vector_44" d="M62.8737 57.9879L64.3476 55.9829L64.7687 56.2939L63.6489 57.8157L64.7304 58.61L65.6396 57.3706L66.0607 57.6817L65.1515 58.9211L66.2617 59.7393L67.4436 58.1363L67.8647 58.4473L66.3287 60.5385L62.8737 57.9975V57.9879Z" fill="var(--fill-0, #373737)"/>
</g>
<path id="Vector_45" d="M39.3541 76.6792C18.7726 76.6792 2.02896 59.9355 2.02896 39.3541C2.02896 18.7726 18.7726 2.02896 39.3541 2.02896C59.9355 2.02896 76.6792 18.7726 76.6792 39.3541C76.6792 59.9355 59.9355 76.6792 39.3541 76.6792ZM39.3541 2.50748C19.0358 2.50748 2.50748 19.0358 2.50748 39.3541C2.50748 59.6723 19.0358 76.2007 39.3541 76.2007C59.6723 76.2007 76.2007 59.6723 76.2007 39.3541C76.2007 19.0358 59.6723 2.50748 39.3541 2.50748Z" fill="var(--fill-0, #373737)"/>
<path id="Vector_46" d="M38.9425 48.2308L30.2429 47.3742V45.2639H38.9425V48.2308Z" fill="var(--fill-0, #373737)"/>
<path id="Vector_47" d="M48.3121 47.3742L39.6125 48.2738V45.3022H48.3121V47.3742Z" fill="var(--fill-0, #373737)"/>
<path id="Vector_48" d="M38.0716 38.0956L36.7126 66.0463C37.6649 66.1516 38.6315 66.2042 39.6077 66.2042C40.3446 66.2042 41.0768 66.166 41.7994 66.1085L40.4355 38.0956H38.0716Z" fill="var(--fill-0, #373737)"/>
</g>
</svg>
