<svg preserveAspectRatio="none" width="100%" height="100%" overflow="visible" style="display: block;" viewBox="0 0 56.0754 26.6828" fill="none" xmlns="http://www.w3.org/2000/svg">
<g id="Group 1">
<path id="Vector" d="M0.543033 0.00247052H1.26125V7.31548H0.543033V0.00247052Z" fill="var(--fill-0, white)"/>
<path id="Vector_2" d="M3.58117 0.00246817H4.29939V6.66884H7.69058V7.31301H3.58117V0V0.00246817Z" fill="var(--fill-0, white)"/>
<path id="Vector_3" d="M9.1766 0.00246817H9.89482V6.66884H13.286V7.31301H9.1766V0V0.00246817Z" fill="var(--fill-0, white)"/>
<path id="Vector_4" d="M18.3826 4.98559H15.4382L14.6064 7.31548H13.8462L16.5291 0.00247052H17.2991L19.982 7.31548H19.2218L18.3802 4.98559H18.3826ZM16.9042 0.762649C16.9042 0.762649 16.7487 1.36487 16.6229 1.70794L15.6455 4.36115H18.163L17.2053 1.70794C17.0819 1.36487 16.924 0.762649 16.924 0.762649H16.9042Z" fill="var(--fill-0, white)"/>
<path id="Vector_5" d="M24.8934 1.07363C24.8934 1.07363 24.7799 1.69806 24.654 2.167L23.2595 7.31548H22.3957L20.5027 0.00247052H21.2505L22.6647 5.68159C22.7585 6.05675 22.8301 6.46152 22.8301 6.46152H22.8498C22.8498 6.46152 22.9115 6.05675 23.0152 5.68159L24.5553 0.00247052H25.2414L26.7815 5.68159C26.8852 6.05675 26.937 6.46152 26.9469 6.46152H26.9667C26.9667 6.46152 27.0382 6.05675 27.132 5.68159L28.5981 0.00247052H29.3459L27.401 7.31548H26.5372L25.1427 2.167C25.0193 1.69806 24.9033 1.07363 24.9033 1.07363H24.8836H24.8934Z" fill="var(--fill-0, white)"/>
<path id="Vector_6" d="M34.3906 4.98559H31.4462L30.6144 7.31548H29.8543L32.5371 0.00247052H33.3072L35.99 7.31548H35.2298L34.3882 4.98559H34.3906ZM32.9123 0.762649C32.9123 0.762649 32.7568 1.36487 32.6309 1.70794L31.6535 4.36115H34.171L33.2134 1.70794C33.0875 1.36487 32.932 0.762649 32.932 0.762649H32.9123Z" fill="var(--fill-0, white)"/>
<path id="Vector_7" d="M37.3844 0.00247052H39.5489C40.2968 0.00247052 40.63 0.0740456 40.9212 0.199919C41.6073 0.501029 42.0245 1.1995 42.0245 2.08309C42.0245 3.07033 41.4617 3.83051 40.6398 4.06004V4.07979C40.6398 4.07979 40.7114 4.17358 40.8274 4.37103L42.4194 7.31548H41.5975L39.9438 4.23775H38.1026V7.31548H37.3844V0.00247052ZM39.8402 3.5911C40.7238 3.5911 41.2865 3.0185 41.2865 2.10283C41.2865 1.50061 41.0471 1.05142 40.6201 0.824352C40.4029 0.710819 40.1413 0.646648 39.581 0.646648H38.1051V3.5911H39.8426H39.8402Z" fill="var(--fill-0, white)"/>
<path id="Vector_8" d="M44.125 0.00247052H46.2895C47.0373 0.00247052 47.3705 0.0740456 47.6618 0.199919C48.3479 0.501029 48.765 1.1995 48.765 2.08309C48.765 3.07033 48.2023 3.83051 47.3804 4.06004V4.07979C47.3804 4.07979 47.452 4.17358 47.568 4.37103L49.1599 7.31548H48.338L46.6844 4.23775H44.8432V7.31548H44.125V0.00247052ZM46.5807 3.5911C47.4643 3.5911 48.027 3.0185 48.027 2.10283C48.027 1.50061 47.7876 1.05142 47.3607 0.824352C47.1435 0.710819 46.8818 0.646648 46.3216 0.646648H44.8456V3.5911H46.5832H46.5807Z" fill="var(--fill-0, white)"/>
<path id="Vector_9" d="M54.4761 4.98559H51.5317L50.6999 7.31548H49.9397L52.6226 0.00247052H53.3926L56.0754 7.31548H55.3153L54.4736 4.98559H54.4761ZM52.9977 0.762649C52.9977 0.762649 52.8422 1.36487 52.7163 1.70794L51.739 4.36115H54.2564L53.2988 1.70794C53.1754 1.36487 53.0175 0.762649 53.0175 0.762649H52.9977Z" fill="var(--fill-0, white)"/>
<path id="Vector_10" d="M3.72678 9.49975C5.4742 9.49975 6.35778 10.445 6.35778 10.445L5.97276 10.9757C5.97276 10.9757 5.11879 10.1637 3.74652 10.1637C2.03119 10.1637 0.802068 11.494 0.802068 13.2217C0.802068 14.9493 2.02872 16.3932 3.76627 16.3932C5.2422 16.3932 6.13812 15.4158 6.13812 15.4158L6.55523 15.9267C6.55523 15.9267 5.55565 17.0596 3.7564 17.0596C1.59186 17.0596 0.054231 15.364 0.054231 13.2315C0.054231 11.0991 1.63629 9.49729 3.72678 9.49729V9.49975Z" fill="var(--fill-0, white)"/>
<path id="Vector_11" d="M8.31252 9.62563H9.03074V12.9551H13.2734V9.62563H13.9916V16.9386H13.2734V13.5993H9.03074V16.9386H8.31252V9.62563Z" fill="var(--fill-0, white)"/>
<path id="Vector_12" d="M16.3216 9.62563H18.4861C19.234 9.62563 19.5672 9.69967 19.8584 9.82308C20.5445 10.1242 20.9616 10.8227 20.9616 11.7062C20.9616 12.6935 20.3989 13.4537 19.577 13.6832V13.703C19.577 13.703 19.6486 13.7967 19.7646 13.9942L21.3565 16.9386H20.5347L18.881 13.8609H17.0398V16.9386H16.3216V9.62563ZM18.7774 13.2143C19.6609 13.2143 20.2237 12.6417 20.2237 11.726C20.2237 11.1238 19.9843 10.6746 19.5573 10.4475C19.3401 10.334 19.0785 10.2698 18.5182 10.2698H17.0423V13.2143H18.7798H18.7774Z" fill="var(--fill-0, white)"/>
<path id="Vector_13" d="M23.0619 9.62563H23.7801V16.9386H23.0619V9.62563Z" fill="var(--fill-0, white)"/>
<path id="Vector_14" d="M25.9867 15.5738C25.9867 15.5738 26.7469 16.3734 27.8995 16.3734C28.7016 16.3734 29.3557 15.8946 29.3557 15.1048C29.3557 13.2636 25.7053 13.7326 25.7053 11.4644C25.7053 10.413 26.6309 9.49729 27.9834 9.49729C29.252 9.49729 29.9381 10.2056 29.9381 10.2056L29.5852 10.8079C29.5852 10.8079 28.941 10.1834 27.9834 10.1834C27.0258 10.1834 26.4433 10.798 26.4433 11.4422C26.4433 13.1797 30.0936 12.6812 30.0936 15.0826C30.0936 16.176 29.252 17.0596 27.8773 17.0596C26.3791 17.0596 25.5572 16.1242 25.5572 16.1242L25.9842 15.5738H25.9867Z" fill="var(--fill-0, white)"/>
<path id="Vector_15" d="M33.5489 10.2698H30.9179V9.62563H36.8883V10.2698H34.2671V16.9362H33.5489V10.2698Z" fill="var(--fill-0, white)"/>
<path id="Vector_16" d="M38.2285 9.62563H38.9467V16.9386H38.2285V9.62563Z" fill="var(--fill-0, white)"/>
<path id="Vector_17" d="M44.8751 14.6063H41.9306L41.0988 16.9362H40.3387L43.0215 9.62316H43.7916L46.4744 16.9362H45.7142L44.8726 14.6063H44.8751ZM43.3967 10.3833C43.3967 10.3833 43.2412 10.9856 43.1153 11.3286L42.1379 13.9818H44.6554L43.6978 11.3286C43.5719 10.9856 43.4164 10.3833 43.4164 10.3833H43.3967Z" fill="var(--fill-0, white)"/>
<path id="Vector_18" d="M47.8814 9.62563H48.5774L52.3116 14.8876C52.5609 15.2505 52.9138 15.8749 52.9138 15.8749H52.9336C52.9336 15.8749 52.8719 15.2727 52.8719 14.8876V9.62563H53.5901V16.9386H52.8941L49.1598 11.6766C48.9106 11.3114 48.5576 10.6894 48.5576 10.6894H48.5379C48.5379 10.6894 48.5996 11.2916 48.5996 11.6766V16.9386H47.8814V9.62563Z" fill="var(--fill-0, white)"/>
<path id="Vector_19" d="M0.429453 25.1945C0.429453 25.1945 1.18963 25.9966 2.34224 25.9966C3.14437 25.9966 3.79842 25.5178 3.79842 24.728C3.79842 22.8868 0.148088 23.3557 0.148088 21.0875C0.148088 20.0361 1.07363 19.1205 2.42615 19.1205C3.69476 19.1205 4.3809 19.8288 4.3809 19.8288L4.02796 20.431C4.02796 20.431 3.38378 19.8066 2.42615 19.8066C1.46853 19.8066 0.886051 20.4212 0.886051 21.0653C0.886051 22.8029 4.53639 22.3019 4.53639 24.7058C4.53639 25.7967 3.69476 26.6828 2.32002 26.6828C0.821879 26.6828 0 25.7473 0 25.7473L0.426982 25.197L0.429453 25.1945Z" fill="var(--fill-0, white)"/>
<path id="Vector_20" d="M9.52949 19.1205C11.2769 19.1205 12.1605 20.0657 12.1605 20.0657L11.7755 20.5964C11.7755 20.5964 10.9215 19.7844 9.54924 19.7844C7.8339 19.7844 6.60478 21.1147 6.60478 22.8424C6.60478 24.57 7.83143 26.0139 9.56898 26.0139C11.0449 26.0139 11.9408 25.0365 11.9408 25.0365L12.358 25.545C12.358 25.545 11.3584 26.6778 9.55911 26.6778C7.39458 26.6778 5.85694 24.9822 5.85694 22.8498C5.85694 20.7173 7.439 19.1155 9.52949 19.1155V19.1205Z" fill="var(--fill-0, white)"/>
<path id="Vector_21" d="M14.1275 19.2463H14.8457V22.5758H19.0884V19.2463H19.8066V26.5593H19.0884V23.22H14.8457V26.5593H14.1275V19.2463Z" fill="var(--fill-0, white)"/>
<path id="Vector_22" d="M25.3524 19.1205C27.4232 19.1205 29.0768 20.7544 29.0768 22.8547C29.0768 24.9551 27.4232 26.6828 25.3524 26.6828C23.2817 26.6828 21.628 24.997 21.628 22.8547C21.628 20.7124 23.2817 19.1205 25.3524 19.1205ZM25.3524 26.0164C26.9962 26.0164 28.3265 24.6441 28.3265 22.8547C28.3265 21.0653 26.9962 19.7869 25.3524 19.7869C23.7086 19.7869 22.3783 21.1073 22.3783 22.8547C22.3783 24.6021 23.6988 26.0164 25.3524 26.0164Z" fill="var(--fill-0, white)"/>
<path id="Vector_23" d="M34.1291 19.1205C36.1999 19.1205 37.8535 20.7544 37.8535 22.8547C37.8535 24.9551 36.1999 26.6828 34.1291 26.6828C32.0584 26.6828 30.4048 24.997 30.4048 22.8547C30.4048 20.7124 32.0584 19.1205 34.1291 19.1205ZM34.1291 26.0164C35.7729 26.0164 37.1032 24.6441 37.1032 22.8547C37.1032 21.0653 35.7729 19.7869 34.1291 19.7869C32.4854 19.7869 31.1551 21.1073 31.1551 22.8547C31.1551 24.6021 32.4755 26.0164 34.1291 26.0164Z" fill="var(--fill-0, white)"/>
<path id="Vector_24" d="M39.6848 19.2463H40.403V25.9127H43.7942V26.5569H39.6848V19.2439V19.2463Z" fill="var(--fill-0, white)"/>
</g>
</svg>
